<?xml version="1.0" encoding="utf-8"?>
<!-- Generator: Adobe Illustrator 22.1.0, SVG Export Plug-In . SVG Version: 6.00 Build 0)  -->
<svg version="1.1" id="Layer_1" xmlns="http://www.w3.org/2000/svg" xmlns:xlink="http://www.w3.org/1999/xlink" x="0px" y="0px"
	 viewBox="0 0 2000 1668" style="enable-background:new 0 0 2000 1668;" xml:space="preserve">
<style type="text/css">
	.st0{fill:#50C1E8;}
	.st1{fill:#51C2E8;}
	.st2{fill:#00ABFF;}
	.st3{fill:#80D8FF;}
	.st4{fill:#3086CA;}
	.st5{fill:#FDFBE9;}
	.st6{fill:#83D9FF;}
	.st7{fill:#3087CA;}
	.st8{fill:#348CCD;}
	.st9{fill:#2F86CA;}
	.st10{fill:#55C3E9;}
	.st11{fill:#54C3E9;}
	.st12{fill:#59C4E8;}
	.st13{fill:#52C2E8;}
	.st14{fill:#53C2E8;}
	.st15{fill:#4FBFE7;}
	.st16{fill:#FCFBE9;}
	.st17{fill:#FBFAE9;}
	.st18{fill:#FFFCE9;}
	.st19{fill:#F7F9E9;}
	.st20{fill:#E2F1E9;}
	.st21{fill:#56C3E8;}
	.st22{fill:#FAFDFE;}
	.st23{fill:#2C86CA;}
</style>
<path class="st0" d="M1328.5,550.9c-0.6,10.9-0.9,21.8-2,32.6c-1,10.9-2.9,21.6-4,32.5c-1.7,16.7-5.6,32.9-10.9,48.8
	c-3.7,11-10.8,19.9-17.7,28.9c-6.8,8.8-16.8,13-26.6,17.3c-9,4-17.9,8.2-27.2,11.4c-11.4,3.9-23,7.2-34.7,10
	c-7.4,1.7-15.1,1.9-22.7,2.7c-8.4,0.9-16.9,1.7-25.3,2.5c-1.5,0.1-3.1,0-4.6,0c-52.6,0-105.2,0-157.8,0c-11.2,0-22.4,0-34.3,0
	c-0.3,1.9-0.7,4.5-1.2,7.8c4.7-0.4,8.8-1.1,12.9-1c13.1,0.1,26.1,0.3,39.2,0.8c13.2,0.6,26.5,1.2,39.6,2.6
	c8.9,0.9,17.6,3.2,26.4,4.9c12.1,2.3,24.3,4.4,36.4,6.7c9.5,1.8,19,3.5,28.3,5.9c13.6,3.6,27.3,7.1,40.3,12.2
	c11.5,4.5,22.1,11.2,33.1,17c3,1.6,6,3.2,9.3,5c4.2-6,9.7-10.6,16.5-13.4c10.7-4.4,21.4-8.3,33.1-9.4c10.9-1.1,21.2-0.3,31.6,2.9
	c1.1,0.3,3-0.2,3.8-1c4.5-4.8,8.9-9.7,13.2-14.7c6-7.2,11.8-14.7,17.8-21.9c12-14.5,23.1-29.4,31.9-46.2c5-9.5,11.6-18.1,17.2-27.2
	c5.8-9.4,11.3-19.1,16.9-28.6c6.7-11.3,13.5-22.6,19.8-34.1c4.4-7.9,8.4-16.1,12-24.4c6.4-14.6,12.3-29.4,18.6-44
	c3.7-8.6,7.7-17,11.3-25.6c0.6-1.5,0.1-3.9-0.8-5.3c-4.8-7.5-7.7-15.4-7.3-24.5c0.3-7,0.1-14.1,0.1-21.5
	c-11.5-4.1-20.6-12.8-27.4-23.5c-6-9.5-7.1-25.5,0.6-35.5c6-7.7,14.5-10.8,24-11.7c17.9-1.7,28.5,8.4,36.4,22.7
	c0.6,1,1.4,1.8,2.4,3.1c1.8-10,2.8-19.4,5.2-28.4c3.1-12.1,7.8-23.6,17-32.6c8.3-8.1,25.4-9.1,33.6-3c6.2,4.7,8.6,11.4,10,19.6
	c9.3-10,20.3-15.3,33.3-10c13.9,5.7,14.4,18.6,14,31.7c6.3-4.3,12.9-7.4,20.4-7.3c11.5,0.2,18.2,7.2,20.7,18.7
	c4.1,19.4-2.8,36.1-11.4,52.7c-4.9,9.5-10.6,18.3-17.4,26.4c-2.6,3.1-5.7,6.5-9.3,8.1c-4,1.8-5,5-6.3,8.3c-2.8,7.3-6.6,14-12.5,19.1
	c-7.5,6.7-15.6,12.7-25.5,15.6c-4.6,1.3-3.8,5.5-4.6,8.4c-3.6,13.6-6.9,27.3-9.8,41.1c-3.7,18-10.7,34.7-18.1,51.4
	c-6.1,13.7-11,27.9-17.7,41.4c-5.5,11-12.6,21.2-19.2,31.6c-6.6,10.3-13.6,20.3-20.3,30.5c-9.7,14.6-19.3,29.3-28.9,44
	c-7.5,11.4-14.6,22.9-22.4,34c-6.3,9-13.3,17.5-20.2,26.1c-8.3,10.3-16,21.2-25.6,30.1c-6.7,6.2-6.8,13.5-7.8,20.7
	c-1.6,11.7-6.4,22.2-11.5,32.4c-9,18-22.7,31.7-40.9,40.2c-8.9,4.2-18.6,6.7-28.7,7c-5,0.2-10,0.4-14.9,0.9c-1.1,0.1-2.7,1.4-3,2.5
	c-5.6,20.8-17.4,38.3-30.5,54.9c-5.9,7.4-12.3,14.6-19.4,20.9c-12.6,11.2-25,22.9-39,32.1c-16.4,10.8-34.1,19.5-51.6,28.4
	c-13,6.6-26.7,12.1-40.1,17.9c-3.8,1.7-7.9,2.6-11.9,4.1c-1.1,0.4-2.5,1.5-2.6,2.4c-1,10.7-1.4,21.4-2.8,32
	c-0.8,5.7,3.4,7.7,6.1,10.5c6.6,6.7,14.5,12.3,20.9,19.2c6.2,6.8,11.6,14.5,16.8,22.1c9,13.2,18.2,26.3,26.2,40.1
	c9.6,16.5,18.5,33.5,23.4,52.2c2.9,10.9,7.4,21.4,10.1,32.3c3.9,16,5.2,32.3,0.5,48.4c-2.2,7.7-7.1,13.7-14.3,17.5
	c-15,7.8-31,12.6-47.3,16.2c-13.9,3-27.9,5.3-42.3,5.2c-12.1-0.1-24.2,1.1-36.2,0.6c-10.7-0.5-21.4-2.2-32-4.2
	c-14.2-2.8-28.2-6.3-42.2-9.8c-15.5-3.9-28.3-11.9-35.8-26.6c-1.8-3.5-2.4-7.8-2.6-11.7c-0.7-14.3,1.4-28.5,4-42.5
	c2.3-12.4,4-24.9,6.9-37.2c4.5-18.9,9.3-37.8,15.2-56.4c3.2-10.2,8.8-19.5,13.2-29.3c0.9-2,1.4-4.4,1.6-6.6
	c1.4-14.4,2.7-28.7,4-43.2c-38,7.3-77.1,11.2-117.1,12.2c-8.4-0.2-16.1-0.1-23.8-0.1c-4.9-0.5-9.8-0.8-14.6-1.4c-8-0.9-16-1.8-24-3
	c-9.3-1.4-18.6-3-27.9-4.6c-4.4-0.7-8.8-1.4-13.1-2.1c-0.4,6.8,0.2,13.8-1.5,20.3c-2.3,9.1,3.8,13.8,7.6,20.3
	c6.6,11,12.1,22.7,17.9,34.2c7.4,14.5,10.5,30.5,13.9,46.2c3.4,15.3,3,31.1,2.7,46.7c-0.1,5.7-0.4,11.3-0.8,17
	c-0.9,12.1-3.8,23.7-8.3,34.8c-3.1,7.6-6.1,15.4-10.5,22.3c-3.1,4.9-7.9,9.2-12.8,12.3c-11.4,7.2-24.6,9.7-37.6,12.8
	c-19.6,4.7-39.4,4.7-59.3,3.9c-14.6-0.5-29.2-1.6-43.6-4.7c-17.5-3.7-34.5-8.6-50.8-16.1c-10.8-5-16.4-13.9-18.2-25.3
	c-3.1-20,0.3-39.4,6.8-58.4c4.1-12,7.6-24.3,12.5-36c4.5-10.9,10.1-21.4,16-31.6c7.2-12.2,15.2-24,23.1-35.9
	c9.5-14.2,19.7-27.7,32.5-39.2c3.7-3.3,7.3-6.8,11.4-9.5c4.3-2.9,4.3-7,4.8-11.2c1.2-10,2.5-20,3.9-30.8
	c-29.4-12-57.1-28.2-82.6-48.2c-25.7-20.2-47.4-44-67.2-71.2c-0.7,2.3-1.4,3.6-1.4,4.9c-0.4,12.8-0.6,25.6-0.9,38.3
	c-0.3,13.8-0.5,27.5-0.9,41.3c-0.2,9.2-0.5,18.3-0.8,27.5c-0.3,10-0.6,20-0.8,30c-0.3,11.1-0.6,22.2-0.8,33.3
	c-0.3,14.3-0.5,28.6-0.9,42.9c-0.1,2.5-1.8,5.1-1.5,7.6c0.7,5.4,2.3,10.7,3.2,16.1c0.6,3.9-0.2,8.3,1.3,11.7
	c1.5,3.2,5.2,5.4,7.9,8.1c9.4,9.5,12.8,21.8,16.2,34.1c2.5,8.8,1.8,17.7-1.7,26.1c-1.8,4.3-3.8,8.8-6.7,12.3
	c-6,7.2-14.5,7.6-22.9,6.4c-3.9-0.6-7.6-2.2-11.8-3.4c0.3,1.8,0.8,3.6,0.8,5.4c0.1,9.1,0.5,18.2-0.1,27.3
	c-0.6,9.8-10.1,16.4-19.4,14.4c-5.5-1.2-10.8-2.4-15.3-5.9c-1.2-0.9-2.2-1.9-3.7-3.2c-2.6,11.3-9,18.7-21.9,17.9
	c-11.1-0.7-17.2-7-19.8-17.5c-0.5-0.3-1.1-0.7-1.6-1c-0.9,1.5-1.4,3.5-2.7,4.5c-6.6,4.9-22.2,5-28.4-2.3c-3.5-4.1-6.4-9.1-8.5-14.1
	c-4-9.7-4.2-19.9-2.7-30.3c1.2-8.3,1.1-16.8,2.8-25c1.6-7.7,4.7-15.1,7.1-22.6c0.8-2.7,1.7-5.4,1.9-8.2c0.7-9.8,0.8-19.6,1.9-29.3
	c1.2-11.1,7.7-19.9,14-28.8c1-1.4,1.8-3.4,1.8-5.2c-0.1-9.2-0.7-18.3-0.7-27.5c0.1-16.7,0.3-33.4,0.8-50.1
	c0.5-14.7,1.6-29.5,2.4-44.2c0.5-8.5,1.1-17,1.7-25.5c1.1-16,2.2-31.9,3.4-47.9c0.7-9.6,1.5-19.2,2.5-28.8
	c1.5-14.4,2.5-28.9,5.1-43.1c3.7-20.5,8.7-40.8,13.1-61.2c0.2-0.9,0.1-1.9,0.1-2.9c0-6.8,0.4-13.7,0-20.5
	c-0.7-11.3,1.4-22.2,5.2-32.6c3.7-9.9,7.9-19.8,13.4-28.8c9.5-15.6,23.7-26.4,38.9-36.1c12.1-7.7,25.5-12.2,39.3-13.8
	c11.8-1.4,24-1.4,35.9,1.4c8.1,1.9,16,4.1,21.8,10.6c0.5,0.6,2.8,0.3,3.8-0.3c14.1-8.7,29.7-14,45.1-19.4c9.4-3.3,19.4-4.9,29.3-6.8
	c9.1-1.8,18.3-2.8,27.5-4.3c18.3-3,36.6-4,55.1-4.4c13.1-0.3,26.2-2.7,39.3-3.9c4.4-0.4,8.9,0,13.4-0.1c14-0.2,28.1-0.6,42.1-0.8
	c9.7-0.1,19.4,0,29.5,0c0.4-2.8,1-6.2,1.6-10c-6.7-0.3-13.4-0.6-20.1-1c-14.5-0.8-29-1.5-43.4-2.5c-13.3-0.9-26.6-1.8-39.9-3.4
	c-11.7-1.4-23.4-3.8-35-5.6c-5-0.8-10.1-1.4-15.2-1.8c-6.3-0.5-12.7-0.7-19-0.9c-10-0.3-20.1,0.5-29.9-1.1
	c-10.3-1.7-20.5-5.1-30.3-8.8c-11.1-4.2-22.1-9-32.7-14.4c-6-3.1-11.6-7.4-16.6-12c-7.5-6.7-14.8-13.6-21.3-21.3
	c-6-7-7.7-16.3-9.4-25.2c-2.3-12.3-4-24.8-6-37.2c-0.1-0.6-0.5-1.2-0.5-2.4c0.4-1.2,0.5-1.7,0.5-2.3c0-25.4,0-50.8,0-76.2
	c0-1-0.5-2.1-0.7-3.1c0.3-1.4,0.6-2.9,0.8-4.3c1.4-15.3,2.5-30.6,4.3-45.9c1.4-12.1,3.2-24.3,5.9-36.2c3.4-14.7,9.6-28.2,19.2-40.1
	c7.2-9,14.8-17.4,24.6-23.5c3-1.8,6.4-3,9.5-4.6c13.8-7,28.7-10.4,43.8-13.1c5.9-1.1,12-1.2,18-1.7c12-1.1,24.1-2.3,36.1-3.3
	c5.5-0.5,11-0.7,16.5-0.9c6.9-0.3,13.8-0.6,20.8-0.8c14.1-0.6,28.2-1.2,42.3-1.7c18.8-0.6,37.5-1.2,56.3-1.7c9.1-0.2,18.2,0,27.8,0
	c0-11-0.4-20.8,0.1-30.7c1.3-28.4,8.3-54.8,26.4-77.6c8.2-10.3,19.1-16,30.4-21.6c15.5-7.6,32.1-8.6,48.5-5.5
	c12.4,2.3,24.7,7.5,32.2,18.4c5.2,7.6,9.1,16.4,12.1,25.1c2.6,7.8,3.4,16.2,4.4,24.4c1.2,9.4,1.7,18.9,2.3,29
	c-0.3,7.4-0.5,14.2-0.5,20.9c0,3.3,0.4,6.5,0.6,9.8c0.1,1.6,0.3,2.8,2.5,2.7c14.3-0.7,28.5-1.2,42.8-1.7c0.4,0,0.8,0,1.3,0
	c14.3-0.3,28.6-0.6,43-0.8c21.6-0.3,43.2-0.5,64.7-0.9c12.8-0.2,25.6-1,38.3-0.7c15.2,0.3,30,3.1,44.1,9.1
	c10.3,4.4,19.7,10.3,27.7,17.9c10.5,10,16.9,22.6,20.5,36.8c3.1,12.5,6.8,24.9,9.5,37.5c2.1,9.8,3.7,19.9,4.6,29.9
	c0.9,10.8,0.7,21.6,1,32.4c0,1.2,0.5,2.4,0.5,4.2C1328.5,513.6,1328.5,532.3,1328.5,550.9 M916.4,1161.4c8.4-1.1,16.9-1.7,25.3-3.3
	c19.4-3.8,38.9-7.4,58-12.4c20.2-5.2,40.1-11.9,60.1-17.9c9.7-3,19.8-5.1,29.1-9.2c22.3-9.8,44.4-20.3,66.3-31
	c9-4.4,17.7-9.6,25.8-15.5c18.8-13.5,36.3-28.7,51-46.8c10.8-13.3,20.9-27.3,26.6-43.8c8.1-23.6,15.8-47.3,17.2-72.6
	c0.7-12,1.4-23.9-1.9-35.7c-4.3-15.3-11.9-28.7-24-38.9c-13.1-11.1-27.2-20.7-42.2-29.3c-16.4-9.5-33.4-17.5-51.7-22.3
	c-14.9-4-30.1-7-45.3-10.1c-16.9-3.5-33.8-7.2-50.9-9.8c-12.8-1.9-25.8-2.1-38.7-3.4c-20.4-2-40.8-3.1-61.3-1.4
	c-1.4,0.1-3.7,1.5-3.9,2.6c-1.2,5.2-4.9,6.9-9.5,7.3c-7.8,0.7-15.5,1.3-23.3,1.9c-16.7,1.4-33.4,1.1-49.9-2.6
	c-6.9-1.5-7.9-2.8-8.1-9.9c-0.1-2.8-1.2-3.7-3.8-3.6c-4,0.3-8.1,0.7-12.1,0.7c-19.8,0.4-39.6,0.7-59.4,1c-1.8,0-3.6,0.1-5.4,0.3
	c-12.6,1.3-25.2,3.4-37.8,3.6c-20.8,0.5-41.4,2.5-62,5c-26.4,3.2-52.1,8.5-76.2,19.6c-11.7,5.4-22.8,12.2-33.9,18.9
	c-22,13.1-40,30.7-53,52.5c-18.1,30.5-24.6,64.3-20.3,99.5c3.2,26.4,14.6,49.9,31.4,70.6c14.3,17.7,29.4,34.7,47.3,48.9
	c9.9,7.9,19.9,15.9,30.4,22.9c18.2,12.2,37.9,21.7,58,30.6c30.6,13.5,62.5,22.2,95.3,27.8c21,3.6,42.1,6.5,63.3,8.9
	c11,1.3,22.3,1.4,33.4,0.9C878.7,1164.5,897.2,1162.8,916.4,1161.4 M589.7,669.4c5.3,3.9,10.1,8.6,15.9,11.5
	c11.4,5.7,23.4,10.5,35.1,15.6c12.8,5.5,26.1,7.4,40,7.1c10.7-0.2,21.5,0.5,32.1,1.7c22.4,2.5,44.7,5.9,67.1,8.2
	c20.8,2.1,41.6,3.5,62.4,4.8c14.7,0.9,29.5,1.1,44.3,1.8c19.6,0.8,39.2,1.9,58.9,2.5c25.9,0.8,51.8,1.7,77.8,1.6
	c55.1-0.1,110.2,1.7,165.2-2.5c5.3-0.4,10.6-0.9,15.7-2.3c18-5.3,36.5-9.6,53.2-18.7c7.8-4.3,16.8-7.3,23.1-13.2
	c10.2-9.7,17.6-21.8,21.2-35.9c4.7-18,7.6-36.3,9.2-54.7c1.4-16.5,3.5-33,4-49.5c0.7-25.9,0.3-51.9,0.1-77.9
	c0-5.8-0.2-11.8-1.4-17.5c-4.4-20.4-9-40.8-14-61.1c-3.1-12.7-10-23.4-20.4-31.4c-17.3-13.1-36.9-19.8-58.8-19.6
	c-31.1,0.4-62.2,0.4-93.3,0.9c-17.8,0.3-35.7,1.1-53.5,1.6c-20.9,0.6-41.8,1.1-62.7,1.7c-19.1,0.5-38.2,1.1-57.2,1.6
	c-21.3,0.6-42.6,1.2-63.9,1.7c-12.8,0.3-25.6,0.5-38.5,0.8c-26.3,0.6-52.7,1.1-79,1.7c-7.1,0.2-14.2,0.5-21.3,0.9
	c-21.3,1.3-42.5,2.6-63.7,4.1c-13.6,1-27.2,1.8-40.8,3.5c-8.6,1.1-17.6,2.5-25.5,5.9c-20.3,8.5-32.9,25.4-43.5,43.7
	c-7.4,12.9-9.5,27.5-11.7,42c-3.6,23.3-5.7,46.7-6.1,70.3c-0.4,21.6-0.4,43.3,0,64.9c0.2,9.8,0.7,19.9,2.7,29.5
	C570.5,656.4,568.2,647.6,589.7,669.4 M948.3,1315.4c-2.6,17.9-5.3,35.8-7.6,53.8c-0.6,5-0.7,10.5,0.5,15.4
	c2.6,10.2,10.3,16.9,19.8,19.9c14.8,4.7,30,8.6,45.3,11.6c13.9,2.8,28,4.8,42.1,5.6c11.5,0.7,23.1-1,34.6-1.3
	c25.9-0.7,50.4-7.1,74-17.5c6-2.6,10.1-7,12.2-13.5c3-9.2,2.6-18.6,0.9-27.7c-2-10.9-4.9-21.7-8.3-32.3
	c-3.9-12.3-7.9-24.8-13.5-36.4c-15.5-31.8-34.6-61.4-57.3-88.7c-7.8-9.4-17.1-17.1-28.3-22.4c-10.7-5-22-6.6-33-3.8
	c-15.9,4.2-29.3,13-39.6,26.4c-12.6,16.5-21.1,35.1-27.5,54.7c-2.1,6.3-3.2,13-4.9,19.5C954.8,1290.8,951.6,1302.7,948.3,1315.4
	 M586.1,1294.9c-4.9,13-10.1,26-14.6,39.1c-3,8.8-5.5,17.8-7.3,27c-2.1,10.8-3.2,21.7,0.2,32.6c1.9,6.2,5.8,10.9,11.4,13.1
	c12.1,4.7,24.3,8.9,36.8,12.5c19.3,5.6,39.4,5.6,59.2,6.7c25.1,1.3,49.5-2.6,73.2-10.8c7.4-2.6,14.4-6.7,18.5-13.7
	c8.2-14.1,13.3-29.5,15.4-45.7c1-7.8,1-15.8,1.1-23.8c0.1-9.4,0.6-19-0.6-28.3c-2.7-21.8-7.8-43.1-17.2-63.1
	c-9.8-20.8-21-40.5-42.7-52c-13.6-7.2-27.2-9.4-41.8-5c-17.1,5.2-29.4,16.9-40,30.4C618.1,1239.2,600.9,1266,586.1,1294.9
	 M1331.2,808c-1.4-1.1-2.7-2.4-4.3-3.4c-7-4.2-13.6-9.8-21.2-12.3c-20.6-6.9-41-4.4-60.6,4.7c-4.4,2.1-8.4,4.6-11.1,9.2
	c1.1,0.8,2,1.5,2.8,2.2c10.3,8.7,22.1,15.5,30.8,26.2c11.7,14.4,19.6,30.6,21.1,48.8c2,24.2-0.7,48.2-8,71.5
	c-0.8,2.7-1.5,5.5-2.4,8.8c4.8-0.6,8.8-1.1,12.7-1.5c22-2,39.9-12,52.5-29.8c14.5-20.5,22.5-43.2,17.3-68.9
	C1356.5,842.3,1348.7,822.9,1331.2,808 M1571.1,520.3c1.1-0.6,2.2-1.3,3.2-1.9c16.8-10.2,24.8-25.4,25.3-44.8
	c0.3-11.7-5.3-21.1-11.7-30.2c-5.7-8.1-13.2-13.8-22.5-17.4c-9-3.5-18.1-5.2-27.7-5c-11.1,0.2-22,0.5-32.6,4.3
	c-13.8,4.9-23.6,13.6-28.8,27.7c-3.8,10.2-4.4,20.7-4,31.3c0.4,10.2,4.8,18.9,12.8,24.9c14.4,10.7,31,16.5,48.9,17.6
	C1546.5,527.4,1559.1,527.4,1571.1,520.3 M495.3,790.3c-4.7,3-9.4,6-14.1,9.1c-24.4,16-37.8,39.5-43.1,67.1
	c-2.5,12.7-1.2,26.4-0.1,39.5c1.8,21.8,14.7,37.3,32.2,48.9c5.6,3.7,12.5,5.6,18.7,8.3c-6-74.5,18.1-133.4,82.8-172.6
	C563.4,778.3,520.1,778.1,495.3,790.3 M394.6,1260.2c-0.5,1.2-1.1,2.3-1.4,3.5c-3.2,12.3-3.8,24.8-2.4,37.3
	c0.9,7.4,2.5,14.8,8.1,20.2c15.4,14.5,34.3,17.9,53.3,11.5c25.6-8.6,40.7-28,43.9-55.1c1.9-15.6-3.2-29.3-17.9-37.7
	c-8.1-4.6-17-6.7-26.3-7.6C427.4,1230,407.4,1236.7,394.6,1260.2 M1008.1,241c-3.3-8-6.3-16.4-14.2-21.1c-5.1-3-10.6-5.7-16.3-7.3
	c-26-7.4-47.5,2-67.1,18.4c-0.8,0.7-1.5,1.7-2.1,2.6c-11.9,16.3-21,33.9-22.9,54.5c-0.4,3.9-0.8,7.9-1.3,12.2
	c44.3-3.3,87.8-4.5,131.1-1.1c0-5.7,0.4-10.5-0.1-15.2C1013.8,269.7,1013.4,255.3,1008.1,241 M1456.3,732.4
	c-13.9-23.2-31-43.3-53.8-59.4c-13.6,21.6-26.9,42.8-40,63.5c25.3,17.4,43.7,40.3,58.4,67.2c1-1.2,1.7-1.9,2.3-2.8
	c11.1-17.1,21.8-34.3,33.3-51.2C1460.6,743.7,1461.4,738.6,1456.3,732.4 M1423.5,636.4c-4.7,8.2-9.3,16.5-14.2,24.6
	c-1.5,2.6-1.1,3.7,1.4,5.6c9.4,6.9,19.5,13.3,27.3,21.8c10.5,11.6,19.1,24.9,28.5,37.5c0.8,1.1,1.6,2.1,2.5,3.4
	c0.9-0.8,1.5-1.1,1.9-1.7c10.9-16.7,21.8-33.3,32.8-50c2.4-3.6,3.8-7.1-0.7-10.2c-0.7-0.5-1.1-1.6-1.7-2.4
	c-6.6-8.6-12.7-17.7-20-25.7c-7.4-8.1-15.9-15.2-24-22.6c-4.7-4.3-9.4-8.6-14.3-13.1C1436.4,614.7,1430.1,625.3,1423.5,636.4
	 M1322.3,787.8c29.9,16.2,45,42.7,51.7,75.7c1.5-1,2.1-2.3,3-3.3c5.5-6.7,11.1-13.2,16.5-19.9c5.7-7,11.4-14,16.9-21.2
	c1-1.3,1.9-3.7,1.4-5.1c-1.3-4-3-7.8-5-11.5c-7.3-13.6-16.8-25.7-27.2-36.9c-6.1-6.6-13.2-12.3-20-18.3c-2.7-2.4-5.4-2.7-7.5,1.1
	c-1.1,1.9-2.8,3.5-4.2,5.2c-8.6,10.3-17.2,20.5-25.7,30.8C1321.8,785,1322,786.4,1322.3,787.8 M1527.2,592
	c-18.1-17.5-37.6-33-60.8-44.2c-0.9,1.8-1.7,3.2-2.3,4.8c-2.1,5.3-3.9,10.7-6.1,16c-3.3,7.8-6.9,15.5-10.2,23.4
	c-0.6,1.3-0.6,4,0.2,4.6c8.1,6.5,16.6,12.6,24.7,19.2c11.9,9.7,23.2,20.1,31.5,33.2c2.2,3.4,4.8,6.6,7.5,10.4
	c0.8-1.7,1.3-2.5,1.7-3.4c4.2-9.6,8.4-19.2,12.5-28.8c3.1-7.2,6.2-14.4,9-21.6c0.6-1.5,0.5-4-0.4-5.2
	C1532.6,597.4,1530,595,1527.2,592 M432,1125.3c-6.7-3.2-13.4-6.4-20.5-9.8c-0.2,2-0.4,4.3-0.5,6.6c-0.8,15.1-1.6,30.3-2.2,45.5
	c-0.1,1.5,1.4,3.8,2.7,4.5c5.3,2.6,10.8,5.6,16.5,6.9c11.2,2.5,22.7,5,34.1,5.7c9.3,0.6,18.8-1.5,28.2-2.5c2.4-0.3,3.9-1.6,3.9-4.4
	c0.1-9.6,0.5-19.2,0.8-28.8c0.1-4.5,0.2-8.9,0.6-13.3c0.2-2.8-0.9-3.5-3.4-3.2C471.8,1134.7,451.9,1132.5,432,1125.3 M496.7,1082.4
	c0-3.6,0-7.2,0-10.9c-29.6,2.5-56.3-5.5-81.1-22.4c-0.2,2.8-0.3,5.2-0.5,7.7c-1,14.2-2,28.3-3.1,42.5c-0.2,2.6,0.7,4.2,3.1,5.2
	c8.6,3.6,16.9,8,25.7,10.8c16.5,5.2,33.6,6.6,50.8,4.3c2.7-0.4,4.1-1.4,4.2-4.6C496,1104.4,496.4,1093.8,496.7,1082.4 M1015.9,321
	c0-2.7-0.1-5.3,0-8c0.1-2.2-0.8-3.3-3.1-3.4c-9.2-0.5-18.3-1.5-27.5-1.5c-22,0-44,0.4-66.1,0.8c-10.6,0.2-21.2,0.6-31.8,0.8
	c-3,0-4.8,0.7-4.7,4.2c0.1,6,0.1,12-0.1,18c-0.1,3,1.3,3.9,4,3.8c17.3-0.6,34.5-1,51.8-1.6c22.5-0.8,45.1-1.8,67.6-2.5
	C1015.9,331.3,1015.9,331.5,1015.9,321 M493.1,1058.9c3.5-0.1,4.4-2,4.5-5.4c0.4-8.6,1.3-17.2,2.1-25.8c0.2-2.2-0.1-3.4-2.6-3.6
	c-23.1-1.8-43.5-11.2-63.4-22.2c-4.2-2.3-8.3-5-12.7-7.7c-0.4,1.1-0.7,1.7-0.8,2.4c-1.2,13-2.5,26-3.6,39.1c-0.1,0.8,1,2,1.8,2.4
	c7.2,3.9,14.4,8,21.9,11.3C456.9,1056.8,474.2,1060.6,493.1,1058.9 M462.8,964.7c-13.5-9.1-24.1-20.8-31.3-35.6
	c-0.5,0.7-0.8,0.9-0.8,1.1c-2.8,16-5.7,32.1-8.5,48.1c-0.6,3.5,0.8,5.6,4,7.3c15.8,8.7,31.9,16.7,49.1,22.2
	c6.7,2.1,13.8,3.2,20.8,4.5c1.4,0.3,4.4-0.7,4.5-1.5c0.8-4.7,2.6-9.3,0.1-14.2c-2.5-5-4.3-10.3-5.9-15.6c-1.1-3.6-2.9-5.2-6.5-6.4
	C479.8,971.8,471.6,968.2,462.8,964.7 M485.1,1231.1c2.8,1.9,5.6,3.8,8.6,5.9c0-14.4,0-28.4,0-42.6c-30.1,6.4-58.3,2.4-85.1-11.2
	c0,15.1,0,30.3,0,46.1C434.9,1217.2,459.9,1218.1,485.1,1231.1 M1477,525c-2.3,4.7-4.6,9.5-7,14.5c13.2,5.7,26.4,11.3,37.4,20.4
	c11,9,21.7,18.5,32.9,28.1c4.3-16.6,8.5-33.1,12.9-50.3c-27.3,2.1-51-5.4-73.2-19.7C1478.9,520.7,1478.1,522.5,1477,525
	 M1614.4,473.9c12.8-15.3,21.2-32.6,25.5-52c1.4-6.3-0.1-12.2-1.9-18c-1.3-4.3-6.3-7.7-10-6.6c-4.5,1.3-9.1,2.9-12.8,5.6
	c-9.5,6.9-13.8,17.6-18.7,27.7c-1.2,2.5-0.8,4.3,0.8,6.5c6.8,9.5,12.9,19.3,13.7,31.4c0.2,2.4,0.4,4.9,0.7,7.9
	C1612.8,475.3,1613.4,474.8,1614.4,473.9 M1061.8,1169.6c0.8-1,2-1.8,2.2-2.9c0.9-4.2,1.6-8.5,2.3-12.7c0.8-4.9,1.6-9.7,2.4-15.2
	c-2.3,0.5-3.8,0.7-5.2,1.1c-25.2,7.5-50.5,15.1-75.7,22.8c-1.2,0.4-2.4,2.1-2.7,3.5c-0.8,4.1-1.2,8.3-1.6,12.4
	c-0.6,5.7-1.2,11.4-1.8,17.9c1.2-1,1.6-1.2,2-1.6c9.2-9.8,19.2-18.4,31.8-23.9C1030.5,1164.3,1045.7,1163.4,1061.8,1169.6
	 M1524.3,365.4c-10.3,12.8-13.3,28.3-16.6,43.8c-0.5,2.4,1.1,3.1,3,2.5c10.3-2.8,20.7-2.3,31.2-2.5c1.2,0,3.1-1,3.5-2
	c3.7-10.7,7-21.5,6.4-33c-0.4-8.7-5.6-15.3-12.4-15.7C1533.6,358.1,1528.6,360.5,1524.3,365.4 M382.4,1319.5
	c-3.7,15.3-4.5,30.8-4.5,46.4c0,8.7,3.3,16.7,9.8,22.9c4.3,4.1,9.6,3.9,12.9-1c2.5-3.7,5.1-7.9,5.9-12.2c1.6-8.6,1.6-17.5,3.3-26
	c1.2-6.2-1-8.9-6.4-11.6c-8.8-4.4-15.9-11.2-20-21.2C382.9,1318,382.7,1318.5,382.4,1319.5 M1566.7,414.3c7.1,3.5,14.1,7,21.8,10.7
	c2-5.6,4.4-11.4,6.3-17.3c2.6-8.2,5.2-16.5,3.4-25.4c-1.5-7-6.5-12.3-12.5-12c-6,0.3-11.2,2.9-14.8,7.6
	c-6.6,8.6-11.8,17.9-14.1,28.7c-0.8,3.5,0.1,4.9,3.4,5.5C1562.1,412.5,1564.1,413.4,1566.7,414.3 M1440.4,411.7
	c-0.3,1.6-0.7,3.3-0.8,4.9c-0.4,11.5,12,29.2,23.4,33.1c0.9,0.3,3.1-0.7,3.4-1.5c3.1-9.8,9.3-17.3,16.7-24.1c0.9-0.8,1.5-3.2,1-4.3
	c-4.6-9.9-12.9-20.8-28.3-18.9C1448.9,401.8,1443.8,404.8,1440.4,411.7 M504.2,1349.7c4.4,0.2,8.9,0.3,11.6-3.9
	c4.2-6.6,7.5-13.9,5.7-21.7c-2.1-9-5.5-17.7-8.8-26.4c-1.2-3.1-3.8-5.7-5.8-8.6c-0.4,0.1-0.8,0.2-1.1,0.3
	c-3.6,14.2-11.4,25.9-21.2,36.4c-0.7,0.7-0.9,2.3-0.6,3.4C486.5,1339.7,492.3,1347.3,504.2,1349.7 M740.1,1176.5
	c0.1-3.1,0.1-6.1,0.3-9.2c0.1-2.6-1-3.7-3.5-4.2c-4.4-0.8-8.8-1.6-13-2.9c-16.1-5.1-32.1-10.3-48.1-15.5c-1.8-0.6-3.8-1.6-3.9,1.5
	c-0.5,8.9-0.8,17.7-1.2,27.6c25.2-9.7,46.9-1.7,67.8,13C739.1,1183,739.5,1180.1,740.1,1176.5 M452.5,1352.5
	c2.2,9.9,4,19.9,6.6,29.7c1.6,6.2,6.1,10.2,12.7,11.2c5.2,0.8,7.3-0.6,8.1-5.8c2.2-14.7-0.5-28.8-4.7-42.8c-0.9-3-2.1-5.9-3.1-9
	c-5,2.5-9.3,4.8-13.7,6.8C452.2,1345.3,452.2,1345.2,452.5,1352.5 M443.6,1371c-0.5-7.4-0.8-14.7-1.5-22.1c-0.1-0.9-2.2-2.2-3.5-2.3
	c-4.7-0.6-9.5-0.4-14.1-1.2c-3.5-0.6-4.1,0.7-4.1,3.6c0.1,11.9-0.2,23.7,0.2,35.6c0.1,3.9,1.4,8,2.9,11.7c0.9,2.1,3,4.2,5,5.2
	c5.4,2.5,10.5,0.4,11.8-5.4C441.9,1388.1,442.4,1379.9,443.6,1371 M931.7,747c3.9,0,7.8-0.2,11.7-0.1c2.9,0.1,4.5-1,4.6-4
	c0.1-1.2,0.4-2.5,0.7-3.7c0.5-2.5-0.1-3.9-3.1-4.1c-20.1-0.8-40.3-1.8-60.4-2.6c-8.3-0.3-8.3-0.1-9,8.1c-0.2,2.4,0.4,3.6,3.1,3.7
	C896.5,745.2,913.7,746.1,931.7,747 M905.9,755.3c-6.2-0.6-12.5-1.1-18.7-1.7c-3-0.3-6-1.2-9-1.5c-0.9-0.1-2.6,1.1-2.6,1.7
	c0,1.1,0.7,2.8,1.6,3.2c1.8,0.9,4,1.2,6,1.5c17.7,2.5,35.5,1.4,53.2,0c2.7-0.2,5.4-0.8,8.1-1.2c-4.4-0.3-8.7-0.2-12.9-0.4
	C923.3,756.4,915,755.8,905.9,755.3z"/>
<path class="st1" d="M178.4,620.4c0.3-10.5,0.4-20.7,0.9-30.8c0.6-12.3,1.4-24.5,2.5-36.7c1.1-11.7,2.7-23.4,4.1-35
	c1.1-9.4,2-18.8,3.4-28.1c2-13,4.2-26,6.9-38.9c2.9-13.7,6.2-27.3,9.8-40.8c3.1-11.4,6.3-22.9,10.4-34c4.9-13.2,10.3-26.2,16.5-38.8
	c6.4-13,14.5-25,25.2-34.9c9.6-8.8,20.7-13.9,34-12.7c9.2,0.8,17.3,4.7,24.1,10.9c13.2,12,22.5,26.6,29,43.1
	c5.3,13.6,10.8,27.1,14.9,41c4.4,15.1,7.6,30.7,10.9,46.1c2.6,12.5,4.8,25.2,6.7,37.8c1.3,8.8,2.1,17.8,2.5,26.7
	c0.4,10,0.1,20,0.1,29.4c22.1,4.9,43.1,9.6,64.1,14.3c15.2,3.4,30.4,6.8,45.6,10.3c1.6,0.4,3.9,2,4,3.1c0.1,2.3-0.3,5.9-1.9,6.8
	c-7.6,4.5-15.5,8.5-23.4,12.5c-26.3,13.3-52.6,26.5-78.8,39.9c-1.4,0.7-2.4,3.1-2.7,4.9c-0.4,2.7-0.1,5.6-0.1,8.4
	c-0.3,12.6-0.4,25.3-0.9,37.9c-0.3,9.2-0.9,18.4-1.7,27.6c-1,12.6-2,25.2-3.4,37.7c-1.7,14.5-3.4,29-5.9,43.3
	c-2.6,15.5-6,30.9-9.1,46.4c-4.1,20.6-9.9,40.7-16.7,60.6c-6.4,18.6-14.3,36.5-24.6,53.2c-7,11.2-15.2,21.2-26.6,28.6
	c-12.5,8-31.5,8.1-43.8-0.3c-11.8-8.1-20.4-18.9-26.7-31.4c-6.5-12.9-13.1-25.8-17.7-39.5c-6-18.1-10.3-36.7-14.7-55.2
	c-3.1-12.9-5.4-26-7.5-39.1c-1.6-9.7-2.4-19.5-3.4-29.3c-1.5-14.1-2.8-28.2-4.1-42.3c-0.5-5.1-0.8-10.2-0.9-15.3
	C178.9,678.8,178.7,649.8,178.4,620.4 M227.7,375.4c-1.9,5.7-4,11.3-5.8,17c-19.4,62.6-28.3,127.1-31.5,192.3
	c-1.7,33.4-1.6,67-1,100.4c0.7,44.1,5.3,88,13.4,131.4c6,31.9,13.7,63.3,27.3,92.9c5.8,12.7,12.6,24.9,22.7,34.9
	c15.4,15.3,31.6,15.8,47,0.5c6.9-6.9,13-15,18.1-23.4c14.1-23.1,22.5-48.5,29.6-74.4c16.9-61.8,24.4-125,27.6-188.8
	c0.8-15.2,1.6-30.3,2.1-45.5c0.2-5.7,3.1-8.7,7.9-11.1c26.8-13.4,53.5-27.1,80.3-40.7c2.8-1.4,5.7-2.9,9.3-4.7
	c-2.2-0.6-3.5-1-4.8-1.3c-14.4-3.3-28.8-6.6-43.2-10c-14-3.3-28-6.6-41.9-10c-5.8-1.4-9.4-4.1-10.1-11c-1.3-14.3-3.6-28.5-5.6-42.7
	c-4.6-33.9-10.8-67.5-21.1-100.2c-6.2-19.8-13.3-39.2-25.3-56.3c-5-7.1-11-13.8-17.8-19.1c-10.5-8.3-22-8.2-33-0.5
	c-5.3,3.7-10.2,8.3-14.4,13.3C243.9,335.1,235.5,354.8,227.7,375.4z"/>
<path class="st2" d="M546.1,513.9c0.3,0.7,0.8,1.7,0.8,2.8c0,25.4,0,50.8,0,76.2c0,0.5-0.2,1.1-0.5,1.9
	C546.1,568.1,546.1,541.2,546.1,513.9z"/>
<path class="st2" d="M1328.8,550.7c-0.3-18.5-0.3-37.2-0.1-56.1c0.3,15.7,0.4,31.6,0.4,47.6C1329.2,545,1329.1,547.8,1328.8,550.7z"
	/>
<path class="st2" d="M1028.4,327.6c-0.3-2.9-0.7-6.2-0.7-9.4c0-6.8,0.2-13.5,0.5-20.5C1028.4,307.3,1028.4,317.3,1028.4,327.6z"/>
<path class="st2" d="M832.4,1178.9c7.4-0.2,15.1-0.3,23-0.1C848,1179,840.4,1179,832.4,1178.9z"/>
<path class="st3" d="M916,1161.4c-18.8,1.4-37.3,3.2-55.8,4c-11.1,0.5-22.4,0.3-33.4-0.9c-21.2-2.4-42.3-5.3-63.3-8.9
	c-32.8-5.7-64.7-14.3-95.3-27.8c-20.1-8.9-39.8-18.4-58-30.6c-10.5-7-20.4-15-30.4-22.9c-17.9-14.2-32.9-31.2-47.3-48.9
	c-16.8-20.7-28.2-44.2-31.4-70.6c-4.3-35.1,2.2-68.9,20.3-99.5c12.9-21.8,31-39.4,53-52.5c11.1-6.6,22.2-13.5,33.9-18.9
	c24.1-11.1,49.9-16.4,76.2-19.6c20.6-2.5,41.2-4.5,62-5c12.6-0.3,25.2-2.4,37.8-3.6c1.8-0.2,3.6-0.2,5.4-0.3
	c19.8-0.3,39.6-0.6,59.4-1c4-0.1,8.1-0.4,12.1-0.7c2.6-0.2,3.7,0.8,3.8,3.6c0.2,7.1,1.3,8.4,8.1,9.9c16.5,3.7,33.1,4.1,49.9,2.6
	c7.8-0.7,15.5-1.2,23.3-1.9c4.6-0.4,8.3-2.1,9.5-7.3c0.3-1.2,2.5-2.5,3.9-2.6c20.5-1.6,40.9-0.6,61.3,1.4
	c12.9,1.3,25.9,1.4,38.7,3.4c17.1,2.6,34,6.3,50.9,9.8c15.1,3.1,30.3,6.2,45.3,10.1c18.3,4.8,35.2,12.8,51.7,22.3
	c14.9,8.6,29,18.3,42.2,29.3c12.2,10.3,19.7,23.7,24,38.9c3.4,11.8,2.6,23.7,1.9,35.7c-1.4,25.3-9.1,49-17.2,72.6
	c-5.7,16.5-15.8,30.4-26.6,43.8c-14.7,18.1-32.2,33.2-51,46.8c-8.1,5.8-16.8,11.1-25.8,15.5c-21.9,10.7-44,21.2-66.3,31
	c-9.3,4.1-19.4,6.2-29.1,9.2c-20,6.1-39.9,12.7-60.1,17.9c-19.1,4.9-38.6,8.6-58,12.4C933.3,1159.7,924.8,1160.3,916,1161.4
	 M902.2,923.5c-3.6,19.5-7.1,38.9-10.8,58.4c-3.4,18-5.9,36.1-5.4,54.4c0.2,8.1,4.2,13.8,11.9,16.3c2.1,0.7,4.3,1.4,6.5,1.6
	c20.2,2,40.5,4.3,60.7,5.6c28,1.9,56,3.3,83.9,4.5c25.9,1.1,51.8,1.4,77.7-1.8c11.5-1.4,18.3-7.3,21.3-18.1c0.4-1.3,0.9-2.7,1.1-4
	c1.5-9.5,3-19,4.4-28.5c1.6-10.6,3.3-21.2,4.5-31.9c2.6-21.7,4.5-43.6,7.5-65.2c3.2-23,4.5-46,2.7-69.2c-1.4-18-4.2-21.4-22-24.9
	c-25.2-4.9-50.7-4.9-76.3-4.4c-30.2,0.5-60.5-0.1-90.7,2.5c-14.4,1.2-29,0.1-43.5,0.1c-6,0-8.1,1.1-10,6.8
	c-3.1,9.5-6.4,19.1-8.7,28.8C911.9,877.2,907.3,900.1,902.2,923.5 M786.7,904.4c9.8,1,17.3-8.9,19-15.8c2.6-10.8,1.8-21.6,0.6-32.4
	c-0.9-8.8-6.1-14.5-15-16.2c-4.1-0.8-8.2-1.3-12.4-1.7c-8-0.7-16.1-1.3-24.1-1.9c-18.7-1.3-37.4-3.1-56.2-3.8
	c-14.2-0.5-28.4,0.3-42.6,0.7c-9.2,0.3-18.4,0.8-27.5,1.7c-6.2,0.6-12.4,2.4-15.1,8.9c-5.3,12.7-6.3,26.2-6,39.8
	c0.2,9.5,3.8,13.2,13.2,14.8c4.9,0.8,9.9,1.3,14.9,1.6c19.6,0.9,39.2,1.8,58.8,2.5c17.9,0.7,35.9,1.3,53.9,1.7
	C760.8,904.6,773.3,904.3,786.7,904.4z"/>
<path class="st3" d="M589.5,669.2c-21.3-21.6-18.9-12.8-27.3-54.5c-1.9-9.6-2.5-19.6-2.7-29.5c-0.4-21.6-0.4-43.3,0-64.9
	c0.5-23.5,2.5-47,6.1-70.3c2.3-14.6,4.3-29.1,11.7-42c10.6-18.3,23.2-35.2,43.5-43.7c7.9-3.3,16.9-4.8,25.5-5.9
	c13.5-1.7,27.2-2.6,40.8-3.5c21.2-1.5,42.5-2.8,63.7-4.1c7.1-0.4,14.2-0.8,21.3-0.9c26.3-0.6,52.7-1.2,79-1.7
	c12.8-0.3,25.6-0.5,38.5-0.8c21.3-0.5,42.6-1.1,63.9-1.7c19.1-0.5,38.2-1.1,57.2-1.6c20.9-0.6,41.8-1.1,62.7-1.7
	c17.8-0.5,35.6-1.3,53.5-1.6c31.1-0.5,62.2-0.6,93.3-0.9c21.9-0.2,41.5,6.5,58.8,19.6c10.4,7.9,17.3,18.7,20.4,31.4
	c5,20.3,9.6,40.7,14,61.1c1.2,5.7,1.4,11.6,1.4,17.5c0.1,26,0.6,51.9-0.1,77.9c-0.4,16.5-2.5,33-4,49.5c-1.6,18.5-4.5,36.7-9.2,54.7
	c-3.7,14.1-11,26.2-21.2,35.9c-6.2,5.9-15.3,9-23.1,13.2c-16.7,9.1-35.1,13.4-53.2,18.7c-5,1.5-10.4,2-15.7,2.3
	c-55,4.1-110.1,2.4-165.2,2.5c-25.9,0.1-51.9-0.8-77.8-1.6c-19.6-0.6-39.2-1.7-58.9-2.5c-14.8-0.6-29.5-0.8-44.3-1.8
	c-20.8-1.3-41.7-2.7-62.4-4.8c-22.4-2.3-44.7-5.7-67.1-8.2c-10.6-1.2-21.4-1.9-32.1-1.7c-13.9,0.3-27.3-1.6-40-7.1
	c-11.8-5-23.7-9.8-35.1-15.6C599.8,678,594.9,673.3,589.5,669.2 M898.5,401.9c-8.3,0.5-16.7,1.1-25,1.6c-9.3,0.6-18.6,1.2-27.9,1.8
	c-16.2,1.1-32.4,2.7-48.6,3c-18.5,0.4-37.1-0.6-55.6-0.6c-20.8,0-41.6,0-62.3,1c-9.6,0.5-19.3,2.8-28.7,5.2
	c-7.6,1.9-12.9,7.2-15.1,14.9c-2.5,8.7-4.9,17.5-7.1,26.3c-6.8,27.7-7.8,56-8.3,84.2c-0.3,17.6-2,35.4,1.6,52.9
	c2.9,14,7.8,26.9,20.3,35.2c11.1,7.3,23.3,12.6,36.3,14.5c22,3.3,44.1,6.1,66.3,7.5c25.9,1.6,51.8,1.6,77.7,1.9
	c13.4,0.2,26.8-0.7,40.1-0.7c19.4,0,38.8,0.4,58.1,0.8c20.1,0.4,40.1,1,60.2,1.7c16.3,0.5,32.6,1.2,48.9,1.6
	c14.9,0.4,29.8,0.6,44.7,0.9c19.4,0.3,38.8,0.5,58.1,0.9c9.7,0.2,19.5,0.9,29.2,1.7c15.6,1.3,31,1.7,46.6-0.9
	c24.1-4,40.5-18.8,44.9-42.8c2.2-12.1,3.2-24.6,4-36.9c1.2-21.5,2.1-43.1,2.6-64.7c0.4-16.3,0.5-32.7-0.1-49
	c-0.3-8.1-1.5-16.5-3.7-24.3c-4.6-15.8-14.1-27.5-30.7-31.9c-9.8-2.6-19.8-4.6-29.8-6.3c-19.6-3.3-39.5-5.6-59.4-5.5
	c-51.2,0.4-102.4,1-153.5,1.6c-7.4,0.1-14.8,0.5-22.1,0.9C939.9,399.7,919.6,400.8,898.5,401.9z"/>
<path class="st3" d="M948.4,1315.1c3.3-12.3,6.5-24.3,9.6-36.3c1.7-6.5,2.8-13.1,4.9-19.5c6.4-19.6,14.8-38.1,27.5-54.7
	c10.3-13.4,23.7-22.3,39.6-26.4c11-2.9,22.4-1.3,33,3.8c11.2,5.3,20.4,13,28.3,22.4c22.7,27.2,41.8,56.8,57.3,88.7
	c5.6,11.6,9.6,24.1,13.5,36.4c3.4,10.6,6.3,21.4,8.3,32.3c1.7,9.1,2.1,18.5-0.9,27.7c-2.1,6.5-6.2,10.8-12.2,13.5
	c-23.6,10.4-48.1,16.8-74,17.5c-11.6,0.3-23.2,2-34.6,1.3c-14.1-0.9-28.3-2.9-42.1-5.6c-15.3-3-30.5-6.9-45.3-11.6
	c-9.5-3-17.2-9.6-19.8-19.9c-1.2-4.9-1.2-10.3-0.5-15.4C943,1351.2,945.7,1333.3,948.4,1315.1z"/>
<path class="st3" d="M586.3,1294.6c14.7-28.7,31.8-55.4,51.4-80.6c10.5-13.6,22.9-25.3,40-30.4c14.7-4.5,28.3-2.2,41.8,5
	c21.6,11.5,32.8,31.1,42.7,52c9.4,20,14.5,41.3,17.2,63.1c1.2,9.3,0.6,18.9,0.6,28.3c-0.1,7.9-0.1,15.9-1.1,23.8
	c-2.1,16.2-7.2,31.6-15.4,45.7c-4.1,7-11.1,11.1-18.5,13.7c-23.7,8.2-48.1,12.2-73.2,10.8c-19.9-1.1-39.9-1-59.2-6.7
	c-12.4-3.6-24.7-7.9-36.8-12.5c-5.7-2.2-9.5-6.9-11.4-13.1c-3.4-10.9-2.3-21.9-0.2-32.6c1.8-9.1,4.3-18.2,7.3-27
	C576,1320.9,581.2,1307.9,586.3,1294.6z"/>
<path class="st4" d="M1331.4,808.2c17.3,14.7,25,34.1,29.3,55.3c5.2,25.7-2.9,48.4-17.3,68.9c-12.6,17.9-30.5,27.8-52.5,29.8
	c-4,0.4-8,0.9-12.7,1.5c0.9-3.3,1.6-6.1,2.4-8.8c7.3-23.3,10-47.3,8-71.5c-1.5-18.3-9.4-34.5-21.1-48.8
	c-8.7-10.7-20.5-17.5-30.8-26.2c-0.8-0.7-1.7-1.4-2.8-2.2c2.7-4.5,6.7-7.1,11.1-9.2c19.6-9.2,40-11.6,60.6-4.7
	c7.6,2.5,14.2,8,21.2,12.3C1328.5,805.6,1329.8,806.9,1331.4,808.2z"/>
<path class="st4" d="M1570.8,520.4c-11.7,7-24.3,7-36.9,6.2c-17.9-1.1-34.5-7-48.9-17.6c-8-5.9-12.4-14.6-12.8-24.9
	c-0.4-10.6,0.2-21.1,4-31.3c5.2-14,14.9-22.8,28.8-27.7c10.6-3.7,21.5-4.1,32.6-4.3c9.7-0.1,18.8,1.5,27.7,5
	c9.3,3.6,16.8,9.2,22.5,17.4c6.4,9.1,12,18.5,11.7,30.2c-0.5,19.4-8.5,34.6-25.3,44.8C1573.2,519,1572.2,519.6,1570.8,520.4z"/>
<path class="st4" d="M495.6,790.1c24.5-12,67.8-11.9,76.2,0.4C507,829.8,483,888.7,489,963.2c-6.3-2.7-13.1-4.6-18.7-8.3
	c-17.6-11.6-30.4-27.1-32.2-48.9c-1.1-13.1-2.3-26.8,0.1-39.5c5.3-27.7,18.8-51.2,43.1-67.1C485.9,796.3,490.6,793.3,495.6,790.1z"
	/>
<path class="st4" d="M394.8,1259.9c12.6-23.2,32.6-29.9,57.2-27.5c9.3,0.9,18.2,3,26.3,7.6c14.7,8.4,19.8,22,17.9,37.7
	c-3.2,27-18.3,46.5-43.9,55.1c-19,6.4-37.9,3-53.3-11.5c-5.7-5.4-7.3-12.8-8.1-20.2c-1.4-12.6-0.8-25,2.4-37.3
	C393.5,1262.5,394.2,1261.3,394.8,1259.9z"/>
<path class="st5" d="M1008.2,241.3c5.2,14,5.6,28.4,7,42.7c0.4,4.7,0.1,9.4,0.1,15.2c-43.3-3.4-86.8-2.1-131.1,1.1
	c0.5-4.3,0.9-8.3,1.3-12.2c1.8-20.6,10.9-38.1,22.9-54.5c0.7-0.9,1.3-1.9,2.1-2.6c19.6-16.4,41.1-25.8,67.1-18.4
	c5.7,1.6,11.2,4.3,16.3,7.3C1001.8,224.5,1004.8,232.9,1008.2,241.3 M947.1,275.3c11.6,4.9,20.3-0.8,20.3-13.3
	c0-3.7-0.4-7.4-0.7-12.3c4,0,7.8-0.4,11.6,0.1c5.2,0.6,7.4,3.3,8.3,8.5c1.2,6.9-1.6,12.2-6.3,16.9c-3.5,3.5-4,7.1-1.5,9.5
	c2.5,2.4,6.2,2,9.6-1.5c4.6-4.7,8.1-10.2,9-16.7c2-14.5-4.1-27.4-22.2-27.2c-4.1,0.1-8.2,1.3-12.4,1.8c-1.5,0.2-3.5,0.5-4.7-0.2
	c-7.9-4.5-16.1-3.4-24.4-1.6c-14.5,3.2-23.2,24-20.4,35.8c1.1,4.4,3.7,7.9,7.9,9.7c1.7,0.7,4,0.1,6.1,0.1c-0.6-1.8-0.7-4.1-1.9-5.4
	c-2.9-3.1-4.5-6.4-3.9-10.6c1.1-6.8,3.6-12.9,8.8-17.6c4.6-4.2,15.2-5.5,19.1-2.8c-1.9,3.1-4.1,6-5.6,9.3
	C940.7,264.3,942,270.9,947.1,275.3z"/>
<path class="st3" d="M1456.5,732.7c4.9,5.9,4.2,11,0,17.1c-11.4,16.8-22.2,34.1-33.3,51.2c-0.6,0.9-1.4,1.7-2.3,2.8
	c-14.6-26.8-33.1-49.7-58.4-67.2c13.1-20.8,26.4-42,40-63.5C1425.3,689.1,1442.4,709.2,1456.5,732.7z"/>
<path class="st3" d="M1423.6,636.2c6.5-10.9,12.8-21.5,19.3-32.5c5,4.5,9.7,8.8,14.3,13.1c8.1,7.5,16.6,14.5,24,22.6
	c7.3,8,13.4,17.1,20,25.7c0.6,0.8,0.9,1.9,1.7,2.4c4.5,3.2,3.1,6.6,0.7,10.2c-10.9,16.7-21.8,33.3-32.8,50c-0.4,0.5-1,0.9-1.9,1.7
	c-0.9-1.2-1.7-2.3-2.5-3.4c-9.4-12.6-18-25.9-28.5-37.5c-7.7-8.5-17.9-14.9-27.3-21.8c-2.5-1.9-3-3-1.4-5.6
	C1414.1,652.9,1418.7,644.7,1423.6,636.2z"/>
<path class="st3" d="M1322.1,787.6c-0.1-1.2-0.3-2.6,0.3-3.3c8.5-10.3,17.1-20.5,25.7-30.8c1.4-1.7,3.1-3.3,4.2-5.2
	c2.1-3.8,4.8-3.5,7.5-1.1c6.8,6,13.9,11.7,20,18.3c10.4,11.3,19.9,23.3,27.2,36.9c2,3.7,3.7,7.5,5,11.5c0.5,1.4-0.4,3.8-1.4,5.1
	c-5.5,7.2-11.2,14.2-16.9,21.2c-5.5,6.7-11.1,13.3-16.5,19.9c-0.9,1.1-1.5,2.4-3,3.3C1367.3,830.5,1352.2,804,1322.1,787.6z"/>
<path class="st6" d="M1527.4,592.2c2.5,2.8,5.1,5.2,7.1,8.1c0.9,1.3,1,3.7,0.4,5.2c-2.8,7.3-5.9,14.5-9,21.6
	c-4.1,9.6-8.3,19.2-12.5,28.8c-0.4,0.9-0.9,1.7-1.7,3.4c-2.7-3.7-5.3-6.9-7.5-10.4c-8.4-13.1-19.7-23.5-31.5-33.2
	c-8.1-6.6-16.6-12.6-24.7-19.2c-0.8-0.7-0.7-3.3-0.2-4.6c3.3-7.9,6.9-15.5,10.2-23.4c2.2-5.3,4.1-10.7,6.1-16c0.6-1.5,1.4-3,2.3-4.8
	C1489.6,559,1509.1,574.5,1527.4,592.2z"/>
<path class="st6" d="M432.3,1125.4c19.6,7.2,39.5,9.3,59.9,6.9c2.5-0.3,3.6,0.4,3.4,3.2c-0.4,4.4-0.5,8.9-0.6,13.3
	c-0.3,9.6-0.7,19.2-0.8,28.8c0,2.9-1.5,4.2-3.9,4.4c-9.4,1-18.9,3-28.2,2.5c-11.5-0.7-22.9-3.1-34.1-5.7c-5.7-1.3-11.1-4.3-16.5-6.9
	c-1.4-0.7-2.8-3-2.7-4.5c0.5-15.2,1.4-30.3,2.2-45.5c0.1-2.3,0.4-4.6,0.5-6.6C418.5,1118.8,425.3,1122,432.3,1125.4z"/>
<path class="st3" d="M496.7,1082.8c-0.3,11-0.7,21.6-0.8,32.2c0,3.1-1.4,4.2-4.2,4.6c-17.3,2.3-34.3,0.9-50.8-4.3
	c-8.8-2.8-17.2-7.2-25.7-10.8c-2.4-1-3.3-2.7-3.1-5.2c1.1-14.2,2.1-28.3,3.1-42.5c0.2-2.5,0.3-4.9,0.5-7.7
	c24.7,16.8,51.5,24.9,81.1,22.4C496.7,1075.2,496.7,1078.8,496.7,1082.8z"/>
<path class="st3" d="M1015.9,321.4c0,10.1,0,9.9-9.8,10.2c-22.5,0.7-45.1,1.7-67.6,2.5c-17.3,0.6-34.5,1-51.8,1.6
	c-2.8,0.1-4.1-0.8-4-3.8c0.2-6,0.2-12,0.1-18c-0.1-3.5,1.7-4.1,4.7-4.2c10.6-0.2,21.2-0.6,31.8-0.8c22-0.3,44-0.8,66.1-0.8
	c9.2,0,18.3,1.1,27.5,1.5c2.4,0.1,3.2,1.2,3.1,3.4C1015.8,315.7,1015.9,318.4,1015.9,321.4z"/>
<path class="st6" d="M492.8,1059c-18.6,1.6-35.9-2.2-52.5-9.6c-7.5-3.3-14.6-7.5-21.9-11.3c-0.8-0.4-1.9-1.6-1.8-2.4
	c1.1-13,2.3-26.1,3.6-39.1c0.1-0.6,0.4-1.3,0.8-2.4c4.4,2.7,8.4,5.3,12.7,7.7c19.9,10.9,40.3,20.4,63.4,22.2
	c2.6,0.2,2.8,1.5,2.6,3.6c-0.8,8.6-1.7,17.2-2.1,25.8C497.5,1056.9,496.7,1058.8,492.8,1059z"/>
<path class="st3" d="M463,964.8c8.5,3.4,16.7,7,25.2,9.7c3.7,1.2,5.5,2.8,6.5,6.4c1.6,5.3,3.4,10.7,5.9,15.6c2.5,5,0.7,9.6-0.1,14.2
	c-0.1,0.8-3.1,1.7-4.5,1.5c-7-1.3-14-2.4-20.8-4.5c-17.2-5.5-33.3-13.5-49.1-22.2c-3.2-1.7-4.6-3.8-4-7.3c2.8-16,5.6-32.1,8.5-48.1
	c0-0.2,0.3-0.4,0.8-1.1C438.7,943.9,449.3,955.6,463,964.8z"/>
<path class="st3" d="M484.9,1231c-25-12.9-50-13.7-76.2-1.7c0-15.8,0-30.9,0-46.1c26.8,13.6,55,17.6,85.1,11.2c0,14.2,0,28.2,0,42.6
	C490.8,1235,487.9,1233,484.9,1231z"/>
<path class="st3" d="M1477.1,524.7c0.9-2.2,1.8-4.1,2.9-6.7c22.2,14.3,45.9,21.8,73.2,19.7c-4.4,17.2-8.6,33.6-12.9,50.3
	c-11.2-9.6-21.9-19.1-32.9-28.1c-11.1-9.1-24.2-14.6-37.4-20.4C1472.4,534.5,1474.7,529.7,1477.1,524.7z"/>
<path class="st7" d="M1614.2,474.1c-0.8,0.7-1.4,1.2-2.5,2.2c-0.3-3.1-0.5-5.5-0.7-7.9c-0.8-12.1-6.9-21.9-13.7-31.4
	c-1.6-2.2-2-4-0.8-6.5c4.9-10.2,9.2-20.8,18.7-27.7c3.7-2.7,8.4-4.3,12.8-5.6c3.7-1.1,8.7,2.3,10,6.6c1.8,5.8,3.3,11.7,1.9,18
	C1635.6,441.3,1627.1,458.6,1614.2,474.1z"/>
<path class="st7" d="M1061.5,1169.5c-15.8-6.1-30.9-5.2-46.1,1.4c-12.6,5.5-22.5,14.1-31.8,23.9c-0.4,0.4-0.8,0.7-2,1.6
	c0.7-6.5,1.2-12.2,1.8-17.9c0.5-4.1,0.8-8.3,1.6-12.4c0.3-1.3,1.5-3.1,2.7-3.5c25.2-7.7,50.4-15.2,75.7-22.8
	c1.4-0.4,2.9-0.6,5.2-1.1c-0.9,5.5-1.6,10.3-2.4,15.2c-0.7,4.3-1.4,8.5-2.3,12.7C1063.7,1167.8,1062.5,1168.6,1061.5,1169.5z"/>
<path class="st7" d="M1524.5,365.2c4.1-4.7,9.1-7,15-6.7c6.8,0.4,12,7,12.4,15.7c0.5,11.5-2.7,22.3-6.4,33c-0.3,1-2.3,2-3.5,2
	c-10.5,0.2-20.9-0.3-31.2,2.5c-2,0.5-3.5-0.1-3-2.5C1511,393.7,1514,378.2,1524.5,365.2z"/>
<path class="st7" d="M382.5,1319.2c0.3-0.7,0.4-1.2,0.9-2.5c4.2,10.1,11.2,16.8,20,21.2c5.4,2.7,7.6,5.4,6.4,11.6
	c-1.6,8.6-1.6,17.5-3.3,26c-0.8,4.3-3.4,8.5-5.9,12.2c-3.4,4.9-8.7,5.1-12.9,1c-6.4-6.2-9.7-14.2-9.8-22.9
	C377.8,1350.4,378.7,1334.8,382.5,1319.2z"/>
<path class="st7" d="M1566.4,414.1c-2.3-0.8-4.2-1.7-6.3-2c-3.4-0.6-4.2-2-3.4-5.5c2.3-10.8,7.5-20.1,14.1-28.7
	c3.6-4.7,8.8-7.3,14.8-7.6c6-0.3,11,4.9,12.5,12c1.9,8.9-0.8,17.1-3.4,25.4c-1.9,5.9-4.2,11.7-6.3,17.3
	C1580.8,421.2,1573.7,417.7,1566.4,414.1z"/>
<path class="st7" d="M1440.6,411.4c3.2-6.6,8.4-9.6,15.3-10.5c15.3-1.9,23.7,9,28.3,18.9c0.5,1.1-0.1,3.4-1,4.3
	c-7.4,6.8-13.6,14.3-16.7,24.1c-0.3,0.8-2.5,1.8-3.4,1.5c-11.4-4-23.8-21.7-23.4-33.1C1439.7,415,1440.2,413.4,1440.6,411.4z"/>
<path class="st7" d="M503.8,1349.6c-11.5-2.4-17.4-9.9-20-20.4c-0.3-1,0-2.7,0.6-3.4c9.9-10.5,17.6-22.2,21.2-36.4
	c0.4-0.1,0.8-0.2,1.1-0.3c2,2.8,4.6,5.4,5.8,8.6c3.3,8.7,6.7,17.4,8.8,26.4c1.8,7.8-1.4,15.1-5.7,21.7
	C513.1,1349.9,508.6,1349.9,503.8,1349.6z"/>
<path class="st7" d="M740,1176.9c-0.5,3.2-1,6.1-1.6,9.9c-20.8-14.7-42.6-22.7-67.8-13c0.4-9.9,0.7-18.8,1.2-27.6
	c0.2-3.1,2.1-2.1,3.9-1.5c16,5.2,32,10.5,48.1,15.5c4.2,1.3,8.7,2.1,13,2.9c2.5,0.5,3.7,1.6,3.5,4.2
	C740.2,1170.4,740.2,1173.5,740,1176.9z"/>
<path class="st7" d="M452.5,1352.1c-0.3-6.9-0.3-6.8,5.9-9.6c4.4-2,8.7-4.3,13.7-6.8c1.1,3.1,2.2,6,3.1,9c4.2,14,6.9,28.1,4.7,42.8
	c-0.8,5.2-2.9,6.6-8.1,5.8c-6.6-1-11.1-5-12.7-11.2C456.5,1372.4,454.7,1362.4,452.5,1352.1z"/>
<path class="st7" d="M443.5,1371.4c-1.1,8.5-1.6,16.7-3.3,24.7c-1.2,5.8-6.4,7.9-11.8,5.4c-2.1-1-4.2-3.1-5-5.2
	c-1.5-3.7-2.8-7.7-2.9-11.7c-0.4-11.9-0.1-23.7-0.2-35.6c0-3,0.6-4.2,4.1-3.6c4.6,0.8,9.4,0.7,14.1,1.2c1.3,0.2,3.4,1.4,3.5,2.3
	C442.8,1356.2,443.2,1363.6,443.5,1371.4z"/>
<path class="st7" d="M931.3,747c-17.6-0.9-34.8-1.8-52.1-2.6c-2.7-0.1-3.3-1.3-3.1-3.7c0.7-8.1,0.7-8.4,9-8.1
	c20.1,0.7,40.3,1.7,60.4,2.6c2.9,0.1,3.6,1.5,3.1,4.1c-0.2,1.2-0.6,2.5-0.7,3.7c-0.2,3-1.7,4.1-4.6,4
	C939.5,746.8,935.6,747,931.3,747z"/>
<path class="st8" d="M906.3,755.3c8.7,0.5,17,1.2,25.3,1.6c4.3,0.2,8.5,0,12.9,0.4c-2.7,0.4-5.4,1-8.1,1.2
	c-17.7,1.5-35.5,2.5-53.2,0c-2.1-0.3-4.2-0.6-6-1.5c-0.9-0.4-1.6-2.1-1.6-3.2c0-0.6,1.7-1.8,2.6-1.7c3,0.3,6,1.1,9,1.5
	C893.4,754.2,899.7,754.7,906.3,755.3z"/>
<path class="st5" d="M227.8,375.1c7.7-20.3,16-40,29.9-56.6c4.2-5,9.1-9.6,14.4-13.3c11-7.7,22.5-7.8,33,0.5
	c6.8,5.4,12.9,12.1,17.8,19.1c12,17.1,19.1,36.5,25.3,56.3c10.3,32.7,16.5,66.3,21.1,100.2c1.9,14.2,4.3,28.4,5.6,42.7
	c0.6,6.9,4.2,9.6,10.1,11c14,3.3,27.9,6.7,41.9,10c14.4,3.4,28.8,6.7,43.2,10c1.3,0.3,2.6,0.7,4.8,1.3c-3.6,1.8-6.5,3.3-9.3,4.7
	c-26.7,13.6-53.5,27.2-80.3,40.7c-4.8,2.4-7.7,5.4-7.9,11.1c-0.6,15.2-1.4,30.3-2.1,45.5c-3.2,63.8-10.7,127-27.6,188.8
	c-7.1,25.9-15.6,51.3-29.6,74.4c-5.1,8.4-11.2,16.5-18.1,23.4c-15.3,15.3-31.6,14.8-47-0.5c-10.1-10-16.9-22.2-22.7-34.9
	c-13.6-29.6-21.4-61-27.3-92.9c-8.1-43.4-12.8-87.3-13.4-131.4c-0.5-33.5-0.6-67,1-100.4c3.2-65.2,12.1-129.7,31.5-192.3
	C223.7,386.7,225.8,381.1,227.8,375.1 M298.4,392.3c3.1-0.6,6.2-1.2,10.2-2c1.1,0.9,3.1,2.7,5.3,4.1c2.9,1.9,6.9,1.1,8.6-1.5
	c2-3.1,1.3-5.8-1.4-8.1c-1.9-1.6-4-3-5.9-4.6c-0.8-0.7-2-2.2-1.8-2.9c1.4-4.4-0.9-7.2-5.2-10.2c4.7,0,8,0.2,11.3-0.1
	c3.5-0.3,5.6-2.4,5.7-6c0.1-3.9-2.2-5.9-5.8-6.5c-1.8-0.3-3.6-0.2-5.4-0.2c-7.1,0-14.2,0-21.1,0c-1.6-8.2-3.2-10.3-7.5-10.3
	c-6.6,0-6.8,5.3-7.6,10.3c-1.7,0-3.2,0-4.7,0c-6.4,0-12.8-0.1-19.2,0.1c-4.5,0.1-7.4,2.8-7.4,6.4c0,3.6,2.9,6.2,7.3,6.5
	c1.9,0.1,3.8,0,5.7,0c-0.4,6.4-3,11.9-9.4,20.3c-2.8,3.7-2.8,6.8,0.1,9.2c3.2,2.6,7,2.2,10-1.3c1.5-1.7,2.7-3.5,4-5.1
	c0.5,0,0.8,0,1,0.1c3.3,2,6.5,2.2,8.8-1.3c2.3-3.4,0.9-6.3-1.8-8.9c-0.7-0.7-1.8-2-1.6-2.7c1.5-4.6-0.6-7.6-5.1-10.4
	c4,0,6.9,0.1,9.8,0c2.3-0.1,2.8,1.1,2.8,3.1c-0.1,5,0.1,10-0.1,15.1c0,1.3-0.5,2.8-1.3,3.8c-3,3.7-5.8,7.6-9.5,10.5
	c-5.6,4.5-11.8,8.3-17.9,12.3c-4.5,3-4.7,7.8-0.1,10.8c2.8,1.8,5.8,2.3,8.6,0.4c4-2.7,8.1-5.5,11.9-8.5c2.7-2.1,5.1-4.5,8.3-7.3
	c0,5.4-0.1,9.9,0,14.3c0.2,5.2,3.4,8.2,7.8,7.8c3.7-0.4,6.1-3.2,6.2-7.7c0.1-4.8,0-9.6,0-14.4c0.5-0.3,0.9-0.5,1.4-0.8
	c0.9,1.2,1.6,2.7,2.7,3.6c5.2,4.2,10.3,8.6,15.8,12.4c4.2,2.9,9.9,0.9,12.2-3.5c1.8-3.3,0.4-5.9-4.6-8.7c-1.3-0.8-2.8-1.3-4-2.2
	c-6.2-5.1-12.4-10.2-18.3-15.6C297.5,392.5,297.7,392.2,298.4,392.3 M325.7,589.1c-4.6-3.7-6.5-2.9-7.6,3c-0.2,1.2-0.4,2.5-1,3.6
	c-0.3,0.6-1.5,1.3-2.2,1.2c-3.1-0.6-5.1-7.6-3.1-10.1c2.7-3.4,5.5-6.7,8.1-10.1c2.9-3.9,2.9-6.5,0.1-8.8c-2.7-2.2-6.9-1.6-9.7,1.5
	c-1.2,1.3-2.3,2.7-4.2,5c-0.7-4.6-1.2-8.2-1.8-12.3c5.5,0,10.2,0.1,15,0c4.8-0.1,7.3-2.3,7.2-6.2c-0.1-3.7-2.6-5.8-7.1-5.9
	c-4-0.1-8.1-0.3-12.1,0c-3.5,0.3-4.7-1.2-4.7-4.5c0-4.2-0.2-8.4-0.4-12.5c-0.2-4.6-2.8-7.4-6.9-7.3c-4,0-6.6,2.8-6.6,7.5
	c0,4.5,0.3,8.9,0.5,13.4c0.1,1.9,0.2,3.4-2.3,3.4c-3.6,0-7.3,0.1-10.9-0.1c-0.8,0-1.9-0.7-2.2-1.4c-1.9-4.5,0.2-8.9,4.8-9.9
	c3-0.6,6.1-1.3,6.2-5c0.1-3.7-2.9-5.2-5.8-6.2c-1.4-0.5-3.1-0.8-4.5-0.5c-8.5,1.5-17,3.1-25.4,5c-3.4,0.7-4.9,4-2.7,6.7
	c1.5,1.9,4.2,3.3,6.6,4c2.1,0.6,4.6-0.3,6.8-0.5c1.5,7.6,1.3,7.9-5.6,7.9c-6.6,0-9.6,1.9-9.6,6c0,4.2,3,6.2,9.5,6.2
	c6.5,0,6.4,0,6.4,6.7c0,2.5-0.5,4-3.4,4.1c-2.2,0.1-4.4,0.5-6.6,0.9c-4.5,0.8-7,3.7-6.3,7.3c0.7,4,4.4,6.4,8.8,5.7
	c2.3-0.4,4.5-0.8,7.4-1.4c0,2.7-0.2,4.8,0,6.8c0.4,3.8-0.7,5.6-5,5.5c-1.9-0.1-5.1,1.2-5.4,2.5c-0.5,2,0.2,5,1.5,6.8
	c3.2,4.6,8,3.5,12.6,2.4c4.3-1,8.1-3,8.8-7.8c0.6-4.1,0.6-8.3,0.7-12.5c0.2-6.4-1.3-6.2,5.9-7.4c1.5-0.3,3.1-0.7,4.3-1.5
	c2.6-1.6,3.9-4,2.9-7.1c-1-3-3.2-4.1-6.2-3.8c-2.1,0.2-4.3,0.4-6.4,0.7c-1.2-7.8-1.2-7.8,5.9-7.8c2.4,0,4.7,0.1,7.1,0
	c2.5-0.1,3.7,0.8,4.1,3.5c0.8,5.6,2.2,11.2,2.9,16.9c0.2,1.5-0.6,3.8-1.8,4.8c-3.3,2.6-7,4.5-10.5,6.9c-4.2,2.8-4.1,7,0,9.9
	c2.8,1.9,5.7,2,8.6,0.2c2.9-1.8,5.8-3.7,8.6-5.5c2.1,2.9,3.8,5.6,6,7.9c5,5.3,13.2,5.9,18.2,1.6C328.4,604.1,329.7,595,325.7,589.1
	 M245.7,489.6c-2.7,5.3-0.7,8.7,5.2,8.7c9.6,0,19.1,0,28.1,0c-4.6,5.2-1.2,14.8,8.4,14.3c0.2,0.4,0.4,0.7,0.5,1.1
	c1.6,6.6,6.1,7.3,12,4.3c3.6-1.8,9.3-1.3,13.3,0.3c3.2,1.2,6,1.9,8.5,0.5c1.8-1,3.7-3.8,3.8-5.8c0.4-9.3,0.3-18.7,0.1-28
	c-0.1-4.9-2.9-7.5-7.5-8c-6.3-0.6-6.3-0.6-6.3-6.9c0-0.6,0.1-1.1,0-1.7c-0.3-2.8,0.8-4.1,3.8-3.9c2.4,0.2,4.8,0.2,7.1-0.1
	c3.4-0.5,5.7-2.5,5.6-6.1c-0.1-3.5-2.2-5.4-5.5-5.7c-2.6-0.3-5.3-0.3-7.9-0.2c-2.2,0-3-0.9-3-3c0-3.1,0.1-6.1-0.2-9.2
	c-0.3-3.4-2.3-5.4-5.6-5.6c-3.4-0.2-5.6,1.5-6.4,4.8c-0.4,1.5-0.4,3-0.4,4.6c0,9.8,0,19.5,0,29.3c0,1.8,0.2,3.4-2.5,3.8
	c-7.3,1.1-8.7,2.8-8.7,10.1c0,6.6,0,13.2,0,20.1c-0.7-0.4-1-0.5-1.1-0.7c-1.4-2.9-2.8-5.8-4.4-9c3.5-1.2,4.8-3.7,3.7-7.2
	c-1.2-3.6-4.4-3.2-7.4-3.2c-1.1,0-2.2,0.1-3.3,0c-1.3-0.1-2.6-0.4-4-0.5c0-0.6,0.1-1.2,0.1-1.9c2.9,0,6,0.6,8.7-0.2
	c1.8-0.5,3.9-2.6,4.5-4.4c0.8-2.6-1.2-4.5-3.9-4.9c-2-0.3-4.2-0.2-6.2-0.3c-1.1-0.1-2.1-0.4-3.2-0.6c0-0.5,0-1,0.1-1.5
	c1.8-0.2,3.6-0.4,5.3-0.5c6.1-0.2,8.9-2.9,9-9c0.1-5.9,0.1-11.7,0-17.6c-0.1-6.2-2.7-8.8-9-8.9c-7.3-0.1-14.5-0.1-21.8,0
	c-6.3,0.1-8.9,2.5-9.1,8.9c-0.2,5.7-0.2,11.4,0,17.2c0.2,7,2.7,9.3,9.8,9.5c1.4,0,2.7,0.5,4.1,0.8c-0.1,0.5-0.1,1-0.2,1.5
	c-2.8,0.2-5.9-0.2-8.4,0.7c-1.8,0.6-4,2.8-4.4,4.6c-0.5,2.7,1.7,4.6,4.6,4.8c2.1,0.2,4.2,0,6.3,0.2c0.8,0.1,1.5,0.8,2.3,1.3
	c-0.1,0.4-0.2,0.8-0.3,1.2c-1.7,0.1-3.5,0.2-5.2,0.4C251.5,488.1,248.8,488.7,245.7,489.6 M279.7,844c3.1-0.2,5.1-1.7,5-5
	c-0.2-3.3-2.5-4.3-5.5-4.3c-9.9,0-19.8,0-29.7,0c-2.9,0-4.9,1.2-5.1,4.3c-0.1,3.3,1.8,4.8,4.9,4.9c2.8,0.1,5.6-0.2,8.4,0.2
	c1,0.1,2.5,1.4,2.6,2.2c0.2,4.8,0.1,9.6,0.1,14.4c-0.5,0.1-1.1,0.2-1.6,0.2c-0.5-2.6-1.4-5.3-1.5-7.9c-0.2-3.4-1.3-5.9-4.9-6
	c-3.5-0.1-5,2.2-5.5,5.6c-0.8,5.6-2.2,11.2-2.8,16.8c-0.3,2.4,0.1,5,1,7.2c0.5,1.2,2.5,2.4,3.9,2.4c1.3,0,2.8-1.4,3.6-2.6
	c1.1-1.6,1.5-3.5,2.5-5.8c7.1,7.8,16.2,9.3,25.7,9.4c12.1,0.2,24.3,0.1,36.4,0.1c1.4,0,2.8,0.1,4.2-0.2c3.3-0.8,5.9-3.1,5.7-6.3
	c-0.1-1.7-2.9-3.2-4-4.4c0.6-2.4,2.4-5.5,1.7-7.8c-0.9-2.7-4-4.7-6.2-7.2c4.7-1.3,6.1-4.4,6-8.9c-0.2-7.9,0-15.9-0.1-23.9
	c0-6.8-2.7-9.3-9.3-9.5c-1.4,0-2.8-0.2-4.2-0.4c-0.1-0.5-0.2-1-0.3-1.5c1.3-0.6,2.6-1.4,3.9-1.6c2.1-0.3,4.2-0.1,6.3-0.1
	c3.1-0.1,5.8-1,5.8-4.6c0-3.6-2.7-4.4-5.8-4.4c-9.9,0.1-19.8,0-29.7,0c-3.1,0-5.8,0.5-6,4.2c-0.2,4,2.8,4.7,6,4.8
	c2.8,0.1,5.7,0,8.5,0c0.1,0.6,0.3,1.2,0.4,1.8c-1.3,0.6-2.6,1.6-4,1.8c-6,0.6-8.5,3-8.6,9c-0.1,8-0.1,15.9,0,23.9
	c0,6.4,2.8,9.1,9.2,9.2c5.6,0.1,11.1,0,17.3,0c-6.3,7.9,2.9,10.3,4.9,15.6c-8.9,0-17.6,0-26.7,0c3.1-2.6,6-4.8,8.6-7.3
	c0.9-0.9,1.8-3,1.4-3.9c-0.6-1.2-2.3-2.5-3.7-2.7c-5-0.8-8.9,1.9-11.5,5.5c-1.4,1.9-0.6,5.3-0.8,8.8c-3.5-0.3-8-0.6-12.5-1
	c-0.7-0.1-1.6-0.7-1.8-1.3c-2.1-4.7,0.3-8.5,5.4-8.6c0.1,0,0.3,0,0.4,0c3.2,0.1,5.7-1.1,5.7-4.6c0-3.5-2.7-4.6-5.8-4.6
	c-1.9,0-3.8,0-5.6,0c0-2.4,0-4,0-5.9C274.3,844,276.6,844,279.7,844 M308.3,743.8c2.2-0.1,3.3,0.5,3.3,3.1c-0.1,9.3-0.1,18.7,0,28.1
	c0,3.6-2.3,3.5-4.7,3.6c-2.7,0.2-3.7-0.9-3.6-3.6c0.2-5.9,0.1-11.7,0-17.6c-0.1-4.8-2.7-7.9-7.2-8c-7.1-0.2-14.2-0.1-21.3,0
	c-3.5,0.1-6.4,2-6.6,5.3c-0.5,8.2-0.7,16.4-0.1,24.6c0.3,4.4,8,6.5,10.1,2.8c2-3.6,4.6-3.3,7.6-3.2c2.4,0,4.8,0.2,7.1,0
	c2.9-0.3,4.4,0.9,5.2,3.6c1.2,3.8,3.2,7.2,7.2,8.7c8.9,3.2,19.2-3,19.4-12.3c0.4-20.5,0.3-41,0.2-61.5c0-5-3-7.9-7.9-8
	c-7.1-0.2-14.2-0.2-21.3,0c-4.6,0.1-7.4,3.1-7.5,7.8c-0.1,6.3-0.1,12.6,0,18.8c0.1,5.1,2.9,7.9,8.1,8.1
	C300,743.9,303.7,743.8,308.3,743.8 M267.3,683.5c0.2,1.8-0.2,4,0.6,5.3c1.2,1.8,3.1,3.6,5.1,4.1c1.6,0.4,4.7-0.6,5.3-1.9
	c1.4-2.7,3.3-2.9,5.7-2.8c2.8,0.1,5.6,0.2,8.4,0c3-0.3,4.6,0.8,5.5,3.7c1.2,4,3.4,7.8,7.7,8.6c3.3,0.5,6.9-0.1,10.3-0.8
	c4.7-0.9,7.7-3.9,8.2-8.8c0.4-4.2,0.6-8.3,0.6-12.5c0.1-16.7,0.1-33.5,0-50.2c0-6.7-2.7-9.5-9.3-9.6c-6.4-0.1-12.8-0.1-19.3,0
	c-5.4,0.1-8.1,3-8.2,8.4c-0.1,5.4,0,10.9,0,16.3c0,7.6,2.5,10,10,10.1c4.4,0,8.8,0,13.5,0c0,11.1,0,21.4,0,31.7c0,3.5-2.8,2.8-4.9,3
	c-2.5,0.2-3.5-0.8-3.4-3.4c0.1-5.7,0.1-11.4,0-17.2c-0.1-5.9-2.8-8.7-8.7-8.8c-6-0.1-12-0.1-18,0c-6.2,0.1-8.9,2.8-9.1,8.9
	C267.2,672.6,267.4,677.6,267.3,683.5 M259.9,660.3c0-0.6,0.1-1.1,0-1.7c-0.6-4.1,0.8-6,5.2-5.5c3,0.3,6.1,0.1,9.2,0
	c5.6-0.1,8.5-2.9,8.7-8.5c0.2-5.9,0.2-11.7,0-17.6c-0.1-5.8-3-8.5-9-8.7c-5.6-0.1-11.2,0-16.7,0c-7.8,0-10.2,2.5-10.3,10.3
	c0,17,0,34,0,51c0,4.9-0.1,9.8,0.1,14.6c0.2,4.5,3.9,7.4,7.9,6.3c3.7-1,4.9-3.8,4.8-7.4C259.9,682.6,259.9,671.9,259.9,660.3
	 M247,746.5c0,6.3,0,12.5,0,18.8c0,6.6-0.1,13.1,0.1,19.7c0.1,3.9,2.8,6.4,6.4,6.4c3.5,0,6-2.4,6.3-6.4c0.1-1.4,0.1-2.8,0.1-4.2
	c0-11,0.1-22,0-33c0-3.1,1-4.3,4.1-4.1c3.3,0.2,6.7,0.1,10,0c5.9-0.1,8.8-2.8,9-8.6c0.2-5.9,0.2-11.7,0-17.6c-0.2-5.6-3-8.4-8.6-8.5
	c-6-0.1-12-0.1-18,0c-6.7,0.1-9.3,2.8-9.3,9.5C247,727.5,247,736.6,247,746.5 M256.9,799.5c-6.9,0.4-9.1,2.7-9.2,9.6
	c0,4.3-0.1,8.6,0,13c0.1,5.1,2.5,7.9,7.6,8.2c6.3,0.3,12.5,0.3,18.8-0.1c4.8-0.3,7.2-3.1,7.3-8c0.1-4.7,0.1-9.5,0-14.2
	c-0.1-5.4-2.9-8.2-8.3-8.4C268,799.4,262.9,799.5,256.9,799.5 M264.8,506c-0.7-5.6-3.3-7-8.1-4.6c-0.5,0.2-1,0.7-1.4,0.7
	c-6.5-0.7-8.5,3.8-10.4,8.7c-1.3,3.1-1.7,5.8,1.9,7.2c3.3,1.3,5.6-0.4,6.8-3.6c1-2.6,1.8-5.3,2.7-8c0.9,2.2,0.7,4.4,1.4,6.2
	c0.6,1.4,2.3,3.1,3.5,3.1c1.3,0,3.4-1.6,3.8-2.9C265.5,511.1,264.9,508.8,264.8,506 M322.1,535.1c-2.1-1.8-4-3.9-6.3-5.2
	c-2.9-1.6-6.2-0.7-7.6,2.1c-0.8,1.7,0,4.6,0.8,6.7c0.7,1.7,2.3,3.1,3.6,4.5c3,3.3,6.3,3.8,9.2,1.6
	C324.8,542.4,325,539.5,322.1,535.1 M274.4,514.1c1.8-3,1.1-11-1.5-13c-1.1-0.8-3.3-1.3-4.4-0.7c-1.1,0.5-1.9,2.7-1.8,4
	c0.1,2.3,0.9,4.6,1.5,6.9C268.8,514.3,270.5,515.8,274.4,514.1z"/>
<path class="st9" d="M902.3,923.2c5-23.1,9.6-45.9,14.9-68.6c2.3-9.8,5.5-19.3,8.7-28.8c1.9-5.7,3.9-6.8,10-6.8
	c14.5,0.1,29.1,1.2,43.5-0.1c30.2-2.6,60.5-2,90.7-2.5c25.5-0.4,51.1-0.5,76.3,4.4c17.8,3.5,20.6,6.9,22,24.9
	c1.8,23.2,0.5,46.2-2.7,69.2c-3,21.7-4.9,43.5-7.5,65.2c-1.3,10.7-3,21.3-4.5,31.9c-1.4,9.5-2.9,19-4.4,28.5c-0.2,1.4-0.7,2.7-1.1,4
	c-3,10.8-9.9,16.7-21.3,18.1c-25.9,3.2-51.8,2.9-77.7,1.8c-28-1.2-56-2.6-83.9-4.5c-20.3-1.4-40.5-3.7-60.7-5.6
	c-2.2-0.2-4.4-0.9-6.5-1.6c-7.7-2.6-11.7-8.2-11.9-16.3c-0.4-18.4,2-36.4,5.4-54.4C895.1,962.4,898.6,943,902.3,923.2
	 M1023.1,1001.6c3.8-6.7,7.6-13.3,11.4-20c1.4-2.6,2.9-3,5.2-1.1c2.5,2,5.2,3.7,7.7,5.7c9.1,7.1,18.2,14.4,29,18.8
	c3.6,1.5,7.4,3.4,11,0.3c3.7-3.2,2.1-7.2,1-10.9c-4.3-15.3-8.6-30.6-13.1-45.9c-0.7-2.4-0.4-3.8,1.6-5.3
	c8.1-6.1,16.2-12.4,24.1-18.7c3.4-2.7,6.9-5.3,9.7-8.6c1.3-1.5,1.8-4.6,1.2-6.4c-0.6-1.6-3.2-3.4-5-3.5c-6.2-0.2-12.5,0.1-18.8,0.4
	c-9.3,0.5-18.6,1.2-27.9,2c-3.4,0.3-4.5-1.1-4.2-4.3c0.8-9.9,1.7-19.7,2.1-29.6c0.4-8.2,0.5-16.5,0.2-24.7c-0.1-2-2.1-5.1-3.8-5.5
	c-1.7-0.5-5,1-6.2,2.7c-10.9,15.5-21.6,31.1-32.3,46.8c-2.8,4.2-5.3,8.6-8.1,13.1c-7.2-9.7-13.8-18.8-20.6-27.8
	c-3.3-4.3-6.7-8.6-10.6-12.4c-1.2-1.2-4.3-1.7-6-1.1c-1.4,0.5-2.5,3.3-2.6,5.1c-0.1,5,0.1,10.1,0.9,15c2.3,15.1,4.9,30.2,7.6,45.3
	c0.5,2.6-0.1,3.9-2.4,4.9c-3.7,1.7-7.3,3.5-11,5.2c-5.9,2.8-11.9,5.4-17.8,8.4c-4.5,2.3-5.8,6.3-2.9,9.1c1.4,1.3,3.5,2.3,5.5,2.6
	c14.4,2.3,28.9,4.7,43.4,6.4c4.3,0.5,5.2,2,5.1,5.9c-0.1,15.3-0.1,30.7,0.1,46c0,3.5,0.3,7.3,4.7,8.4c4,1,6.3-1.6,8.1-4.5
	C1014,1016.4,1018.4,1009.3,1023.1,1001.6z"/>
<path class="st10" d="M786.3,904.4c-13,0-25.5,0.2-38.1-0.1c-18-0.4-35.9-1-53.9-1.7c-19.6-0.7-39.2-1.6-58.8-2.5
	c-5-0.2-10-0.7-14.9-1.6c-9.4-1.6-13-5.3-13.2-14.8c-0.3-13.5,0.7-27.1,6-39.8c2.7-6.5,8.9-8.3,15.1-8.9c9.1-0.9,18.3-1.4,27.5-1.7
	c14.2-0.5,28.4-1.3,42.6-0.7c18.8,0.7,37.5,2.5,56.2,3.8c8,0.6,16.1,1.2,24.1,1.9c4.1,0.4,8.3,0.9,12.4,1.7
	c8.9,1.7,14.1,7.4,15,16.2c1.1,10.8,1.9,21.7-0.6,32.4C804,895.5,796.5,905.4,786.3,904.4 M678.6,853.9
	c-3.7,11.9-7.4,23.9-11.2,36.4c2.5,0.2,4,0.5,5.4,0.5c5.4,0.1,10.9-0.2,16.3,0.1c3.1,0.2,4.5-0.8,5.4-3.6
	c4.7-13.9,9.6-27.7,14.4-41.5c0.2-0.5,0.1-1,0.2-2.6c-5.7,0-11.1,0-16.5,0C682,843.1,682,843.1,678.6,853.9 M733.5,881.1
	c3.8-11.3,7.6-22.6,11.6-34.4c-8.6-0.7-16.6-1.4-24.6-1.8c-0.8,0-2.1,1.5-2.5,2.6c-4.2,13.7-8.3,27.4-12.4,41.1
	c-0.2,0.7-0.2,1.5-0.3,2.7c6.5,0.3,12.8,0.4,19,1c4.2,0.4,6.5-0.8,7.2-5.2C731.7,885.4,732.6,883.6,733.5,881.1 M665.2,861.4
	c2.1-5.9,4.2-11.7,6.6-18.2c-6.7,0-12.8-0.1-18.8,0.1c-0.9,0-2.4,1.4-2.7,2.4c-4.4,13.7-8.7,27.4-12.9,41.1
	c-0.3,0.8-0.3,1.8-0.4,2.6c6.2,0,12,0.1,17.8-0.1c1,0,2.3-1.7,2.7-2.9C660,878.3,662.5,870.2,665.2,861.4 M746.5,875.7
	c-1.7,5.5-3.4,11-5.2,16.8c6.7,0,12.8,0.2,18.9-0.1c1.1-0.1,2.6-1.8,3-3.1c2.2-7,4-14.2,6-21.3c1.8-6.1,3.6-12.2,5.5-18.6
	c-6.2-0.6-11.9-1.3-17.7-1.5c-1,0-2.8,1.6-3.1,2.8C751.3,858.7,749.1,866.9,746.5,875.7 M797.1,862c-0.2-9.4-1.6-11.4-13.5-11.6
	c-3.4,13.8-6.8,27.7-10.4,42.2c5.2,0,10-0.3,14.7,0.1c3.3,0.2,5.1-1.2,6.1-3.9c0.8-2,1.3-4.3,1.5-6.5
	C796.2,875.8,796.6,869.3,797.1,862 M633.7,865.9c2.6-7.3,5.1-14.7,8.1-23.2c-7,0.8-13.2,1.1-19.2,2.3c-1.5,0.3-3.4,3.1-3.6,4.8
	c-1,10.4-1.6,20.8-2.2,31.2c-0.1,1.5-0.2,3.5,0.6,4.5c1.4,1.6,3.4,2.9,5.5,3.4c1,0.2,3.1-1.4,3.6-2.7
	C629,879.8,631.1,873.1,633.7,865.9z"/>
<path class="st11" d="M898.9,401.9c20.7-1.1,41-2.2,61.3-3.3c7.4-0.4,14.7-0.8,22.1-0.9c51.2-0.6,102.4-1.3,153.5-1.6
	c20-0.2,39.8,2.1,59.4,5.5c10,1.7,20,3.8,29.8,6.3c16.6,4.3,26.1,16.1,30.7,31.9c2.3,7.8,3.4,16.1,3.7,24.3
	c0.6,16.3,0.5,32.7,0.1,49c-0.5,21.6-1.4,43.2-2.6,64.7c-0.7,12.3-1.7,24.8-4,36.9c-4.4,24-20.8,38.8-44.9,42.8
	c-15.5,2.6-31,2.2-46.6,0.9c-9.7-0.8-19.4-1.5-29.2-1.7c-19.4-0.5-38.8-0.6-58.1-0.9c-14.9-0.2-29.8-0.5-44.7-0.9
	c-16.3-0.4-32.6-1.1-48.9-1.6c-20.1-0.6-40.1-1.2-60.2-1.7c-19.4-0.4-38.8-0.7-58.1-0.8c-13.4,0-26.8,0.9-40.1,0.7
	c-25.9-0.3-51.9-0.3-77.7-1.9c-22.2-1.4-44.3-4.1-66.3-7.5c-13-2-25.2-7.2-36.3-14.5c-12.5-8.3-17.5-21.3-20.3-35.2
	c-3.6-17.5-1.9-35.3-1.6-52.9c0.5-28.3,1.4-56.6,8.3-84.2c2.2-8.8,4.5-17.5,7.1-26.3c2.2-7.7,7.5-13,15.1-14.9
	c9.4-2.4,19-4.7,28.7-5.2c20.7-1,41.5-1,62.3-1c18.5,0,37.1,0.9,55.6,0.6c16.2-0.3,32.4-2,48.6-3c9.3-0.6,18.6-1.2,27.9-1.8
	C881.8,403,890.2,402.5,898.9,401.9 M1243.2,446.4c-2.1-14.2-9.2-24-23.7-27.4c-3.5-0.8-7-2.2-10.5-2.7c-26-4.3-52.2-7.5-78.6-7.7
	c-61-0.2-122-0.1-182.9,3.9c-27.4,1.8-54.9,3-82.3,4.8c-34.7,2.3-69.3,5.2-104.1,4.5c-23.9-0.5-47.7-0.7-71.6-0.5
	c-9.2,0.1-18.3,1.6-27.5,2.4c-10.1,0.9-15.7,6.9-18.7,16c-0.3,0.8-0.6,1.6-0.8,2.4c-2.6,12.5-6.5,25-7.4,37.7
	c-2,30-2.8,60.2-3.5,90.3c-0.2,7.9,1,15.9,2.7,23.6c2.2,9.6,6,18.6,15.2,24.1c10.2,6.1,21,11,32.6,12.6c21.7,3,43.5,6,65.3,6.7
	c37.2,1.3,74.5,0.7,111.7,1.2c49.1,0.6,98.2,1.3,147.3,2.3c32.2,0.6,64.4,1.7,96.6,2.8c20.8,0.7,41.5,2,62.3,2.8
	c15.3,0.6,30.7,1.4,45.9-2c14.2-3.2,23.8-11.3,28-25.2c1.3-4.2,2.6-8.6,2.8-13c1.1-19.2,1.7-38.5,2.6-57.7c0.3-7.5,0.9-15,1.2-22.6
	C1247.1,499.3,1248.9,473.1,1243.2,446.4z"/>
<path class="st12" d="M946.8,275.1c-4.9-4.2-6.1-10.8-3.1-17.3c1.5-3.2,3.7-6.2,5.6-9.3c-4-2.8-14.5-1.4-19.1,2.8
	c-5.2,4.7-7.7,10.8-8.8,17.6c-0.7,4.2,1,7.5,3.9,10.6c1.2,1.3,1.3,3.6,1.9,5.4c-2,0-4.4,0.6-6.1-0.1c-4.2-1.8-6.8-5.3-7.9-9.7
	c-2.8-11.8,6-32.5,20.4-35.8c8.3-1.9,16.5-2.9,24.4,1.6c1.2,0.7,3.1,0.4,4.7,0.2c4.1-0.5,8.2-1.7,12.4-1.8
	c18.1-0.2,24.1,12.7,22.2,27.2c-0.9,6.5-4.4,12-9,16.7c-3.4,3.5-7.1,3.9-9.6,1.5c-2.5-2.4-1.9-6,1.5-9.5c4.7-4.7,7.5-10,6.3-16.9
	c-0.9-5.2-3.1-7.9-8.3-8.5c-3.8-0.5-7.6-0.1-11.6-0.1c0.3,4.9,0.7,8.6,0.7,12.3C967.4,274.5,958.7,280.1,946.8,275.1 M951.6,264.4
	c0.6,1.2,1.2,2.3,1.8,3.5c1.2-0.9,3.3-1.6,3.5-2.7c0.5-2.8,0.2-5.7,0.2-8.5c-0.5-0.1-0.9-0.2-1.4-0.3
	C954.3,258.8,953,261.2,951.6,264.4z"/>
<path class="st1" d="M325.9,589.4c3.7,5.6,2.4,14.7-2.5,18.8c-5.1,4.3-13.3,3.7-18.2-1.6c-2.2-2.3-3.9-5.1-6-7.9
	c-2.8,1.8-5.7,3.7-8.6,5.5c-2.9,1.8-5.8,1.7-8.6-0.2c-4.1-2.8-4.1-7.1,0-9.9c3.5-2.3,7.2-4.3,10.5-6.9c1.2-0.9,2-3.2,1.8-4.8
	c-0.7-5.7-2.1-11.2-2.9-16.9c-0.4-2.6-1.6-3.6-4.1-3.5c-2.4,0.1-4.7,0-7.1,0c-7.1,0-7.1,0-5.9,7.8c2.1-0.2,4.3-0.4,6.4-0.7
	c3-0.3,5.2,0.8,6.2,3.8c1,3.1-0.3,5.5-2.9,7.1c-1.3,0.8-2.8,1.3-4.3,1.5c-7.2,1.2-5.7,1-5.9,7.4c-0.2,4.2-0.1,8.4-0.7,12.5
	c-0.7,4.8-4.5,6.8-8.8,7.8c-4.6,1.1-9.4,2.2-12.6-2.4c-1.3-1.8-2-4.8-1.5-6.8c0.3-1.3,3.5-2.6,5.4-2.5c4.3,0.1,5.4-1.7,5-5.5
	c-0.2-2,0-4.1,0-6.8c-2.9,0.5-5.2,1-7.4,1.4c-4.4,0.7-8.1-1.7-8.8-5.7c-0.7-3.6,1.8-6.5,6.3-7.3c2.2-0.4,4.4-0.8,6.6-0.9
	c2.8-0.1,3.4-1.6,3.4-4.1c0-6.6,0.1-6.6-6.4-6.7c-6.5,0-9.5-2-9.5-6.2c0-4.1,3.1-6,9.6-6c6.9,0,7.1-0.3,5.6-7.9
	c-2.3,0.2-4.7,1-6.8,0.5c-2.4-0.7-5.1-2.1-6.6-4c-2.1-2.7-0.7-6,2.7-6.7c8.4-1.8,16.9-3.4,25.4-5c1.4-0.3,3.1,0.1,4.5,0.5
	c3,1,5.9,2.5,5.8,6.2c-0.1,3.8-3.2,4.4-6.2,5c-4.5,1-6.7,5.4-4.8,9.9c0.3,0.7,1.4,1.3,2.2,1.4c3.6,0.1,7.3,0.1,10.9,0.1
	c2.5,0,2.4-1.6,2.3-3.4c-0.3-4.5-0.5-8.9-0.5-13.4c0-4.6,2.6-7.5,6.6-7.5c4,0,6.7,2.7,6.9,7.3c0.2,4.2,0.4,8.4,0.4,12.5
	c0,3.3,1.2,4.7,4.7,4.5c4-0.3,8.1-0.1,12.1,0c4.5,0.1,7.1,2.2,7.1,5.9c0.1,3.9-2.5,6.1-7.2,6.2c-4.7,0.1-9.4,0-15,0
	c0.6,4.1,1.1,7.7,1.8,12.3c1.9-2.3,3-3.7,4.2-5c2.8-3.1,7-3.7,9.7-1.5c2.8,2.3,2.8,4.8-0.1,8.8c-2.6,3.5-5.4,6.7-8.1,10.1
	c-2,2.5,0,9.5,3.1,10.1c0.6,0.1,1.8-0.6,2.2-1.2c0.6-1.1,0.8-2.4,1-3.6C319.2,586.2,321.1,585.4,325.9,589.4z"/>
<path class="st13" d="M245.9,489.4c2.9-0.7,5.6-1.3,8.3-1.7c1.7-0.3,3.5-0.3,5.2-0.4c0.1-0.4,0.2-0.8,0.3-1.2
	c-0.8-0.4-1.5-1.2-2.3-1.3c-2.1-0.2-4.2,0-6.3-0.2c-2.9-0.2-5.1-2-4.6-4.8c0.3-1.8,2.5-4,4.4-4.6c2.6-0.9,5.6-0.5,8.4-0.7
	c0.1-0.5,0.1-1,0.2-1.5c-1.4-0.3-2.7-0.8-4.1-0.8c-7.1-0.2-9.6-2.5-9.8-9.5c-0.1-5.7-0.2-11.4,0-17.2c0.2-6.3,2.8-8.8,9.1-8.9
	c7.3-0.1,14.5-0.1,21.8,0c6.3,0.1,8.9,2.7,9,8.9c0.1,5.9,0.1,11.7,0,17.6c-0.1,6.2-2.8,8.8-9,9c-1.8,0.1-3.6,0.3-5.3,0.5
	c0,0.5,0,1-0.1,1.5c1.1,0.2,2.1,0.5,3.2,0.6c2.1,0.2,4.2,0,6.2,0.3c2.7,0.4,4.7,2.3,3.9,4.9c-0.6,1.8-2.7,3.9-4.5,4.4
	c-2.7,0.7-5.8,0.2-8.7,0.2c0,0.6-0.1,1.2-0.1,1.9c1.3,0.2,2.6,0.4,4,0.5c1.1,0.1,2.2,0,3.3,0c2.9-0.1,6.2-0.4,7.4,3.2
	c1.1,3.4-0.2,6-3.7,7.2c1.6,3.3,3,6.1,4.4,9c0.1,0.2,0.4,0.3,1.1,0.7c0-6.9,0-13.5,0-20.1c0-7.3,1.3-9,8.7-10.1
	c2.7-0.4,2.5-2,2.5-3.8c0-9.8,0-19.5,0-29.3c0-1.5,0.1-3.1,0.4-4.6c0.8-3.2,3.1-5,6.4-4.8c3.4,0.2,5.4,2.3,5.6,5.6
	c0.2,3.1,0.2,6.1,0.2,9.2c0,2.1,0.8,3,3,3c2.6-0.1,5.3-0.1,7.9,0.2c3.3,0.4,5.4,2.3,5.5,5.7c0.1,3.7-2.2,5.7-5.6,6.1
	c-2.3,0.3-4.7,0.3-7.1,0.1c-3-0.2-4.1,1.1-3.8,3.9c0.1,0.6,0,1.1,0,1.7c0,6.3,0,6.3,6.3,6.9c4.6,0.4,7.4,3.1,7.5,8
	c0.2,9.3,0.3,18.7-0.1,28c-0.1,2.1-1.9,4.8-3.8,5.8c-2.5,1.4-5.3,0.8-8.5-0.5c-4-1.5-9.7-2.1-13.3-0.3c-5.9,3-10.5,2.3-12-4.3
	c-0.1-0.4-0.3-0.7-0.5-1.1c-9.6,0.5-13-9.2-8.4-14.3c-9,0-18.5,0-28.1,0C244.9,498.3,242.9,494.9,245.9,489.4 M306.9,488.7
	c-0.8,0-1.7,0.1-2.5,0c-3.9-0.6-5.1,1.2-4.8,4.9c0.3,2.9-0.2,5.8,0.2,8.7c0.1,1,1.6,2.5,2.6,2.6c10.7,1.3,10.8,1.2,10.8-9.5
	c0-0.4,0-0.8,0-1.2C313.2,488.8,313.2,488.8,306.9,488.7 M269.1,449.9c0,1.4,0,2.9,0,4.3c1.7-2,3.2-3.8,4.7-5.6
	c0.6-0.7,1.2-1.5,1.8-2.2c-0.8-0.4-1.5-1-2.4-1.1C270.1,444.7,268.7,446.1,269.1,449.9 M260.8,452.1c0.1,0.1,0.2,0.2,0.3,0.3
	c0.1,0,0.4,0,0.4,0c0-2.2,0-4.5,0-6.8c-1.3-0.1-2-0.4-2.6-0.2c-1.2,0.3-2.3,0.9-3.4,1.3c0.9,0.7,1.8,1.3,2.5,2
	C259,449.6,259.8,450.6,260.8,452.1 M257.9,459.5c-0.7-1.2-1.5-2.3-2.5-3.9c0,2.2-0.3,3.9,0.1,5.5c0.3,1.1,1.5,2.4,2.5,2.6
	c1,0.2,2.2-0.8,3.4-1.2C260.4,461.6,259.4,460.7,257.9,459.5 M275.7,460.3c-0.1-1-0.1-2-0.2-2.8c-1.8,1.1-3.6,1.9-5,3.1
	c-0.5,0.4-0.6,2.4-0.1,2.8C272.1,464.9,275,463.5,275.7,460.3z"/>
<path class="st14" d="M297.2,392.7c6.2,5.1,12.3,10.3,18.5,15.4c1.2,1,2.7,1.5,4,2.2c5,2.8,6.3,5.4,4.6,8.7c-2.3,4.4-8,6.3-12.2,3.5
	c-5.5-3.8-10.6-8.1-15.8-12.4c-1.1-0.9-1.8-2.4-2.7-3.6c-0.5,0.3-0.9,0.5-1.4,0.8c0,4.8,0.1,9.6,0,14.4c-0.1,4.5-2.5,7.3-6.2,7.7
	c-4.4,0.5-7.6-2.6-7.8-7.8c-0.2-4.4,0-8.9,0-14.3c-3.2,2.9-5.6,5.3-8.3,7.3c-3.9,3-7.9,5.7-11.9,8.5c-2.9,1.9-5.9,1.4-8.6-0.4
	c-4.6-3-4.4-7.8,0.1-10.8c6-4,12.2-7.8,17.9-12.3c3.6-2.9,6.5-6.9,9.5-10.5c0.8-1,1.3-2.5,1.3-3.8c0.2-5,0-10,0.1-15.1
	c0-2-0.6-3.2-2.8-3.1c-2.9,0.1-5.8,0-9.8,0c4.5,2.8,6.6,5.8,5.1,10.4c-0.2,0.6,0.9,1.9,1.6,2.7c2.7,2.6,4.1,5.5,1.8,8.9
	c-2.4,3.4-5.5,3.3-8.8,1.3c-0.2-0.1-0.5-0.1-1-0.1c-1.3,1.6-2.6,3.5-4,5.1c-3,3.4-6.7,3.9-10,1.3c-2.9-2.3-2.9-5.5-0.1-9.2
	c6.4-8.4,9-13.9,9.4-20.3c-1.9,0-3.8,0.1-5.7,0c-4.5-0.3-7.4-2.9-7.3-6.5c0-3.6,2.9-6.3,7.4-6.4c6.4-0.2,12.8-0.1,19.2-0.1
	c1.5,0,3,0,4.7,0c0.8-5,1-10.3,7.6-10.3c4.3,0,5.8,2.1,7.5,10.3c7,0,14,0,21.1,0c1.8,0,3.6-0.1,5.4,0.2c3.6,0.6,5.9,2.6,5.8,6.5
	c-0.1,3.6-2.3,5.7-5.7,6c-3.3,0.3-6.7,0.1-11.3,0.1c4.4,3,6.6,5.8,5.2,10.2c-0.2,0.7,1,2.1,1.8,2.9c1.9,1.7,4,3,5.9,4.6
	c2.7,2.3,3.4,5.1,1.4,8.1c-1.7,2.6-5.7,3.3-8.6,1.5c-2.2-1.4-4.2-3.2-5.3-4.1c-4,0.8-7.1,1.4-10.7,1.8c-0.7-0.1-1,0-1.2,0
	C296.9,392.4,297,392.6,297.2,392.7 M301.7,370.5c0.8-1.8,0.9-3.3-1.8-3.3c-1.9,0-3.9-0.1-5.8,0.1c-0.7,0.1-1.7,1.1-1.7,1.8
	c-0.1,5.6-0.1,11.2-0.1,17.8C297.3,382,299.8,376.8,301.7,370.5z"/>
<path class="st1" d="M279.4,844c-2.7,0-5.1,0-7.7,0c0,2,0,3.6,0,5.9c1.8,0,3.7,0,5.6,0c3.1,0.1,5.8,1.1,5.8,4.6
	c0,3.5-2.4,4.7-5.7,4.6c-0.1,0-0.3,0-0.4,0c-5.1,0.1-7.5,3.9-5.4,8.6c0.3,0.6,1.2,1.2,1.8,1.3c4.5,0.5,9,0.8,12.5,1
	c0.2-3.5-0.5-6.9,0.8-8.8c2.6-3.6,6.5-6.3,11.5-5.5c1.4,0.2,3.2,1.5,3.7,2.7c0.4,0.9-0.4,3-1.4,3.9c-2.5,2.5-5.4,4.7-8.6,7.3
	c9.1,0,17.8,0,26.7,0c-2-5.3-11.3-7.7-4.9-15.6c-6.2,0-11.7,0-17.3,0c-6.4-0.1-9.2-2.8-9.2-9.2c-0.1-8-0.1-15.9,0-23.9
	c0.1-6,2.6-8.4,8.6-9c1.4-0.1,2.7-1.2,4-1.8c-0.1-0.6-0.3-1.2-0.4-1.8c-2.8,0-5.7,0.1-8.5,0c-3.2-0.1-6.1-0.8-6-4.8
	c0.2-3.7,2.9-4.2,6-4.2c9.9,0,19.8,0,29.7,0c3.2,0,5.8,0.9,5.8,4.4c0,3.6-2.7,4.5-5.8,4.6c-2.1,0-4.2-0.2-6.3,0.1
	c-1.4,0.2-2.6,1-3.9,1.6c0.1,0.5,0.2,1,0.3,1.5c1.4,0.1,2.8,0.3,4.2,0.4c6.7,0.2,9.3,2.8,9.3,9.5c0.1,8-0.1,15.9,0.1,23.9
	c0.1,4.5-1.3,7.6-6,8.9c2.3,2.5,5.3,4.4,6.2,7.2c0.7,2.3-1.1,5.4-1.7,7.8c1.1,1.1,3.9,2.6,4,4.4c0.2,3.2-2.4,5.5-5.7,6.3
	c-1.3,0.3-2.8,0.2-4.2,0.2c-12.1,0-24.3,0.1-36.4-0.1c-9.5-0.2-18.7-1.6-25.7-9.4c-0.9,2.3-1.4,4.3-2.5,5.8
	c-0.8,1.2-2.4,2.6-3.6,2.6c-1.3,0-3.4-1.2-3.9-2.4c-0.9-2.2-1.3-4.9-1-7.2c0.7-5.6,2-11.2,2.8-16.8c0.5-3.4,2-5.7,5.5-5.6
	c3.6,0.1,4.7,2.6,4.9,6c0.1,2.7,1,5.3,1.5,7.9c0.5-0.1,1.1-0.2,1.6-0.2c0-4.8,0.1-9.6-0.1-14.4c0-0.8-1.6-2.1-2.6-2.2
	c-2.8-0.3-5.6-0.1-8.4-0.2c-3.1-0.1-5.1-1.6-4.9-4.9c0.1-3.1,2.2-4.3,5.1-4.3c9.9,0,19.8,0,29.7,0c3,0,5.4,1,5.5,4.3
	C284.9,842.3,282.8,843.8,279.4,844 M312.2,844.4c-0.2-0.5-0.3-1.4-0.5-1.4c-4-0.2-7.9-0.3-11.9-0.3c-0.4,0-1.1,1.2-1,1.4
	c0.3,0.6,1.1,1.4,1.6,1.4C304.2,845.4,308.1,845.2,312.2,844.4 M303.1,834.7c2.4,0,4.7,0.1,7.1-0.1c0.7-0.1,1.4-1,2.1-1.5
	c-0.7-0.5-1.4-1.4-2.1-1.4c-2.6-0.2-5.3-0.2-7.9,0c-1.2,0.1-2.3,0.9-3.4,1.4C299.9,833.5,301.1,834.1,303.1,834.7 M306.9,820.6
	c-2.1,0-4.2-0.1-6.2,0.1c-0.7,0.1-1.3,0.8-1.9,1.2c0.6,0.6,1.2,1.6,1.8,1.7c2.3,0.2,4.7,0.3,7.1,0.1c1.6-0.2,3.1-1,4.6-1.6
	C310.7,821.6,309.1,821.1,306.9,820.6z"/>
<path class="st1" d="M307.9,743.8c-4.2,0-7.9,0.1-11.7-0.1c-5.2-0.2-8-3-8.1-8.1c-0.1-6.3-0.1-12.6,0-18.8c0.1-4.7,2.9-7.7,7.5-7.8
	c7.1-0.2,14.2-0.2,21.3,0c4.8,0.1,7.8,3,7.9,8c0.1,20.5,0.2,41-0.2,61.5c-0.2,9.4-10.5,15.6-19.4,12.3c-4-1.5-6-4.8-7.2-8.7
	c-0.8-2.6-2.3-3.9-5.2-3.6c-2.3,0.2-4.7,0.1-7.1,0c-3,0-5.6-0.3-7.6,3.2c-2.1,3.7-9.8,1.7-10.1-2.8c-0.6-8.2-0.4-16.4,0.1-24.6
	c0.2-3.3,3.1-5.3,6.6-5.3c7.1-0.1,14.2-0.2,21.3,0c4.6,0.2,7.1,3.2,7.2,8c0.1,5.9,0.1,11.7,0,17.6c-0.1,2.7,0.9,3.8,3.6,3.6
	c2.5-0.1,4.8,0,4.7-3.6c-0.1-9.3-0.1-18.7,0-28.1C311.6,744.4,310.4,743.7,307.9,743.8 M285.9,759.5c-0.4,0-0.8,0-1.2,0
	c-2.9-0.2-5.2-0.2-5.2,4.1c-0.1,4.6,2.2,4.6,5.4,4.3c0.5,0,1.1-0.1,1.7,0c3.1,0.3,4.9-0.2,4.8-4.1
	C291.2,760.4,290,759.1,285.9,759.5 M311.1,733.7c-0.6-1-1-2.9-1.7-3c-2.2-0.4-4.5-0.3-6.7,0c-0.8,0.1-1.4,1.2-2.1,1.9
	c0.8,0.6,1.6,1.6,2.4,1.6C305.5,734.3,308,734.1,311.1,733.7 M302.2,721.8c2.5,0,5,0.2,7.5-0.1c0.6-0.1,1-1.6,1.5-2.4
	c-3.5,0.1-7,0.2-10.5,0.3C301,720.3,301.2,721,302.2,721.8z"/>
<path class="st1" d="M267.3,683.1c0-5.4-0.1-10.4,0-15.5c0.2-6.2,3-8.8,9.1-8.9c6-0.1,12-0.1,18,0c6,0.1,8.6,2.9,8.7,8.8
	c0.1,5.7,0.1,11.4,0,17.2c-0.1,2.6,0.9,3.6,3.4,3.4c2.1-0.2,4.9,0.5,4.9-3c0-10.3,0-20.6,0-31.7c-4.7,0-9.1,0-13.5,0
	c-7.5-0.1-10-2.5-10-10.1c0-5.4-0.1-10.9,0-16.3c0.1-5.4,2.8-8.3,8.2-8.4c6.4-0.2,12.8-0.1,19.3,0c6.6,0.1,9.3,2.8,9.3,9.6
	c0.1,16.7,0.1,33.5,0,50.2c0,4.2-0.2,8.4-0.6,12.5c-0.5,4.9-3.5,7.9-8.2,8.8c-3.4,0.7-7,1.3-10.3,0.8c-4.4-0.7-6.5-4.6-7.7-8.6
	c-0.9-2.9-2.6-4-5.5-3.7c-2.8,0.2-5.6,0.1-8.4,0c-2.5-0.1-4.3,0.1-5.7,2.8c-0.7,1.3-3.8,2.3-5.3,1.9c-2-0.5-3.9-2.3-5.1-4.1
	C267.1,687.4,267.5,685.3,267.3,683.1 M283.6,677.5c1.7,0,3.3,0.2,5-0.1c0.9-0.1,2.1-0.8,2.4-1.6c1.7-4.3-0.1-6.7-4.7-6.8
	c-1.1,0-2.2,0.1-3.3,0c-2.1-0.1-3.7,0.4-3.3,2.9C279.9,674.2,278.1,677.8,283.6,677.5 M308.4,643.9c1-0.7,2.1-1.4,3.1-2.2
	c-1.1-0.6-2.1-1.5-3.2-1.7c-1.9-0.3-3.9-0.2-5.8,0.1c-0.8,0.1-1.4,1.3-2.1,1.9c0.7,0.6,1.4,1.6,2.2,1.7
	C304.3,644,306,643.8,308.4,643.9 M311.2,628.7c-2.9-0.2-5.7-0.5-8.6-0.5c-0.7,0-1.3,1-2,1.6c0.6,0.6,1.2,1.6,1.8,1.6
	c2.5,0.2,5,0.2,7.5,0C310.5,631.2,311,630,311.2,628.7z"/>
<path class="st0" d="M259.9,660.7c0,11.1,0,21.9,0,32.6c0,3.6-1.2,6.4-4.8,7.4c-4.1,1.1-7.7-1.7-7.9-6.3c-0.2-4.9-0.1-9.8-0.1-14.6
	c0-17,0-34,0-51c0-7.8,2.5-10.2,10.3-10.3c5.6,0,11.2-0.1,16.7,0c5.9,0.1,8.8,2.9,9,8.7c0.1,5.9,0.2,11.7,0,17.6
	c-0.2,5.6-3.1,8.4-8.7,8.5c-3.1,0.1-6.2,0.3-9.2,0c-4.4-0.5-5.8,1.4-5.2,5.5C260,659.2,259.9,659.8,259.9,660.7 M263,640
	c-1,0.6-2,1.3-3.1,1.9c1,0.6,2,1.5,3.2,1.8c1.5,0.3,3.1,0.3,4.5,0c1.1-0.2,2-1.2,3-1.9c-0.9-0.6-1.8-1.5-2.7-1.7
	C266.5,639.7,265.1,639.9,263,640 M260,630.1c3.2,0.4,6.5,0.8,9.7,1c0.2,0,0.8-0.9,0.7-1.3c-0.1-0.6-0.7-1.5-1-1.5
	C266.3,628.6,263.2,629,260,630.1z"/>
<path class="st0" d="M247,746.1c0-9.5,0-18.5,0-27.6c0-6.7,2.7-9.4,9.3-9.5c6-0.1,12-0.1,18,0c5.6,0.1,8.5,2.9,8.6,8.5
	c0.2,5.9,0.2,11.7,0,17.6c-0.2,5.8-3.1,8.5-9,8.6c-3.3,0.1-6.7,0.2-10,0c-3.1-0.2-4.1,1-4.1,4.1c0.1,11,0.1,22,0,33
	c0,1.4,0,2.8-0.1,4.2c-0.3,3.9-2.8,6.4-6.3,6.4c-3.6,0-6.2-2.5-6.4-6.4c-0.2-6.5-0.1-13.1-0.1-19.7C247,759,247,752.8,247,746.1
	 M268.1,730.4c-1.9,0-3.9-0.1-5.8,0.1c-0.8,0.1-1.8,0.7-2.2,1.4c-0.2,0.4,0.5,1.9,0.8,1.9c3.1,0,6.2-0.2,9.3-0.4
	c-0.2-0.9-0.4-1.9-0.7-2.8C269.5,730.6,269.1,730.5,268.1,730.4 M268.9,718.6c-2.2,0-4.4-0.2-6.6,0.1c-0.8,0.1-1.4,1.4-2.1,2.2
	c2.3,0.3,4.7,0.9,7,1c1.1,0,2.2-0.9,3.3-1.4C270.2,719.9,269.9,719.3,268.9,718.6z"/>
<path class="st14" d="M257.3,799.5c5.6,0,10.7-0.1,15.9,0c5.4,0.1,8.2,3,8.3,8.4c0.1,4.7,0.1,9.5,0,14.2c-0.1,4.8-2.5,7.7-7.3,8
	c-6.2,0.4-12.5,0.4-18.8,0.1c-5.1-0.3-7.4-3.1-7.6-8.2c-0.1-4.3-0.1-8.6,0-13C247.8,802.2,250,799.9,257.3,799.5 M267.2,821.6
	c0.7-0.5,1.4-1,2.1-1.5c-0.6-0.4-1.2-1.2-1.9-1.2c-2.1-0.2-4.2-0.2-6.3,0c-0.6,0-1.2,0.8-1.8,1.3c0.6,0.5,1.1,1.3,1.7,1.3
	C262.8,821.7,264.7,821.6,267.2,821.6 M260,810.5c3.1,0,6.2,0,9.4,0c0-0.6,0-1.2,0-1.8c-3.2-1-6.5-1.3-9.8,0.2
	C259.4,808.9,259.5,809.6,260,810.5z"/>
<path class="st10" d="M264.8,506.4c0.1,2.4,0.7,4.7,0.1,6.5c-0.4,1.3-2.5,2.9-3.8,2.9c-1.2,0-3-1.7-3.5-3.1c-0.7-1.8-0.5-4-1.4-6.2
	c-0.9,2.7-1.7,5.3-2.7,8c-1.2,3.2-3.5,4.9-6.8,3.6c-3.6-1.4-3.2-4.1-1.9-7.2c2-4.9,3.9-9.4,10.4-8.7c0.4,0,0.9-0.5,1.4-0.7
	C261.5,499.1,264.1,500.5,264.8,506.4z"/>
<path class="st14" d="M322.4,535.3c2.6,4.2,2.4,7.1-0.5,9.4c-2.8,2.2-6.2,1.7-9.2-1.6c-1.3-1.4-3-2.8-3.6-4.5
	c-0.8-2.1-1.7-5-0.8-6.7c1.4-2.8,4.7-3.7,7.6-2.1C318.2,531.2,320,533.3,322.4,535.3z"/>
<path class="st10" d="M274.1,514.3c-3.6,1.6-5.3,0.1-6-3c-0.6-2.3-1.4-4.6-1.5-6.9c0-1.4,0.8-3.5,1.8-4c1.1-0.6,3.3-0.1,4.4,0.7
	C275.5,503.1,276.2,511.1,274.1,514.3z"/>
<path class="st15" d="M1023,1001.9c-4.6,7.4-8.9,14.5-13.4,21.6c-1.9,3-4.2,5.5-8.1,4.5c-4.3-1.1-4.6-4.9-4.7-8.4
	c-0.2-15.3-0.3-30.7-0.1-46c0-3.9-0.8-5.4-5.1-5.9c-14.5-1.7-28.9-4.1-43.4-6.4c-1.9-0.3-4.1-1.3-5.5-2.6c-2.9-2.8-1.6-6.7,2.9-9.1
	c5.8-3,11.8-5.6,17.8-8.4c3.7-1.7,7.3-3.5,11-5.2c2.3-1,2.9-2.3,2.4-4.9c-2.7-15.1-5.3-30.2-7.6-45.3c-0.8-4.9-1-10-0.9-15
	c0-1.8,1.2-4.5,2.6-5.1c1.6-0.7,4.7-0.2,6,1.1c3.8,3.8,7.3,8.1,10.6,12.4c6.8,9,13.4,18.1,20.6,27.8c2.7-4.5,5.2-8.9,8.1-13.1
	c10.7-15.7,21.3-31.3,32.3-46.8c1.2-1.7,4.5-3.2,6.2-2.7c1.7,0.5,3.7,3.5,3.8,5.5c0.3,8.2,0.2,16.5-0.2,24.7
	c-0.5,9.9-1.3,19.7-2.1,29.6c-0.3,3.2,0.8,4.6,4.2,4.3c9.3-0.8,18.6-1.5,27.9-2c6.3-0.4,12.5-0.7,18.8-0.4c1.8,0.1,4.4,1.9,5,3.5
	c0.6,1.8,0.1,4.9-1.2,6.4c-2.8,3.2-6.3,5.9-9.7,8.6c-8,6.3-16,12.5-24.1,18.7c-2,1.5-2.3,3-1.6,5.3c4.5,15.3,8.8,30.5,13.1,45.9
	c1,3.7,2.7,7.7-1,10.9c-3.6,3.1-7.3,1.2-11-0.3c-10.8-4.5-19.9-11.7-29-18.8c-2.5-2-5.3-3.7-7.7-5.7c-2.3-1.9-3.8-1.5-5.2,1.1
	C1030.8,988.3,1026.9,994.9,1023,1001.9 M979.9,895.6c2.6,12.5,5.2,25.1,7.9,37.6c0.7,3.4,0.8,6.5-2.7,8.3c-5,2.5-10,4.9-15,7.3
	c-2,1-4.1,2-6.9,3.4c1.5,0.4,2,0.6,2.5,0.7c11,1.6,22,3.1,33,4.8c5.8,0.9,7.1,2.7,7.2,8.7c0.3,12.1,0.6,24.2,0.9,36.4
	c0,1,0.3,2.1,0.7,4.2c1.3-2,2.1-3.1,2.8-4.2c6.3-10.7,12.4-21.5,18.9-32.1c3.1-5.1,6.4-5.6,11.2-2.2c6.1,4.4,11.9,9.1,18,13.6
	c5.5,4.1,11.1,7.9,16.7,11.9c0.3-0.3,0.7-0.7,1-1c-0.3-1.2-0.5-2.3-0.8-3.5c-4-13.8-7.9-27.6-11.9-41.4c-1.5-5-0.2-8.8,4.2-12
	c6.4-4.7,12.6-9.7,18.8-14.6c1.2-1,2.4-2,4.5-3.8c-2.6,0-3.8-0.1-5,0c-10.7,1-21.3,2.1-32,3.1c-6.2,0.6-10.4-2.6-10.1-8.2
	c0.5-9.2,1.4-18.3,2.1-27.5c0.5-6.1,0.9-12.3,1.4-18.4c-1.7,0.4-2.4,1-2.9,1.8c-10.6,15.9-21.2,31.7-31.7,47.7
	c-3.9,5.9-7.2,6.2-11.3,0.3c-3-4.3-5.6-9-8.6-13.4c-4.4-6.4-9-12.7-13.5-19c-0.3,0.2-0.6,0.3-0.9,0.5
	C978.7,888,979.3,891.5,979.9,895.6z"/>
<path class="st16" d="M678.7,853.5c3.3-10.4,3.3-10.4,13.9-10.4c5.4,0,10.8,0,16.5,0c-0.1,1.6,0,2.1-0.2,2.6
	c-4.8,13.8-9.7,27.6-14.4,41.5c-1,2.9-2.4,3.8-5.4,3.6c-5.4-0.3-10.9-0.1-16.3-0.1c-1.5,0-2.9-0.3-5.4-0.5
	C671.2,877.7,674.9,865.8,678.7,853.5z"/>
<path class="st16" d="M733.4,881.4c-0.8,2.1-1.7,3.9-2,5.8c-0.6,4.4-3,5.6-7.2,5.2c-6.2-0.6-12.4-0.7-19-1c0.1-1.2,0.1-2,0.3-2.7
	c4.1-13.7,8.2-27.5,12.4-41.1c0.3-1.1,1.7-2.6,2.5-2.6c8,0.4,16,1.1,24.6,1.8C741.1,858.5,737.3,869.8,733.4,881.4z"/>
<path class="st17" d="M665.1,861.7c-2.6,8.4-5,16.6-7.7,24.7c-0.4,1.2-1.7,2.9-2.7,2.9c-5.8,0.3-11.7,0.1-17.8,0.1
	c0.1-0.8,0.2-1.7,0.4-2.6c4.3-13.7,8.5-27.4,12.9-41.1c0.3-1,1.7-2.4,2.7-2.4c6.1-0.2,12.2-0.1,18.8-0.1
	C669.4,849.7,667.3,855.6,665.1,861.7z"/>
<path class="st16" d="M746.6,875.4c2.4-8.5,4.7-16.7,7.2-24.8c0.4-1.2,2.1-2.9,3.1-2.8c5.8,0.2,11.6,0.9,17.7,1.5
	c-1.9,6.4-3.8,12.5-5.5,18.6c-2,7.1-3.9,14.2-6,21.3c-0.4,1.3-1.9,3-3,3.1c-6.1,0.3-12.2,0.1-18.9,0.1
	C743.1,886.7,744.8,881.2,746.6,875.4z"/>
<path class="st17" d="M797.1,862.4c-0.5,6.9-0.9,13.4-1.5,19.9c-0.2,2.2-0.7,4.4-1.5,6.5c-1,2.6-2.8,4.1-6.1,3.9
	c-4.7-0.4-9.4-0.1-14.7-0.1c3.6-14.5,7-28.4,10.4-42.2C795.5,850.7,796.9,852.6,797.1,862.4z"/>
<path class="st17" d="M633.5,866.2c-2.4,6.9-4.5,13.5-7.1,20c-0.5,1.2-2.7,2.9-3.6,2.7c-2-0.5-4.1-1.8-5.5-3.4
	c-0.8-0.9-0.7-3-0.6-4.5c0.6-10.4,1.2-20.8,2.2-31.2c0.2-1.8,2.1-4.5,3.6-4.8c6-1.2,12.2-1.5,19.2-2.3
	C638.8,851.2,636.2,858.6,633.5,866.2z"/>
<path class="st18" d="M1243.3,446.8c5.7,26.3,3.8,52.5,2.6,78.7c-0.4,7.5-0.9,15-1.2,22.6c-0.9,19.2-1.5,38.5-2.6,57.7
	c-0.2,4.4-1.5,8.8-2.8,13c-4.3,13.9-13.9,22-28,25.2c-15.2,3.4-30.5,2.6-45.9,2c-20.8-0.8-41.5-2-62.3-2.8
	c-32.2-1.1-64.4-2.1-96.6-2.8c-49.1-1-98.2-1.7-147.3-2.3c-37.2-0.5-74.5,0.1-111.7-1.2c-21.8-0.8-43.6-3.7-65.3-6.7
	c-11.6-1.6-22.5-6.5-32.6-12.6c-9.1-5.5-13-14.5-15.2-24.1c-1.8-7.7-2.9-15.8-2.7-23.6c0.7-30.1,1.5-60.2,3.5-90.3
	c0.9-12.7,4.8-25.1,7.4-37.7c0.2-0.8,0.5-1.6,0.8-2.4c3-9.1,8.6-15.1,18.7-16c9.2-0.8,18.3-2.3,27.5-2.4c23.9-0.2,47.7,0.1,71.6,0.5
	c34.8,0.7,69.4-2.3,104.1-4.5c27.4-1.8,54.9-2.9,82.3-4.8c60.9-4.1,121.9-4.2,182.9-3.9c26.5,0.1,52.6,3.4,78.6,7.7
	c3.6,0.6,7,1.9,10.5,2.7C1234,422.4,1241.1,432.2,1243.3,446.8 M903.4,521.8c6.7-3.5,11.5-8.9,14.5-15.7c6.3-14.5,7.1-29.4,2.3-44.5
	c-5.2-16.6-19.7-22-34.7-13.1c-19.9,11.8-28.1,41.5-17.3,62.7c5.5,10.7,12.8,14.9,24.7,13.6C896.2,524.6,899.5,523.1,903.4,521.8
	 M957.8,455.6c-13.2,14.3-17.4,31.5-15.8,50.3c1.2,13.9,13,23.1,26.7,21.7c6.6-0.7,11.8-4.1,16.4-8.5c10-9.5,14.6-21.7,16.4-34.9
	c1.1-8.1,0.6-16.4-3.2-24.2c-5.6-11.5-16.6-16.4-28.6-12.1C965.7,449.4,962.1,452.7,957.8,455.6 M920.9,564.8
	c5.2-0.3,10.1-1.8,13.4-5.9c1.2-1.5,1.5-4.8,0.7-6.7c-1.1-2.7-4.2-3-6.5-1.4c-5.9,4.2-11,3.4-16.2-1.2c-1-0.9-3.8-1.1-4.9-0.4
	c-1.3,0.9-2.6,3.4-2.3,4.8c0.5,2.3,1.9,5,3.7,6.1C912.3,562.2,916.4,563.2,920.9,564.8 M925.9,515.5c-3.5,3.4-4.2,7.8-3.6,12.3
	c0.2,1.7,2,4.2,3.5,4.4c1.7,0.3,4.8-1,5.4-2.4c1.4-3,2.1-6.6,2-9.9C933.1,515.5,931.2,514.4,925.9,515.5z"/>
<path class="st19" d="M951.6,264c1.4-2.8,2.7-5.3,4.1-7.8c0.5,0.1,0.9,0.2,1.4,0.3c0,2.9,0.3,5.8-0.2,8.5c-0.2,1.1-2.3,1.8-3.5,2.7
	C952.8,266.7,952.2,265.5,951.6,264z"/>
<path class="st5" d="M307.3,488.7c5.8,0,5.8,0,5.9,5.4c0,0.4,0,0.8,0,1.2c0,10.7,0,10.8-10.8,9.5c-1-0.1-2.5-1.6-2.6-2.6
	c-0.4-2.9,0.1-5.8-0.2-8.7c-0.4-3.7,0.9-5.5,4.8-4.9C305.2,488.8,306.1,488.7,307.3,488.7z"/>
<path class="st20" d="M269.1,449.5c-0.4-3.5,1-4.8,4.1-4.3c0.8,0.2,1.6,0.7,2.4,1.1c-0.6,0.7-1.2,1.5-1.8,2.2
	c-1.5,1.8-3,3.5-4.7,5.6C269.1,452.8,269.1,451.3,269.1,449.5z"/>
<path class="st19" d="M260.7,451.9c-1-1.2-1.8-2.3-2.7-3.2c-0.8-0.8-1.7-1.4-2.5-2c1.1-0.5,2.2-1,3.4-1.3c0.6-0.2,1.3,0.1,2.6,0.2
	c0,2.3,0,4.6,0,6.8c0,0-0.3,0.1-0.4,0C261,452.3,260.9,452.2,260.7,451.9z"/>
<path class="st19" d="M258.2,459.7c1.3,1,2.2,1.9,3.2,2.8c-1.1,0.5-2.4,1.5-3.4,1.2c-1-0.2-2.2-1.6-2.5-2.6
	c-0.4-1.5-0.1-3.3-0.1-5.5C256.4,457.2,257.2,458.3,258.2,459.7z"/>
<path class="st17" d="M275.7,460.7c-0.7,2.8-3.6,4.2-5.3,2.8c-0.5-0.4-0.4-2.3,0.1-2.8c1.4-1.2,3.2-2.1,5-3.1
	C275.5,458.3,275.6,459.3,275.7,460.7z"/>
<path class="st16" d="M301.6,370.9c-1.8,5.9-4.3,11.1-9.3,16.2c0-6.6-0.1-12.2,0.1-17.8c0-0.6,1.1-1.7,1.7-1.8
	c1.9-0.3,3.9-0.1,5.8-0.1C302.6,367.2,302.5,368.7,301.6,370.9z"/>
<path class="st5" d="M297.3,392.6c-0.3-0.1-0.5-0.2-0.6-0.4c0.2-0.1,0.5-0.1,0.9-0.1C297.7,392.2,297.5,392.5,297.3,392.6z"/>
<path class="st20" d="M312,844.7c-4,0.5-7.8,0.7-11.6,0.8c-0.6,0-1.3-0.8-1.6-1.4c-0.1-0.3,0.6-1.4,1-1.4c4,0,7.9,0.1,11.9,0.3
	C311.9,843,312,843.9,312,844.7z"/>
<path class="st20" d="M302.7,834.7c-1.6-0.6-2.8-1.2-4-1.7c1.1-0.5,2.3-1.3,3.4-1.4c2.6-0.2,5.3-0.2,7.9,0c0.7,0.1,1.4,0.9,2.1,1.4
	c-0.7,0.5-1.3,1.5-2.1,1.5C307.8,834.8,305.4,834.7,302.7,834.7z"/>
<path class="st20" d="M307.2,820.6c1.9,0.5,3.4,1,5,1.5c-1.5,0.5-3,1.4-4.6,1.6c-2.3,0.3-4.7,0.2-7.1-0.1c-0.7-0.1-1.2-1.1-1.8-1.7
	c0.6-0.4,1.2-1.2,1.9-1.2C302.7,820.5,304.8,820.6,307.2,820.6z"/>
<path class="st19" d="M286.3,759.5c3.7-0.5,5,0.8,5,4.3c0,3.8-1.8,4.4-4.8,4.1c-0.5-0.1-1.1,0-1.7,0c-3.1,0.2-5.5,0.2-5.4-4.3
	c0.1-4.3,2.3-4.3,5.2-4.1C285.1,759.6,285.5,759.5,286.3,759.5z"/>
<path class="st19" d="M310.8,733.9c-2.8,0.2-5.3,0.4-7.8,0.3c-0.8-0.1-1.6-1-2.4-1.6c0.7-0.7,1.3-1.8,2.1-1.9c2.2-0.3,4.5-0.4,6.7,0
	C310.1,730.8,310.5,732.6,310.8,733.9z"/>
<path class="st19" d="M301.9,721.8c-0.6-0.8-0.9-1.5-1.1-2.2c3.5-0.1,7-0.2,10.5-0.3c-0.5,0.9-0.9,2.4-1.5,2.4
	C307.2,722,304.7,721.8,301.9,721.8z"/>
<path class="st19" d="M283.2,677.5c-5.1,0.3-3.3-3.3-3.6-5.5c-0.3-2.5,1.2-3.1,3.3-2.9c1.1,0.1,2.2,0,3.3,0c4.6,0,6.4,2.4,4.7,6.8
	c-0.3,0.7-1.5,1.4-2.4,1.6C286.9,677.7,285.2,677.5,283.2,677.5z"/>
<path class="st20" d="M308,643.9c-2,0-3.7,0.2-5.3-0.1c-0.8-0.1-1.5-1.1-2.2-1.7c0.7-0.7,1.3-1.8,2.1-1.9c1.9-0.3,3.9-0.3,5.8-0.1
	c1.1,0.2,2.2,1.1,3.2,1.7C310.5,642.4,309.4,643.1,308,643.9z"/>
<path class="st19" d="M311.3,629c-0.4,1-0.8,2.2-1.4,2.3c-2.5,0.2-5,0.2-7.5,0c-0.7,0-1.2-1.1-1.8-1.6c0.7-0.5,1.3-1.6,2-1.6
	C305.5,628.2,308.3,628.5,311.3,629z"/>
<path class="st20" d="M263.4,639.9c1.7,0,3.2-0.2,4.5,0.1c1,0.2,1.8,1.1,2.7,1.7c-1,0.7-1.9,1.7-3,1.9c-1.4,0.3-3.1,0.3-4.5,0
	c-1.1-0.2-2.1-1.2-3.2-1.8C261,641.2,262,640.6,263.4,639.9z"/>
<path class="st19" d="M260.1,629.8c3.1-0.7,6.3-1.2,9.4-1.4c0.3,0,0.9,0.9,1,1.5c0.1,0.4-0.5,1.3-0.7,1.3
	C266.5,630.9,263.3,630.5,260.1,629.8z"/>
<path class="st20" d="M268.4,730.4c0.6,0.1,1.1,0.1,1.1,0.2c0.3,0.9,0.5,1.8,0.7,2.8c-3.1,0.1-6.2,0.4-9.3,0.4
	c-0.3,0-1.1-1.6-0.8-1.9c0.4-0.7,1.4-1.3,2.2-1.4C264.2,730.3,266.1,730.4,268.4,730.4z"/>
<path class="st19" d="M269.2,718.7c0.7,0.6,1,1.2,1.3,1.8c-1.1,0.5-2.2,1.4-3.3,1.4c-2.3-0.1-4.7-0.6-7-1c0.7-0.8,1.3-2.1,2.1-2.2
	C264.4,718.4,266.6,718.6,269.2,718.7z"/>
<path class="st19" d="M266.8,821.6c-2.2,0-4,0.1-5.8-0.1c-0.6-0.1-1.1-0.9-1.7-1.3c0.6-0.4,1.2-1.2,1.8-1.3c2.1-0.2,4.2-0.2,6.3,0
	c0.6,0,1.2,0.8,1.9,1.2C268.6,820.6,267.9,821.1,266.8,821.6z"/>
<path class="st19" d="M259.8,810.2c-0.2-0.6-0.4-1.3-0.2-1.4c3.3-1.5,6.6-1.2,9.8-0.2c0,0.6,0,1.2,0,1.8
	C266.3,810.5,263.1,810.5,259.8,810.2z"/>
<path class="st7" d="M979.8,895.2c-0.6-3.8-1.1-7.2-1.6-10.6c0.3-0.2,0.6-0.3,0.9-0.5c4.5,6.3,9.1,12.6,13.5,19
	c3,4.4,5.6,9,8.6,13.4c4.1,5.9,7.4,5.7,11.3-0.3c10.5-15.9,21.1-31.8,31.7-47.7c0.5-0.7,1.2-1.3,2.9-1.8c-0.5,6.1-0.9,12.3-1.4,18.4
	c-0.7,9.2-1.6,18.3-2.1,27.5c-0.3,5.6,3.9,8.8,10.1,8.2c10.7-1,21.3-2.1,32-3.1c1.2-0.1,2.4,0,5,0c-2.1,1.8-3.3,2.8-4.5,3.8
	c-6.2,4.9-12.4,10-18.8,14.6c-4.4,3.2-5.7,6.9-4.2,12c4,13.8,8,27.6,11.9,41.4c0.3,1.1,0.6,2.3,0.8,3.5c-0.3,0.3-0.7,0.7-1,1
	c-5.6-4-11.2-7.8-16.7-11.9c-6.1-4.5-11.9-9.2-18-13.6c-4.8-3.4-8.1-2.9-11.2,2.2c-6.5,10.6-12.6,21.4-18.9,32.1
	c-0.7,1.1-1.4,2.2-2.8,4.2c-0.4-2.2-0.6-3.2-0.7-4.2c-0.3-12.1-0.6-24.2-0.9-36.4c-0.1-6-1.4-7.8-7.2-8.7c-11-1.7-22-3.2-33-4.8
	c-0.5-0.1-1-0.3-2.5-0.7c2.8-1.4,4.8-2.4,6.9-3.4c5-2.4,10.1-4.8,15-7.3c3.6-1.8,3.5-4.9,2.7-8.3C985,920.7,982.5,908.1,979.8,895.2
	z"/>
<path class="st21" d="M903.1,522c-3.6,1.1-6.9,2.6-10.3,2.9c-11.9,1.3-19.3-2.9-24.7-13.6c-10.8-21.2-2.6-51,17.3-62.7
	c15-8.9,29.5-3.4,34.7,13.1c4.8,15.1,4,30-2.3,44.5C914.9,513,910.1,518.4,903.1,522 M876.3,476.3c-2.7,9.9-2.4,19.9,0,29.8
	c0.8,3.4,1.8,7.1,6.8,8.3c4.5-9,9-18,13.8-27.4c-1.8-0.3-2.6-0.5-3.4-0.5c-6.2-0.2-7.6-2.4-4.7-8.2c2.1-4.2,4.4-8.4,6.7-12.5
	c2-3.6,4.1-7.1,6.2-10.7c-0.3-0.5-0.6-0.9-0.9-1.4c-3.7,1.2-7.7,1.9-11,3.8C882.8,461.6,879,468.2,876.3,476.3 M905.8,463.8
	c-2.4,4.9-4.9,9.9-7.4,14.8c1,0.6,1.3,0.9,1.7,0.9c7.2,1.2,8.4,3.4,5.3,10.1c-3,6.6-6.2,13.1-9.3,19.6c-0.6,1.3-1,2.7-2,5.2
	c2.6-1,4-1.4,5.3-2.1c5.8-3.3,8.8-8.6,11-14.7c3-8.2,3.2-16.7,2.4-25.2c-0.4-4.5-2.2-8.9-3.4-13.4c-0.5,0-1,0.1-1.5,0.1
	C907.3,460.6,906.6,461.9,905.8,463.8z"/>
<path class="st21" d="M958.1,455.4c4.1-2.7,7.6-5.9,11.8-7.5c12-4.3,23,0.6,28.6,12.1c3.8,7.7,4.3,16,3.2,24.2
	c-1.8,13.2-6.4,25.5-16.4,34.9c-4.6,4.4-9.9,7.8-16.4,8.5c-13.7,1.4-25.5-7.9-26.7-21.7C940.4,487.1,944.7,469.8,958.1,455.4
	 M956.5,472.8c-1.9,7.1-4.5,14.1-5.6,21.3c-1.4,8.7,0.6,16.9,7.8,23.3c5.2-10.4,10.3-20.7,15.4-30.9c-0.5-0.4-0.6-0.5-0.8-0.5
	c-1-0.1-1.9-0.2-2.9-0.3c-5.8-0.4-7.9-3.6-5.7-9.1c1.1-2.7,2.4-5.4,3.9-7.9c2.7-4.4,5.6-8.6,8.9-13.7c-2.4,0.5-4.1,0.7-5.5,1.3
	C964.6,459.3,960,465.1,956.5,472.8 M984.5,486.2c-5.1,10.4-10.2,20.8-15.3,31.2c0.3,0.3,0.6,0.6,0.9,0.9c2.5-1.6,5.1-3,7.4-4.8
	c8.6-6.9,12-16.9,15.2-26.8c2.2-6.7,1.9-13.5-0.4-20.1c-1.4-3.9-3.7-7.1-7.8-9.3c-3.4,6.5-6.6,12.8-9.9,19.1
	C985.1,480,985.1,480,984.5,486.2z"/>
<path class="st12" d="M920.6,564.8c-4.2-1.5-8.3-2.6-11.7-4.7c-1.9-1.1-3.2-3.9-3.7-6.1c-0.3-1.4,1-3.9,2.3-4.8
	c1.1-0.7,3.8-0.5,4.9,0.4c5.2,4.6,10.3,5.5,16.2,1.2c2.2-1.6,5.4-1.3,6.5,1.4c0.8,1.9,0.5,5.2-0.7,6.7
	C931,562.9,926.1,564.5,920.6,564.8z"/>
<path class="st12" d="M926.2,515.3c5-0.8,6.9,0.2,7,4.6c0.1,3.3-0.7,6.9-2,9.9c-0.6,1.4-3.7,2.7-5.4,2.4c-1.4-0.3-3.2-2.8-3.5-4.4
	C921.7,523.3,922.4,518.9,926.2,515.3z"/>
<path class="st22" d="M876.4,476c2.6-7.8,6.4-14.5,13.4-18.5c3.3-1.9,7.3-2.6,11-3.8c0.3,0.5,0.6,0.9,0.9,1.4
	c-2.1,3.6-4.2,7.1-6.2,10.7c-2.3,4.1-4.6,8.3-6.7,12.5c-2.9,5.7-1.5,8,4.7,8.2c0.8,0,1.6,0.2,3.4,0.5c-4.7,9.4-9.2,18.4-13.8,27.4
	c-5-1.2-6-4.9-6.8-8.3C873.9,496.2,873.6,486.3,876.4,476z"/>
<path class="st9" d="M905.9,463.5c0.8-1.6,1.4-2.9,2-4.3c0.5,0,1-0.1,1.5-0.1c1.2,4.5,2.9,8.9,3.4,13.4c0.8,8.5,0.6,17-2.4,25.2
	c-2.2,6-5.2,11.4-11,14.7c-1.2,0.7-2.7,1.1-5.3,2.1c1-2.6,1.4-3.9,2-5.2c3.1-6.6,6.3-13.1,9.3-19.6c3.1-6.7,1.9-8.9-5.3-10.1
	c-0.4-0.1-0.7-0.4-1.7-0.9C900.9,473.7,903.3,468.8,905.9,463.5z"/>
<path class="st22" d="M956.7,472.5c3.3-7.4,7.9-13.1,15.3-16.2c1.4-0.6,3.1-0.7,5.5-1.3c-3.3,5.1-6.2,9.4-8.9,13.7
	c-1.5,2.5-2.8,5.1-3.9,7.9c-2.2,5.5,0,8.7,5.7,9.1c1,0.1,1.9,0.2,2.9,0.3c0.1,0,0.2,0.1,0.8,0.5c-5.1,10.2-10.2,20.4-15.4,30.9
	c-7.2-6.4-9.2-14.6-7.8-23.3C952.1,486.8,954.6,479.8,956.7,472.5z"/>
<path class="st23" d="M984.6,485.8c0.5-5.8,0.5-5.8-9.9-9.4c3.3-6.4,6.6-12.6,9.9-19.1c4.1,2.2,6.4,5.4,7.8,9.3
	c2.3,6.6,2.6,13.4,0.4,20.1c-3.2,10-6.6,19.9-15.2,26.8c-2.3,1.8-5,3.2-7.4,4.8c-0.3-0.3-0.6-0.6-0.9-0.9
	C974.3,507,979.4,496.6,984.6,485.8z"/>
</svg>
