<?xml version="1.0" encoding="utf-8"?>
<!-- Generator: Adobe Illustrator 22.1.0, SVG Export Plug-In . SVG Version: 6.00 Build 0)  -->
<svg version="1.1" id="Layer_1" xmlns="http://www.w3.org/2000/svg" xmlns:xlink="http://www.w3.org/1999/xlink" x="0px" y="0px"
	 viewBox="0 0 2000 1668" style="enable-background:new 0 0 2000 1668;" xml:space="preserve">
<style type="text/css">
	.st0{fill:#50C1E8;}
	.st1{fill:#51C2E8;}
	.st2{fill:#3791CF;}
	.st3{fill:#80D8FF;}
	.st4{fill:#3087CA;}
	.st5{fill:#3086CA;}
	.st6{fill:#FAFAE9;}
	.st7{fill:#83D9FF;}
	.st8{fill:#7FD7FF;}
	.st9{fill:#3187CB;}
	.st10{fill:#3289CB;}
	.st11{fill:#FDFBE9;}
	.st12{fill:#2F86CA;}
	.st13{fill:#55C3E9;}
	.st14{fill:#57C4E9;}
	.st15{fill:#5FC6E8;}
	.st16{fill:#52C2E8;}
	.st17{fill:#53C2E8;}
	.st18{fill:#4FBFE7;}
	.st19{fill:#FCFBE9;}
	.st20{fill:#FBFAE9;}
	.st21{fill:#FEFCE9;}
	.st22{fill:#E2F1E9;}
	.st23{fill:#5AC4E8;}
	.st24{fill:#5AC3E8;}
	.st25{fill:#F6FCFE;}
	.st26{fill:#F5FBFE;}
	.st27{fill:#2E88CB;}
</style>
<path class="st0" d="M831.9,1178.9c-4.7-0.5-9.5-1-14.2-1.5c-8-0.9-16-1.6-24-2.8c-11.2-1.7-22.3-3.7-33.5-5.5
	c-2.5-0.4-5.1-1-8.1-1.6c0,3,0.2,5.9,0,8.7c-0.4,5.5-1.1,10.9-1.6,16.4c-0.2,2.9-0.1,5.4,2.1,8c10.6,12.6,17.4,27.4,24.2,42.3
	c6.7,14.7,10.2,30.3,13.7,45.8c3.4,15.3,3.2,31.1,2.6,46.7c-0.4,9.4-0.8,19-2.6,28.2c-2.1,10.3-5.6,20.4-9.1,30.4
	c-1.7,5.1-4.4,9.9-7.1,14.5c-6.3,10.9-17,16.2-28.3,20.1c-14,4.8-28.6,8.1-43.3,9.2c-13.6,1-27.2,1.1-40.8,0.9
	c-10.1-0.2-20.4-0.8-30.3-2.6c-13.3-2.5-26.5-5.9-39.5-9.6c-7.7-2.2-15.1-5.4-22.4-8.6c-11-4.7-16.5-13.8-18.3-25.1
	c-3.2-20,0.2-39.4,6.8-58.4c4.1-11.8,7.8-23.6,12.5-35.2c3.6-8.9,7.7-17.8,12.6-26c8.7-14.7,18.1-28.9,27.4-43.2
	c9.1-14.1,19.6-27.1,31.9-38.5c3.4-3.2,6.9-6.4,10.8-8.9c4.8-3.1,4.7-7.7,5.3-12.3c1-8,2.2-15.9,3.2-23.9c0.2-1.9,0.6-4.2-0.1-5.7
	c-0.6-1.2-2.9-1.6-4.4-2.4c-13.8-7.2-27.7-14.1-41.4-21.5c-16.6-9-31.5-20.3-45.6-32.8c-8.8-7.8-17.9-15.5-25.8-24.2
	c-11.6-12.7-22.2-26.2-33.6-39.8c0,1.4,0.1,2.9,0,4.4c-0.2,3.4-0.5,6.8-0.6,10.2c-0.1,5,0,10.1,0,15.1c-0.3,18.5-0.5,37-0.9,55.5
	c-0.2,9.3-0.5,18.6-0.8,27.9c-0.3,9.9-0.6,19.7-0.9,29.6c-0.3,13.8-0.6,27.5-0.9,41.3c-0.3,11.7-0.5,23.3-0.9,35
	c-0.1,2.7-1.8,5.4-1.5,8c0.6,5.3,2.1,10.4,3.2,15.6c0.3,1.5,1,3,0.7,4.4c-1,5.4,1.6,8.8,5.3,12.2c9.7,9.1,15.1,20.8,18.1,33.5
	c1.4,5.7,2.6,11.6,2.4,17.4c-0.2,8.8-3.3,17.1-8.4,24.2c-5.9,8-14.8,8.6-23.8,7.6c-3.9-0.5-7.6-2.2-11.9-3.6
	c0.3,1.8,0.7,3.7,0.8,5.6c0.1,7,0.1,14,0,21c-0.1,3.1-0.3,6.3-0.8,9.4c-1.4,7.8-11.7,12.9-19.1,11.1c-7-1.7-13.2-3.7-18.5-9.2
	c-2.7,11.1-8.5,18.6-21.2,18.1c-11.5-0.4-17.8-6.8-20.6-17.7c-2,1.7-3.5,3.4-5.4,4.3c-9.2,4.4-18.6,4.5-26.3-2.2
	c-4.3-3.8-7-9.8-9.4-15.3c-4.3-9.5-4.1-19.7-2.7-29.9c1.1-8.2,1.1-16.6,2.8-24.6c1.7-8,4.9-15.6,7.3-23.4c0.8-2.4,1.5-4.9,1.6-7.5
	c0.7-9.9,0.7-19.9,1.9-29.7c1.3-11.1,7.7-19.9,14-28.7c1-1.3,1.7-3.2,1.7-4.8c-0.1-10.8-0.7-21.7-0.7-32.5c0-15.2,0.3-30.3,0.8-45.5
	c0.5-14.7,1.6-29.5,2.4-44.2c0.5-8.4,1.1-16.7,1.7-25.1c0.9-12.5,1.7-25.1,2.6-37.6c0.7-9.9,1.5-19.8,2.5-29.7
	c1.2-12.5,2.5-25.1,4.2-37.5c2-14.6,4.1-29.1,6.7-43.6c1.9-10.1,4.7-20,7.1-30c0.6-2.5,1.1-5.1,1.2-7.6c0.1-9.6-0.6-19.3,0.2-28.9
	c0.7-7.5,2.3-15.1,5-22.1c3.7-10,7.9-20.1,13.4-29.2c9.4-15.4,23.5-26.2,38.6-35.9c12.1-7.7,25.4-12.4,39.3-14
	c12.1-1.4,24.5-1.5,36.7,1.5c7.9,1.9,15.5,3.9,21,10.3c0.4,0.5,0.7,1.1,0.5,0.7c13.2-5.8,26.2-11.8,39.4-17
	c15.6-6.1,32.1-9.4,48.6-11.8c13.4-2,26.7-4.2,40.1-5.7c8-0.9,16.1-0.4,24.1-1c11.3-0.9,22.6-2.3,34-3.2c8-0.6,16.1-0.8,24.1-0.9
	c10.9-0.2,21.8,0,32.7-0.1c4.5,0,9.1-0.8,13.6-0.7c7.7,0.1,15.5,0.4,23.2,0.8c3.3,0.2,5.8-0.1,5.3-4.5c-0.2-1.6,0.7-3.4,1.2-5.6
	c-11.4-0.3-22.3-0.4-33.2-0.9c-10.4-0.5-20.8-1.6-31.1-2.4c-7-0.5-14-0.9-20.9-1.7c-11.1-1.2-22.2-2.7-33.3-4.1
	c-8.6-1.1-17.3-2.4-25.9-3.2c-11.1-1.1-22.2-1.9-33.3-2.6c-8-0.5-16.1,0.1-24-1c-7.4-1-14.8-3.1-21.8-5.8
	c-13.4-5.1-26.6-10.6-39.5-16.7c-6.5-3.1-12.4-7.8-18.1-12.3c-5.3-4.2-9.9-9.2-14.9-13.7c-9-8.2-13.6-18.7-15.9-30.3
	c-2.4-12.1-5.2-24.3-6.6-36.5c-1.2-10.9-0.9-22.1-1-33.2c-0.1-16.3-0.3-32.5,0.1-48.8c0.3-10.7,1.6-21.5,2.4-32.2
	c0.3-4.3,0.4-8.6,1-12.8c1.5-10.8,2.8-21.6,4.8-32.3c1.6-8.7,3.7-17.4,6.1-26c3.7-13.1,10.8-24.5,20-34.5
	c6.3-6.9,13.2-13.2,20.2-19.4c2.6-2.2,6.2-3.2,9.4-4.7c14.3-6.7,29.2-11.5,45-13.2c11.2-1.2,22.3-2.5,33.5-3.4
	c14.3-1.1,28.6-1.7,43-2.6c13.1-0.8,26.1-1.8,39.2-2.5c8.7-0.5,17.4-0.6,26.1-0.8c21.5-0.6,43-1.1,64.4-1.7
	c3.4-0.1,6.8-0.7,10.9-1.2c-0.4-6.2-1-12.5-1.1-18.8c-0.1-4.5,0.3-9.1,0.8-13.6c0.6-5.7,1.5-11.3,2.4-16.9
	c2.5-14.9,6.1-29.4,15-41.9c5.1-7.1,10-14.3,15.5-21.1c5.7-7.1,14.1-10.6,22-14.4c6.6-3.2,13.9-5.4,21.1-7
	c13.3-2.9,26.4-2.4,39.4,2.9c6.9,2.8,13.3,5.9,18.9,10.7c8,6.7,11.5,16,15.3,25.2c5.6,13.4,7.2,27.6,7.7,42
	c0.5,16.3,0.9,32.6,1.4,48.3c10.3,0,20.8,0.1,31.3,0c13-0.2,26.1-0.5,39.1-0.8c10.1-0.2,20.2-0.6,30.3-0.8c19-0.3,38.1-0.5,57.1-0.9
	c6.8-0.1,13.7-1,20.5-0.8c18.9,0.6,37.9,0.8,55.6,8.9c12.3,5.6,23.9,12.1,33.1,22.1c9.8,10.7,15.4,23.7,18.8,37.7
	c3.2,12.9,6.8,25.8,9.5,38.9c1.9,9.1,3.4,18.4,3.7,27.6c0.8,27.3,1.2,54.5,1.1,81.8c0,11.7-1.7,23.3-2.6,35
	c-0.4,5.3-0.4,10.7-0.9,16c-0.9,9-1.8,18-3.3,26.9c-2.2,12.4-4.7,24.7-7.5,36.9c-2.5,11.4-8.7,21-15.1,30.6
	c-7.3,10.9-17.4,18.1-29.1,23.5c-13.8,6.4-27.6,12.8-42.3,16.9c-9.4,2.6-18.8,5.6-28.3,8c-2.7,0.7-5.8,0.2-8.7,0.4
	c-10.7,0.8-21.3,2.1-32,2.5c-11,0.4-22,0.1-33,0.1c-11.9,0-23.8-0.1-35.7,0c-7.1,0.1-14.1,0.7-21.2,0.8c-7,0-14.1-0.6-21.1-0.6
	c-8.4,0-16.8,0.6-25.1,0.5c-7.3,0-14.7-0.5-22-0.8c-11.8-0.4-23.5-0.7-35.3-0.9c-1.6,0-3.3,0.2-5,0.2c-0.4,2.5-0.7,4.7-1.1,7.2
	c1.2,0.1,2.5,0.2,3.7,0.2c15.2,0,30.5-0.3,45.7,0.1c13.5,0.4,27.1,0.8,40.4,2.6c15.2,2.1,30.1,5.8,45.2,8.7
	c9.6,1.9,19.2,3.5,28.9,5.3c16.7,3.1,33.1,7.1,49.2,12.6c14.8,5.1,28.5,12.1,41.6,20.5c3.1,2,6.3,3.8,9.6,5.2
	c1.2,0.5,3.7,0.3,4.5-0.6c9.3-10.4,21.7-14.4,34.7-17.2c5.3-1.1,10.8-1.2,16.2-2.2c8.9-1.6,17.3,0.7,25.8,2.5c0.3,0.1,0.6-0.1,0.8,0
	c2.5,0.8,5.9,3,7.4,2.1c3.2-1.8,5.5-5.3,8.2-8.1c1.7-1.8,3.3-3.7,5-5.6c7.6-8.4,15.3-16.7,22.7-25.2c7.2-8.3,14.4-16.6,21-25.3
	c4.5-5.9,8-12.6,12.2-18.7c8.4-12.2,17.3-24,25.6-36.3c8.8-13.1,16.5-26.8,25.7-39.6c8.9-12.4,15.7-25.9,22.5-39.5
	c6.3-12.5,12.2-25.1,18.3-37.6c3.9-8,8-16,12-24c0.4-0.8,0.5-2.2,0-2.9c-8.8-13.2-8-27.6-5.5-42.1c0.6-3.4-0.4-4.8-3.1-6.5
	c-12.5-7.7-22.6-17.7-26.1-32.4c-2.4-10-1-20.2,6.5-28.1c5.7-5.9,13.2-8.6,21.4-9.7c12.7-1.6,22.6,3.7,30.5,12.7
	c3.6,4.1,5.9,9.3,9.1,14.6c1.3-6.7,2.2-13.1,3.9-19.2c3.9-14.1,9.3-27.7,19.9-38.4c9.3-9.5,27.6-10.8,37.1-1.4
	c3.7,3.6,5,9.5,7.4,14.4c0.4,0.8,0.5,1.8,1,3.2c10.1-8.5,21.2-13.3,33.3-6.7c12.2,6.6,14.5,18.5,12.6,30.6
	c5.6-1.6,11.1-3.8,16.9-4.5c13.9-1.7,21.7,8.9,23.5,21c3.1,21.2-6.3,38.5-16.9,55.3c-4.8,7.6-10.7,14.6-16.4,21.6
	c-2.4,2.9-5.5,5.7-8.9,7.2c-4.3,1.9-5.8,5.4-7.4,8.9c-8,17-22.4,26.3-39.4,32.5c-1.5,0.6-3.5,1.9-3.9,3.3
	c-4.6,14.9-9.4,29.7-13.2,44.8c-3.9,15.5-10.2,30-17.1,44.2c-6.1,12.4-13,24.4-18.5,37.1c-7.2,16.6-18.5,30.4-29,44.7
	c-13.6,18.6-27.4,37.1-41.1,55.7c-10.9,14.7-21.4,29.9-32.8,44.1c-9.8,12.2-20.8,23.5-31.4,35.1c-7.6,8.4-15.5,16.5-23.2,24.8
	c-0.8,0.8-1.3,2.2-1.4,3.4c-0.8,19.9-9.8,36.7-20.9,52.1c-12.8,17.8-30.7,29.1-52.5,33.3c-4.9,0.9-10,0.8-15.1,1.1
	c-4.3,0.3-8.7,0.5-12.7,0.8c-4,8.4-7.7,17.6-12.6,26c-5.5,9.4-11.9,18.4-18.6,27c-5.8,7.4-12.1,14.5-19.1,20.7
	c-12.5,11.1-24.8,22.7-38.7,31.8c-16.5,10.8-34.4,19.6-52,28.5c-13.9,7-28.4,12.8-42.7,19c-3.1,1.3-6.5,1.9-9.7,3
	c-0.8,0.3-1.9,1.4-2,2.2c-1,10.1-1.4,20.3-2.8,30.3c-0.8,6.2,2.5,9.6,6.5,12.6c14.9,11.4,26.8,25.4,37.2,40.9
	c9,13.4,18.3,26.6,26.3,40.5c9.5,16.6,18.4,33.5,23.4,52.2c2.9,10.9,7.5,21.3,10.1,32.3c3.8,16,5.2,32.3,0.4,48.5
	c-2.3,7.7-7.1,13.8-14.5,17.4c-16.8,8.3-34.5,13.7-53,17.2c-12.3,2.3-24.6,4.1-37.1,4.1c-13.5,0-27,1.1-40.4,0.6
	c-9.3-0.4-18.5-2.5-27.7-4.5c-13.9-2.9-27.7-6.2-41.5-9.6c-15.6-3.8-28.4-11.7-35.9-26.4c-1.8-3.6-2.6-8-2.7-12.1
	c-0.7-14.3,1.4-28.5,4-42.5c2.3-12.4,3.9-24.9,6.9-37.2c4.5-18.9,9.4-37.8,15.2-56.4c2.8-9.1,7.8-17.6,12-26.3
	c1.8-3.6,2.7-7.2,3-11.3c1-12.4,2.6-24.8,4.1-37.1c0.2-1.3,1-2.4,1.8-4.6c-39.4,7.6-78.8,11.6-119.2,12.6
	C847.4,1178.8,839.7,1178.8,831.9,1178.9 M867.3,1164.9c11.1-0.6,22.3-0.9,33.4-2c13.3-1.2,26.7-2.5,39.8-4.9
	c19.7-3.5,39.5-7.3,58.9-12.3c17.7-4.5,34.9-10.8,52.4-16.1c12.4-3.8,25.4-6.2,37.2-11.2c22.5-9.5,44.4-20.2,66.3-31
	c9-4.4,17.7-9.6,25.8-15.5c18.8-13.5,36.3-28.7,51-46.8c10.8-13.4,20.9-27.3,26.6-43.8c8.1-23.6,15.8-47.3,17.2-72.6
	c0.7-12,1.4-23.9-2-35.7c-4.2-14.8-11.5-27.9-23.2-38c-13.3-11.5-27.8-21.4-43.1-30.2c-16.4-9.5-33.4-17.6-51.7-22.3
	c-18.1-4.6-36.4-8.5-54.7-11.8c-21-3.8-41.5-9.9-63-10.8c-17.8-0.7-35.6-2.3-53.4-3c-7.6-0.3-15.3,0.6-23,0.7
	c-2.9,0-4.7,0.7-5.4,3.8c-1,4.1-4.1,5.8-8,6.3c-17,1.9-34,3.9-51.2,2.5c-8.6-0.7-17.1-2.1-25.6-3.6c-4.9-0.9-6.7-3.4-6.5-8.2
	c0.2-4-1.4-5-5.1-4.9c-14.9,0.7-29.8,1.3-44.7,1.7c-9.9,0.3-19.8-0.3-29.7,0.4c-13,0.8-26,3.3-39.1,3.6c-20.8,0.5-41.4,2.5-62,5
	c-26.5,3.2-52.4,8.5-76.6,19.7c-11.6,5.4-22.6,12.1-33.5,18.7C552.3,816,534.6,834,521,855.9c-13.7,22.1-18.9,47.1-20.8,72.5
	c-2.3,31.2,6.6,59.8,24.1,85.4c15.9,23.2,35.1,43.6,56.8,61.6c22.6,18.6,47,34.3,73.8,46.4c24,10.8,48.2,20.7,73.9,26.4
	c21.6,4.8,43.4,8.7,65.3,12.4c12.3,2.1,24.8,3.4,37.3,4.2C843.1,1165.4,854.8,1164.9,867.3,1164.9 M1309.8,425.9
	c-2.8-10.9-5.3-22-8.5-32.8c-2-6.5-4.3-13.2-8-18.8c-15.1-22.7-38-33.4-64-34c-42.5-1-85,0.6-127.6,1.3c-18.2,0.3-36.5,1.1-54.7,1.6
	c-11.4,0.3-22.9,0.5-34.3,0.9c-25.5,0.8-51,1.8-76.4,2.5c-17.7,0.5-35.3,0.6-53,0.9c-27.7,0.5-55.5,0.9-83.2,1.7
	c-22.5,0.7-45.1,2.1-67.6,3.3c-14.7,0.8-29.5,1.5-44.2,2.6c-15.8,1.2-31.6,2.5-47.4,4.4c-6.4,0.8-12.9,2.5-18.9,4.8
	c-12.5,4.9-22.3,13.8-30.2,24.4c-5.7,7.5-10.9,15.5-15.3,23.8c-5.4,10.3-7.2,21.8-9.1,33.3c-4.4,27.1-6.6,54.4-7.1,81.9
	c-0.3,15.3,0.3,30.7-0.1,46.1c-0.7,22.4,2.7,44.2,8.6,65.7c1.3,4.5,2.8,9.3,5.6,12.9c9,11.7,20,21.5,32.8,28.7
	c10.4,5.8,21.7,10.2,32.8,14.7c11.3,4.5,22.8,7.9,35.3,7.9c13.5,0,27.1,0.4,40.5,1.8c22.7,2.3,45.3,5.7,68,8.3
	c14.9,1.7,29.9,3,44.9,4c14.6,0.9,29.2,1.1,43.8,1.8c25.5,1.1,50.9,2.4,76.4,3.3c16.3,0.6,32.6,1,48.9,0.9
	c65.8-0.7,131.7,2.3,197.4-2.5c3-0.2,6.1-0.7,9-1.5c21-5.6,41.9-11.9,61.2-22.2c6.5-3.4,13.3-7,18.2-12.2
	c12.3-12.9,19.3-28.9,21.9-46.6c2.7-18.6,5.5-37.2,7.5-55.8c1.7-15.5,2.5-31.1,3.3-46.6c0.5-10-0.1-20,0.1-30.1
	C1317,479.2,1316.7,452.6,1309.8,425.9 M1155.9,1310.1c-2.2-5.3-4.2-10.7-6.6-15.8c-14.6-30.3-33.2-58.1-53.5-84.7
	c-8.7-11.4-19.2-21.2-32.7-27.5c-10.7-5-22-6.7-33-3.9c-15.6,4-29,12.5-39.1,25.7c-14.2,18.5-23.8,39.3-29.7,61.8
	c-1.8,6.6-3.1,13.3-5.2,19.8c-8.9,27.5-12.3,56-15.3,84.5c-0.5,4.8-0.6,9.9,0.6,14.5c2.7,10.2,10.3,17,19.8,19.9
	c16.4,5,33.1,8.8,49.8,12.7c15.8,3.7,31.8,5.6,48.1,4.8c8.1-0.4,16.1-1.3,24.2-1.5c25.5-0.7,49.6-7,72.9-16.9
	c7.7-3.2,12.3-8.7,14.1-16.9c2.9-12.9,0.9-25.6-2.2-38C1164.7,1335.8,1160.1,1323.3,1155.9,1310.1 M592.6,1413.6
	c6.7,2,13.3,4,20.1,5.8c19.7,5.3,40,5.5,60.1,6.6c24.6,1.3,48.6-2.8,71.9-10.7c7.5-2.5,14.4-6.6,18.6-13.6
	c8.3-14.1,13.4-29.5,15.5-45.6c1.1-8.4,1-17,1.1-25.4c0.1-8.9,0.6-17.9-0.5-26.7c-2.8-21.9-7.9-43.4-17.4-63.5
	c-9.8-20.7-21-40.2-42.4-51.7c-14.4-7.7-28.8-9.7-44.2-4.4c-16.1,5.6-28.1,16.7-37.8,29.9c-13.2,17.8-25.6,36.2-37.4,54.9
	c-6.9,10.8-13.1,22.2-17.8,34.1c-9.4,23.9-19.2,48-20.1,74.3c-0.5,14.2,3,24.6,14.1,29.7C581.5,1409.5,586.8,1411.3,592.6,1413.6
	 M1353,921.9c7.2-14.4,11.7-29.2,9.8-45.8c-2.7-24.5-10.1-46.7-29.4-63.1c-6.8-5.8-14.3-11.6-22.4-15c-20.5-8.4-41.2-6.4-61.5,1.9
	c-4.2,1.7-8.3,3.8-10.7,8.3c1.8,1.6,3.5,3.1,5.2,4.6c10.3,9.1,21.5,17,29.1,29c9,14.4,15.3,29.8,16.2,46.5
	c0.7,12.5-1.1,25.3-3.3,37.7c-2.3,12.5-6.4,24.7-9.9,37.1c-0.8,2.8-0.5,4.2,2.8,4.2c10.8,0,21.5-1.1,31.6-5.1
	C1329.9,954.6,1343.7,941.1,1353,921.9 M1612.4,465.8c-7.5-13.5-19.9-20.4-34.1-24.4c-12.6-3.6-25.6-3.3-38.5-1.9
	c-22.8,2.6-38.1,15.6-43.5,37.8c-1.4,5.8-1.9,11.8-2.4,17.7c-1.1,12.1,3,22.5,12.4,30c13.4,10.8,29.1,17,46.1,19.3
	c12.5,1.7,24.8,1.5,36.9-3.6c24.6-10.4,35.5-35.6,31.2-56.4C1619.1,478,1615.3,472.3,1612.4,465.8 M505.5,859.2
	c15.7-29.1,37.9-52,67.5-69.2c-3.3-1.9-5.4-3.6-7.7-4.4c-14-5.1-28.5-5.6-42.9-3.7c-15,2-28.3,8.5-40.9,17.1
	c-24.2,16.5-38,39.7-43.4,67.5c-2.4,12.7-1.2,26.4-0.1,39.5c1.9,21.8,14.7,37.2,32.2,48.9c5.6,3.7,12.5,5.6,19.6,8.7
	c-0.3-2.3-0.3-3.1-0.4-3.9c-2.1-12.3-2.5-24.7-0.9-37.1C491.3,901,495.9,879.8,505.5,859.2 M404.6,1326c15.2,10,32.1,12.6,48.7,6.4
	c25-9.3,39.9-28.4,42.9-55c2-18.3-5.9-33.5-24.2-40.4c-13.9-5.2-28.1-6.3-42.7-3.7c-18.7,3.4-35.4,19.4-37.7,38.3
	c-1.1,8.8-1.6,17.8-1.1,26.7C391.2,1309,394.1,1319.2,404.6,1326 M910,298.7c12.8-0.5,25.6-1.5,38.4-1.4c21.2,0.1,42.4,0.9,63.5,1.6
	c3.9,0.1,5.3-0.9,4.9-4.9c-1.1-11.2-1.9-22.5-2.9-33.7c-0.8-9.1-3.7-17.7-7.3-26.1c-3.8-8.6-9.7-14.9-18.3-18.6
	c-12.1-5.2-24.6-7.5-37.6-4.8c-15.7,3.2-30.1,9.6-40.5,21.9c-15.3,18.1-23.1,39.6-24.8,63.2c-0.2,3,0.7,4,3.7,3.7
	C895.8,299.3,902.5,299,910,298.7 M1464.9,761.6c0.5-0.7,0.8-1.5,1.4-2.1c2.7-2.4,3-4.8,1.2-8.1c-3.9-6.6-7.1-13.6-11.1-20.1
	c-7.7-12.5-16.7-24.1-27-34.5c-4.6-4.6-9.7-8.6-15-13.2c-14.8,21-29.2,41.4-43.3,61.5c24.6,18.2,41.1,42.7,55.1,70.5
	C1439.2,797.3,1451.9,779.7,1464.9,761.6 M1442.6,639.7c-6.7,10.4-13.4,20.9-20.2,31.3c-2.9,4.4-2.4,4.2,1.4,7.5
	c8.9,7.5,18.4,14.7,25.7,23.7c9.6,11.7,17.2,24.9,25.7,37.5c2.4,3.7,3.3,3.8,5.9,0.3c10.4-14.1,20.5-28.5,31.2-42.4
	c4.6-5.9,5.3-10.3,0.7-17.1c-8.7-12.8-17.1-25.8-28.5-36.5c-4.6-4.3-8.6-9.1-13-13.6c-4.4-4.5-8.9-9-13.5-13.6
	C1452.8,624.7,1447.9,631.9,1442.6,639.7 M1394,784.6c-2.7-3.5-5.2-7.3-8.2-10.5c-6.1-6.4-12.5-12.6-18.8-18.8
	c-2.3-2.3-4.3-1.6-6.4,0.7c-3.9,4.4-7.9,8.6-11.9,12.9c-6.2,6.6-12.4,13.2-18.4,19.9c-3.8,4.2-3.6,4.4,1.3,7.7
	c9,6,16.6,13.4,23.3,21.9c10.9,13.9,15.6,30.3,19.2,47.2c0.4,2.1,0.5,4.2,0.8,6.4c0.6,0.4,1.2,0.8,1.8,1.2c1.4-2,2.7-4.3,4.3-6.1
	c5.8-6.4,11.7-12.7,17.5-19.1c5.4-6,10.8-12,16.2-18c1.6-1.8,2.2-3.6,1.3-6.4C1411.2,809.4,1402.9,797.2,1394,784.6 M1516.7,584
	c-10.5-7.5-21-14.9-31.3-22.3c-1,0.9-1.3,1-1.4,1.2c-7,14.5-14.1,29.1-21,43.7c-0.4,0.9,0.1,2.8,0.8,3.5
	c6.2,5.4,12.7,10.4,18.8,15.8c13.6,12.1,26.4,24.8,35.5,40.8c1.6,2.8,3.5,5.5,5.9,9.1c1.9-4,3.1-6.8,4.5-9.6
	c6.9-14,13.9-27.9,20.9-41.8c1.5-3.1,1.7-5.6-0.9-8.3c-2.9-3-5.3-6.5-8.3-9.4C1532.7,599.2,1524.9,591.9,1516.7,584 M408.7,1163.5
	c0.5,2.9-1.5,6.7,2.5,8.5c5.9,2.5,11.6,5.7,17.7,7.2c10,2.4,20.2,3.7,30.4,5.2c10.6,1.6,21.1,0.1,31.4-2.4c2.4-0.6,3.4-1.9,3.4-4.4
	c0.2-12,0.5-23.9,0.8-35.9c0-1.9,0-3.9,0.4-5.8c0.7-3.4-0.9-3.8-3.7-3.5c-22.6,2.6-44.5-0.3-65.4-9.4c-5-2.2-9.7-5.1-15.2-8
	C410.3,1131.1,409.5,1146.9,408.7,1163.5 M438.4,1114.6c17.4,5.3,35.2,7.3,53.3,4.9c2.1-0.3,4.1-0.7,4.2-3.6
	c0.4-14.7,0.8-29.5,1.2-44.4c-30,2.5-56.8-5.5-81.5-22.4c-0.2,3.1-0.3,5.9-0.5,8.6c-1,13.9-2.1,27.8-2.9,41.6
	c-0.1,1.5,1.1,4,2.4,4.6C422.2,1107.7,430,1111,438.4,1114.6 M447.8,1052.5c9.5,2.3,18.8,5,28.4,6.6c5.8,0.9,11.9-0.2,17.9-0.3
	c2.6-0.1,3.4-1.5,3.5-4.1c0.6-9,1.3-18,2.2-27c0.2-2.2-0.3-3.3-2.8-3.5c-22.8-1.7-43-11-62.6-21.7c-4.5-2.4-8.8-5.3-13.4-8.1
	c-0.4,1.2-0.8,1.9-0.8,2.7c-1.2,12.9-2.4,25.7-3.5,38.6c-0.1,0.8,0.9,2,1.7,2.4C428,1042.9,437.6,1047.5,447.8,1052.5 M930.3,308.1
	c-12.7,0.5-25.3,1.1-38,1.6c-1.7,0.1-3.5-0.3-5,0.2c-1.1,0.3-2.7,1.7-2.8,2.7c-0.5,6.2-0.6,12.5-0.9,18.8c-0.1,2.7,1.1,3.7,3.8,3.6
	c16-0.3,32-0.4,48.1-0.9c24.6-0.7,49.3-1.7,73.9-2.5c1.3,0,2.5-0.1,3.8,0c2.6,0.2,3.8-0.9,3.8-3.7c-0.1-4.9-0.1-9.8,0-14.6
	c0-2.4-0.9-3.5-3.4-3.6c-8.6-0.4-17.2-1.4-25.8-1.5C968.7,307.9,949.9,308,930.3,308.1 M431,930.2c-0.4,1.3-1,2.6-1.2,4
	c-2.3,13.7-4.7,27.4-6.9,41.2c-1.2,7.9-1,7.7,5.9,11.5c14.6,8.2,29.7,15.5,45.7,20.5c7.1,2.3,14.6,3.5,22,4.8c1.3,0.2,3.9-1,4.1-1.9
	c1.1-5,2.2-9.8-0.6-15c-2.4-4.5-3.9-9.5-5.3-14.5c-1-3.6-2.8-5.5-6.6-6.3c-20.1-4.3-36.2-14.9-48.1-31.6
	C437,938.8,434.4,934.4,431,930.2 M494.1,1212.1c0-5.8,0-11.6,0-17.8c-30.4,6.6-58.6,2.4-85.4-11.1c0,15.1,0,30.3,0,45.9
	c30.3-13.2,58.4-11,85.4,7.8C494.1,1228.8,494.1,1220.9,494.1,1212.1 M1570.4,559.9c0.6-2,0.2-3.1-2.2-3.2
	c-4.2-0.1-8.4-0.2-12.5-0.8c-13.7-2.3-27.4-4.7-39.5-12.5c-5.3-3.5-10.9-6.5-16.4-9.8c-3.5,6.3-6.8,12.2-10.1,18.2
	c-1.3,2.4,0.3,3.1,2.1,3.9c23.3,10.2,41.9,26.6,58.7,45.3c1.5,1.7,3.3,3.1,5.6,5.3C1561.1,590.3,1565.7,575.4,1570.4,559.9
	 M1648.8,421c-2.3,1-4.7,1.8-6.8,3.1c-10.9,6.9-16.3,18-21.8,29c-0.6,1.3,0.3,3.7,1.2,5.2c6.7,11.2,12.7,22.7,11.7,36.4
	c-0.1,0.9,0.4,1.9,0.6,3.1c0.9-0.5,1.3-0.6,1.6-0.9c10.2-11.1,18.5-23.4,24.1-37.4c3.7-9.3,7.3-18.7,4.8-29.2
	C1662.2,422,1658.2,419.1,1648.8,421 M1553.2,381.7c-12.1,12.4-15.9,28.5-20.2,44.4c-0.2,0.6,1.4,2.3,2.2,2.3
	c10.7-0.1,21.4-0.4,32.1-0.8c1.2,0,3-0.8,3.4-1.7c4.4-11,8.9-22.1,8-34.3c-0.9-13.8-12.2-19.1-23.7-11.4
	C1554.5,380.6,1554.1,380.9,1553.2,381.7 M1045.4,1146.2c-7.4,2.4-14.8,5-22.3,7c-11.4,3.1-23,5.8-34.5,8.6
	c-2.1,0.5-3.8,1.3-3.9,4.1c-0.2,4.6-0.9,9.1-1.4,13.7c-0.6,5.4-1.1,10.8-1.7,16.1c10.9-11.1,22.5-20.4,36.8-26.1
	c14.9-5.9,29.6-5.3,45.2,0.4c1.4-9.5,2.9-18.5,4-27.5c0.4-3.4-2-3-4.2-2.3C1057.7,1142.1,1051.9,1144.1,1045.4,1146.2 M398.6,1389.8
	c4.9-4.2,7.6-9.6,8.4-15.9c1.2-9.9,2.3-19.9,3.1-29.8c0.1-1.1-1.4-2.8-2.5-3.6c-3-2-6.3-3.5-9.3-5.6c-6.4-4.5-11.8-10.1-15.1-17.5
	c-4.3,16.9-5.9,33.8-5.1,50.9c0.4,7.7,3.6,14.9,9.5,20.4C390.6,1391.6,394.2,1392.8,398.6,1389.8 M1590.6,407.5
	c-2.8,6.2-5.6,12.4-8.5,18.5c-1.3,2.8-0.5,4.1,2.4,5.3c6.9,3,13.7,6.2,20.3,9.6c2.6,1.3,4.9,3.4,7.8,5.5c2.5-6.1,4.9-11.6,7.1-17.1
	c3-7.7,5.6-15.4,5.2-23.9c-0.6-11.8-10.2-18.1-20.2-12.1C1599.3,396.6,1595.4,402.3,1590.6,407.5 M1508.8,438.4
	c0-0.9,0.3-1.9,0.1-2.8c-2.9-11.9-14-20.4-26.1-20.5c-15.8-0.1-21.5,11.9-17.1,24.7c3.4,9.9,11,17.3,19.4,23.6
	c2.4,1.8,4,1.2,5.1-1.5C1493.8,452.2,1500.6,445.2,1508.8,438.4 M515,1301.9c-2.6-4.3-5.2-8.6-8.3-13.7c-0.9,2-1.4,2.7-1.6,3.5
	c-3.3,11.8-9.7,21.9-17.8,30.8c-3.2,3.5-3.9,6.2-2.4,10.5c3.4,9.2,9.6,14.9,19.2,16.6c4.2,0.7,8.7,0.4,11.4-3.5
	c4.6-6.7,7.6-14.3,6-22.4C520.1,1316.5,517.4,1309.5,515,1301.9 M672.5,1145.5c-0.7,9.1-1.4,18.2-2.2,28.4
	c25.6-9.9,47.3-1.7,68.2,12.7c0.7-4.7,1.5-8.4,1.7-12.2c0.8-10.4,0.6-10-9.4-12.9c-18.1-5.2-36-11-54-16.5
	C675.6,1144.8,674.1,1145,672.5,1145.5 M464.4,1390.2c0.3,0.3,0.6,0.6,1,0.8c10.7,5.5,15.2,2.7,15.1-7.7c-0.1-9.4-1.1-18.9-2.6-28.2
	c-1-6.5-3.5-12.8-5.5-19.3c-5.8,2.8-10.6,5.6-15.8,7.4c-3.7,1.3-4.9,3.3-4.2,6.8c2.1,10.5,4,21,6.5,31.4
	C459.6,1384.4,462.2,1387,464.4,1390.2 M439.9,1397.3c0.5-1.6,1.1-3.2,1.5-4.8c3.1-14.5,2.3-29,0.7-43.5c-0.1-0.9-2.2-2.2-3.4-2.4
	c-4.7-0.6-9.5-0.4-14.1-1.2c-3.3-0.6-4.2,0.4-4.2,3.5c0.1,12-0.3,24,0.2,35.9c0.2,4.5,1.8,9.4,4,13.4
	C428,1404.3,435.8,1403.8,439.9,1397.3 M912.6,733.5c-9.6-0.5-19.2-1-28.7-1.6c-4.6-0.3-5.8,0.7-6.1,5.2c-0.1,1.2,0,2.5-0.1,3.8
	c-0.2,2.5,1,3.4,3.5,3.5c20.3,0.8,40.6,1.7,60.9,2.4c6.7,0.2,7.5-0.9,7.8-7.6c0.1-2.5-0.7-3.9-3.5-4.1
	C935.3,734.7,924.4,734.1,912.6,733.5 M925.7,759.4c3.9-0.4,7.8-0.8,11.6-1.2c0-0.4,0-0.7,0-1.1c-1.3-0.3-2.5-0.8-3.8-0.8
	c-14.3-0.9-28.6-1.7-42.9-2.7c-3.5-0.2-6.9-1.3-10.3-1.5c-1.1-0.1-2.3,1.3-3.4,2c0.9,1.2,1.5,2.9,2.7,3.5c1.8,0.8,4.1,1,6.1,1.1
	C898.8,758.9,911.9,759.1,925.7,759.4 M943.1,757.2c-0.4-0.3-0.9-0.5-1.3-0.8c-0.1,0.3-0.3,0.6-0.4,0.9
	C941.9,757.3,942.3,757.4,943.1,757.2z"/>
<path class="st1" d="M272.3,292.9c16.1-7,33.1-2.5,45.1,8.8c14.5,13.5,23.2,30.4,30.8,48.2c8,18.8,13.7,38.4,18.3,58.2
	c3.5,15.3,6.2,30.9,8.6,46.5c2.2,14.5,3.7,29,5.1,43.6c0.7,7.6,0.6,15.2,0.9,22.9c0.1,1.5,0,3,0,4.1c11.1,2.3,21.7,4.4,32.3,6.7
	c17.3,3.8,34.7,7.6,52,11.5c8.4,1.9,16.9,3.8,25.2,6c1.4,0.4,3.1,2.1,3.3,3.4c0.4,2.4,1,5.3-2.1,6.8c-7.5,3.8-15,7.8-22.5,11.6
	c-26.5,13.4-53.1,26.8-79.5,40.3c-1.4,0.7-2.5,3.1-2.8,4.9c-0.5,2.9-0.1,5.9-0.1,8.8c-0.3,12.5-0.3,25-0.9,37.5
	c-0.6,12.9-1.4,25.9-2.5,38.7c-1.4,15.7-2.9,31.4-5.1,46.9c-2.4,17.3-5,34.5-8.4,51.6c-3.4,16.9-7.2,33.8-11.9,50.4
	c-4.5,15.7-9.5,31.4-15.8,46.5c-8.5,20.5-18.2,40.5-34.7,56.2c-10.4,9.9-22.7,15.2-37.2,13.3c-7.9-1-14.9-4.6-20.9-9.8
	c-17.9-15.4-27.7-36-35.8-57.4c-4.5-11.7-8.3-23.7-11.6-35.8c-3.4-12.5-5.9-25.3-8.5-38c-2.1-10.1-4.1-20.2-5.8-30.4
	c-1.2-7.1-1.8-14.4-2.6-21.6c-1.1-9.5-2.2-19-3.3-28.6c-0.4-3.7-0.7-7.4-0.9-11.1c-0.6-12.7-1.4-25.5-1.6-38.2
	c-0.5-26.7-0.8-53.5-0.8-80.2c0-13.6,0.9-27.1,1.6-40.7c0.6-10.4,1.3-20.9,2.5-31.2c2-16.8,4.1-33.6,6.7-50.4
	c3-19.3,6-38.7,10.2-57.8c3.6-16.8,8.1-33.4,13.6-49.6c5.6-16.4,12.5-32.6,19.9-48.3c6.2-13.1,14.4-25.1,25.3-34.9
	C262.5,298.7,267.4,296,272.3,292.9 M203.5,820.2c0.3,1.5,0.6,3,0.9,4.5c6,29.2,13.4,57.9,25.9,85.1c5.8,12.6,12.5,24.6,22.5,34.5
	c15.5,15.4,31.8,15.8,47.3,0.3c6.7-6.7,12.6-14.6,17.6-22.7c12.7-20.4,20.6-43,27.3-65.9c19-65.5,27.1-132.7,30.3-200.6
	c0.7-14.1,1.5-28.1,1.9-42.2c0.2-6.2,3.5-9.3,8.7-11.9c28.2-14.1,56.3-28.4,84.4-42.7c1.3-0.6,2.5-1.3,4.3-2.3
	c-1.8-0.5-2.7-0.8-3.7-1.1c-23-5.3-45.9-10.6-68.9-16c-7.7-1.8-15.3-4.1-22.8-6.6c-1.4-0.5-3-2.5-3.3-4c-1.6-9.2-3-18.4-4.1-27.7
	c-4-33.3-9.2-66.3-17.6-98.8c-6.4-24.5-14.2-48.5-26.9-70.6c-5-8.8-10.9-16.9-18.6-23.5c-12.7-10.8-26-11.1-39.3-1.2
	c-1.9,1.4-3.9,2.8-5.4,4.7c-6.3,8.1-13.2,15.9-18.4,24.8c-14.5,24.5-23.1,51.3-30.3,78.7c-18,68.4-25,138.2-26.7,208.7
	c-1,38.9-0.1,77.9,4,116.6C195.6,766.8,199.8,793.1,203.5,820.2z"/>
<path class="st2" d="M832.3,1179c7.4-0.1,15.2-0.2,23.2-0.1C848.1,1179,840.3,1179.1,832.3,1179z"/>
<path class="st3" d="M866.9,1164.9c-12.1,0-23.8,0.5-35.5-0.2c-12.5-0.7-25-2.1-37.3-4.2c-21.8-3.7-43.7-7.6-65.3-12.4
	c-25.7-5.7-50-15.6-73.9-26.4c-26.8-12.1-51.2-27.8-73.8-46.4c-21.8-17.9-41-38.3-56.8-61.6c-17.5-25.6-26.4-54.2-24.1-85.4
	c1.9-25.5,7.1-50.5,20.8-72.5c13.6-21.9,31.3-39.9,53.5-53.2c11-6.6,22-13.4,33.5-18.7c24.3-11.2,50.1-16.5,76.6-19.7
	c20.6-2.5,41.2-4.5,62-5c13-0.3,26-2.8,39.1-3.6c9.9-0.6,19.8-0.1,29.7-0.4c14.9-0.4,29.8-1,44.7-1.7c3.7-0.2,5.3,0.8,5.1,4.9
	c-0.3,4.8,1.6,7.4,6.5,8.2c8.5,1.5,17,2.8,25.6,3.6c17.1,1.5,34.2-0.6,51.2-2.5c3.9-0.4,7-2.2,8-6.3c0.7-3.1,2.5-3.7,5.4-3.8
	c7.7-0.1,15.3-1,23-0.7c17.8,0.8,35.6,2.3,53.4,3c21.5,0.9,42,7,63,10.8c18.4,3.3,36.7,7.2,54.7,11.8c18.3,4.7,35.2,12.8,51.7,22.3
	c15.3,8.8,29.8,18.7,43.1,30.2c11.7,10.1,18.9,23.2,23.2,38c3.4,11.8,2.6,23.7,2,35.7c-1.4,25.3-9.1,49-17.2,72.6
	c-5.7,16.5-15.8,30.4-26.6,43.8c-14.7,18.1-32.2,33.2-51,46.8c-8.1,5.8-16.8,11.1-25.8,15.5c-21.9,10.7-43.9,21.4-66.3,31
	c-11.9,5-24.8,7.4-37.2,11.2c-17.5,5.3-34.7,11.6-52.4,16.1c-19.4,4.9-39.1,8.8-58.9,12.3c-13.1,2.4-26.5,3.6-39.8,4.9
	C889.6,1164,878.4,1164.2,866.9,1164.9 M1162.1,826.4c-4.1-1.6-8.1-3.9-12.3-4.8c-26.2-5.8-52.9-5.6-79.5-5.2
	c-30.4,0.4-60.8-0.1-91.2,2.5c-14.3,1.2-28.7,0.1-43.1,0c-6.3,0-8.1,1.2-10.3,7c-0.6,1.6-1,3.2-1.5,4.8
	c-6.5,18.4-9.8,37.4-13.6,56.5c-6.3,31.6-14.7,62.7-19.3,94.7c-2.6,18-5.7,35.8-5.3,54c0.2,8.8,4.2,14.5,12.7,17.1
	c1.9,0.6,3.8,1.2,5.7,1.3c20.2,2,40.5,4.3,60.8,5.6c28,1.9,56,3.3,84,4.5c25.9,1.1,51.8,1.4,77.7-1.8c11.7-1.4,18.5-7.5,21.5-18.5
	c0.4-1.3,0.9-2.7,1.1-4c2.8-18.2,5.8-36.3,8.1-54.6c2.9-23.1,4.8-46.3,8-69.4c3.3-23.2,4.8-46.3,2.9-69.6
	C1167.7,839.7,1167.7,832.5,1162.1,826.4 M732.3,834c-11.1-0.6-22.2-1.5-33.4-1.6c-14.6-0.1-29.3,0.3-43.9,0.8
	c-8.9,0.3-17.8,0.8-26.6,1.7c-6.2,0.7-12.3,2.5-15,9c-5.2,12.7-6.2,26.3-6,39.8c0.2,9.5,3.8,13.1,13.3,14.7
	c4.8,0.8,9.7,1.3,14.5,1.6c19.7,0.9,39.5,1.8,59.2,2.5c19.1,0.7,38.1,1.3,57.2,1.7c11.6,0.2,23.2-0.3,34.7,0.2
	c9.9,0.4,17.2-8.2,19.2-15.7c2.8-10.8,1.8-21.9,0.7-32.8c-0.7-6.8-4-12.3-10.7-14.7c-4-1.4-8.3-2.5-12.6-2.9
	C766.3,836.7,749.7,835.4,732.3,834z"/>
<path class="st3" d="M1309.9,426.2c6.8,26.4,7.1,53,6.7,79.7c-0.2,10,0.4,20.1-0.1,30.1c-0.7,15.6-1.6,31.1-3.3,46.6
	c-2,18.7-4.8,37.3-7.5,55.8c-2.6,17.7-9.6,33.7-21.9,46.6c-4.9,5.2-11.8,8.8-18.2,12.2c-19.3,10.3-40.2,16.5-61.2,22.2
	c-2.9,0.8-6,1.3-9,1.5c-65.8,4.8-131.6,1.8-197.4,2.5c-16.3,0.2-32.6-0.3-48.9-0.9c-25.5-0.9-50.9-2.2-76.4-3.3
	c-14.6-0.6-29.2-0.8-43.8-1.8c-15-1-30-2.3-44.9-4c-22.7-2.6-45.3-6-68-8.3c-13.4-1.4-27-1.8-40.5-1.8c-12.5,0-24-3.4-35.3-7.9
	c-11.1-4.4-22.4-8.8-32.8-14.7c-12.8-7.2-23.9-17-32.8-28.7c-2.8-3.6-4.4-8.4-5.6-12.9c-6-21.5-9.3-43.3-8.6-65.7
	c0.4-15.3-0.1-30.7,0.1-46.1c0.5-27.5,2.7-54.8,7.1-81.9c1.9-11.5,3.7-23,9.1-33.3c4.3-8.3,9.6-16.3,15.3-23.8
	c8-10.6,17.7-19.5,30.2-24.4c6-2.4,12.5-4.1,18.9-4.8c15.7-1.9,31.6-3.2,47.4-4.4c14.7-1.1,29.5-1.8,44.2-2.6
	c22.5-1.2,45-2.6,67.6-3.3c27.7-0.9,55.5-1.2,83.2-1.7c17.7-0.3,35.3-0.4,53-0.9c25.5-0.7,51-1.7,76.4-2.5
	c11.4-0.4,22.8-0.5,34.3-0.9c18.2-0.5,36.5-1.3,54.7-1.6c42.5-0.7,85.1-2.3,127.6-1.3c26,0.6,48.9,11.3,64,34c3.7,5.6,6,12.3,8,18.8
	C1304.6,403.9,1307,414.9,1309.9,426.2 M904,401.8c-5.1,0.3-10.3,0.5-15.4,0.8c-14.5,0.9-28.9,1.8-43.4,2.6
	c-19.9,1.1-39.7,2.5-59.6,3.1c-12.8,0.4-25.6-0.6-38.5-0.7c-19.1-0.1-38.3-0.7-57.4,0.2c-12.4,0.6-24.9,2.9-37.1,5.3
	c-8.9,1.8-14.2,8.3-17,16.9c-9.4,29-13.2,58.9-14.2,89.3c-0.6,16.4-1,32.9-0.8,49.3c0.1,9,0.8,18.2,2.7,26.9
	c2.7,12.4,7.6,24.1,19,31.4c10.4,6.7,21.8,11.3,33.8,14.3c23.2,5.7,47.1,6.7,70.9,8.1c25.4,1.5,51,1.6,76.5,1.9
	c14.6,0.2,29.3-0.8,43.9-0.7c22.5,0,44.9,0.4,67.4,0.8c15.9,0.3,31.7,1.1,47.6,1.6c18.2,0.6,36.5,1.2,54.7,1.7
	c12.7,0.4,25.4,0.6,38,0.8c16.9,0.3,33.7,0.4,50.6,0.9c12.7,0.4,25.3,0.9,38,1.8c15.1,1,30.1,1.7,45-1c9.7-1.8,19.1-4.4,26.9-10.8
	c13.8-11.5,19.2-27,20.6-44.2c1-12.8,1.8-25.5,2.4-38.3c1-20.6,2-41.2,2.5-61.8c0.3-13.1-0.1-26.2-0.8-39.3
	c-0.4-7.9-1.3-15.9-3.5-23.4c-4.5-15.4-14-27-30.1-31.5c-9.4-2.6-18.9-5-28.5-6.3c-16.5-2.3-33.2-5.1-49.8-5.3
	c-43.5-0.5-87.1,0.1-130.6,0.6c-21.4,0.3-42.9,1.5-64.3,2.4C937.3,400,921,401,904,401.8z"/>
<path class="st3" d="M1156.1,1310.4c4.1,12.9,8.6,25.4,11.8,38.3c3.1,12.4,5.1,25.1,2.2,38c-1.8,8.2-6.4,13.6-14.1,16.9
	c-23.3,9.9-47.4,16.2-72.9,16.9c-8.1,0.2-16.1,1.1-24.2,1.5c-16.3,0.8-32.3-1.1-48.1-4.8c-16.7-3.9-33.5-7.6-49.8-12.7
	c-9.5-2.9-17.2-9.6-19.8-19.9c-1.2-4.6-1.1-9.7-0.6-14.5c3-28.6,6.4-57,15.3-84.5c2.1-6.5,3.5-13.2,5.2-19.8
	c6-22.5,15.5-43.2,29.7-61.8c10.1-13.2,23.5-21.7,39.1-25.7c11-2.8,22.3-1.1,33,3.9c13.4,6.3,23.9,16,32.7,27.5
	c20.3,26.6,38.9,54.4,53.5,84.7C1151.8,1299.4,1153.7,1304.8,1156.1,1310.4z"/>
<path class="st3" d="M592.3,1413.5c-5.5-2.1-10.8-3.9-15.9-6.3c-11.1-5.1-14.6-15.5-14.1-29.7c0.9-26.3,10.7-50.3,20.1-74.3
	c4.7-11.9,10.9-23.3,17.8-34.1c11.9-18.7,24.3-37.1,37.4-54.9c9.7-13.2,21.7-24.3,37.8-29.9c15.4-5.3,29.8-3.3,44.2,4.4
	c21.4,11.5,32.6,31,42.4,51.7c9.5,20.1,14.6,41.6,17.4,63.5c1.1,8.8,0.6,17.8,0.5,26.7c-0.1,8.5,0,17.1-1.1,25.4
	c-2.1,16.2-7.2,31.6-15.5,45.6c-4.1,7-11.1,11.1-18.6,13.6c-23.3,8-47.3,12-71.9,10.7c-20.1-1.1-40.4-1.2-60.1-6.6
	C605.9,1417.6,599.3,1415.5,592.3,1413.5z"/>
<path class="st4" d="M1352.9,922.2c-9.1,18.9-22.9,32.4-42.3,40c-10.1,4-20.8,5.1-31.6,5.1c-3.3,0-3.6-1.4-2.8-4.2
	c3.5-12.3,7.6-24.5,9.9-37.1c2.2-12.4,4-25.2,3.3-37.7c-0.9-16.7-7.2-32.1-16.2-46.5c-7.6-12.1-18.8-20-29.1-29
	c-1.7-1.5-3.3-2.9-5.2-4.6c2.4-4.5,6.5-6.6,10.7-8.3c20.2-8.3,41-10.3,61.5-1.9c8.2,3.3,15.6,9.2,22.4,15
	c19.3,16.4,26.7,38.6,29.4,63.1C1364.7,892.7,1360.2,907.5,1352.9,922.2z"/>
<path class="st5" d="M1612.5,466.1c2.8,6.2,6.6,11.9,7.9,18.2c4.3,20.8-6.6,46.1-31.2,56.4c-12.1,5.1-24.4,5.3-36.9,3.6
	c-17-2.3-32.7-8.5-46.1-19.3c-9.3-7.5-13.5-17.9-12.4-30c0.5-5.9,1-12,2.4-17.7c5.4-22.2,20.7-35.2,43.5-37.8
	c13-1.5,25.9-1.7,38.5,1.9C1592.5,445.4,1604.8,452.3,1612.5,466.1z"/>
<path class="st5" d="M505.4,859.5c-9.4,20.2-14.1,41.4-16.9,63.1c-1.6,12.4-1.2,24.8,0.9,37.1c0.1,0.8,0.2,1.6,0.4,3.9
	c-7.1-3.1-14-4.9-19.6-8.7c-17.6-11.6-30.4-27.1-32.2-48.9c-1.1-13.1-2.3-26.8,0.1-39.5c5.4-27.8,19.2-51.1,43.4-67.5
	c12.6-8.6,25.9-15.1,40.9-17.1c14.4-1.9,29-1.4,42.9,3.7c2.4,0.9,4.5,2.5,7.7,4.4C543.4,807.2,521.2,830.1,505.4,859.5z"/>
<path class="st5" d="M404.4,1325.8c-10.3-6.6-13.2-16.8-13.9-27.6c-0.5-8.8,0-17.9,1.1-26.7c2.3-18.9,19-34.9,37.7-38.3
	c14.7-2.7,28.9-1.5,42.7,3.7c18.3,6.9,26.3,22.1,24.2,40.4c-3,26.7-17.8,45.7-42.9,55C436.8,1338.6,419.8,1336,404.4,1325.8z"/>
<path class="st6" d="M909.6,298.7c-7.1,0.3-13.8,0.5-20.4,1c-3,0.2-4-0.7-3.7-3.7c1.7-23.7,9.5-45.2,24.8-63.2
	c10.4-12.3,24.8-18.7,40.5-21.9c13-2.6,25.5-0.4,37.6,4.8c8.6,3.7,14.5,10,18.3,18.6c3.7,8.4,6.5,16.9,7.3,26.1
	c1,11.2,1.8,22.5,2.9,33.7c0.4,4-1,5-4.9,4.9c-21.2-0.7-42.4-1.5-63.5-1.6C935.6,297.2,922.8,298.2,909.6,298.7 M968.4,250.6
	c3.6-0.4,7.2-1.2,10.7-1c5.1,0.3,7.5,3.2,8.6,8.2c1.6,7.3-1.9,12.6-6.6,17.5c-3.1,3.2-3.6,6.5-1.4,8.8c2.3,2.5,6,2.3,9.3-0.8
	c5.6-5.4,9.4-12,9.9-19.8c0.5-7.5-1-14.9-7.4-20c-6.1-4.9-13.4-5.7-20.7-4.1c-6.1,1.3-11.9,2.2-17.6-1.2c-1.1-0.7-2.7-0.7-4.1-0.7
	c-20.2-0.5-29.8,7-34.9,27.5c-2.2,8.9,1.7,17.2,8.6,19.7c1.6,0.6,3.6-0.1,5.4-0.2c-0.5-1.7-0.5-3.9-1.6-5c-3.3-3.3-4.5-7-3.8-11.4
	c1.1-6.8,3.9-12.8,9.2-17.4c4.3-3.7,14.4-4.9,18.5-2.1c-1.4,2-2.9,4-4.1,6.2c-1.1,2.2-2.2,4.6-2.7,7c-1.5,7.2,1,12.3,6.9,14.3
	c9.1,3.2,17.2-2,17.8-11.6C968.6,260,968.1,255.6,968.4,250.6z"/>
<path class="st3" d="M1464.7,761.8c-12.8,17.9-25.4,35.5-38.6,53.8c-14-27.8-30.5-52.3-55.1-70.5c14.2-20.1,28.5-40.5,43.3-61.5
	c5.3,4.6,10.4,8.7,15,13.2c10.4,10.4,19.3,22,27,34.5c4,6.5,7.3,13.5,11.1,20.1c1.9,3.2,1.5,5.7-1.2,8.1
	C1465.7,760.1,1465.3,760.9,1464.7,761.8z"/>
<path class="st3" d="M1442.8,639.4c5.1-7.5,10.1-14.7,15.5-22.6c4.6,4.6,9.1,9,13.5,13.6c4.4,4.5,8.4,9.3,13,13.6
	c11.4,10.7,19.8,23.6,28.5,36.5c4.6,6.8,3.8,11.2-0.7,17.1c-10.7,13.9-20.8,28.3-31.2,42.4c-2.6,3.6-3.5,3.4-5.9-0.3
	c-8.4-12.6-16.1-25.8-25.7-37.5c-7.3-8.9-16.8-16.1-25.7-23.7c-3.9-3.3-4.3-3.1-1.4-7.5C1429.2,660.6,1435.9,650.1,1442.8,639.4z"/>
<path class="st3" d="M1394.2,784.9c8.7,12.3,17.1,24.5,21.7,38.8c0.9,2.7,0.4,4.5-1.3,6.4c-5.4,6-10.8,12-16.2,18
	c-5.8,6.4-11.7,12.7-17.5,19.1c-1.7,1.8-2.9,4.1-4.3,6.1c-0.6-0.4-1.2-0.8-1.8-1.2c-0.2-2.1-0.3-4.3-0.8-6.4
	c-3.6-16.9-8.3-33.2-19.2-47.2c-6.7-8.5-14.3-16-23.3-21.9c-4.9-3.3-5.1-3.5-1.3-7.7c6-6.8,12.3-13.3,18.4-19.9
	c4-4.3,8-8.5,11.9-12.9c2-2.3,4-2.9,6.4-0.7c6.3,6.2,12.7,12.4,18.8,18.8C1388.8,777.4,1391.3,781.1,1394.2,784.9z"/>
<path class="st7" d="M1516.9,584.2c7.9,7.6,15.8,15,23.4,22.6c3,2.9,5.4,6.4,8.3,9.4c2.6,2.7,2.5,5.2,0.9,8.3
	c-7,13.9-14,27.9-20.9,41.8c-1.4,2.8-2.7,5.7-4.5,9.6c-2.4-3.7-4.3-6.3-5.9-9.1c-9.1-16-21.9-28.7-35.5-40.8
	c-6.1-5.4-12.6-10.5-18.8-15.8c-0.8-0.7-1.2-2.6-0.8-3.5c6.9-14.6,14-29.1,21-43.7c0.1-0.2,0.4-0.4,1.4-1.2
	C1495.7,569.1,1506.2,576.5,1516.9,584.2z"/>
<path class="st7" d="M408.7,1163.1c0.8-16.2,1.6-32,2.4-48.2c5.5,3,10.2,5.9,15.2,8c20.9,9.1,42.8,12,65.4,9.4
	c2.8-0.3,4.4,0,3.7,3.5c-0.4,1.9-0.3,3.9-0.4,5.8c-0.3,12-0.6,23.9-0.8,35.9c0,2.5-1,3.9-3.4,4.4c-10.4,2.5-20.8,4-31.4,2.4
	c-10.2-1.5-20.4-2.9-30.4-5.2c-6.1-1.5-11.9-4.6-17.7-7.2C407.2,1170.2,409.2,1166.4,408.7,1163.1z"/>
<path class="st3" d="M438.1,1114.5c-8.1-3.5-15.9-6.8-23.5-10.5c-1.3-0.6-2.5-3.1-2.4-4.6c0.8-13.9,1.9-27.8,2.9-41.6
	c0.2-2.7,0.3-5.5,0.5-8.6c24.7,16.9,51.4,24.9,81.5,22.4c-0.4,14.9-0.9,29.7-1.2,44.4c-0.1,2.9-2,3.4-4.2,3.6
	C473.6,1121.9,455.8,1119.9,438.1,1114.5z"/>
<path class="st7" d="M447.5,1052.4c-9.9-4.8-19.5-9.5-29.1-14.3c-0.8-0.4-1.8-1.7-1.7-2.4c1.1-12.9,2.3-25.7,3.5-38.6
	c0.1-0.8,0.5-1.5,0.8-2.7c4.7,2.8,8.9,5.6,13.4,8.1c19.7,10.7,39.9,20,62.6,21.7c2.5,0.2,3,1.3,2.8,3.5c-0.8,9-1.6,18-2.2,27
	c-0.2,2.5-0.9,4-3.5,4.1c-6,0.2-12.1,1.3-17.9,0.3C466.6,1057.5,457.3,1054.7,447.5,1052.4z"/>
<path class="st8" d="M930.7,308.1c19.2,0,38.1-0.2,56.9,0c8.6,0.1,17.2,1.1,25.8,1.5c2.5,0.1,3.5,1.2,3.4,3.6
	c-0.1,4.9-0.1,9.8,0,14.6c0.1,2.7-1.1,3.8-3.8,3.7c-1.2-0.1-2.5,0-3.8,0c-24.6,0.8-49.3,1.8-73.9,2.5c-16,0.5-32,0.5-48.1,0.9
	c-2.6,0.1-3.9-0.9-3.8-3.6c0.3-6.3,0.4-12.5,0.9-18.8c0.1-1,1.7-2.3,2.8-2.7c1.5-0.5,3.3-0.1,5-0.2
	C905,309.1,917.6,308.6,930.7,308.1z"/>
<path class="st3" d="M431.3,930.2c3.1,4.2,5.8,8.6,8.7,12.8c11.9,16.7,28,27.3,48.1,31.6c3.8,0.8,5.6,2.6,6.6,6.3
	c1.4,4.9,2.9,10,5.3,14.5c2.8,5.1,1.7,10,0.6,15c-0.2,1-2.9,2.2-4.1,1.9c-7.4-1.3-14.9-2.5-22-4.8c-16-5.1-31.1-12.3-45.7-20.5
	c-6.9-3.8-7.1-3.7-5.9-11.5c2.2-13.8,4.5-27.5,6.9-41.2C430,932.8,430.6,931.6,431.3,930.2z"/>
<path class="st3" d="M494.1,1212.6c0,8.3,0,16.2,0,24.4c-27-18.8-55.1-21-85.4-7.8c0-15.6,0-30.8,0-45.9
	c26.8,13.5,55.1,17.6,85.4,11.1C494.1,1200.6,494.1,1206.4,494.1,1212.6z"/>
<path class="st8" d="M1570.3,560.2c-4.6,15.2-9.2,30-14.1,46c-2.4-2.2-4.1-3.7-5.6-5.3c-16.8-18.7-35.4-35.1-58.7-45.3
	c-1.8-0.8-3.5-1.5-2.1-3.9c3.3-6,6.6-11.9,10.1-18.2c5.5,3.3,11.1,6.3,16.4,9.8c12,7.8,25.7,10.3,39.5,12.5
	c4.1,0.7,8.3,0.7,12.5,0.8C1570.6,556.8,1571,557.9,1570.3,560.2z"/>
<path class="st9" d="M1649.1,420.9c9-1.8,13.1,1.1,15.1,9.6c2.5,10.5-1,19.8-4.8,29.2c-5.6,14-13.9,26.3-24.1,37.4
	c-0.3,0.3-0.7,0.4-1.6,0.9c-0.2-1.2-0.7-2.2-0.6-3.1c1-13.7-5-25.1-11.7-36.4c-0.9-1.5-1.8-4-1.2-5.2c5.4-11,10.8-22.1,21.8-29
	C1644.1,422.9,1646.5,422.1,1649.1,420.9z"/>
<path class="st9" d="M1553.4,381.5c0.7-0.6,1.1-0.9,1.5-1.2c11.6-7.7,22.8-2.4,23.7,11.4c0.8,12.2-3.6,23.3-8,34.3
	c-0.4,0.9-2.2,1.7-3.4,1.7c-10.7,0.4-21.4,0.6-32.1,0.8c-0.8,0-2.4-1.8-2.2-2.3C1537.3,410.2,1541.1,394.1,1553.4,381.5z"/>
<path class="st4" d="M1045.8,1146.1c6.1-2,12-3.9,17.8-5.8c2.2-0.7,4.6-1.1,4.2,2.3c-1.1,9.1-2.6,18.1-4,27.5
	c-15.6-5.8-30.3-6.3-45.2-0.4c-14.4,5.7-25.9,14.9-36.8,26.1c0.6-5.4,1.1-10.8,1.7-16.1c0.5-4.6,1.2-9.1,1.4-13.7
	c0.1-2.8,1.7-3.5,3.9-4.1c11.5-2.9,23-5.5,34.5-8.6C1030.6,1151.2,1038,1148.5,1045.8,1146.1z"/>
<path class="st4" d="M398.4,1390c-4.2,2.8-7.8,1.6-10.8-1.3c-5.8-5.5-9.1-12.7-9.5-20.4c-0.8-17.1,0.8-34.1,5.1-50.9
	c3.3,7.5,8.7,13,15.1,17.5c2.9,2.1,6.3,3.6,9.3,5.6c1.2,0.8,2.6,2.4,2.5,3.6c-0.8,10-1.9,19.9-3.1,29.8
	C406.3,1380.3,403.5,1385.6,398.4,1390z"/>
<path class="st9" d="M1590.8,407.2c4.7-4.9,8.5-10.7,13.9-13.9c10-6,19.6,0.3,20.2,12.1c0.5,8.5-2.2,16.2-5.2,23.9
	c-2.2,5.5-4.5,11-7.1,17.1c-2.9-2.1-5.2-4.1-7.8-5.5c-6.7-3.4-13.5-6.7-20.3-9.6c-2.8-1.2-3.7-2.5-2.4-5.3
	C1585,419.9,1587.8,413.7,1590.8,407.2z"/>
<path class="st9" d="M1508.6,438.7c-8.1,6.5-14.8,13.6-18.5,23.1c-1.1,2.8-2.7,3.3-5.1,1.5c-8.4-6.2-16-13.6-19.4-23.6
	c-4.4-12.8,1.3-24.8,17.1-24.7c12.1,0.1,23.1,8.6,26.1,20.5C1509.1,436.5,1508.8,437.5,1508.6,438.7z"/>
<path class="st4" d="M515.1,1302.2c2.3,7.3,4.9,14.3,6.4,21.5c1.6,8.2-1.4,15.7-6,22.4c-2.7,3.9-7.2,4.2-11.4,3.5
	c-9.6-1.7-15.8-7.3-19.2-16.6c-1.6-4.4-0.8-7.1,2.4-10.5c8.2-8.9,14.6-19,17.8-30.8c0.2-0.8,0.7-1.5,1.6-3.5
	C509.8,1293.3,512.4,1297.6,515.1,1302.2z"/>
<path class="st4" d="M672.6,1145.2c1.5-0.2,3-0.4,4.3,0c18,5.5,35.9,11.2,54,16.5c10,2.9,10.2,2.5,9.4,12.9c-0.3,3.7-1,7.4-1.7,12.2
	c-20.9-14.4-42.6-22.7-68.2-12.7C671.1,1163.7,671.8,1154.6,672.6,1145.2z"/>
<path class="st4" d="M464.2,1390c-2-3-4.6-5.6-5.3-8.6c-2.5-10.4-4.4-20.9-6.5-31.4c-0.7-3.5,0.5-5.5,4.2-6.8
	c5.2-1.8,10.1-4.6,15.8-7.4c1.9,6.6,4.4,12.8,5.5,19.3c1.5,9.3,2.5,18.8,2.6,28.2c0.1,10.4-4.4,13.2-15.1,7.7
	C465,1390.8,464.7,1390.5,464.2,1390z"/>
<path class="st4" d="M439.8,1397.6c-4,6.3-11.8,6.7-15.1,0.6c-2.2-4-3.8-8.8-4-13.4c-0.6-12-0.1-23.9-0.2-35.9
	c0-3.1,0.9-4.1,4.2-3.5c4.6,0.8,9.4,0.6,14.1,1.2c1.3,0.2,3.3,1.4,3.4,2.4c1.6,14.5,2.4,29.1-0.7,43.5
	C441.1,1394.1,440.4,1395.7,439.8,1397.6z"/>
<path class="st10" d="M913,733.5c11.4,0.6,22.3,1.2,33.3,1.7c2.8,0.1,3.5,1.6,3.5,4.1c-0.3,6.7-1.1,7.8-7.8,7.6
	c-20.3-0.7-40.6-1.6-60.9-2.4c-2.5-0.1-3.6-1-3.5-3.5c0.1-1.2,0-2.5,0.1-3.8c0.3-4.5,1.5-5.5,6.1-5.2C893.4,732.4,903,733,913,733.5
	z"/>
<path class="st2" d="M925.3,759.4c-13.4-0.3-26.5-0.5-39.5-0.8c-2.1-0.1-4.3-0.3-6.1-1.1c-1.2-0.5-1.8-2.3-2.7-3.5
	c1.1-0.7,2.3-2,3.4-2c3.5,0.2,6.9,1.3,10.3,1.5c14.3,1,28.6,1.8,42.9,2.7c1.3,0.1,2.5,0.6,3.8,0.8c0,0.4,0,0.7,0,1.1
	C933.4,758.6,929.6,759,925.3,759.4z"/>
<path class="st2" d="M943,757.3c-0.6,0.1-1.1,0-1.6-0.1c0.1-0.3,0.3-0.6,0.4-0.9C942.2,756.7,942.7,756.9,943,757.3z"/>
<path class="st11" d="M203.5,819.8c-3.7-26.7-7.9-53-10.7-79.5c-4.2-38.7-5-77.7-4-116.6c1.7-70.5,8.7-140.3,26.7-208.7
	c7.2-27.3,15.8-54.2,30.3-78.7c5.2-8.8,12.1-16.6,18.4-24.8c1.4-1.8,3.5-3.2,5.4-4.7c13.3-10,26.6-9.6,39.3,1.2
	c7.8,6.6,13.6,14.7,18.6,23.5c12.7,22.1,20.5,46.1,26.9,70.6c8.5,32.5,13.6,65.5,17.6,98.8c1.1,9.3,2.5,18.5,4.1,27.7
	c0.3,1.5,1.9,3.5,3.3,4c7.5,2.4,15.1,4.7,22.8,6.6c22.9,5.5,45.9,10.7,68.9,16c0.9,0.2,1.9,0.5,3.7,1.1c-1.9,1-3.1,1.7-4.3,2.3
	c-28.1,14.3-56.2,28.6-84.4,42.7c-5.2,2.6-8.5,5.8-8.7,11.9c-0.5,14.1-1.3,28.1-1.9,42.2C372.1,723.3,364,790.5,345,856
	c-6.7,23-14.7,45.5-27.3,65.9c-5,8.1-10.9,16-17.6,22.7c-15.5,15.5-31.8,15.1-47.3-0.3c-10-9.9-16.7-21.9-22.5-34.5
	c-12.5-27.2-19.9-55.9-25.9-85.1C204.1,823.2,203.8,821.7,203.5,819.8 M298.4,392.3c3.1-0.6,6.2-1.2,10.2-2c1.1,0.9,3.1,2.7,5.3,4.1
	c2.9,1.9,6.9,1.1,8.6-1.5c2-3.1,1.3-5.8-1.4-8.1c-1.9-1.6-4-3-5.9-4.6c-0.8-0.7-2-2.2-1.8-2.9c1.4-4.4-0.9-7.2-5.2-10.2
	c4.7,0,8,0.2,11.3-0.1c3.5-0.3,5.6-2.4,5.7-6c0.1-3.9-2.2-5.9-5.8-6.5c-1.8-0.3-3.6-0.2-5.4-0.2c-7.1,0-14.2,0-21.1,0
	c-1.6-8.2-3.2-10.3-7.5-10.3c-6.6,0-6.8,5.3-7.6,10.3c-1.7,0-3.2,0-4.7,0c-6.4,0-12.8-0.1-19.2,0.1c-4.5,0.1-7.4,2.8-7.4,6.4
	c0,3.6,2.9,6.2,7.3,6.5c1.9,0.1,3.8,0,5.7,0c-0.4,6.4-3,11.9-9.4,20.3c-2.8,3.7-2.8,6.8,0.1,9.2c3.2,2.6,7,2.2,10-1.3
	c1.5-1.7,2.7-3.5,4-5.1c0.5,0,0.8,0,1,0.1c3.3,2,6.5,2.2,8.8-1.3c2.3-3.4,0.9-6.3-1.8-8.9c-0.7-0.7-1.8-2-1.6-2.7
	c1.5-4.6-0.6-7.6-5.1-10.4c4,0,6.9,0.1,9.8,0c2.3-0.1,2.8,1.1,2.8,3.1c-0.1,5,0.1,10-0.1,15.1c0,1.3-0.5,2.8-1.3,3.8
	c-3,3.7-5.8,7.6-9.5,10.5c-5.6,4.5-11.8,8.3-17.9,12.3c-4.5,3-4.7,7.8-0.1,10.8c2.8,1.8,5.8,2.3,8.6,0.4c4-2.7,8.1-5.5,11.9-8.5
	c2.7-2.1,5.1-4.5,8.3-7.3c0,5.4-0.1,9.9,0,14.3c0.2,5.2,3.4,8.2,7.8,7.8c3.7-0.4,6.1-3.2,6.2-7.7c0.1-4.8,0-9.6,0-14.4
	c0.5-0.3,0.9-0.5,1.4-0.8c0.9,1.2,1.6,2.7,2.7,3.6c5.2,4.2,10.3,8.6,15.8,12.4c4.2,2.9,9.9,0.9,12.2-3.5c1.8-3.3,0.4-5.9-4.6-8.7
	c-1.3-0.8-2.8-1.3-4-2.2c-6.2-5.1-12.4-10.2-18.3-15.6C297.5,392.5,297.7,392.2,298.4,392.3 M281,549.9c-7.9-0.2-7.1,1.3-7.2-7.1
	c0-2.4,0.7-3.7,3.2-3.9c1.2-0.1,2.7-0.2,3.6-0.9c1.6-1.1,3.8-2.5,4.1-4c0.3-1.6-1.1-4.2-2.5-5.1c-2.2-1.4-5.3-2.5-7.8-2.1
	c-8.4,1.2-16.7,3-25,4.8c-3.7,0.8-4.8,3.8-3,7.1c1.5,2.9,4,4.2,7.3,3.8c2.1-0.2,4.3-0.4,6.4-0.6c1.1,7.9,1.1,7.9-5.9,7.9
	c-0.8,0-1.7,0-2.5,0c-4.2,0.2-7,2.7-6.9,6.2c0.1,3.4,2.7,5.8,6.7,6c2.9,0.1,5.8,0,8.5,0c1.7,9.7,1.2,10.4-7.5,11.4
	c-0.6,0.1-1.1,0.1-1.7,0.2c-4.5,0.8-7.1,3.5-6.6,7.1c0.6,4.2,4.4,6.7,9,5.9c2.3-0.4,4.5-0.7,7-1.1c0.1,1.4,0.3,2.2,0.2,3
	c-0.1,2.6,0.5,5.7-0.7,7.7c-0.8,1.3-4.3,1-6.5,1.4c-3.4,0.6-4.8,3.1-3.5,5.8c1.2,2.5,3.5,5.3,6,6.3c8.3,3.2,17.4-3.2,17.9-12
	c0.2-3.9,0.2-7.8,0-11.7c-0.1-2.5,0.9-3.5,3.2-3.9c2.2-0.4,4.5-0.7,6.4-1.6c2.9-1.4,4.5-3.8,3.6-7.2c-0.9-3.2-3.2-4.4-6.4-4
	c-2,0.2-4.1,0.5-6.4,0.7c0-2.6,0-4.9,0-7.9c4.5,0,8.9,0.1,13.3,0c2.7-0.1,3.6,1.1,4,3.6c0.8,5.5,1.8,11,3,16.4
	c0.6,2.6,0,4.2-2.3,5.5c-3.4,2-6.7,4.1-9.9,6.2c-4.7,3.1-4.5,8.2,0.6,10.4c2.2,0.9,5.4,0.6,7.8-0.3c3-1.2,5.6-3.5,8.7-5.4
	c1.2,1.9,2.3,3.6,3.5,5.3c4.5,6.3,10,8.4,16.6,6.5c4.9-1.4,8.3-6.6,9-13.4c0.4-3.9-1.3-6.8-4.3-9c-2.5-1.9-4.9-1-5.7,2.1
	c-0.5,1.7-0.5,3.6-1.1,5.3c-0.3,0.8-1.9,1.8-2.6,1.6c-3.2-1-4.8-7.6-2.7-10.2c3-3.7,5.9-7.4,8.8-11.1c1.9-2.5,1.8-4.9-0.4-7.2
	c-2.5-2.5-6.9-2.2-9.7,0.7c-1.4,1.4-2.6,3-4.6,5.3c-0.7-4.6-1.1-8.1-1.7-12.2c5.7,0,10.7,0.1,15.7,0c4.2-0.1,6.5-2.4,6.6-6
	c0-3.6-2.4-5.9-6.6-6c-4.5-0.1-8.9-0.2-13.4,0c-2.6,0.1-3.9-0.7-3.9-3.5c-0.1-4.7-0.2-9.5-0.5-14.2c-0.3-4.3-3.2-6.8-7.1-6.7
	c-3.7,0.1-6.2,2.8-6.3,6.9c-0.1,3.3,0.1,6.7,0.2,10C289.4,549.9,289.4,549.9,281,549.9 M260,498.1c6.5-0.3,13-0.6,19.8-0.9
	c-5.4,8.1-2.6,13.5,7.7,15.7c1.8,7.5,5.6,8.3,12.6,4.8c3.5-1.7,9.2-1.1,13,0.5c3.2,1.3,6,1.9,8.5,0.5c1.8-1,3.7-3.7,3.8-5.8
	c0.4-9.5,0.3-19,0.1-28.4c-0.1-4.8-3.1-7.3-7.8-7.7c-5.9-0.5-5.9-0.5-5.9-6.4c0-1.1-0.3-2.4,0.1-3.3c0.6-1.1,1.7-2.4,2.8-2.6
	c2.4-0.4,5,0,7.5-0.2c3.8-0.3,6.3-2.8,6.1-6.1c-0.2-3.7-2.4-5.5-5.9-5.9c-1.8-0.2-3.6-0.3-5.4-0.1c-3.9,0.5-5.7-0.9-5.2-5
	c0.3-2.5,0.1-5-0.2-7.5c-0.4-3.2-2.3-5-5.5-5.3c-3.2-0.3-5.4,1.3-6.4,4.3c-0.5,1.6-0.6,3.3-0.6,4.9c-0.1,9.8,0,19.5,0,29.3
	c0,2.1,0,3.6-2.9,4c-6.5,0.7-8.3,2.9-8.4,9.5c0,6.8,0,13.5,0,20.3c-0.2,0.1-0.5,0.1-0.7,0.2c-1.6-3.1-3.1-6.2-4.4-8.9
	c1.4-1.8,2.9-3,3.5-4.5c1.2-3.6-1.2-6.4-5.3-6.5c-3.2-0.1-6.3,0-9.5,0c0-0.8,0-1.6,0-2.3c2.7,0,5.6,0.4,8.2-0.1
	c1.8-0.4,4-1.7,4.7-3.2c0.6-1.3-0.3-4-1.4-5c-1.2-1.1-3.6-1.1-5.5-1.4c-2-0.3-4.1-0.3-6.1-0.4c0-0.5,0-1.1,0-1.6
	c1.6-0.2,3.2-0.6,4.8-0.6c6.8-0.2,9.4-2.7,9.5-9.3c0-5.7,0.1-11.4,0-17.2c-0.1-6.2-2.7-9-8.9-9c-7.3-0.1-14.5-0.1-21.8,0
	c-6.5,0.1-9,2.5-9.2,9.2c-0.2,5.7-0.2,11.4,0,17.2c0.2,6.7,2.8,9,9.6,9.2c1.4,0,2.8,0.5,4.2,0.8c-0.1,0.6-0.1,1.2-0.2,1.9
	c-2.4,0-4.8-0.1-7.2,0c-3.3,0.1-5.9,1.5-5.8,5.2c0.1,3.3,2.6,4.7,5.8,4.6c1.8,0,3.6-0.1,5.4,0.1c0.7,0.1,1.3,0.8,2,1.2
	c-0.1,0.4-0.2,0.8-0.3,1.2c-3.4,0.2-6.8,0.4-10.1,0.6c-3.3,0.3-5.1,2.2-5,5.5c0.1,3.1,2.1,4.8,5.2,4.9
	C252.8,498.4,256,498.2,260,498.1 M304.4,870c-4,0-8.1,0-13,0c3.4-2.8,6-4.6,8.2-6.9c1.2-1.2,2.5-3.9,2-4.7c-1-1.4-3.7-2.9-5-2.5
	c-3.7,1.3-7.6,3-10.2,5.7c-1.4,1.5-0.2,5.4-0.2,8.6c-3.8-0.3-8.1-0.5-12.4-1c-0.9-0.1-2.2-0.9-2.4-1.6c-1.9-5.2,0.2-8.2,5.7-8.4
	c0.3,0,0.6,0,0.8,0c2.9-0.1,4.9-1.5,5-4.5c0.1-3.1-2-4.5-4.8-4.7c-2.2-0.2-4.4,0-6.6,0c0-2.3,0-3.9,0-6c2.9,0,5.5,0.1,8.1,0
	c3.1-0.1,5.2-1.6,5-4.9c-0.1-3-2.1-4.4-5-4.4c-10,0-20.1,0-30.1,0c-3.1,0-5.2,1.4-5.2,4.7c0,3.3,2.2,4.6,5.3,4.6
	c2.6,0,5.3-0.1,7.9,0.1c0.9,0.1,2.5,0.9,2.5,1.4c0.2,5.1,0.1,10.3,0.1,15.4c-0.5,0.1-1,0.1-1.6,0.2c-0.5-2.5-1.4-4.9-1.4-7.4
	c-0.1-3.5-0.9-6.3-4.8-6.5c-3.8-0.2-5.2,2.3-5.7,5.9c-0.8,5.5-2.1,10.9-2.8,16.4c-0.3,2.5,0,5.4,1.1,7.6c1.8,3.6,5.6,3.2,7.4-0.4
	c0.9-1.8,1.6-3.7,2.4-5.6c8.2,6.4,10.1,7.9,18.2,8.3c15.6,0.7,31.2,0.7,46.8,0.9c0.7,0,1.7,0,2-0.4c1.8-2.1,4-4.1,5-6.6
	c0.3-0.8-2.9-2.9-4-4c0.6-2.2,2.5-5.3,1.8-7.6c-0.9-2.7-3.9-4.8-6.2-7.2c3.6-1.1,5.9-3.2,5.9-7.1c0-9.1,0.1-18.1-0.1-27.2
	c-0.1-4.9-3-7.6-7.9-7.9c-1.9-0.1-3.7-0.2-5.6-0.3c-0.1-0.5-0.3-1-0.4-1.5c1.3-0.6,2.5-1.5,3.8-1.7c1.9-0.3,3.9-0.1,5.8-0.1
	c3.2,0,6.3-0.6,6.3-4.5c0-4.1-3.2-4.6-6.5-4.5c-9.5,0.1-19,0-28.5,0c-3.3,0-6.6,0.2-6.6,4.5c0,4.3,3.5,4.4,6.7,4.5
	c2.6,0.1,5.2,0,7.8,0c0.2,0.5,0.3,1.1,0.5,1.6c-1.3,0.7-2.6,1.8-3.9,1.9c-6.3,0.7-8.7,3.1-8.7,9.3c-0.1,7.8-0.1,15.6,0,23.4
	c0,6.6,2.8,9.3,9.5,9.3c5.5,0,11,0,17.1,0c-6.5,8.1,3.3,10.3,4.8,15.9C313.9,870,309.6,870,304.4,870 M305.2,743.8
	c2,0.1,4.1,0.2,6.4,0.3c0,10.8,0,21.1,0,31.4c0,3.5-2.8,2.8-4.9,3c-2.5,0.2-3.5-0.8-3.4-3.4c0.1-6,0.1-12,0-18
	c-0.1-4.6-2.7-7.7-7-7.8c-7.2-0.3-14.5-0.2-21.8,0c-3.5,0.1-6.2,2.2-6.4,5.5c-0.5,8-0.5,16.1,0,24.2c0.1,1.6,3.1,3.8,5.2,4.4
	c1.5,0.5,4.7-0.6,5.3-1.9c1.4-2.8,3.3-2.9,5.8-2.8c2.6,0.1,5.3,0.3,7.9,0c3.4-0.4,4.9,1,6.1,4.1c2.9,7.5,6.6,9.5,13.8,8.3
	c9.3-1.5,12.1-4.2,12.6-12.7c0.3-4.4,0.2-8.9,0.2-13.4c0-15.5,0-31,0-46.5c0-6.1-2.5-9.3-7.7-9.4c-7.2-0.2-14.5-0.2-21.8,0
	c-4.4,0.1-7.2,3.1-7.3,7.5c-0.2,6.6-0.2,13.1,0,19.7c0.1,4.4,3,7.2,7.4,7.4C298.5,743.9,301.4,743.8,305.2,743.8 M298.8,693.8
	c3.3,6.6,6.5,8,14.3,6.5c8.4-1.6,11.3-4.2,11.5-12.3c0.3-20.5,0.3-41,0.1-61.5c0-5.1-3.1-7.9-8.3-8c-6.8-0.1-13.7-0.2-20.5,0
	c-5.1,0.1-7.9,3-8,8.2c-0.1,5.7-0.1,11.4,0,17.2c0,6.7,2.6,9.3,9.4,9.4c4.6,0.1,9.1,0,14.1,0c0,11.1,0.1,21.5,0,31.9
	c0,3.5-3,2.6-5,2.8c-2.3,0.2-3.3-0.8-3.2-3.1c0.1-6,0.1-12,0-18c-0.1-4.9-2.6-7.9-7.2-8.1c-7.1-0.2-14.2-0.1-21.3,0
	c-3.5,0-6.4,2-6.6,5.3c-0.5,8.2-0.6,16.4-0.1,24.6c0.1,1.6,3.2,3.7,5.2,4.3c1.5,0.4,4.6-0.7,5.3-2c1.3-2.6,3.1-2.8,5.4-2.7
	c2.4,0.1,4.8,0.3,7.1,0C295.1,687.6,297.7,689,298.8,693.8 M257.7,789.8c0.7-2.3,2.1-4.6,2.1-6.9c0.2-11.6,0.2-23.2,0-34.7
	c-0.1-3.5,1.2-4.7,4.6-4.5c3.2,0.2,6.4,0.1,9.6,0c5.9-0.1,8.8-2.9,8.9-8.7c0.1-5.7,0.1-11.4,0-17.2c-0.1-5.9-2.9-8.8-8.7-8.9
	c-6.1-0.1-12.3-0.1-18.4,0c-5.9,0.1-8.8,2.9-8.8,8.8c-0.1,22,0.1,44.1-0.1,66.1C246.9,789.6,252.6,793.5,257.7,789.8 M247.1,694.9
	c0.5,3.2,2.2,5.9,5.5,5.8c2.2-0.1,4.6-1.5,6.2-3c1-1,1-3.4,1-5.1c0.1-11.7,0.1-23.4,0-35.2c0-3.1,0.9-4.3,4.1-4.1
	c3.5,0.2,7,0.1,10.5,0c5.6-0.1,8.5-2.9,8.6-8.6c0.2-5.9,0.2-11.7,0-17.6c-0.2-5.6-3-8.4-8.6-8.6c-5.9-0.1-11.7-0.1-17.6,0
	c-7.2,0.1-9.7,2.6-9.7,9.9C247,650.3,247,672.2,247.1,694.9 M279,801.6c-1.9-0.7-3.8-1.9-5.7-2c-5.7-0.3-11.4-0.2-17.2-0.1
	c-5.5,0.1-8.2,2.8-8.4,8.2c-0.1,4.7-0.1,9.5,0,14.2c0.1,5.1,2.5,7.9,7.6,8.2c6.3,0.3,12.6,0.3,18.8-0.1c4.8-0.3,7.2-3.1,7.3-8
	c0.1-4.7,0.2-9.5-0.1-14.2C281.3,805.9,280.2,804,279,801.6 M246.7,506.6c-0.6,1.4-1.1,2.9-1.8,4.2c-1.5,3-1.8,5.7,1.8,7.3
	c2.9,1.3,5.5-0.2,7-4c1-2.5,1.7-5.1,2.5-7.6c0.9,2,0.6,4.1,1.3,5.7c0.7,1.5,2.6,3.7,3.5,3.5c1.6-0.4,3.4-2.1,4.1-3.7
	c0.6-1.5-0.1-3.5-0.3-5.3c-0.8-6.6-2.5-7.6-8.6-4.9c-0.7,0.3-1.7,0.1-2.4,0.4C251.5,503.4,249.3,504.8,246.7,506.6 M307.5,532.6
	c-0.5,4.4,5.1,12.8,9.5,13.1c2,0.1,4.9-1,6-2.6c1.1-1.5,0.9-4.5,0.2-6.5c-0.7-1.9-2.8-3.4-4.4-4.9
	C314.9,528.2,311.9,528.4,307.5,532.6 M273,501.1c-1.8-0.2-3.9-1-5.2-0.3c-0.9,0.5-1.1,3.1-1,4.7c0.1,1.9,0.7,3.8,1.2,5.7
	c0.5,2.4,1.7,4.3,4.5,3.7c2.9-0.5,3.7-2.7,3.1-5.4C275,506.8,274.2,504.2,273,501.1z"/>
<path class="st12" d="M1162.3,826.6c5.4,5.8,5.4,13,5.9,19.9c2,23.3,0.4,46.5-2.9,69.6c-3.2,23.1-5.1,46.3-8,69.4
	c-2.3,18.2-5.4,36.4-8.1,54.6c-0.2,1.4-0.7,2.7-1.1,4c-3,11-9.8,17-21.5,18.5c-25.9,3.2-51.8,2.9-77.7,1.8c-28-1.2-56-2.6-84-4.5
	c-20.3-1.4-40.5-3.7-60.8-5.6c-1.9-0.2-3.8-0.8-5.7-1.3c-8.4-2.6-12.5-8.3-12.7-17.1c-0.4-18.2,2.7-36.1,5.3-54
	c4.7-31.9,13-63.1,19.3-94.7c3.8-19,7.1-38.1,13.6-56.5c0.6-1.6,0.9-3.2,1.5-4.8c2.2-5.8,4-7,10.3-7c14.4,0.1,28.8,1.2,43.1,0
	c30.4-2.6,60.8-2.1,91.2-2.5c26.6-0.4,53.3-0.5,79.5,5.2C1154,822.5,1158,824.8,1162.3,826.6 M1078.4,942.1
	c8.1-6.2,16.2-12.3,24.2-18.6c3-2.3,5.9-4.8,8.4-7.5c2.9-3.2,2.2-7.6-1.3-9.2c-1.5-0.7-3.5-0.8-5.3-0.7c-14.6,0.8-29.2,1.6-43.8,2.6
	c-3.4,0.2-4.9-0.9-4.6-4.4c0.8-9.8,1.7-19.7,2.2-29.6c0.4-8.2,0.4-16.5,0.1-24.7c-0.1-1.9-1.8-4.6-3.5-5.5c-2.6-1.4-5,0.2-6.7,2.7
	c-9.7,14-19.6,27.8-29.2,41.8c-3.9,5.7-7.1,11.8-10.9,18.2c-1.2-1.4-2-2.1-2.6-3c-7.6-10.5-15.2-21-22.9-31.4
	c-1.6-2.1-3.3-4.4-5.4-5.7c-1.7-1.1-4.6-1.9-6.3-1.2c-1.4,0.6-2.2,3.5-2.5,5.5c-0.3,1.8,0.6,3.8,0.6,5.8c0.2,17.8,4.2,35.1,7.6,52.4
	c0.7,3.7,0.3,5.6-3.3,7.1c-8.9,3.9-17.7,8.2-26.5,12.4c-3,1.4-5.9,3.2-5.2,7.2c0.6,3.6,3.6,4.7,6.8,5.1c3.3,0.4,6.6,0.7,9.9,1.2
	c11.3,1.7,22.5,3.8,33.8,5.2c3.7,0.5,4.6,1.6,4.6,5.1c-0.1,14.8,0,29.6,0.1,44.4c0,2.2,0.2,4.5,0.7,6.6c1.1,4.2,5.4,5.8,8.8,3.2
	c1.5-1.1,2.8-2.7,3.8-4.4c7.9-13.2,15.7-26.4,23.5-39.6c2.9-4.9,2.9-4.9,7.4-1.5c6.4,4.7,12.5,10,19.2,14.2
	c6.7,4.2,13.8,7.8,21.1,10.8c4.9,2,8.8-1.8,8.4-7.1c-0.2-1.8-0.6-3.6-1.1-5.3c-4.2-14.9-8.3-29.8-12.8-44.6
	C1074.6,946.2,1075.1,944.2,1078.4,942.1z"/>
<path class="st13" d="M732.7,834c17,1.4,33.7,2.7,50.3,4.3c4.3,0.4,8.5,1.5,12.6,2.9c6.7,2.4,10.1,8,10.7,14.7
	c1.1,10.9,2.1,22-0.7,32.8c-1.9,7.5-9.2,16.1-19.2,15.7c-11.6-0.5-23.2,0.1-34.7-0.2c-19.1-0.4-38.1-1-57.2-1.7
	c-19.7-0.7-39.5-1.6-59.2-2.5c-4.9-0.2-9.7-0.7-14.5-1.6c-9.5-1.6-13.1-5.2-13.3-14.7c-0.3-13.5,0.7-27.1,6-39.8
	c2.7-6.5,8.8-8.4,15-9c8.8-1,17.8-1.5,26.6-1.7c14.6-0.5,29.3-0.9,43.9-0.8C710,832.5,721.1,833.5,732.7,834 M693.4,889.9
	c5.3-15.1,10.6-30.2,16-45.5c-0.9-0.3-1.6-0.7-2.2-0.7c-7.8-0.2-15.6-0.5-23.4-0.4c-0.9,0-2.3,1.4-2.7,2.4
	c-4.2,13.3-8.2,26.7-12.2,40c-0.4,1.4-0.6,2.9-0.9,4.8C676.7,890.5,684.8,890.5,693.4,889.9 M716.5,853.2
	c-3.8,12.5-7.6,25-11.6,38.2c7.4,0.3,14.3,0.6,21.2,1c2.7,0.2,3.9-0.8,4.8-3.4c4.3-13.1,8.8-26.2,13.2-39.2c0.3-0.9,0.4-1.8,0.6-3.2
	c-6.1-0.4-11.9-0.8-17.7-1.3C718.7,844.7,718.7,844.6,716.5,853.2 M668.5,852.2c1-2.8,2.1-5.6,3.3-8.9c-6.7,0-12.6-0.1-18.6,0.1
	c-1,0-2.6,1.5-2.9,2.6c-3.1,9.4-6,18.9-9,28.3c-1.6,5-3.1,10-4.7,15.2c6,0,11.6-0.1,17.1,0c2.4,0.1,3.3-1.1,3.9-3.3
	C661,875.1,664.7,863.9,668.5,852.2 M757.6,847.7c-2.5-0.5-3.4,0.9-4,3.1c-2.1,7.8-4.3,15.5-6.6,23.3c-1.8,6.1-3.8,12.1-5.8,18.8
	c4.4,0,8.1,0,11.9,0c9.2-0.1,9.2-0.1,11.6-8.7c0.2-0.5,0.3-1.1,0.5-1.6c3.1-10.9,6.2-21.9,9.4-33.2
	C769,848.8,763.6,848.3,757.6,847.7 M788.6,850.7c-3.7-1.4-5.3-0.3-6.2,3.7c-2.6,11.7-5.7,23.3-8.5,34.9c-0.2,0.9-0.2,1.8-0.4,3
	c2.4,0,4.5,0,6.6,0c2.1,0,4.2,0.1,6.3,0.2c5.7,0.2,7.8-0.9,8.5-6.6c1.1-8.7,1.8-17.5,2.1-26.2C797.2,853.7,795.4,852.1,788.6,850.7
	 M636,843.3c-4,0.4-8.1,0.3-12,1.2c-1.9,0.5-4.6,2.7-4.7,4.3c-1,11.8-1.5,23.6-2.1,35.4c-0.2,3.9,2.7,4.3,5.5,5
	c3.2,0.8,3.7-1.7,4.4-3.7c4.6-13.3,9.3-26.6,13.9-39.8c0.2-0.6,0.2-1.3,0.3-2.2C639.5,843.3,638.1,843.3,636,843.3z"/>
<path class="st14" d="M904.4,401.8c16.7-0.8,32.9-1.8,49.2-2.5c21.4-0.9,42.9-2.1,64.3-2.4c43.5-0.6,87.1-1.1,130.6-0.6
	c16.6,0.2,33.3,3,49.8,5.3c9.6,1.3,19.1,3.7,28.5,6.3c16.1,4.5,25.6,16,30.1,31.5c2.2,7.5,3,15.6,3.5,23.4
	c0.7,13.1,1.1,26.2,0.8,39.3c-0.5,20.6-1.5,41.2-2.5,61.8c-0.6,12.8-1.4,25.6-2.4,38.3c-1.3,17.3-6.7,32.8-20.6,44.2
	c-7.8,6.4-17.2,9-26.9,10.8c-14.9,2.7-30,2-45,1c-12.6-0.8-25.3-1.4-38-1.8c-16.9-0.5-33.7-0.6-50.6-0.9c-12.7-0.2-25.4-0.5-38-0.8
	c-18.2-0.5-36.5-1.1-54.7-1.7c-15.9-0.5-31.7-1.3-47.6-1.6c-22.4-0.5-44.9-0.8-67.4-0.8c-14.6,0-29.3,0.9-43.9,0.7
	c-25.5-0.3-51-0.3-76.5-1.9c-23.7-1.4-47.6-2.4-70.9-8.1c-12-3-23.4-7.6-33.8-14.3c-11.4-7.3-16.3-19-19-31.4
	c-1.9-8.8-2.6-17.9-2.7-26.9c-0.2-16.4,0.2-32.9,0.8-49.3c1-30.3,4.8-60.3,14.2-89.3c2.8-8.6,8-15.1,17-16.9
	c12.3-2.4,24.7-4.7,37.1-5.3c19.1-0.9,38.2-0.3,57.4-0.2c12.8,0.1,25.7,1.1,38.5,0.7c19.9-0.6,39.8-2,59.6-3.1
	c14.5-0.8,28.9-1.7,43.4-2.6C893.7,402.4,898.8,402.1,904.4,401.8 M910.2,637.9c3.9,0.1,7.8,0.2,11.7,0.3
	c22.7,0.4,45.5,0.5,68.2,1.1c37.1,1.1,74.2,2.5,111.2,3.8c19.9,0.7,39.9,1.8,59.8,2.3c13.5,0.4,27.1,0.9,40.5,0.1
	c25.5-1.6,38.1-13.5,41.3-38.8c1.6-12.7,1.9-25.6,2.3-38.4c1-31.1,2.2-62.2,2.4-93.3c0.1-11-2.2-22.2-4.3-33.1
	c-2.2-11.5-9.1-19.2-20.7-22.3c-4-1.1-8-2.8-12.1-3.3c-22.6-2.7-45.1-6.6-67.7-7.4c-35.1-1.1-70.3-0.9-105.5,0.3
	c-56.3,1.9-112.6,5-168.9,7.7c-29.7,1.4-59.3,3.8-89,4.5c-29.6,0.7-59.2-0.4-88.7-0.3c-9.2,0-18.3,1.6-27.5,2.3
	c-10.1,0.8-15.8,6.6-18.8,15.8c-0.3,0.9-0.7,1.8-1,2.8c-2.4,10.9-6.1,21.7-6.8,32.7c-2.1,32.1-3.3,64.3-4.1,96.5
	c-0.3,12.4,1.4,25,8.3,35.8c2.5,4,6.1,7.7,10,10.3c10,6.6,21.2,11.3,33,12.8c23.5,3,47.1,5.1,70.7,6.8c12.2,0.9,24.5,0.3,36.8,0.6
	c16.5,0.3,32.9,1.1,49.4,1.1C863.7,638.7,886.5,638.2,910.2,637.9z"/>
<path class="st15" d="M968.1,250.9c-0.1,4.7,0.4,9.2,0.2,13.6c-0.6,9.7-8.7,14.8-17.8,11.6c-5.8-2-8.4-7.1-6.9-14.3
	c0.5-2.4,1.6-4.8,2.7-7c1.1-2.2,2.7-4.1,4.1-6.2c-4-2.8-14.1-1.6-18.5,2.1c-5.3,4.6-8.1,10.6-9.2,17.4c-0.7,4.4,0.5,8.1,3.8,11.4
	c1.1,1.1,1.1,3.3,1.6,5c-1.8,0.1-3.8,0.8-5.4,0.2c-6.9-2.5-10.8-10.8-8.6-19.7c5.1-20.5,14.7-27.9,34.9-27.5c1.4,0,3,0.1,4.1,0.7
	c5.7,3.4,11.4,2.6,17.6,1.2c7.3-1.6,14.5-0.8,20.7,4.1c6.4,5.1,7.9,12.4,7.4,20c-0.5,7.8-4.2,14.4-9.9,19.8c-3.3,3.1-7,3.3-9.3,0.8
	c-2.2-2.4-1.7-5.7,1.4-8.8c4.8-4.9,8.2-10.2,6.6-17.5c-1.1-5-3.5-7.9-8.6-8.2C975.5,249.4,971.9,250.2,968.1,250.9 M958.7,258.8
	c-0.3-1.8-1-3.4-2.7-1.3c-1.5,1.9-2.6,4.3-3.3,6.6c-0.3,1,1.1,2.4,1.7,3.6c1.2-0.7,3.1-1.1,3.5-2.2
	C958.7,263.7,958.5,261.5,958.7,258.8z"/>
<path class="st1" d="M281.4,549.9c8,0,8,0,7.7-7.4c-0.1-3.3-0.3-6.7-0.2-10c0.1-4.1,2.6-6.8,6.3-6.9c3.9-0.2,6.8,2.4,7.1,6.7
	c0.3,4.7,0.5,9.5,0.5,14.2c0,2.8,1.3,3.6,3.9,3.5c4.5-0.2,8.9-0.1,13.4,0c4.1,0.1,6.6,2.5,6.6,6c0,3.6-2.4,5.9-6.6,6
	c-5,0.1-10,0-15.7,0c0.6,4.1,1.1,7.6,1.7,12.2c2-2.3,3.3-3.8,4.6-5.3c2.8-2.9,7.2-3.3,9.7-0.7c2.2,2.2,2.3,4.7,0.4,7.2
	c-2.9,3.7-5.9,7.5-8.8,11.1c-2.1,2.6-0.5,9.2,2.7,10.2c0.7,0.2,2.3-0.8,2.6-1.6c0.7-1.6,0.7-3.5,1.1-5.3c0.8-3,3.2-3.9,5.7-2.1
	c3,2.2,4.7,5.1,4.3,9c-0.7,6.8-4,12-9,13.4c-6.7,1.9-12.1-0.1-16.6-6.5c-1.2-1.7-2.3-3.4-3.5-5.3c-3,2-5.6,4.2-8.7,5.4
	c-2.3,0.9-5.6,1.3-7.8,0.3c-5.2-2.1-5.3-7.3-0.6-10.4c3.2-2.2,6.5-4.3,9.9-6.2c2.3-1.3,2.9-2.9,2.3-5.5c-1.2-5.4-2.2-10.9-3-16.4
	c-0.4-2.5-1.4-3.7-4-3.6c-4.4,0.1-8.8,0-13.3,0c0,3,0,5.3,0,7.9c2.4-0.3,4.4-0.5,6.4-0.7c3.2-0.4,5.5,0.8,6.4,4
	c0.9,3.3-0.6,5.8-3.6,7.2c-2,0.9-4.3,1.3-6.4,1.6c-2.3,0.4-3.3,1.5-3.2,3.9c0.2,3.9,0.2,7.8,0,11.7c-0.5,8.8-9.6,15.2-17.9,12
	c-2.5-1-4.8-3.8-6-6.3c-1.3-2.7,0.1-5.2,3.5-5.8c2.3-0.4,5.7-0.1,6.5-1.4c1.2-2,0.6-5.1,0.7-7.7c0-0.8-0.1-1.6-0.2-3
	c-2.5,0.4-4.8,0.7-7,1.1c-4.6,0.8-8.4-1.7-9-5.9c-0.5-3.6,2.1-6.3,6.6-7.1c0.5-0.1,1.1-0.1,1.7-0.2c8.7-1,9.2-1.7,7.5-11.4
	c-2.8,0-5.6,0.1-8.5,0c-4.1-0.2-6.6-2.5-6.7-6c-0.1-3.5,2.7-6,6.9-6.2c0.8,0,1.7,0,2.5,0c7.1,0,7.1,0,5.9-7.9
	c-2.1,0.2-4.2,0.4-6.4,0.6c-3.3,0.3-5.7-1-7.3-3.8c-1.8-3.3-0.7-6.3,3-7.1c8.3-1.8,16.6-3.6,25-4.8c2.5-0.4,5.5,0.8,7.8,2.1
	c1.4,0.9,2.8,3.5,2.5,5.1c-0.3,1.6-2.5,2.9-4.1,4c-1,0.7-2.4,0.8-3.6,0.9c-2.5,0.2-3.2,1.5-3.2,3.9
	C273.9,551.2,273.1,549.8,281.4,549.9z"/>
<path class="st16" d="M259.6,498.1c-3.6,0.1-6.8,0.2-10,0.2c-3.1,0-5.1-1.7-5.2-4.9c-0.2-3.3,1.7-5.2,5-5.5
	c3.4-0.3,6.8-0.4,10.1-0.6c0.1-0.4,0.2-0.8,0.3-1.2c-0.7-0.4-1.3-1.2-2-1.2c-1.8-0.2-3.6-0.1-5.4-0.1c-3.2,0-5.7-1.3-5.8-4.6
	c-0.1-3.6,2.5-5,5.8-5.2c2.4-0.1,4.8,0,7.2,0c0.1-0.6,0.1-1.2,0.2-1.9c-1.4-0.3-2.8-0.7-4.2-0.8c-6.9-0.2-9.5-2.5-9.6-9.2
	c-0.2-5.7-0.2-11.4,0-17.2c0.2-6.6,2.7-9.1,9.2-9.2c7.3-0.1,14.5-0.1,21.8,0c6.2,0.1,8.8,2.8,8.9,9c0.1,5.7,0.1,11.4,0,17.2
	c-0.1,6.6-2.7,9.2-9.5,9.3c-1.6,0-3.2,0.4-4.8,0.6c0,0.5,0,1.1,0,1.6c2,0.1,4.1,0.1,6.1,0.4c1.9,0.3,4.2,0.3,5.5,1.4
	c1.2,1,2,3.8,1.4,5c-0.7,1.5-3,2.8-4.7,3.2c-2.6,0.5-5.5,0.1-8.2,0.1c0,0.8,0,1.6,0,2.3c3.2,0,6.3-0.1,9.5,0c4.1,0.1,6.5,3,5.3,6.5
	c-0.5,1.6-2.1,2.8-3.5,4.5c1.3,2.6,2.9,5.7,4.4,8.9c0.2-0.1,0.5-0.1,0.7-0.2c0-6.8,0-13.5,0-20.3c0-6.6,1.8-8.8,8.4-9.5
	c2.9-0.3,2.9-1.9,2.9-4c0-9.8,0-19.5,0-29.3c0-1.7,0.1-3.4,0.6-4.9c0.9-3,3.2-4.5,6.4-4.3c3.2,0.3,5.2,2.1,5.5,5.3
	c0.3,2.5,0.4,5,0.2,7.5c-0.5,4.2,1.3,5.5,5.2,5c1.8-0.2,3.6-0.1,5.4,0.1c3.5,0.4,5.7,2.2,5.9,5.9c0.1,3.3-2.3,5.8-6.1,6.1
	c-2.5,0.2-5.1-0.2-7.5,0.2c-1.1,0.2-2.2,1.5-2.8,2.6c-0.5,0.9-0.1,2.2-0.1,3.3c0,5.9,0,5.9,5.9,6.4c4.7,0.4,7.6,2.9,7.8,7.7
	c0.3,9.5,0.3,19-0.1,28.4c-0.1,2-2,4.8-3.8,5.8c-2.5,1.4-5.3,0.8-8.5-0.5c-3.8-1.6-9.5-2.2-13-0.5c-7,3.4-10.8,2.7-12.6-4.8
	c-10.3-2.3-13.1-7.6-7.7-15.7C273,497.6,266.5,497.9,259.6,498.1 M299.8,490.4c0,3.9,0,7.8-0.1,11.6c-0.1,2.1,0.7,2.9,2.9,3
	c10.6,0.8,10.6,0.9,10.6-9.8c0-1.4,0.1-2.8-0.1-4.1c-0.1-0.8-0.9-2.1-1.3-2.1C307.8,489.1,303.9,489.4,299.8,490.4 M275.6,447.2
	c-0.4-3.2-2.9-1.9-4.5-1.8c-0.7,0.1-1.8,1.8-1.9,2.8c-0.3,1.9-0.1,4-0.1,5.3C271.2,451.7,273.3,449.8,275.6,447.2 M261.2,452.4
	c0.2-2.2,0.3-4.5,0.5-6.8c-1.5-0.1-2.2-0.3-2.8-0.2c-1.1,0.2-2.2,0.6-3.3,1c0.9,0.8,1.8,1.5,2.5,2.4
	C259.1,449.8,259.9,450.9,261.2,452.4 M258.4,459.8c-0.9-1.3-1.9-2.5-2.7-3.6c0,2.3,0,4.8,0,8.1c2.2-0.7,3.9-1.2,5.6-1.7
	C260.6,461.8,259.8,461,258.4,459.8 M274.5,457.7c-1,0.9-2,1.8-3,2.7c-0.7,0.6-1.3,1.3-2,1.9c0.8,0.5,1.6,1.2,2.5,1.4
	c1,0.2,2.1-0.1,3.9-0.3C275.6,461.2,275.2,459.2,274.5,457.7z"/>
<path class="st17" d="M297.2,392.7c6.2,5.1,12.3,10.3,18.5,15.4c1.2,1,2.7,1.5,4,2.2c5,2.8,6.3,5.4,4.6,8.7c-2.3,4.4-8,6.3-12.2,3.5
	c-5.5-3.8-10.6-8.1-15.8-12.4c-1.1-0.9-1.8-2.4-2.7-3.6c-0.5,0.3-0.9,0.5-1.4,0.8c0,4.8,0.1,9.6,0,14.4c-0.1,4.5-2.5,7.3-6.2,7.7
	c-4.4,0.5-7.6-2.6-7.8-7.8c-0.2-4.4,0-8.9,0-14.3c-3.2,2.9-5.6,5.3-8.3,7.3c-3.9,3-7.9,5.7-11.9,8.5c-2.9,1.9-5.9,1.4-8.6-0.4
	c-4.6-3-4.4-7.8,0.1-10.8c6-4,12.2-7.8,17.9-12.3c3.6-2.9,6.5-6.9,9.5-10.5c0.8-1,1.3-2.5,1.3-3.8c0.2-5,0-10,0.1-15.1
	c0-2-0.6-3.2-2.8-3.1c-2.9,0.1-5.8,0-9.8,0c4.5,2.8,6.6,5.8,5.1,10.4c-0.2,0.6,0.9,1.9,1.6,2.7c2.7,2.6,4.1,5.5,1.8,8.9
	c-2.4,3.4-5.5,3.3-8.8,1.3c-0.2-0.1-0.5-0.1-1-0.1c-1.3,1.6-2.6,3.5-4,5.1c-3,3.4-6.7,3.9-10,1.3c-2.9-2.3-2.9-5.5-0.1-9.2
	c6.4-8.4,9-13.9,9.4-20.3c-1.9,0-3.8,0.1-5.7,0c-4.5-0.3-7.4-2.9-7.3-6.5c0-3.6,2.9-6.3,7.4-6.4c6.4-0.2,12.8-0.1,19.2-0.1
	c1.5,0,3,0,4.7,0c0.8-5,1-10.3,7.6-10.3c4.3,0,5.8,2.1,7.5,10.3c7,0,14,0,21.1,0c1.8,0,3.6-0.1,5.4,0.2c3.6,0.6,5.9,2.6,5.8,6.5
	c-0.1,3.6-2.3,5.7-5.7,6c-3.3,0.3-6.7,0.1-11.3,0.1c4.4,3,6.6,5.8,5.2,10.2c-0.2,0.7,1,2.1,1.8,2.9c1.9,1.7,4,3,5.9,4.6
	c2.7,2.3,3.4,5.1,1.4,8.1c-1.7,2.6-5.7,3.3-8.6,1.5c-2.2-1.4-4.2-3.2-5.3-4.1c-4,0.8-7.1,1.4-10.7,1.8c-0.7-0.1-1,0-1.2,0
	C296.9,392.4,297,392.6,297.2,392.7 M300,375.5c0.8-2.5,1.7-5.1,2.7-8.2c-3.2,0-5.6-0.1-7.9,0.1c-0.9,0.1-2.3,1-2.4,1.6
	c-0.2,5.7-0.1,11.4-0.1,17.1c0.4,0.1,0.9,0.2,1.3,0.3C295.7,383,297.7,379.5,300,375.5z"/>
<path class="st1" d="M304.9,870c4.7,0,9,0,13.7,0c-1.5-5.5-11.3-7.8-4.8-15.9c-6.1,0-11.6,0-17.1,0c-6.7-0.1-9.4-2.7-9.5-9.3
	c-0.1-7.8-0.1-15.6,0-23.4c0-6.3,2.5-8.6,8.7-9.3c1.4-0.1,2.6-1.2,3.9-1.9c-0.2-0.5-0.3-1.1-0.5-1.6c-2.6,0-5.2,0-7.8,0
	c-3.2-0.1-6.6-0.2-6.7-4.5c0-4.3,3.3-4.5,6.6-4.5c9.5,0,19,0.1,28.5,0c3.3,0,6.6,0.4,6.5,4.5c0,3.8-3.2,4.4-6.3,4.5
	c-2,0-3.9-0.2-5.8,0.1c-1.3,0.2-2.5,1.1-3.8,1.7c0.1,0.5,0.3,1,0.4,1.5c1.9,0.1,3.7,0.2,5.6,0.3c4.9,0.3,7.8,3,7.9,7.9
	c0.1,9.1,0,18.1,0.1,27.2c0,3.9-2.3,6-5.9,7.1c2.3,2.5,5.4,4.5,6.2,7.2c0.7,2.3-1.2,5.4-1.8,7.6c1.2,1.1,4.3,3.2,4,4
	c-0.9,2.5-3.1,4.5-5,6.6c-0.4,0.4-1.3,0.4-2,0.4c-15.6-0.2-31.2-0.2-46.8-0.9c-8.1-0.4-10-1.9-18.2-8.3c-0.8,1.9-1.5,3.8-2.4,5.6
	c-1.8,3.6-5.6,3.9-7.4,0.4c-1.1-2.2-1.4-5.1-1.1-7.6c0.6-5.5,2-10.9,2.8-16.4c0.5-3.5,1.9-6.1,5.7-5.9c3.9,0.2,4.7,3,4.8,6.5
	c0,2.5,0.9,4.9,1.4,7.4c0.5-0.1,1-0.1,1.6-0.2c0-5.1,0.1-10.3-0.1-15.4c0-0.5-1.6-1.3-2.5-1.4c-2.6-0.2-5.3,0-7.9-0.1
	c-3-0.1-5.2-1.3-5.3-4.6c0-3.3,2-4.7,5.2-4.7c10,0,20.1,0,30.1,0c2.9,0,4.9,1.3,5,4.4c0.1,3.3-2,4.7-5,4.9c-2.6,0.1-5.2,0-8.1,0
	c0,2.1,0,3.7,0,6c2.3,0,4.5-0.1,6.6,0c2.8,0.2,4.9,1.6,4.8,4.7c-0.1,3-2.1,4.4-5,4.5c-0.3,0-0.6,0-0.8,0c-5.5,0.2-7.6,3.2-5.7,8.4
	c0.3,0.8,1.6,1.5,2.4,1.6c4.3,0.5,8.6,0.7,12.4,1c0-3.2-1.1-7.1,0.2-8.6c2.6-2.7,6.5-4.4,10.2-5.7c1.3-0.5,4,1.1,5,2.5
	c0.5,0.8-0.8,3.5-2,4.7c-2.2,2.3-4.9,4.1-8.2,6.9C296.4,870,300.4,870,304.9,870 M308.4,842.4c-2.6,0-5.2-0.1-7.8,0.1
	c-0.6,0.1-1.2,1.1-1.8,1.7c0.6,0.5,1.2,1.3,1.8,1.3c2.9,0.2,5.8,0.2,8.7,0c1-0.1,2-0.9,3-1.3C311.2,843.6,310.2,843,308.4,842.4
	 M308.4,831.5c-2.4,0-4.7-0.1-7.1,0.1c-0.9,0.1-1.7,0.9-2.5,1.4c0.8,0.6,1.6,1.5,2.4,1.6c2.6,0.2,5.3,0.2,7.9,0
	c1.1-0.1,2.1-0.9,3.2-1.3C311.2,832.7,310.1,832.1,308.4,831.5 M310.6,820.6c-3.2,0-6.4-0.1-9.6,0c-0.8,0-1.5,0.8-2.3,1.2
	c0.8,0.6,1.5,1.7,2.3,1.7c3,0.2,6.1,0.2,9.2,0C312.1,823.5,313.1,822.6,310.6,820.6z"/>
<path class="st1" d="M304.7,743.8c-3.3,0-6.3,0.1-9.2-0.1c-4.5-0.3-7.3-3-7.4-7.4c-0.2-6.6-0.2-13.1,0-19.7c0.1-4.5,2.9-7.4,7.3-7.5
	c7.2-0.2,14.5-0.2,21.8,0c5.2,0.2,7.7,3.4,7.7,9.4c0.1,15.5,0,31,0,46.5c0,4.5,0.1,8.9-0.2,13.4c-0.6,8.5-3.3,11.1-12.6,12.7
	c-7.2,1.2-10.9-0.8-13.8-8.3c-1.2-3.1-2.7-4.5-6.1-4.1c-2.6,0.3-5.3,0.1-7.9,0c-2.4-0.1-4.4,0-5.8,2.8c-0.6,1.3-3.8,2.4-5.3,1.9
	c-2.1-0.6-5.1-2.8-5.2-4.4c-0.5-8-0.4-16.1,0-24.2c0.2-3.3,2.9-5.4,6.4-5.5c7.3-0.1,14.5-0.2,21.8,0c4.3,0.2,6.9,3.2,7,7.8
	c0.1,6,0.1,12,0,18c-0.1,2.6,0.9,3.6,3.4,3.4c2.1-0.2,4.9,0.5,4.9-3c0-10.3,0-20.6,0-31.4C309.2,744,307.2,743.9,304.7,743.8
	 M291.1,765.5c-0.4-1.9-0.6-5.4-1.3-5.5c-3.2-0.5-6.7-0.6-9.6,0.5c-1,0.3-0.5,4.6-0.7,7.4c2.9,0,5,0.2,7-0.1
	C288.1,767.6,289.6,766.8,291.1,765.5 M307.6,734.2c1.3-0.6,2.6-1.2,3.9-1.8c-1.3-0.6-2.6-1.3-3.9-1.9c-0.2-0.1-0.6-0.1-0.8,0
	c-2.1,0.6-4.1,1.1-6.1,1.7C301.7,736,304.8,733.4,307.6,734.2 M301.5,721.7c2.6,0.1,5.2,0.2,7.9,0.1c0.7,0,1.4-0.9,2.1-1.4
	c-0.7-0.6-1.4-1.7-2.1-1.8c-2.2-0.2-4.5-0.3-6.6,0C302,718.8,301.5,720.4,301.5,721.7z"/>
<path class="st1" d="M298.7,693.5c-1-4.5-3.6-5.9-7.7-5.3c-2.3,0.3-4.7,0.1-7.1,0c-2.3-0.1-4.1,0-5.4,2.7c-0.6,1.3-3.8,2.4-5.3,2
	c-2.1-0.6-5.1-2.7-5.2-4.3c-0.5-8.2-0.4-16.4,0.1-24.6c0.2-3.3,3.2-5.2,6.6-5.3c7.1-0.1,14.2-0.2,21.3,0c4.5,0.2,7.1,3.2,7.2,8.1
	c0.1,6,0.1,12,0,18c0,2.4,1,3.3,3.2,3.1c2.1-0.2,5,0.7,5-2.8c0.1-10.4,0-20.8,0-31.9c-5,0-9.6,0.1-14.1,0c-6.7-0.1-9.3-2.7-9.4-9.4
	c0-5.7-0.1-11.4,0-17.2c0.1-5.2,2.8-8.1,8-8.2c6.8-0.2,13.7-0.2,20.5,0c5.2,0.1,8.2,2.9,8.3,8c0.1,20.5,0.2,41-0.1,61.5
	c-0.1,8.1-3.1,10.7-11.5,12.3C305.3,701.8,302.2,700.4,298.7,693.5 M283.6,677.5c1.7,0,3.4,0.1,5-0.1c0.8-0.1,1.9-0.6,2.3-1.3
	c1.9-3.8-0.1-7-4.4-7c-1.1,0-2.2,0.1-3.3,0c-2.4-0.2-3.8,0.6-3.5,3.2C279.9,674.5,278.4,677.8,283.6,677.5 M309.8,640.1
	c-2.3,0-4.7-0.2-7,0c-0.8,0.1-1.5,1.4-2.3,2.1c2.9,0.5,5.7,1.3,8.6,1.5c0.7,0,1.5-1.7,2.2-2.7C311.3,640.9,310.8,640.5,309.8,640.1
	 M303.8,631.4c1.9,0,3.9,0.1,5.8-0.1c0.7-0.1,1.3-1,1.9-1.6c-0.6-0.6-1.2-1.5-1.9-1.6c-2.2-0.2-4.4-0.2-6.6,0
	c-0.8,0.1-1.5,1.1-2.3,1.7C301.4,630.4,302.2,630.9,303.8,631.4z"/>
<path class="st0" d="M257.4,790c-4.8,3.5-10.5-0.3-10.5-6.1c0.2-22,0-44.1,0.1-66.1c0-5.9,2.8-8.7,8.8-8.8c6.1-0.1,12.3-0.1,18.4,0
	c5.8,0.1,8.6,2.9,8.7,8.9c0.1,5.7,0.1,11.4,0,17.2c-0.1,5.8-3.1,8.6-8.9,8.7c-3.2,0.1-6.4,0.2-9.6,0c-3.4-0.3-4.6,0.9-4.6,4.5
	c0.2,11.6,0.2,23.2,0,34.7C259.7,785.2,258.4,787.5,257.4,790 M270.6,732.3c-1.5-1.7-8.7-2.8-9.9-1.3c-0.4,0.5,0.3,2.8,0.4,2.8
	C264.2,733.7,267.4,733.3,270.6,732.3 M262.9,721.9c1.9,0,3.9,0.1,5.8-0.1c0.6-0.1,1.2-0.8,1.8-1.2c-0.5-0.6-1-1.8-1.7-1.8
	c-2.3-0.2-4.7-0.2-7,0c-0.6,0-1.2,0.9-1.7,1.4C260.8,720.7,261.5,721.3,262.9,721.9z"/>
<path class="st0" d="M247.1,694.5c0-22.3,0-44.2,0-66.1c0-7.3,2.5-9.9,9.7-9.9c5.9,0,11.7-0.1,17.6,0c5.6,0.1,8.5,2.9,8.6,8.6
	c0.2,5.9,0.2,11.7,0,17.6c-0.1,5.6-3,8.4-8.6,8.6c-3.5,0.1-7,0.2-10.5,0c-3.2-0.2-4.1,1.1-4.1,4.1c0.1,11.7,0.1,23.4,0,35.2
	c0,1.8,0,4.1-1,5.1c-1.6,1.6-4.1,3-6.2,3C249.3,700.7,247.5,698.1,247.1,694.5 M269.5,640.2c-2.5-0.1-5-0.3-7.4-0.1
	c-0.8,0.1-1.4,1.2-2.1,1.9c0.7,0.6,1.3,1.6,2,1.6c2.2,0.2,4.5,0.3,6.6-0.1C269.2,643.4,269.6,641.6,269.5,640.2 M263.7,628.1
	c-1.2,0.6-2.4,1.1-3.6,1.7c1.2,0.5,2.4,1.1,3.6,1.6c0.2,0.1,0.6,0.1,0.8,0c2-0.5,4-1.1,6-1.6C268.5,629.2,266.4,628.7,263.7,628.1z"
	/>
<path class="st17" d="M279.3,801.8c0.9,2.2,2,4.1,2.1,6c0.3,4.7,0.2,9.5,0.1,14.2c-0.1,4.9-2.5,7.7-7.3,8
	c-6.3,0.4-12.6,0.4-18.8,0.1c-5.1-0.3-7.5-3.1-7.6-8.2c-0.1-4.7-0.1-9.5,0-14.2c0.1-5.4,2.9-8.1,8.4-8.2c5.7-0.1,11.5-0.2,17.2,0.1
	C275.2,799.7,277.1,800.9,279.3,801.8 M267.9,818.9c-2.4,0-4.7-0.1-7.1,0.1c-0.5,0-1,0.8-1.4,1.2c0.4,0.5,0.8,1.3,1.2,1.3
	c2.5,0.1,5,0.1,7.5-0.1C268.3,821.4,268.4,819.9,267.9,818.9 M263.5,808c-1.1,0.1-2.2,0-3.3,0.2c-0.4,0.1-0.8,0.8-0.8,1.2
	c0,0.4,0.6,1.1,0.9,1.1c3,0.1,6,0.1,9,0.1c0-0.7,0-1.4,0.1-2C267.7,808.3,266,808.2,263.5,808z"/>
<path class="st13" d="M246.8,506.3c2.4-1.6,4.7-2.9,7.1-4.1c0.7-0.4,1.7-0.1,2.4-0.4c6.1-2.6,7.8-1.7,8.6,4.9
	c0.2,1.8,0.9,3.8,0.3,5.3c-0.7,1.6-2.5,3.3-4.1,3.7c-0.9,0.2-2.9-2-3.5-3.5c-0.7-1.6-0.5-3.7-1.3-5.7c-0.8,2.5-1.5,5.1-2.5,7.6
	c-1.5,3.8-4.1,5.3-7,4c-3.6-1.6-3.3-4.3-1.8-7.3C245.6,509.5,246.1,508,246.8,506.3z"/>
<path class="st17" d="M307.7,532.3c4.2-4,7.3-4.1,11.1-0.6c1.6,1.5,3.7,3,4.4,4.9c0.7,1.9,0.8,4.9-0.2,6.5c-1.1,1.5-4,2.7-6,2.6
	C312.6,545.4,307,537.1,307.7,532.3z"/>
<path class="st13" d="M273.2,501.3c1,2.9,1.8,5.5,2.4,8.2c0.6,2.6-0.2,4.8-3.1,5.4c-2.8,0.5-4-1.3-4.5-3.7c-0.4-1.9-1.1-3.8-1.2-5.7
	c-0.1-1.6,0.1-4.2,1-4.7C269.1,500.1,271.2,500.9,273.2,501.3z"/>
<path class="st18" d="M1078.1,942.3c-3,1.9-3.5,3.9-2.5,7.2c4.5,14.8,8.6,29.7,12.8,44.6c0.5,1.7,1,3.5,1.1,5.3
	c0.5,5.3-3.5,9.1-8.4,7.1c-7.3-3-14.4-6.6-21.1-10.8c-6.7-4.2-12.8-9.4-19.2-14.2c-4.5-3.4-4.5-3.3-7.4,1.5
	c-7.8,13.2-15.6,26.4-23.5,39.6c-1,1.6-2.3,3.2-3.8,4.4c-3.5,2.6-7.8,1-8.8-3.2c-0.5-2.1-0.7-4.4-0.7-6.6
	c-0.1-14.8-0.2-29.6-0.1-44.4c0-3.5-0.9-4.6-4.6-5.1c-11.3-1.4-22.6-3.4-33.8-5.2c-3.3-0.5-6.6-0.8-9.9-1.2
	c-3.2-0.4-6.2-1.5-6.8-5.1c-0.7-3.9,2.2-5.8,5.2-7.2c8.8-4.2,17.6-8.4,26.5-12.4c3.5-1.6,4-3.5,3.3-7.1c-3.4-17.4-7.4-34.6-7.6-52.4
	c0-1.9-0.9-3.9-0.6-5.8c0.3-2,1.1-4.9,2.5-5.5c1.7-0.7,4.6,0.1,6.3,1.2c2.2,1.4,3.9,3.6,5.4,5.7c7.7,10.4,15.3,20.9,22.9,31.4
	c0.6,0.9,1.4,1.6,2.6,3c3.8-6.4,7-12.5,10.9-18.2c9.6-14,19.5-27.9,29.2-41.8c1.7-2.5,4.1-4.1,6.7-2.7c1.7,0.9,3.4,3.6,3.5,5.5
	c0.3,8.2,0.2,16.5-0.1,24.7c-0.5,9.9-1.3,19.7-2.2,29.6c-0.3,3.6,1.1,4.7,4.6,4.4c14.6-1,29.2-1.8,43.8-2.6c1.8-0.1,3.7,0,5.3,0.7
	c3.5,1.7,4.2,6.1,1.3,9.2c-2.5,2.8-5.4,5.2-8.4,7.5C1094.6,929.8,1086.4,935.9,1078.1,942.3 M1037.4,967c6.9,5,13.7,10,20.6,14.9
	c5.7,4.1,11.4,8.2,17,12.3c0.4-0.3,0.7-0.7,1.1-1c-0.3-1.3-0.6-2.6-1-3.8c-3.9-13.7-7.9-27.3-11.8-41c-1.3-4.6-0.7-8.4,3.5-11.5
	c6.9-5.2,13.7-10.6,20.5-15.9c0.9-0.7,2.1-1.2,3.1-1.8c-0.3-0.4-0.6-0.9-1-1.3c-1.2,0-2.4-0.1-3.6,0c-10.7,1-21.3,2-32,3.1
	c-6.2,0.6-10.4-2.5-10.1-8.2c0.5-9.2,1.4-18.3,2.1-27.5c0.5-6.2,0.9-12.3,1.4-18.5c-0.4-0.1-0.7-0.2-1.1-0.3c-0.7,0.8-1.5,1.5-2,2.4
	c-10.5,15.8-21.1,31.5-31.5,47.3c-3.9,5.9-7.2,6.2-11.3,0.3c-3-4.3-5.6-9-8.6-13.4c-4.4-6.4-9-12.7-13.5-19.1
	c-0.5,3.5-0.2,6.5,0.4,9.5c2.7,13.4,5.5,26.7,8.3,40.1c0.7,3.3,0.4,6.2-2.9,7.8c-5,2.5-10,4.9-15,7.3c-2,1-4,2.1-6.8,3.5
	c1.6,0.4,2.1,0.6,2.7,0.6c10.9,1.6,21.8,3.1,32.6,4.8c6.2,1,7.4,2.7,7.6,8.9c0.2,12.1,0.6,24.2,0.9,36.4c0,1,0.3,2,0.7,4
	c1.3-1.9,2-2.8,2.6-3.8c6.3-10.7,12.5-21.4,18.8-32.1C1030.7,968.2,1033,966.1,1037.4,967z"/>
<path class="st19" d="M693.2,890.2c-8.3,0.3-16.5,0.3-25.2,0.3c0.4-1.9,0.5-3.4,0.9-4.8c4-13.3,8-26.7,12.2-40
	c0.3-1,1.7-2.4,2.7-2.4c7.8,0,15.6,0.2,23.4,0.4c0.6,0,1.3,0.4,2.2,0.7C704,859.7,698.7,874.8,693.2,890.2z"/>
<path class="st19" d="M716.6,852.9c2.1-8.3,2.1-8.3,10.4-7.5c5.8,0.5,11.6,0.9,17.7,1.3c-0.3,1.3-0.3,2.3-0.6,3.2
	c-4.4,13.1-9,26.1-13.2,39.2c-0.9,2.6-2.1,3.5-4.8,3.4c-6.9-0.4-13.8-0.7-21.2-1C708.9,878.2,712.7,865.7,716.6,852.9z"/>
<path class="st20" d="M668.4,852.5c-3.7,11.5-7.3,22.6-10.8,33.8c-0.7,2.2-1.5,3.3-3.9,3.3c-5.5-0.1-11.1,0-17.1,0
	c1.6-5.2,3.1-10.2,4.7-15.2c3-9.4,5.9-18.9,9-28.3c0.4-1.1,1.9-2.6,2.9-2.6c6-0.3,12-0.1,18.6-0.1
	C670.5,846.5,669.5,849.4,668.4,852.5z"/>
<path class="st19" d="M757.9,847.7c5.7,0.5,11.1,1,16.6,1.6c-3.2,11.3-6.3,22.2-9.4,33.2c-0.2,0.5-0.3,1.1-0.5,1.6
	c-2.5,8.6-2.5,8.7-11.6,8.7c-3.7,0-7.5,0-11.9,0c2.1-6.6,4-12.7,5.8-18.8c2.3-7.7,4.5-15.5,6.6-23.3
	C754.2,848.6,755.1,847.2,757.9,847.7z"/>
<path class="st20" d="M788.9,850.7c6.4,1.4,8.2,2.9,8,9c-0.3,8.8-1,17.5-2.1,26.2c-0.7,5.7-2.8,6.8-8.5,6.6
	c-2.1-0.1-4.2-0.1-6.3-0.2c-2.1,0-4.1,0-6.6,0c0.2-1.2,0.2-2.2,0.4-3c2.9-11.6,6-23.2,8.5-34.9C783.3,850.4,784.9,849.2,788.9,850.7
	z"/>
<path class="st20" d="M636.3,843.3c1.8,0,3.1,0,4.8,0c-0.1,1-0.1,1.7-0.3,2.2c-4.6,13.3-9.2,26.6-13.9,39.8
	c-0.7,2.1-1.2,4.5-4.4,3.7c-2.8-0.7-5.7-1.1-5.5-5c0.6-11.8,1.1-23.6,2.1-35.4c0.1-1.6,2.9-3.8,4.7-4.3
	C627.8,843.6,631.9,843.6,636.3,843.3z"/>
<path class="st21" d="M909.8,637.9c-23.3,0.3-46.1,0.9-69,0.9c-16.5,0-32.9-0.7-49.4-1.1c-12.3-0.2-24.6,0.4-36.8-0.6
	c-23.6-1.8-47.3-3.8-70.7-6.8c-11.8-1.5-23-6.1-33-12.8c-3.9-2.6-7.4-6.4-10-10.3c-6.9-10.9-8.6-23.4-8.3-35.8
	c0.8-32.2,2-64.4,4.1-96.5c0.7-11,4.4-21.8,6.8-32.7c0.2-0.9,0.7-1.8,1-2.8c3-9.2,8.7-15,18.8-15.8c9.2-0.7,18.3-2.3,27.5-2.3
	c29.6-0.1,59.2,1,88.7,0.3c29.7-0.7,59.3-3.1,89-4.5c56.3-2.7,112.6-5.8,168.9-7.7c35.1-1.2,70.3-1.4,105.5-0.3
	c22.6,0.7,45.2,4.6,67.7,7.4c4.1,0.5,8.1,2.2,12.1,3.3c11.6,3.1,18.5,10.9,20.7,22.3c2.1,10.9,4.3,22.1,4.3,33.1
	c-0.2,31.1-1.4,62.2-2.4,93.3c-0.4,12.8-0.7,25.7-2.3,38.4c-3.2,25.2-15.8,37.2-41.3,38.8c-13.5,0.8-27,0.3-40.5-0.1
	c-19.9-0.6-39.9-1.6-59.8-2.3c-37.1-1.3-74.1-2.8-111.2-3.8c-22.7-0.7-45.5-0.8-68.2-1.1C918,638.1,914.1,638,909.8,637.9
	 M923.8,472.5c-1.3-5-2.1-10.1-3.9-14.9c-2.8-7.4-8.2-12.2-16.4-13c-6.5-0.6-12.4,0.8-17.9,4.4c-20.8,13.3-27.7,46-13.8,66.5
	c3.6,5.4,8.6,8.6,15.1,9.4c13.8,1.6,26.4-5.7,32.1-18.6C923.6,495.8,925.3,484.7,923.8,472.5 M957.1,525.8c10.8,4,20.2,1.5,28.6-6.1
	c10.7-9.7,15.4-22.4,17.3-36.2c1.1-8.3,0.3-16.7-3.8-24.4c-7-13.3-23.3-16.9-35.3-7.8c-6.3,4.7-10.9,10.6-14.3,17.7
	c-4.6,9.5-6.5,19.6-7,29.9C942.1,510.2,946.5,519.4,957.1,525.8 M906.1,553.8c0.8,1.7,1.2,3.8,2.4,5.1c6.7,7.3,19.3,7.5,26.5,0.7
	c2.3-2.2,3.1-4.8,1.3-7.5c-1.9-2.9-4.9-2.8-7.4-1.1c-5.4,3.6-9.9,3-14.8-1.1C910.5,546.7,907.3,548.2,906.1,553.8 M934.5,519.2
	c-1.5-1.6-3.1-4.5-4.4-4.4c-1.9,0.1-4.4,2.2-5.3,4c-1.2,2.3-1.7,5.4-1.4,8c0.2,1.9,2,5,3.5,5.2c1.9,0.3,5.1-1.3,5.9-2.9
	C934.1,526.4,934,523,934.5,519.2z"/>
<path class="st22" d="M958.7,259.1c-0.2,2.4-0.1,4.6-0.8,6.4c-0.4,1-2.3,1.5-3.5,2.2c-0.6-1.2-2-2.6-1.7-3.6
	c0.7-2.3,1.8-4.7,3.3-6.6C957.7,255.4,958.5,257,958.7,259.1z"/>
<path class="st11" d="M299.9,490c4-0.6,7.9-1,11.9-1c0.5,0,1.2,1.3,1.3,2.1c0.2,1.3,0.1,2.8,0.1,4.1c0,10.7,0,10.6-10.6,9.8
	c-2.2-0.2-2.9-1-2.9-3C299.8,498.2,299.7,494.3,299.9,490z"/>
<path class="st22" d="M275.5,447.5c-2.2,2.2-4.3,4.2-6.4,6c0-1.3-0.2-3.3,0.1-5.3c0.2-1.1,1.2-2.8,1.9-2.8
	C272.7,445.3,275.2,444,275.5,447.5z"/>
<path class="st6" d="M261,452.2c-1.1-1.3-1.9-2.4-2.9-3.5c-0.8-0.9-1.7-1.6-2.5-2.4c1.1-0.3,2.1-0.8,3.3-1c0.6-0.1,1.3,0.1,2.8,0.2
	C261.5,447.9,261.3,450.1,261,452.2z"/>
<path class="st6" d="M258.7,460c1.1,1,1.9,1.8,2.7,2.6c-1.7,0.5-3.4,1-5.6,1.7c0-3.3,0-5.8,0-8.1C256.6,457.3,257.5,458.6,258.7,460
	z"/>
<path class="st20" d="M274.7,457.5c0.5,1.7,0.9,3.7,1.3,5.9c-1.8,0.2-2.9,0.5-3.9,0.3c-0.9-0.2-1.7-0.9-2.5-1.4
	c0.7-0.6,1.3-1.3,2-1.9C272.5,459.5,273.5,458.6,274.7,457.5z"/>
<path class="st19" d="M299.9,375.8c-2.2,3.7-4.2,7.2-6.2,10.6c-0.4-0.1-0.9-0.2-1.3-0.3c0-5.7-0.1-11.4,0.1-17.1
	c0-0.6,1.5-1.5,2.4-1.6c2.3-0.2,4.7-0.1,7.9-0.1C301.7,370.4,300.8,373,299.9,375.8z"/>
<path class="st11" d="M297.3,392.6c-0.3-0.1-0.5-0.2-0.6-0.4c0.2-0.1,0.5-0.1,0.9-0.1C297.7,392.2,297.5,392.5,297.3,392.6z"/>
<path class="st22" d="M308.8,842.4c1.4,0.6,2.4,1.2,3.5,1.8c-1,0.5-2,1.3-3,1.3c-2.9,0.2-5.8,0.1-8.7,0c-0.6,0-1.2-0.8-1.8-1.3
	c0.6-0.6,1.2-1.6,1.8-1.7C303.1,842.3,305.8,842.4,308.8,842.4z"/>
<path class="st22" d="M308.7,831.5c1.4,0.6,2.4,1.2,3.5,1.8c-1.1,0.5-2.1,1.2-3.2,1.3c-2.6,0.2-5.3,0.2-7.9,0
	c-0.8-0.1-1.6-1-2.4-1.6c0.8-0.5,1.7-1.3,2.5-1.4C303.6,831.4,306,831.5,308.7,831.5z"/>
<path class="st22" d="M311,820.7c2.2,1.9,1.1,2.8-0.8,2.9c-3.1,0.2-6.1,0.2-9.2,0c-0.8,0-1.5-1.1-2.3-1.7c0.8-0.4,1.5-1.2,2.3-1.2
	C304.2,820.5,307.4,820.6,311,820.7z"/>
<path class="st6" d="M291.1,765.9c-1.5,0.9-3,1.8-4.5,2c-2,0.3-4.1,0.1-7,0.1c0.2-2.8-0.3-7.1,0.7-7.4c2.9-1.1,6.4-0.9,9.6-0.5
	C290.5,760.1,290.7,763.6,291.1,765.9z"/>
<path class="st6" d="M307.2,734.2c-2.4-0.8-5.5,1.8-6.6-2c2-0.6,4.1-1.2,6.1-1.7c0.3-0.1,0.6-0.1,0.8,0c1.3,0.6,2.6,1.2,3.9,1.9
	C310.2,733,308.9,733.6,307.2,734.2z"/>
<path class="st6" d="M301.2,721.5c0.3-1.1,0.8-2.7,1.5-2.8c2.2-0.4,4.4-0.3,6.6,0c0.8,0.1,1.4,1.2,2.1,1.8c-0.7,0.5-1.4,1.3-2.1,1.4
	C306.7,721.9,304.1,721.7,301.2,721.5z"/>
<path class="st6" d="M283.2,677.5c-4.8,0.4-3.3-3-3.6-5.1c-0.3-2.7,1.1-3.5,3.5-3.2c1.1,0.1,2.2,0,3.3,0c4.3,0,6.4,3.2,4.4,7
	c-0.3,0.7-1.5,1.2-2.3,1.3C286.9,677.6,285.2,677.5,283.2,677.5z"/>
<path class="st22" d="M310.1,640.1c0.6,0.3,1.2,0.8,1.2,0.8c-0.7,1-1.5,2.8-2.2,2.7c-2.9-0.2-5.8-0.9-8.6-1.5c0.8-0.7,1.4-2,2.3-2.1
	C305.1,639.8,307.4,640,310.1,640.1z"/>
<path class="st6" d="M303.4,631.4c-1.2-0.5-2-1.1-2.7-1.6c0.8-0.6,1.5-1.6,2.3-1.7c2.2-0.2,4.4-0.2,6.6,0c0.7,0.1,1.3,1,1.9,1.6
	c-0.6,0.5-1.2,1.5-1.9,1.6C307.7,631.5,305.7,631.4,303.4,631.4z"/>
<path class="st22" d="M270.6,732.6c-3.2,0.7-6.3,1-9.5,1.2c-0.1,0-0.8-2.3-0.4-2.8C261.9,729.4,269.1,730.5,270.6,732.6z"/>
<path class="st6" d="M262.6,721.9c-1.1-0.6-1.8-1.2-2.5-1.8c0.6-0.5,1.1-1.3,1.7-1.4c2.3-0.2,4.7-0.2,7,0c0.6,0.1,1.1,1.2,1.7,1.8
	c-0.6,0.4-1.2,1.2-1.8,1.2C266.8,722,264.9,721.9,262.6,721.9z"/>
<path class="st22" d="M269.8,640.4c-0.2,1.2-0.6,3.1-1.3,3.2c-2.1,0.4-4.4,0.3-6.6,0.1c-0.7-0.1-1.3-1.1-2-1.6
	c0.7-0.7,1.4-1.8,2.1-1.9C264.5,639.9,267,640.1,269.8,640.4z"/>
<path class="st6" d="M264.1,628.1c2.4,0.6,4.4,1.1,6.4,1.7c-2,0.5-4,1.1-6,1.6c-0.3,0.1-0.6,0.1-0.8,0c-1.2-0.5-2.4-1.1-3.6-1.6
	C261.3,629.2,262.5,628.7,264.1,628.1z"/>
<path class="st6" d="M268.2,819c0.2,0.9,0.1,2.4-0.2,2.4c-2.5,0.2-5,0.2-7.5,0.1c-0.4,0-0.8-0.9-1.2-1.3c0.5-0.4,0.9-1.1,1.4-1.2
	C263.2,818.8,265.5,818.9,268.2,819z"/>
<path class="st6" d="M263.9,808c2.1,0.2,3.8,0.4,5.5,0.5c0,0.7,0,1.4-0.1,2c-3,0-6,0-9-0.1c-0.3,0-0.9-0.7-0.9-1.1
	c0-0.4,0.5-1.1,0.8-1.2C261.3,808,262.4,808,263.9,808z"/>
<path class="st4" d="M1037.1,966.9c-4.1-0.8-6.4,1.3-8.1,4.2c-6.3,10.7-12.6,21.4-18.8,32.1c-0.6,1-1.3,2-2.6,3.8
	c-0.4-2-0.7-3-0.7-4c-0.3-12.1-0.6-24.2-0.9-36.4c-0.1-6.2-1.4-7.9-7.6-8.9c-10.9-1.7-21.7-3.2-32.6-4.8c-0.5-0.1-1.1-0.2-2.7-0.6
	c2.8-1.4,4.8-2.5,6.8-3.5c5-2.5,10-4.8,15-7.3c3.4-1.7,3.6-4.5,2.9-7.8c-2.8-13.4-5.6-26.7-8.3-40.1c-0.6-3-0.9-6-0.4-9.5
	c4.5,6.3,9.1,12.6,13.5,19.1c3,4.4,5.6,9,8.6,13.4c4.1,5.9,7.4,5.6,11.3-0.3c10.4-15.8,21-31.6,31.5-47.3c0.6-0.9,1.3-1.6,2-2.4
	c0.4,0.1,0.7,0.2,1.1,0.3c-0.5,6.2-0.9,12.3-1.4,18.5c-0.7,9.2-1.6,18.3-2.1,27.5c-0.3,5.6,3.9,8.8,10.1,8.2
	c10.7-1.1,21.3-2.1,32-3.1c1.2-0.1,2.4,0,3.6,0c0.3,0.4,0.6,0.9,1,1.3c-1,0.6-2.2,1.1-3.1,1.8c-6.8,5.3-13.6,10.7-20.5,15.9
	c-4.1,3.1-4.8,6.9-3.5,11.5c3.9,13.7,7.9,27.3,11.8,41c0.4,1.3,0.7,2.6,1,3.8c-0.4,0.3-0.7,0.7-1.1,1c-5.7-4.1-11.4-8.2-17-12.3
	C1051.1,977,1044.2,972,1037.1,966.9z"/>
<path class="st23" d="M923.9,472.9c1.4,11.9-0.3,22.9-5,33.4c-5.7,12.8-18.3,20.1-32.1,18.6c-6.5-0.7-11.5-4-15.1-9.4
	c-13.8-20.5-6.9-53.2,13.8-66.5c5.5-3.5,11.5-4.9,17.9-4.4c8.3,0.7,13.6,5.5,16.4,13C921.7,462.4,922.5,467.5,923.9,472.9
	 M896.1,466.7c2.2-3.8,4.4-7.5,6.9-11.7c-1.6-0.3-2.2-0.5-2.9-0.5c-7.3-0.1-12.4,4.1-16.4,9.5c-10.2,14-9.7,29.4-5.2,45.1
	c0.3,1.2,1.1,2.3,1.9,3.2c1.7,2,3.4,2.4,4.8-0.4c3.8-7.6,7.7-15.2,11.5-22.8c0.3-0.6,0.2-1.3,0.2-2.1c-1-0.2-1.8-0.5-2.5-0.6
	c-5.7-0.4-7.2-2.7-4.7-7.8C891.6,474.7,893.7,471,896.1,466.7 M911.2,498.5c4.4-13.1,4.9-25.9-0.9-38.5c-0.6-0.1-1.1-0.1-1.7-0.2
	c-3.1,6.3-6.2,12.6-9.4,19.2c9.5,2.2,10.2,3.5,6.5,11.8c-2.7,6.2-5.7,12.4-8.5,18.6c-0.6,1.3-1.1,2.6-2,4.8
	C904.3,512,908.1,506,911.2,498.5z"/>
<path class="st24" d="M956.8,525.6c-10.3-6.2-14.7-15.5-14.2-26.8c0.4-10.3,2.4-20.4,7-29.9c3.4-7.1,8-13,14.3-17.7
	c12-9,28.3-5.5,35.3,7.8c4,7.7,4.9,16.1,3.8,24.4c-1.9,13.8-6.6,26.5-17.3,36.2C977.3,527.2,967.9,529.8,956.8,525.6 M960.3,467.3
	c-6.4,11.3-9.6,23.4-8.1,36.5c0.6,5.3,3.6,9.3,7.6,13.6c5.4-10.8,10.4-20.8,15.5-31.2c-1.5-0.3-2.3-0.6-3.1-0.7
	c-6.7-0.7-8.8-3.7-5.9-9.8c2.6-5.4,5.9-10.4,8.9-15.5c0.8-1.4,1.6-2.7,2.9-4.9C969.3,456.1,964.8,461.2,960.3,467.3 M977.5,472.7
	c-0.5,1.2-1,2.3-1.6,3.7c1.2,0.5,1.8,0.7,2.5,0.9c8.1,2.2,9.3,4.7,5.7,12.4c-2.5,5.3-5.4,10.4-8,15.6c-2.1,4-4.1,8-6.1,12
	c0.5,0.4,1,0.9,1.4,1.3c3.7-2.8,8.1-4.9,10.8-8.4c8.4-10.9,14-23.1,12.8-37.4c-0.5-6.3-2.9-11.7-8.3-15.5c-0.7,0.4-1.2,0.6-1.3,0.9
	C982.8,462.8,980.3,467.5,977.5,472.7z"/>
<path class="st15" d="M906.1,553.4c1.2-5.3,4.3-6.7,8.1-3.6c4.8,4.1,9.4,4.7,14.8,1.1c2.4-1.7,5.5-1.8,7.4,1.1
	c1.7,2.7,0.9,5.3-1.3,7.5c-7.1,6.8-19.7,6.6-26.5-0.7C907.3,557.6,906.9,555.5,906.1,553.4z"/>
<path class="st15" d="M934.5,519.6c-0.5,3.4-0.4,6.9-1.7,9.5c-0.9,1.7-4.1,3.2-5.9,2.9c-1.5-0.2-3.3-3.2-3.5-5.2
	c-0.3-2.6,0.2-5.7,1.4-8c1-1.9,3.4-3.9,5.3-4C931.4,514.7,933,517.6,934.5,519.6z"/>
<path class="st25" d="M895.9,466.9c-2.2,4.1-4.3,7.8-6.2,11.7c-2.5,5.1-1,7.4,4.7,7.8c0.8,0.1,1.6,0.3,2.5,0.6
	c-0.1,0.8,0,1.6-0.2,2.1c-3.8,7.6-7.7,15.2-11.5,22.8c-1.4,2.8-3.1,2.4-4.8,0.4c-0.8-0.9-1.6-2-1.9-3.2c-4.5-15.8-5-31.2,5.2-45.1
	c3.9-5.4,9.1-9.5,16.4-9.5c0.7,0,1.3,0.2,2.9,0.5C900.5,459.1,898.3,462.9,895.9,466.9z"/>
<path class="st10" d="M911.1,498.8c-3,7.3-6.9,13.3-16,15.4c0.9-2.2,1.4-3.5,2-4.8c2.8-6.2,5.8-12.3,8.5-18.6
	c3.7-8.3,3-9.6-6.5-11.8c3.2-6.5,6.3-12.8,9.4-19.2c0.6,0.1,1.1,0.1,1.7,0.2C916.1,472.5,915.6,485.4,911.1,498.8z"/>
<path class="st26" d="M960.5,467.1c4.3-5.9,8.8-11,17.6-11.7c-1.3,2.2-2.1,3.5-2.9,4.9c-3,5.2-6.4,10.2-8.9,15.5
	c-2.9,6.1-0.8,9.1,5.9,9.8c0.8,0.1,1.6,0.3,3.1,0.7c-5.2,10.3-10.1,20.3-15.5,31.2c-4-4.3-6.9-8.3-7.6-13.6
	C950.7,490.7,953.9,478.7,960.5,467.1z"/>
<path class="st27" d="M977.6,472.4c2.7-4.9,5.2-9.6,7.7-14.2c0.2-0.3,0.7-0.5,1.3-0.9c5.4,3.8,7.7,9.2,8.3,15.5
	c1.2,14.3-4.4,26.5-12.8,37.4c-2.7,3.5-7.2,5.7-10.8,8.4c-0.5-0.4-1-0.9-1.4-1.3c2-4,4-8,6.1-12c2.7-5.2,5.5-10.3,8-15.6
	c3.7-7.7,2.5-10.2-5.7-12.4c-0.7-0.2-1.3-0.5-2.5-0.9C976.5,475,977,473.8,977.6,472.4z"/>
</svg>
