<?xml version="1.0" encoding="utf-8"?>
<!-- Generator: Adobe Illustrator 22.1.0, SVG Export Plug-In . SVG Version: 6.00 Build 0)  -->
<svg version="1.1" id="Layer_1" xmlns="http://www.w3.org/2000/svg" xmlns:xlink="http://www.w3.org/1999/xlink" x="0px" y="0px"
	 viewBox="0 0 2000 1668" style="enable-background:new 0 0 2000 1668;" xml:space="preserve">
<style type="text/css">
	.st0{fill:#50C1E9;}
	.st1{fill:#51C2E8;}
	.st2{fill:#3791CF;}
	.st3{fill:#80D8FF;}
	.st4{fill:#3086CA;}
	.st5{fill:#FAFAE9;}
	.st6{fill:#83D9FF;}
	.st7{fill:#7FD7FF;}
	.st8{fill:#3187CB;}
	.st9{fill:#3087CA;}
	.st10{fill:#3289CB;}
	.st11{fill:#FDFBE9;}
	.st12{fill:#2F86CA;}
	.st13{fill:#55C3E9;}
	.st14{fill:#57C4E9;}
	.st15{fill:#5FC6E8;}
	.st16{fill:#52C2E8;}
	.st17{fill:#53C2E8;}
	.st18{fill:#50C1E8;}
	.st19{fill:#4FBFE7;}
	.st20{fill:#FCFBE9;}
	.st21{fill:#FEFCE9;}
	.st22{fill:#E3F2E9;}
	.st23{fill:#F7F9E9;}
	.st24{fill:#5AC4E8;}
	.st25{fill:#F5FCFE;}
	.st26{fill:#2E88CB;}
</style>
<path class="st0" d="M831.9,1178.9c-4.7-0.5-9.5-1-14.2-1.5c-8-0.9-16-1.7-24-2.8c-11.2-1.7-22.3-3.7-33.5-5.5
	c-2.5-0.4-5.1-1-8.1-1.6c0,3,0.2,5.9,0,8.7c-0.4,5.5-1.1,10.9-1.6,16.4c-0.2,2.9-0.1,5.4,2.1,8c10.6,12.6,17.4,27.4,24.2,42.3
	c6.7,14.7,10.2,30.3,13.7,45.8c3.4,15.3,3.2,31.1,2.6,46.7c-0.3,9.4-0.8,19-2.6,28.2c-2.1,10.3-5.6,20.4-9.1,30.4
	c-1.7,5.1-4.4,9.9-7.1,14.5c-6.4,10.9-17,16.2-28.3,20.1c-14,4.8-28.6,8.1-43.3,9.2c-13.6,1-27.2,1.1-40.8,0.9
	c-10.1-0.2-20.4-0.8-30.3-2.6c-13.3-2.5-26.5-5.9-39.5-9.6c-7.7-2.2-15.1-5.4-22.4-8.6c-11-4.7-16.5-13.8-18.3-25.2
	c-3.2-20,0.2-39.4,6.8-58.4c4.1-11.8,7.8-23.6,12.4-35.2c3.6-8.9,7.7-17.8,12.6-26c8.7-14.7,18.1-28.9,27.4-43.2
	c9.1-14.1,19.6-27.1,31.9-38.5c3.4-3.2,6.9-6.4,10.8-8.9c4.6-3,4.7-7.3,5.3-11.9c1-8.1,2.2-16.2,3.3-24.3c0.2-1.9,0.6-4.2-0.1-5.7
	c-0.6-1.2-2.9-1.6-4.4-2.4c-13.8-7.2-27.7-14.1-41.4-21.5c-16.6-9-31.5-20.3-45.6-32.8c-8.8-7.8-17.9-15.5-25.8-24.2
	c-11.6-12.7-22.2-26.2-33.6-39.8c0,1.4,0.1,2.9,0,4.4c-0.2,3.4-0.5,6.8-0.6,10.2c-0.1,5,0,10.1,0,15.1c-0.3,18.5-0.5,37-0.9,55.5
	c-0.2,9.3-0.5,18.6-0.8,27.9c-0.3,9.9-0.6,19.7-0.9,29.6c-0.3,13.6-0.6,27.2-0.9,40.8c-0.3,11.8-0.5,23.6-0.9,35.4
	c-0.1,2.7-1.8,5.4-1.5,8c0.6,5.3,2.1,10.4,3.3,15.6c0.3,1.5,1,3,0.7,4.4c-1,5.4,1.6,8.8,5.3,12.2c9.7,9.1,15.1,20.8,18.1,33.5
	c1.4,5.7,2.6,11.6,2.4,17.4c-0.3,8.8-3.2,17.1-8.4,24.2c-5.9,8-14.9,8.6-23.8,7.5c-3.9-0.5-7.6-2.2-11.9-3.6
	c0.3,1.8,0.7,3.7,0.8,5.6c0.1,7,0.1,14,0,21c-0.1,3.1-0.3,6.3-0.9,9.4c-1.4,7.8-11.7,12.9-19.1,11c-7-1.7-13.2-3.7-18.5-9.2
	c-2.6,11.1-8.5,18.6-21.2,18.1c-11.5-0.4-17.8-6.8-20.6-17.7c-2,1.7-3.5,3.4-5.4,4.3c-9.2,4.5-18.6,4.5-26.3-2.2
	c-4.3-3.8-7-9.9-9.4-15.3c-4.3-9.5-4.1-19.7-2.7-29.9c1.2-8.3,1.1-16.8,2.8-25c1.5-7.4,4.5-14.6,6.7-21.9c1-3.2,2-6.5,2.3-9.8
	c0.8-9.5,0.8-19,1.9-28.5c1.3-11.1,7.7-19.9,14-28.7c1-1.3,1.7-3.2,1.7-4.8c-0.1-11-0.7-22-0.7-32.9c0-15,0.3-30,0.8-45.1
	c0.5-14.7,1.6-29.5,2.4-44.2c0.5-8.5,1.1-17,1.7-25.5c0.8-12.2,1.7-24.5,2.6-36.7c0.8-10.2,1.6-20.3,2.5-30.5
	c1-11.5,1.8-23,3.4-34.4c2-14.4,4.6-28.7,7.4-43c2.4-12.2,5.6-24.3,8.3-36.4c0.4-1.9,0.1-3.9,0.2-5.8c0.3-11.1-0.6-22.3,1.2-33.2
	c1.7-10.4,5.4-20.6,9.3-30.5c5.3-13.8,14.1-25.5,25.3-35.1c14.1-12.1,29.2-22.2,47.6-27.3c13.1-3.6,26.1-3.5,39.1-2.8
	c9.5,0.5,19.4,2.2,27.5,8.1c2.1,1.5,3.8,3.5,4.9,4.5c13.1-5.7,26-11.8,39.3-17c15.6-6.1,32.1-9.4,48.6-11.8
	c13.4-2,26.7-4.2,40.1-5.7c7.7-0.9,15.5-0.4,23.2-1c11.6-0.9,23.2-2.3,34.8-3.2c8-0.6,16.1-0.8,24.1-0.9c11-0.2,22.1,0,33.1-0.1
	c4.7-0.1,9.4-0.8,14.1-0.7c8.7,0.2,17.4,0.8,26.3,1.2c0.7-3.4,1.3-6.2,1.9-9.2c-6.2-0.7-12.4-1.4-18.6-2.1
	c-9.4-1.1-18.7-2.1-28.1-3.4c-10.9-1.5-21.8-3.1-32.7-5c-15-2.6-30.1-5.4-45.1-8.4c-10.5-2-20.9-4.8-31.4-6.5
	c-8.6-1.4-17.4-2-26.2-2.7c-15.2-1.2-30-4-43.7-11.2c-10.6-5.6-21.8-10.3-32-16.6c-7.6-4.7-14.4-10.8-20.9-17
	c-7.9-7.5-16.3-15-20.5-25.4c-2.6-6.4-4.5-13.3-5.4-20.2c-1.7-12.5-3.1-25.1-3.4-37.6c-0.3-11.7,0.8-23.5,1.5-35.2
	c0.7-12,1.3-24,2.5-35.9c1.6-14.9,3.4-29.8,5.9-44.6c2.3-14.1,5.5-28.1,8.3-42.2c3.2-15.6,8.7-30.5,18.5-43.1
	c11.7-15.1,24.4-29.4,43.8-35.3c7.5-2.3,14.7-5.3,22.3-6.9c7.4-1.6,15.1-2.4,22.7-2.9c11.1-0.7,22.1-0.9,33.2-0.9
	c24.5-0.1,49-0.1,73.5,0c10.7,0,21.4,0.5,32,0.8c10.2,0.3,20.5,0.3,30.7,0.9c9.6,0.5,19.1,1.8,28.7,2.4c6.1,0.4,12.2,0.1,18.5,0.1
	c0.4-5.1,0.9-9.9,1.2-14.7c1-21.6,5.2-42.6,14.5-62.1c4.1-8.7,11.1-16,16.7-24.1c5.5-8.1,13.2-13.4,21.8-17.6
	c15.2-7.4,31.1-11.9,48.1-10.4c12.8,1.1,24.3,5.9,34.9,13.3c13.6,9.5,17.9,24,21.3,38.7c1.9,8.2,2.3,16.8,2.7,25.3
	c0.4,9.9,0.4,19.9,0.1,29.8c-0.2,8.4-1,16.8-1.7,25.2c-0.1,0.9-0.5,1.8-1.2,3.8c12,0.4,23.5,0.8,35,1.2c16.6,0.6,33.2,1.1,49.8,1.6
	c8,0.3,16.1,0.4,24.1,0.9c9.2,0.6,18.3,1.7,27.4,2.4c4.9,0.4,9.9,0.7,14.9,0.9c7.6,0.3,15.1,0.3,22.7,0.9
	c17.5,1.3,35.2,2.1,51.7,9.2c9.6,4.1,18.6,9.2,26.9,15.6c13.4,10.4,21.9,24,26.4,40.1c2.4,8.6,3.7,17.5,5.3,26.2
	c1.8,10.2,3.9,20.3,4.9,30.6c1,9.8,1,19.7,0.9,29.5c-0.2,12.3-0.8,24.6-1.5,36.9c-0.7,12.1-1.5,24.2-2.7,36.3
	c-0.9,8.8-2.5,17.5-3.8,26.2c-0.7,4.4-1.3,8.9-2,13.3c-1.1,7.7-2,15.4-3.5,23c-2.2,11.1-4.4,22.2-7.5,33.1c-3,10.2-6.7,20.3-11,30
	c-2.6,5.9-6.8,11.3-10.9,16.4c-3.9,4.8-7.9,9.9-13,13.2c-6.7,4.4-14.2,7.8-21.8,10.7c-9.9,3.8-19.9,7.3-30.1,10.1
	c-10.6,2.9-21.5,5.2-32.3,7.3c-6.4,1.2-13,1.6-19.6,1.7c-6.9,0.1-13.8-0.6-20.8-0.7c-2.6,0-5.2,0.8-7.7,0.7
	c-12.5-0.7-25-1.7-37.6-2.4c-6.5-0.4-13.1-0.6-18.2-0.9c19.3,4.5,40,8.9,60.4,14.4c18.7,5,36.2,13.1,52.4,23.9
	c4.8,3.2,10.1,5.7,15.2,8.6c0.8,0.5,1.7,0.9,2.2,1.7c2.1,2.8,4.1,1.9,5.6-0.4c6.7-10.1,17-13.9,27.9-17.1c11.4-3.3,23-4.2,34.6-3.2
	c6.7,0.6,13.5,2.7,19.9,5c3.9,1.4,6.2,1.5,9.3-1.6c15.1-15.2,31-29.7,45.7-45.3c8.9-9.5,16.2-20.5,24.2-30.8
	c4.4-5.7,9.3-11,13.6-16.8c10.4-13.9,20.5-27.9,30.8-41.9c6.2-8.4,12.9-16.6,18.7-25.3c6.3-9.5,12.1-19.3,17.8-29.2
	c8.9-15.3,17.5-30.8,26.1-46.3c2.3-4,4.4-8.1,6.3-12.3c0.4-0.9,0-2.6-0.6-3.6c-4.3-7.7-6.2-16.1-5.4-24.8c0.6-6.9,1.8-13.7,2.8-21
	c-7.8-4.2-14.2-11.1-19.9-18.5c-9.3-12.2-11.6-28.6-2.3-41.7c4.8-6.9,11.9-10,19.8-11.1c4.8-0.7,9.8-0.5,14.7,0
	c2.6,0.2,5.2,1.6,7.5,2.9c9.6,5.1,15.4,13.4,19.3,23.2c0.3,0.7,0.8,1.4,1.6,2.9c1.2-4.8,2.1-8.8,3.4-12.8c2-6.4,3.7-13.1,6.7-19.1
	c3.5-7.2,7.9-14,12.4-20.6c4.9-7.1,17.6-12.2,27.6-10.5c12.4,2.2,17.8,9.7,20.3,20.8c0.3,1.3,0.7,2.5,1.1,4.2
	c10.5-8.2,21.4-12.5,33.6-5.2c12,7.2,12.3,19.3,11.4,30.7c6.6-1.1,12.7-2.6,19-3.1c7.6-0.5,16.5,6.3,18.3,13.7
	c1.2,4.7,1.9,9.7,2,14.5c0.4,14.8-6.5,27.5-14,39.5c-5.6,9.1-12.4,17.6-19.6,25.4c-4.6,5-11,8.3-16.5,12.4c-0.9,0.7-1.7,1.7-2.3,2.7
	c-4.2,7.2-7.9,14.8-15,20.1c-8.9,6.5-18.1,12.2-29,14.7c-2.4,0.5-3,1.4-3.7,3.5c-3.1,9.7-6.2,19.4-9.7,28.9
	c-4.8,13-9.4,26.2-15.2,38.7c-5.2,11.2-12.1,21.7-18.2,32.5c-6.8,12.1-13,24.4-20.3,36.2c-4.4,7.2-10.1,13.7-15.5,20.4
	c-7.4,9.3-14.9,18.4-22.5,27.6c-4.9,5.9-10.2,11.4-15,17.4c-6.5,7.9-12.6,16.1-19,24c-5.8,7.1-11.7,14.1-17.6,21.1
	c-3.9,4.7-7.7,9.6-11.8,14.3c-5.1,5.8-10.3,11.5-15.8,17c-12.2,12.1-24.6,23.9-36.9,35.9c-0.2,0.2-0.4,0.5-0.6,0.6
	c-6.1,2.7-6.9,8.2-7.8,13.9c-1.4,9-5.1,17.3-9.6,25.2c-3.3,5.8-6.8,11.6-11,16.7c-5.3,6.3-11.1,12.5-17.6,17.4
	c-6.2,4.7-13.3,8.4-20.5,11.2c-6.6,2.6-13.8,3.8-20.9,4.8c-6.1,0.9-12.4,0.8-18.6,0.8c-2.7,0-5.4-0.7-8.1-0.7
	c-1.1,0-2.9,0.9-3.1,1.8c-4.7,13.9-12.1,26.4-21.2,37.8c-8.3,10.6-16.8,21.2-26.6,30.5c-12.1,11.5-24.7,22.8-38.6,31.9
	c-16.5,10.8-34.3,19.6-52,28.5c-13.9,7-28.4,12.8-42.7,19c-3.1,1.3-6.5,1.9-9.7,3c-0.8,0.3-1.9,1.3-2,2.1c-1,10.1-1.4,20.3-2.8,30.3
	c-0.8,6.2,2.5,9.6,6.5,12.6c14.9,11.4,26.8,25.4,37.2,40.9c9,13.3,18.3,26.6,26.3,40.5c9.5,16.6,18.4,33.5,23.4,52.2
	c2.9,10.9,7.5,21.3,10.1,32.3c3.8,16,5.2,32.3,0.4,48.5c-2.3,7.7-7.1,13.8-14.4,17.4c-16.8,8.3-34.6,13.6-53,17.2
	c-12.3,2.4-24.6,4.1-37.1,4.1c-13.3,0-26.7,1.2-40,0.6c-9.4-0.4-18.8-2.5-28.1-4.5c-13.9-2.9-27.7-6.2-41.5-9.6
	c-15.6-3.8-28.4-11.7-35.9-26.4c-1.8-3.6-2.6-8-2.8-12.1c-0.7-14.3,1.4-28.5,4-42.5c2.3-12.4,3.9-24.9,6.9-37.2
	c4.5-18.9,9.4-37.8,15.2-56.4c2.8-9.1,7.8-17.6,12-26.3c1.8-3.6,2.7-7.2,3.1-11.3c1-12.4,2.6-24.8,4.1-37.1c0.2-1.4,1-2.7,1.7-4.6
	c-39.3,7.7-78.7,11.6-119.1,12.6C847.4,1178.8,839.7,1178.8,831.9,1178.9 M575.5,1070.5c1.9,1.6,3.8,3.3,5.7,4.9
	c22.5,18.3,46.5,34,73,46c24.2,11,48.7,21,74.7,26.7c21.6,4.8,43.4,8.7,65.3,12.4c12.5,2.1,25.1,3.5,37.8,4.2
	c12.8,0.7,25.6,0.4,38.4,0.1c10.2-0.2,20.3-0.9,30.4-1.9c13.3-1.3,26.6-2.5,39.8-4.9c19.6-3.5,39.2-7.3,58.5-12.2
	c17.8-4.5,35.2-10.9,52.8-16.2c12.4-3.8,25.3-6.2,37.2-11.2c22.4-9.5,44.4-20.2,66.3-31c9-4.4,17.7-9.7,25.8-15.5
	c18.8-13.5,36.3-28.7,51-46.8c10.9-13.5,21-27.5,26.7-44.2c8-23.4,15.6-46.8,17-71.8c0.7-12.2,1.5-24.2-1.9-36.1
	c-4.6-15.6-12.4-29.1-25.1-39.7c-12.9-10.7-26.7-20-41.2-28.6c-19.4-11.5-39.9-20-61.8-25c-18.5-4.2-37.1-7.6-55.7-11.2
	c-14.1-2.7-28.1-5.7-42.3-7.8c-8.9-1.3-18.1-1-27.1-1.6c-17.5-1.2-34.9-2.7-52.5-2c-8.6,0.3-12.6,2.9-14.2,10.8
	c-0.8,3.9-3.9,5.8-7.5,6.2c-4.6,0.5-9.2,1-13.7,0.9c-12.2-0.4-24.5-0.6-36.7-1.8c-8.5-0.9-17-3-25.3-5.2c-5.4-1.4-6.9-4.2-6.7-9.2
	c0.2-5.4,0.1-5.5-5-5.4c-23.8,0.5-47.7,1.1-71.5,1.7c-0.6,0-1.1,0.1-1.7,0.1c-13,1.3-26,3.4-39,3.7c-20.8,0.5-41.4,2.5-62,5
	c-26.3,3.2-52.1,8.4-76.2,19.6c-11.8,5.5-23.1,12.4-34.3,19.1c-21.7,13-38.9,30.8-52.5,51.9c-10.8,16.8-15.8,35.9-19.1,55.4
	c-2.6,14.9-3.8,29.9-1.4,44.9c4.2,26,14.7,49.4,31.2,69.9C545.4,1041.1,559.1,1056.6,575.5,1070.5 M854.7,347.4
	c-3-0.3-6.1-0.7-9.2-0.8c-16.6-0.6-33.1-1.4-49.7-1.7c-32.5-0.5-64.9-0.8-97.4-0.8c-11.3,0-22.5,1-33.8,1.6
	c-13.2,0.8-25.1,5.4-35.3,13.7c-6.7,5.6-12.7,12-18.8,18.4c-9.1,9.6-15.6,21-18.7,33.7c-4.9,19.7-9,39.7-12.2,59.8
	c-2.7,16.5-3.6,33.2-5.2,49.8c-0.9,9.6-1.6,19.1-2.4,28.7c-0.6,8.5-2,17-1.6,25.4c0.7,12.9,2.3,25.8,4.1,38.6
	c1,7.2,1.4,15.1,6.6,20.9c8.6,9.5,16.8,19.7,26.9,27.2c10.8,8,23.6,13.5,35.8,19.7c10.5,5.4,21.6,9,33.5,10
	c9.7,0.8,19.5,1.2,29.1,2.8c15.4,2.6,30.6,6.2,45.9,9c20.8,3.8,41.7,7.5,62.6,10.8c12.4,1.9,24.9,2.9,37.3,4.3
	c9.3,1.1,18.5,2.2,27.8,3.2c14.5,1.6,29.1,3.1,43.6,4.7c11.1,1.2,22.1,2.6,33.2,3.8c8.9,0.9,17.7,1.6,26.6,2.3
	c10.4,0.9,20.8,1.9,31.2,2.7c8.6,0.7,17.2,1.2,25.8,1.8c14.4,1,28.9,2.1,43.3,3.2c9.3,0.7,18.6,1.2,27.9,1.9c15.3,1,30.5,2.4,45.8,3
	c10.7,0.5,21.5,0.7,32.1-0.1c10.5-0.8,20.9-2.7,31.3-4.5c14.9-2.5,28.9-8.2,43.2-13c17.5-6,30.1-17.4,37.7-33.5
	c5.8-12.1,9.7-25.3,12.7-38.4c4-17.2,6.7-34.7,9.2-52.2c2.5-17.2,4.3-34.5,5.9-51.8c1.3-13.9,1.5-27.8,2.9-41.7
	c1.4-14.3,0.5-28.4-1.7-42.5c-2-13.2-4.9-26.3-6.8-39.5c-3.3-22.5-15.9-38.2-35.2-49.1c-15.1-8.6-31.6-12.1-48.8-13.1
	c-19.9-1.2-39.7-3-59.6-4.1c-20.4-1.1-40.9-1.7-61.4-2.6c-19.8-0.8-39.5-1.6-59.3-2.5c-16-0.7-32-1.9-48-2.4
	c-22.1-0.8-44.3-1.1-66.5-1.8c-11.4-0.4-22.8-1.1-34.2-1.8C892.8,349.6,874.1,348.5,854.7,347.4 M973.1,1233
	c-3.4,8.7-7.1,17.3-10.1,26.1c-2.1,6.3-2.9,13.1-5,19.4c-9.8,29.7-14.3,60.4-17.3,91.4c-0.5,4.8-0.6,9.9,0.6,14.5
	c2.6,10.3,10.3,17,19.8,19.9c16.4,5.1,33.1,8.8,49.8,12.7c15.8,3.7,31.8,5.6,48.1,4.8c7.9-0.4,15.8-1.3,23.8-1.5
	c26.2-0.6,51-7.1,74.8-17.6c5.7-2.5,9.6-6.7,11.7-12.9c3.2-9.3,2.7-18.8,1.1-28.1c-1.9-10.8-5-21.4-8.1-31.9
	c-4.5-15.1-9.1-30.3-17.1-44c-9.2-15.7-18.7-31.4-28.4-46.9c-10.6-17.1-22.2-33.4-37.6-46.7c-8.7-7.5-18.6-12.9-29.7-14.7
	c-20.8-3.3-38.1,5.4-52.5,19.4C986.8,1207.1,979.5,1219.5,973.1,1233 M698.1,1425.3c15.8-1.8,31.5-4.6,46.5-10
	c7.5-2.8,14.7-6.8,18.8-13.9c8.2-14.1,13.3-29.5,15.4-45.7c1-8.3,1-16.7,1.1-25c0.1-8.9,0.7-17.9-0.5-26.7
	c-2.8-22.1-7.9-43.7-17.5-63.9c-9.8-20.7-21-40.2-42.5-51.6c-14.3-7.6-28.5-9.6-43.8-4.3c-16.2,5.6-28.4,16.8-38.1,30.2
	c-14,19.3-27.3,39.1-39.9,59.3c-16.7,26.9-26.9,56.6-33.5,87.4c-2.2,10.6-3.2,21.4,0.1,32.2c2.2,7,6.7,11.6,13.2,14.2
	c9.7,3.8,19.5,7.6,29.6,10.3c13.8,3.7,27.9,6.6,42.4,6.7c6.5,0,13.1,0.8,19.6,0.9C678.4,1425.6,687.9,1425.4,698.1,1425.3
	 M1277.4,970.2c1.6,0.4,3.2,1.1,4.8,1.1c6.4-0.1,12.9-0.1,19.2-0.8c18.8-2.3,34.4-11.2,46.4-25.7c5.8-7,10.2-15.2,14.6-23.3
	c5.6-10.3,8-21.5,8-33.4c0-11.7-1.6-23.1-5.3-34.1c-9-27.1-26.7-46-54.3-54.4c-14.5-4.4-29.2-2.9-43.7,1
	c-7.8,2.1-14.4,5.7-19.8,11.8c-2.2,2.4-1.9,4.1,0.5,5.8c2.6,1.9,5.2,3.7,7.7,5.8c15.3,12.7,26.3,28.2,31,47.9
	c3.2,13.5,3.7,27.1,1.7,40.7c-2.2,14.8-5.5,29.5-8.3,44.2C1278.9,961.1,1277.9,965.4,1277.4,970.2 M1558.2,557.7
	c3.7,1.2,7.4,2.5,11.1,3.6c11.3,3.3,22.9,5.3,34.6,2.9c13.4-2.7,25.6-8.4,33.6-19.6c12.7-17.6,15-36.5,3.7-56.1
	c-4.7-8.2-10.4-15.3-18.8-20.2c-10-5.7-20.4-9.2-31.9-10.2c-13.2-1.2-26.2-0.9-38.7,3.7c-9.2,3.4-16.2,9.5-21.3,17.9
	c-5.5,9-8.3,18.8-9.5,29.2c-1.2,11.2,0.6,21.8,8.5,30C1537.5,547.1,1547.1,553.1,1558.2,557.7 M487.5,934.2
	c3.5-62.3,29.3-111.6,85.6-144.1c-3.4-2-5.5-3.7-8-4.6c-14-5-28.5-5.6-42.9-3.6c-15,2-28.3,8.5-40.9,17.1
	c-24.2,16.5-37.9,39.7-43.2,67.6c-2.4,12.7-1.2,26.4-0.1,39.5c1.9,21.8,14.8,37.2,32.3,48.8c5.6,3.7,12.4,5.5,18.8,8.3
	C488.6,953,488,944,487.5,934.2 M411.3,1240.7c-11,8-18.4,18.3-20,32c-0.9,8.1-1.3,16.4-0.9,24.6c0.4,8.7,1.9,17.5,8.6,23.9
	c15.3,14.6,34.3,17.9,53.3,11.5c25.6-8.6,40.7-28,43.9-55.1c1.8-14.9-2.4-28.9-16.6-36.6C457.4,1229,434.6,1227.8,411.3,1240.7
	 M915.4,301.7c1.4,0.7,2.8,1.9,4.3,1.9c18.9,0.6,37.9,0.5,56.8,1.7c22,1.4,43.9,4,65.8,6.1c3.1,0.3,4.7-0.3,4.6-3.8
	c-0.1-6.8,0.3-13.7,0-20.5c-0.5-15.2-1.1-30.4-7.9-44.5c-3.4-7-8.3-12.2-15-15.7c-17.9-9.4-36.4-11-55.3-3
	c-9.6,4.1-19.6,7.7-26.2,16.6c-4.9,6.6-9.9,13.2-14.3,20.1C920.6,272.9,918.2,287,915.4,301.7 M1392.8,744.8
	c-2.7,3.1-5.4,6.3-7.8,9.1c23.9,19.6,39.1,44.8,52.2,73c1.4-1.1,2.1-2.7,3.2-4c12.7-15.9,25.3-31.9,38.3-47.5
	c3.9-4.6,3.6-8.4,1.4-13.2c-11-24.3-25.5-46-45.1-64.3c-2.4-2.2-3.8-2-5.7,0.3c-4.3,5.3-8.7,10.5-12.9,15.9
	C1408.5,724.2,1400.9,734.3,1392.8,744.8 M1471.1,641.4c-0.7,0.9-1.3,1.8-2,2.7c-9.8,13.4-19.6,26.7-29.5,40.1
	c-1.7,2.3-1.5,3.8,0.8,5.4c3.1,2.2,6,4.6,8.8,7.1c13,11.8,23.2,25.9,31.9,41.1c3.7,6.5,7.1,13.2,10.9,20.5c1.6-1.5,3.1-2.7,4.3-4.1
	c6.4-7.6,12.7-15.1,18.9-22.8c6.2-7.7,12.3-15.5,18.2-23.4c0.9-1.2,1.1-3.7,0.5-5.1c-1.1-2.7-2.9-5-4.5-7.5
	c-6.4-9.8-12.5-19.8-19.4-29.1c-6.1-8.1-13.1-15.5-19.8-23.2c-3.6-4.2-7.3-8.2-11.3-12.7c-1.5,2.2-2.6,3.9-3.7,5.6
	C1474,637.6,1472.7,639.2,1471.1,641.4 M1361.3,820.7c13.8,17.5,19.2,38.1,21.5,60.4c1.5-0.9,2.1-1.1,2.6-1.6
	c13.3-13,26.6-25.9,39.7-39c1-1,1.4-3.5,1-5.1c-4.9-19-15.5-35.2-27-50.6c-5.7-7.7-12.8-14.2-19.3-21.3c-1.7-1.8-3.3-1.5-5,0.2
	c-11.1,10.9-22.3,21.8-33.6,32.7c-2.2,2.1-2.3,3.5,0.2,5.7C1348.1,808,1354.4,814.2,1361.3,820.7 M1526.4,667.3
	c5,8.3,10.1,16.5,15.5,25.4c2.4-4.5,4.4-8.4,6.6-12.3c7.3-13,14.7-25.9,22.1-38.9c1.3-2.2,1.2-4-0.5-6c-8.9-10.1-17.1-21-26.8-30.4
	c-9.1-8.9-19.7-16.3-29.7-24.3c-5.3-4.3-5.5-4.1-8.7,1.9c-5.7,10.7-11.3,21.5-17.2,32c-4.1,7.3-3.9,6.7,2,12.8
	C1502.1,640.4,1514,653.7,1526.4,667.3 M488,1182.7c2.8-0.9,6.2-0.6,6.2-5.2c0.1-12,0.5-24,0.8-35.9c0-1.8-0.1-3.7,0.3-5.4
	c0.8-3.5-0.5-4.1-3.7-3.8c-28,2.6-54.7-1.1-78.8-17c-0.3-0.2-0.8,0-1.7,0c-0.8,15.8-1.2,31.5-2.6,47.1c-0.6,7.2,2.4,10.5,8.4,12.6
	c0.1,0,0.3,0.1,0.4,0.2C440,1183.9,463.2,1187.3,488,1182.7 M452.6,1067c-13-4.3-25.5-9.4-36.9-18.3c-0.5,7.2-1,13.6-1.4,20.1
	c-0.7,10.3-1.6,20.5-2,30.8c-0.1,1.5,1.3,3.7,2.6,4.5c23.8,13.9,49.6,18.4,76.8,15.4c3-0.3,4.3-1.7,4.3-4.9
	c0.1-12.4,0.5-24.8,0.8-37.2c0-2,0.2-4,0.3-6.4C481.8,1073.5,467.4,1070.8,452.6,1067 M1012.1,342.4c2.2,0.1,4.5,0.2,6.7,0.3
	c7.2,0.4,14.4,0.9,21.7,1.4c2.8,0.2,4-0.8,4.1-3.8c0.1-4.7,0.5-9.4,0.8-14.2c0.2-2.6-0.7-3.7-3.5-4c-12.9-1.3-25.7-3-38.6-4.1
	c-15.4-1.3-30.8-2.4-46.2-3.2c-13.2-0.7-26.5-0.8-39.7-1.3c-3.1-0.1-4.3,1.1-4.5,4.1c-0.4,5.7-1,11.4-1.6,17
	c-0.3,2.7,0.5,4.2,3.5,4.4c14.9,0.8,29.7,1.9,44.6,2.4C976.7,342,994,342.1,1012.1,342.4 M492.5,1023.7
	c-26.2-3.8-49.2-15.4-71.5-29.4c-0.4,0.9-0.7,1.4-0.7,1.9c-1.3,13.2-2.5,26.3-3.7,39.5c-0.1,0.7,0.8,1.8,1.5,2.2
	c13.8,8.7,28.4,15.3,44.4,18.9c10.3,2.3,20.6,3.4,31.1,2.1c2.9-0.4,3.8-1.6,4-4.6c0.4-8.8,1.2-17.5,2.1-26.2c0.3-2.7-0.2-4-3.1-3.9
	C495.5,1024.1,494.3,1023.9,492.5,1023.7 M460.7,963.3c-12.4-8.8-22-20-29.6-34.5c-0.7,3-1.2,4.5-1.5,6.2
	c-2.3,13.6-4.6,27.2-6.8,40.8c-1.2,7.5-1.2,7.6,5.6,10.9c13.1,6.2,26,12.8,39.4,18.2c8.6,3.4,17.9,5.2,26.9,7.3
	c1.9,0.5,5.2,1.7,6-1.7c1.1-5,2.2-9.9-0.6-15c-2.5-4.6-4-9.8-5.5-14.9c-1-3.6-3-4.8-6.4-6C479.1,971.3,470.2,967.3,460.7,963.3
	 M407.9,1198.7c0.3,10,0.7,20.1,1,30.3c30.3-13.2,58.4-10.8,85,7.8c0-14.2,0-28,0-42.4c-30,6.4-58.3,2.5-86-11.6
	C407.9,1188,407.9,1193,407.9,1198.7 M1546.1,563.9c-7-4.8-14-9.5-21-14.3c-3.8,6-7.5,11.9-11.1,17.8c-1.4,2.3,0.4,3,2.2,4
	c18.5,9.7,34.2,22.9,47.8,38.7c4.3,5,8.7,10,13.5,15.5c1.2-3.3,2.1-6,3-8.7c4.4-12,8.8-24.1,13.3-36.1c1.1-3.1,0.7-4.6-3.1-4.7
	C1575.2,575.5,1560.7,570.5,1546.1,563.9 M1660.1,459.4c-3.3,5-6.6,10-10.1,14.8c-1.6,2.3-1.4,4,0,6.4c6.6,11.2,11.4,23,9.9,36.5
	c-0.1,1.2,0.1,2.4,0.2,4c1-0.5,1.7-0.7,2.2-1.1c1-0.8,2-1.5,2.8-2.5c9.9-10.7,18.4-22.4,24.3-35.8c3.7-8.5,7.1-16.8,5.1-26.6
	c-1.7-8.1-6.3-12-14.4-10.1C1671.8,447,1665.3,451.9,1660.1,459.4 M1608.1,401.5c-2.7-3.7-6.5-4.8-11-4.8c-7,0.1-11.7,4-15.7,9.1
	c-9.1,11.8-13.8,25.6-18,39.7c-0.1,0.3,0.2,0.7,0.3,1.3c2.5-0.2,5-0.6,7.5-0.5c8.5,0.2,17,0.4,25.4,0.9c3,0.2,5.1-0.6,6.1-3.6
	c2.5-7.4,5.4-14.6,7.6-22.1C1612.3,414.8,1611.9,408.2,1608.1,401.5 M1050.9,1166.1c4,1.2,7.9,2.4,12.9,3.9c1.4-9.4,2.8-18.6,4-27.8
	c0.3-2.8-1.8-2.7-3.7-2.1c-3.6,1.1-7.1,2.3-10.7,3.4c-10.5,3.3-20.9,6.9-31.5,9.9c-10.8,3.1-21.9,5.5-32.8,8.2
	c-2.2,0.6-4.1,1.2-4.2,4.2c-0.2,4.4-0.9,8.8-1.3,13.3c-0.6,5.5-1.2,11-1.8,16.5C1000.6,1175.7,1021.7,1162.6,1050.9,1166.1
	 M409.6,1348.1c1.6-4.7-0.1-7-4.6-9.2c-4.7-2.2-9-5.7-12.7-9.3c-3.6-3.5-6.3-7.8-9.5-12c-3.9,16.3-5.2,33-4.8,49.7
	c0.2,8.2,3.6,15.8,9.8,21.6c3.9,3.7,8.5,3.9,11.7-0.2c2.8-3.5,5.8-7.5,6.6-11.8C408,1367.8,408.5,1358.3,409.6,1348.1 M1621.1,454.5
	c7,4.3,13.9,8.6,21.2,13.1c0.5-0.7,1.2-1.7,1.7-2.8c3.2-7,6.8-13.8,9.4-21c1.8-4.9,2.7-10.3,3-15.5c0.3-5.6-1.4-11.1-7.1-13.7
	c-6-2.7-12-1.5-16.9,2.7c-7.8,6.6-13.7,14.7-17.6,24.1c-3.7,8.7-3.5,8.8,4.9,12.4C1620,453.9,1620.3,454.1,1621.1,454.5 M1498.3,460
	c4.7,8.2,10.5,15.2,18.8,20.8c1-1.6,1.8-2.7,2.3-3.9c3.4-7.8,9.2-13.5,15.8-18.6c5.3-4.1,5.4-4.1,2.5-10.4
	c-3.9-8.4-9.3-15.3-19-17.2c-11.7-2.3-20.9,2.6-23.2,12.4C1494.1,448.7,1494.8,454.3,1498.3,460 M505.6,1290.4
	c-3.3,12.3-9.7,22.9-18.2,32c-3.3,3.6-4,6.5-2.3,10.9c3.4,9,9.6,14.6,19,16.3c4.5,0.8,9.2,0.4,11.9-4.1c4-6.4,6.8-13.3,5.7-21
	c-1.8-11.8-5.4-23.1-12.8-32.8C508.2,1290.9,506.9,1290.5,505.6,1290.4 M696.6,1152c-7.7-2.7-15.5-5.4-24.2-8.5
	c-0.7,10.2-1.3,19.8-2,30.3c25.6-9.8,47.2-1.7,68.5,13.1c0.5-7.1,0.9-13,1.5-19c0.3-3.1-1.1-4.3-4.1-5.1
	C723.3,1159.5,710.3,1155.8,696.6,1152 M479.7,1389.2c3.1-18.6-1.3-36-7.4-53.3c-6,2.8-11.3,5.5-16.7,7.6c-2.5,1-3.5,2.3-3.3,4.9
	c0.6,12.1,2.9,23.8,7.3,35.1c2.3,6,7,9.6,13.7,10C476.2,1393.8,478.4,1392.8,479.7,1389.2 M425.4,1345.6c-4.9-0.9-5-0.9-5,4.1
	c0,11.2-0.1,22.3,0.1,33.5c0.1,3.3,0.7,6.7,1.7,9.8c2,6.8,5.4,9.6,10.7,9.4c4.6-0.2,7-2.7,8.6-9.8c3.2-14.5,2.3-29.1,0.8-43.6
	c-0.1-0.9-1.7-2.2-2.7-2.3C435.1,1346.1,430.6,1346,425.4,1345.6 M925.3,752.7c5.1,0.3,10.3,0.7,15.4,0.9c6.2,0.2,7.7-1.4,8.1-7.7
	c0.2-2.4-0.6-3.7-3.2-3.9c-3.6-0.3-7.2-0.8-10.8-1.2c-16.2-1.9-32.3-3.9-48.5-5.5c-9-0.9-9.1-0.6-9.8,8.7c0,0.5,0,1.1,0,1.9
	c1.9,0.4,3.6,0.9,5.3,1.1C896.2,748.8,910.4,750.7,925.3,752.7 M906.8,764.4c5.8,0,11.7,0,17.5,0c5.6,0,11.2,0,16.9,0
	c0-0.4,0-0.9,0-1.3c-0.5-0.1-1.1-0.3-1.6-0.3c-17.5-2.3-35-4.5-52.4-6.8c-2.9-0.4-5.6-1.7-8.5-2.1c-1.2-0.1-2.6,1.1-4,1.8
	c0.9,1.3,1.5,2.8,2.6,3.9c0.7,0.7,2.1,0.7,3.2,0.9C889,761.8,897.5,763.1,906.8,764.4z"/>
<path class="st1" d="M375.2,768.1c-1.2,8.2-1.9,16.1-3.6,23.8c-3.6,17-7.1,34.1-11.7,50.9c-4.8,17.3-10.2,34.6-16.8,51.3
	c-5.2,13.2-12,25.8-19,38.1c-6.5,11.5-15.2,21.4-26.6,28.5c-12.6,7.8-30.7,7.8-43.1-0.7c-17.1-11.8-26.7-28.9-35-47.2
	c-3-6.6-6-13.3-8.3-20.2c-4-11.9-7.8-23.9-10.9-36c-3.3-13-5.9-26.1-8.5-39.3c-2.2-11.3-4.2-22.7-5.8-34.2
	c-1.2-8.3-1.8-16.6-2.6-24.9c-1.1-11.5-2.2-23-3.2-34.6c-0.4-5.1-0.9-10.2-0.9-15.3c-0.3-33.4-0.7-66.9-0.8-100.3
	c0-11.1,0.9-22.1,1.6-33.2c0.9-13.3,1.9-26.6,3.4-39.8c1.6-14,3.6-27.9,5.8-41.8c3.1-19.3,6-38.7,10.2-57.8
	c3.4-15.8,8.3-31.4,12.9-46.9c5.2-17.7,12.1-34.7,20.5-51.1c6.6-12.9,14.5-25,25.3-34.9c9.5-8.8,20.6-14,33.9-12.8
	c9.5,0.9,17.6,5,24.7,11.4c14.9,13.4,23.8,30.7,31.4,48.7c8,18.8,13.7,38.4,18.3,58.2c3.5,15.2,6.2,30.6,8.6,46.1
	c2.2,14.6,3.7,29.3,5.1,44c0.8,9,0.9,18,1.3,27c16.7,3.5,33.6,7,50.5,10.7c13.7,3,27.2,6.2,40.9,9.4c5.7,1.3,11.4,2.5,17,4.1
	c1.6,0.5,3.7,2,4.1,3.5c0.6,2.3,1,5.2-2.1,6.8c-7.6,3.9-15.2,7.9-22.8,11.8c-26.4,13.4-52.9,26.6-79.2,40.1
	c-1.4,0.7-2.4,3.1-2.7,4.9c-0.4,2.9-0.1,5.9-0.1,8.8c-0.3,12.5-0.3,25-0.9,37.5c-0.6,12.9-1.4,25.9-2.5,38.7
	c-1.1,13.5-2.6,27-4.2,40.4C378.3,750.5,376.6,759.1,375.2,768.1 M387.5,600.5c28.8-14.6,57.6-29.3,87.1-44.3
	c-1.9-0.5-3-0.9-4.2-1.2c-14.5-3.4-29.1-6.7-43.6-10.1c-14-3.3-28-6.6-41.9-10c-5.8-1.4-9.5-4.1-10-11c-1-12.2-3.1-24.3-4.7-36.5
	c-4.3-33.2-10.1-66.2-19.5-98.4c-6.6-22.4-14.2-44.5-27.5-63.9c-4.8-7-10.7-13.7-17.4-19c-11-8.9-22.7-8.6-34.4-0.6
	c-2.5,1.7-5.2,3.5-7.1,5.8c-6.4,8.1-13.3,15.9-18.5,24.7c-14.6,24.6-23.2,51.6-30.4,79c-17.9,68.3-25.3,138-26.5,208.3
	c-0.6,31.6,0.7,63.3,2.2,95c1.9,39.9,7.3,79.4,16,118.5c6.2,27.7,13.9,54.9,26.9,80.3c5.5,10.7,11.9,20.9,20.9,29.1
	c4.8,4.4,10.2,7.8,16.7,9.1c11,2.2,20.1-2.2,27.2-9.6c7.1-7.4,13.7-15.5,19.1-24.2c14.1-23,22.6-48.5,29.7-74.4
	c17.1-62.6,24.7-126.7,27.7-191.3c0.6-13.4,1.2-26.7,1.6-40.1C377.1,608.6,379.6,603.1,387.5,600.5z"/>
<path class="st2" d="M832.3,1179c7.4-0.1,15.2-0.2,23.2-0.1C848.1,1179,840.3,1179.1,832.3,1179z"/>
<path class="st3" d="M575.2,1070.3c-16.1-13.7-29.9-29.2-42.9-45.4c-16.6-20.5-27.1-43.9-31.2-69.9c-2.4-15-1.2-30,1.4-44.9
	c3.4-19.5,8.3-38.6,19.1-55.4c13.6-21.1,30.8-38.9,52.5-51.9c11.2-6.7,22.4-13.6,34.3-19.1c24.1-11.1,49.9-16.4,76.2-19.6
	c20.6-2.5,41.2-4.5,62-5c13-0.3,26-2.4,39-3.7c0.6-0.1,1.1-0.1,1.7-0.1c23.8-0.6,47.6-1.2,71.5-1.7c5.2-0.1,5.2,0,5,5.4
	c-0.1,5,1.3,7.8,6.7,9.2c8.3,2.2,16.8,4.4,25.3,5.2c12.2,1.2,24.5,1.4,36.7,1.8c4.6,0.1,9.2-0.3,13.7-0.9c3.7-0.4,6.8-2.3,7.5-6.2
	c1.6-7.9,5.6-10.5,14.2-10.8c17.6-0.7,35,0.8,52.5,2c9,0.6,18.2,0.3,27.1,1.6c14.2,2.1,28.2,5.1,42.3,7.8c18.6,3.6,37.3,7,55.7,11.2
	c21.9,5,42.3,13.5,61.8,25c14.5,8.6,28.2,17.9,41.2,28.6c12.7,10.5,20.5,24,25.1,39.7c3.5,11.9,2.6,23.9,1.9,36.1
	c-1.4,25-9,48.4-17,71.8c-5.7,16.6-15.8,30.7-26.7,44.2c-14.7,18.1-32.1,33.3-51,46.8c-8.1,5.8-16.8,11.1-25.8,15.5
	c-21.9,10.7-43.9,21.5-66.3,31c-11.9,5-24.8,7.4-37.2,11.2c-17.6,5.4-35,11.7-52.8,16.2c-19.3,4.9-38.9,8.7-58.5,12.2
	c-13.1,2.3-26.5,3.6-39.8,4.9c-10.1,1-20.3,1.6-30.4,1.9c-12.8,0.3-25.6,0.6-38.4-0.1c-12.6-0.7-25.3-2.1-37.8-4.2
	c-21.8-3.7-43.7-7.6-65.3-12.4c-26-5.7-50.5-15.8-74.7-26.7c-26.5-12-50.6-27.7-73-46C579.2,1073.8,577.4,1072.2,575.2,1070.3
	 M922.3,837.1c-3.8,16.7-7.7,33.4-11.5,50.1c-7,31.4-14.9,62.7-19.5,94.6c-2.7,18.1-5.8,36.1-5.3,54.5c0.2,8.3,4.3,14,12.2,16.5
	c2,0.6,4,1.3,6.1,1.5c20.2,2,40.5,4.3,60.7,5.6c28,1.9,56,3.3,84,4.5c25.9,1.1,51.8,1.4,77.7-1.8c11.7-1.4,18.5-7.4,21.5-18.4
	c0.4-1.3,0.9-2.7,1.1-4c3-19.7,6.3-39.3,8.7-59.1c3.9-32.2,7.6-64.5,10.6-96.8c1.5-15.7,1-31.5-1.5-47.2
	c-1.1-7.4-4.9-12.9-12.6-14.3c-11-2-21.9-4.5-33-5.1c-20.3-1-40.7-1-61-1c-19.4,0-38.8,0.3-58.2,0.6c-5.1,0.1-10.3,1-15.4,1.2
	c-9.2,0.5-18.4,1-27.6,1.1c-8.4,0.1-16.7-0.4-25.1-0.5c-3.7-0.1-6.5,1.6-7.7,5.2C925.1,828.2,923.8,832.3,922.3,837.1 M731.8,904.3
	c18,0,36-0.4,54,0.2c10.4,0.4,18.1-8.6,19.9-16.3c2.5-10.6,1.7-21.4,0.6-32c-0.9-9.1-5.9-14.2-14.9-16.3c-4-0.9-8.2-1.3-12.4-1.7
	c-8.2-0.7-16.4-1.3-24.5-2c-16.5-1.3-33-3.2-49.5-3.7c-17.4-0.5-34.8,0.3-52.2,0.7c-8.2,0.2-16.4,0.8-24.5,1.8
	c-6.2,0.7-12.2,2.6-14.9,9.2c-5,12.5-6,25.7-5.9,39c0.1,9.7,3.7,14.3,13.2,15.2c17.6,1.7,35.2,2.5,52.9,3.4
	c10.7,0.6,21.4,0.6,32.2,1C714.1,903.1,722.5,903.8,731.8,904.3z"/>
<path class="st3" d="M855.1,347.4c19,1.1,37.6,2.2,56.3,3.3c11.4,0.6,22.8,1.4,34.2,1.8c22.1,0.7,44.3,1,66.5,1.8
	c16,0.6,32,1.7,48,2.4c19.8,0.9,39.5,1.7,59.3,2.5c20.5,0.9,40.9,1.5,61.4,2.6c19.9,1.1,39.7,2.9,59.6,4.1
	c17.2,1,33.7,4.5,48.8,13.1c19.3,10.9,31.9,26.6,35.2,49.1c1.9,13.2,4.8,26.3,6.8,39.5c2.1,14.1,3,28.2,1.7,42.5
	c-1.3,13.8-1.6,27.8-2.9,41.7c-1.6,17.3-3.4,34.6-5.9,51.8c-2.5,17.5-5.2,35-9.2,52.2c-3,13.1-7,26.3-12.7,38.4
	c-7.6,16-20.3,27.5-37.7,33.5c-14.2,4.9-28.2,10.6-43.2,13c-10.4,1.7-20.8,3.7-31.3,4.5c-10.7,0.8-21.4,0.5-32.1,0.1
	c-15.3-0.7-30.5-2-45.8-3c-9.3-0.6-18.6-1.2-27.9-1.9c-14.4-1-28.9-2.1-43.3-3.2c-8.6-0.6-17.2-1.2-25.8-1.8
	c-10.4-0.8-20.8-1.8-31.2-2.7c-8.9-0.8-17.8-1.4-26.6-2.3c-11.1-1.1-22.1-2.6-33.2-3.8c-14.5-1.6-29.1-3.1-43.6-4.7
	c-9.3-1-18.5-2.2-27.8-3.2c-12.4-1.4-25-2.4-37.3-4.3c-20.9-3.3-41.8-7-62.6-10.8c-15.3-2.8-30.6-6.4-45.9-9
	c-9.6-1.6-19.4-2.1-29.1-2.8c-11.9-0.9-23-4.6-33.5-10c-12.1-6.2-24.9-11.7-35.8-19.7c-10.1-7.5-18.3-17.8-26.9-27.2
	c-5.2-5.7-5.6-13.6-6.6-20.9c-1.8-12.8-3.5-25.7-4.1-38.6c-0.4-8.4,0.9-16.9,1.6-25.4c0.7-9.6,1.4-19.1,2.4-28.7
	c1.6-16.6,2.6-33.3,5.2-49.8c3.2-20.1,7.4-40,12.2-59.8c3.1-12.7,9.6-24.1,18.7-33.7c6-6.4,12-12.8,18.8-18.4
	c10.1-8.4,22-13,35.3-13.7c11.3-0.7,22.5-1.6,33.8-1.6c32.5,0,64.9,0.3,97.4,0.8c16.6,0.2,33.1,1.1,49.7,1.7
	C848.6,346.7,851.7,347.1,855.1,347.4 M917.5,406.1c-38.8-0.6-77.5-0.9-116.3-1.8c-14.7-0.4-29.4-2.4-44.1-3.3
	c-21.5-1.3-43.1-2.6-64.6-3c-6.9-0.2-14,1.9-20.9,3.7c-5.9,1.5-10.8,5.4-12.8,11.2c-5.5,15.9-11.6,31.8-15.2,48.2
	c-4,18.2-5.6,36.8-8,55.3c-2.7,21.1-5.2,42.3-2.3,63.6c2.1,15.8,8.7,29.2,23.3,37.6c14.9,8.6,30.6,14.8,47.6,17.4
	c16.8,2.6,33.5,5.8,50.3,7.9c14.5,1.8,29.2,1.9,43.7,3.8c26.7,3.7,53.5,4.4,80.4,5.7c9.2,0.4,18.3,1.1,27.5,1.9
	c14,1.2,28,2.5,42,3.9c14.3,1.4,28.5,3.1,42.7,4.6c12.3,1.3,24.6,2.6,37,3.8c11.4,1,22.8,1.7,34.1,2.8c21,2,42.1,4.1,63.1,6.4
	c20.7,2.3,41.4,5.1,62.2,7.1c14.1,1.4,28.2,1,41.8-3.6c18.8-6.3,29.4-20.5,33-38.9c4-20.4,6-41.3,8.5-62c2.3-19.3,4.7-38.7,6-58.1
	c1.1-15.8,1.4-31.7,0.5-47.5c-0.6-10.7-5.9-20.1-13.4-28.2c-5.6-5.9-12.7-9.4-20.1-11.5c-16.1-4.5-32.3-9.1-48.8-11.5
	c-25-3.6-50.3-5.5-75.5-7.9c-15.5-1.4-31.1-2.5-46.6-3.3c-20.2-1.1-40.3-1.9-60.5-2.6c-14.1-0.5-28.1-0.6-42.2-0.8
	C952.6,406.6,935.4,406.3,917.5,406.1z"/>
<path class="st3" d="M973.2,1232.7c6.3-13.2,13.6-25.6,23.8-35.6c14.4-14.1,31.7-22.7,52.5-19.4c11.1,1.7,21,7.1,29.7,14.7
	c15.4,13.3,27,29.6,37.6,46.7c9.6,15.5,19.1,31.1,28.4,46.9c8,13.7,12.6,28.9,17.1,44c3.1,10.5,6.1,21.2,8.1,31.9
	c1.7,9.3,2.1,18.8-1.1,28.1c-2.1,6.1-6,10.3-11.7,12.9c-23.8,10.5-48.6,17-74.8,17.6c-7.9,0.2-15.8,1.1-23.8,1.5
	c-16.3,0.8-32.3-1.1-48.1-4.8c-16.7-3.9-33.5-7.6-49.8-12.7c-9.5-2.9-17.2-9.7-19.8-19.9c-1.2-4.6-1-9.7-0.6-14.5
	c3-31,7.5-61.7,17.3-91.4c2.1-6.3,2.9-13.1,5-19.4C966,1250.3,969.7,1241.7,973.2,1232.7z"/>
<path class="st3" d="M697.7,1425.3c-9.8,0.1-19.3,0.3-28.7,0.1c-6.5-0.1-13.1-0.9-19.6-0.9c-14.5,0-28.6-2.9-42.4-6.7
	c-10.1-2.7-19.8-6.6-29.6-10.3c-6.5-2.5-11-7.2-13.2-14.2c-3.3-10.8-2.4-21.6-0.1-32.2c6.5-30.9,16.7-60.5,33.5-87.4
	c12.6-20.2,25.9-40,39.9-59.3c9.7-13.4,21.9-24.6,38.1-30.2c15.3-5.3,29.6-3.3,43.8,4.3c21.5,11.4,32.7,30.9,42.5,51.6
	c9.6,20.2,14.7,41.8,17.5,63.9c1.1,8.8,0.6,17.8,0.5,26.7c-0.1,8.3,0,16.8-1.1,25c-2,16.2-7.2,31.6-15.4,45.7
	c-4.1,7.1-11.3,11.2-18.8,13.9C729.6,1420.8,713.9,1423.5,697.7,1425.3z"/>
<path class="st4" d="M1277.2,969.9c0.7-4.6,1.7-8.9,2.6-13.2c2.9-14.7,6.1-29.4,8.3-44.2c2-13.6,1.5-27.2-1.7-40.7
	c-4.7-19.7-15.6-35.2-31-47.9c-2.5-2-5.1-3.8-7.7-5.8c-2.4-1.8-2.6-3.4-0.5-5.8c5.4-6.1,12-9.7,19.8-11.8c14.5-3.9,29.2-5.4,43.7-1
	c27.6,8.4,45.3,27.3,54.3,54.4c3.7,11,5.3,22.4,5.3,34.1c0,11.9-2.4,23-8,33.4c-4.4,8.1-8.8,16.3-14.6,23.3
	c-12,14.4-27.6,23.3-46.4,25.7c-6.3,0.8-12.8,0.7-19.2,0.8C1280.6,971.3,1279,970.6,1277.2,969.9z"/>
<path class="st4" d="M1557.9,557.6c-10.8-4.5-20.5-10.5-28.3-18.7c-8-8.3-9.7-18.8-8.5-30c1.1-10.4,3.9-20.2,9.5-29.2
	c5.1-8.4,12.1-14.5,21.3-17.9c12.6-4.6,25.5-4.8,38.7-3.7c11.5,1,22,4.5,31.9,10.2c8.5,4.9,14.1,12,18.8,20.2
	c11.3,19.6,9,38.5-3.7,56.1c-8.1,11.1-20.3,16.9-33.6,19.6c-11.8,2.4-23.3,0.4-34.6-2.9C1565.6,560.2,1561.9,558.9,1557.9,557.6z"/>
<path class="st4" d="M487.5,934.6c0.5,9.4,1,18.4,1.6,28.6c-6.4-2.8-13.2-4.6-18.8-8.3c-17.6-11.6-30.4-27-32.3-48.8
	c-1.1-13.1-2.4-26.8,0.1-39.5c5.3-27.8,19.1-51.1,43.2-67.6c12.6-8.6,25.9-15.1,40.9-17.1c14.4-2,29-1.4,42.9,3.6
	c2.5,0.9,4.6,2.6,8,4.6C516.8,822.6,491,871.9,487.5,934.6z"/>
<path class="st4" d="M411.6,1240.5c23-12.8,45.8-11.6,68.1,0.5c14.2,7.7,18.4,21.7,16.6,36.6c-3.2,27-18.3,46.5-43.9,55.1
	c-19,6.4-38,3.1-53.3-11.5c-6.7-6.3-8.1-15.2-8.6-23.9c-0.4-8.2,0-16.5,0.9-24.6C392.9,1259,400.3,1248.6,411.6,1240.5z"/>
<path class="st5" d="M915.4,301.3c2.8-14.3,5.2-28.5,12.9-40.8c4.4-7,9.4-13.5,14.3-20.1c6.6-8.8,16.6-12.5,26.2-16.6
	c18.8-8,37.3-6.4,55.3,3c6.7,3.5,11.7,8.7,15,15.7c6.8,14.2,7.4,29.3,7.9,44.5c0.2,6.8-0.2,13.7,0,20.5c0.1,3.6-1.5,4.1-4.6,3.8
	c-21.9-2.2-43.8-4.7-65.8-6.1c-18.9-1.2-37.9-1.1-56.8-1.7C918.2,303.6,916.8,302.4,915.4,301.3 M1027.1,257.1
	c-3.5-4.6-8.4-7.1-13.9-7.6c-4.9-0.4-10,0.4-14.9,0.4c-2,0-4.3,0-5.9-0.9c-10.7-5.9-21.7-5.4-31.5,0.6
	c-10.2,6.2-15.1,16.6-15.1,28.7c0,5.7,2.8,10.2,8.1,12.7c1.5,0.7,3.5,0,5.3,0c-0.4-1.6-0.5-3.4-1.1-4.9c-1-2.7-3.3-5.2-3.4-7.8
	c-0.2-8.6,3.8-15.6,10.6-20.7c4.6-3.5,14.9-3.7,18.2-0.9c-2.3,3.5-5,6.7-6.7,10.5c-2.7,5.9-1.5,12.7,2.2,15.5c7.4,5.8,17.9,3,20.8-6
	c1-3,1.1-6.3,1.2-9.5c0.2-8.3,0.3-8.5,8.7-7.8c0.6,0,1.1,0.1,1.7,0.2c6.1,1.1,8.6,4,9,10.2c0.4,6.8-2.9,11.7-7.8,15.8
	c-3.4,2.8-4.1,6.2-2.1,8.7c2,2.6,6.1,2.8,9.3,0C1030.5,285.2,1035,270.8,1027.1,257.1z"/>
<path class="st3" d="M1393,744.6c7.9-10.3,15.5-20.4,23.3-30.4c4.2-5.4,8.7-10.6,12.9-15.9c1.9-2.3,3.3-2.5,5.7-0.3
	c19.6,18.2,34.2,39.9,45.1,64.3c2.2,4.8,2.4,8.6-1.4,13.2c-13.1,15.6-25.6,31.6-38.3,47.5c-1,1.3-1.7,2.9-3.2,4
	c-13.1-28.2-28.4-53.4-52.2-73C1387.4,751.1,1390.1,747.9,1393,744.6z"/>
<path class="st3" d="M1471.3,641.2c1.4-1.9,2.7-3.6,3.9-5.3c1.2-1.7,2.3-3.4,3.7-5.6c4,4.5,7.7,8.6,11.3,12.7
	c6.7,7.7,13.7,15,19.8,23.2c7,9.3,13,19.4,19.4,29.1c1.6,2.4,3.4,4.8,4.5,7.5c0.6,1.4,0.4,3.9-0.5,5.1c-5.9,7.9-12,15.7-18.2,23.4
	c-6.2,7.7-12.6,15.3-18.9,22.8c-1.2,1.4-2.7,2.6-4.3,4.1c-3.9-7.2-7.2-13.9-10.9-20.5c-8.7-15.2-18.9-29.3-31.9-41.1
	c-2.8-2.5-5.7-4.9-8.8-7.1c-2.3-1.7-2.5-3.1-0.8-5.4c9.9-13.3,19.7-26.7,29.5-40.1C1469.8,643.2,1470.4,642.3,1471.3,641.2z"/>
<path class="st3" d="M1361.1,820.5c-6.7-6.3-13.1-12.5-19.7-18.4c-2.5-2.2-2.4-3.6-0.2-5.7c11.2-10.9,22.4-21.8,33.6-32.7
	c1.7-1.7,3.3-2,5-0.2c6.5,7,13.6,13.6,19.3,21.3c11.5,15.5,22.1,31.6,27,50.6c0.4,1.6,0.1,4.1-1,5.1c-13.1,13.1-26.4,26.1-39.7,39
	c-0.5,0.4-1.1,0.7-2.6,1.6C1380.5,858.9,1375.1,838.2,1361.1,820.5z"/>
<path class="st6" d="M1526.3,667c-12.3-13.3-24.2-26.6-36.6-39.4c-5.9-6-6.1-5.5-2-12.8c5.9-10.6,11.5-21.3,17.2-32
	c3.2-6,3.4-6.2,8.7-1.9c10,8,20.6,15.4,29.7,24.3c9.6,9.4,17.8,20.2,26.8,30.4c1.8,2,1.8,3.8,0.5,6c-7.4,12.9-14.8,25.9-22.1,38.9
	c-2.2,3.8-4.2,7.8-6.6,12.3C1536.5,683.8,1531.5,675.5,1526.3,667z"/>
<path class="st6" d="M487.7,1182.8c-24.5,4.6-47.7,1.1-70.4-7.6c-0.1-0.1-0.3-0.1-0.4-0.2c-6-2.1-9.1-5.4-8.4-12.6
	c1.4-15.6,1.8-31.3,2.6-47.1c1,0,1.4-0.2,1.7,0c24,15.9,50.7,19.7,78.8,17c3.2-0.3,4.5,0.4,3.7,3.8c-0.4,1.7-0.3,3.6-0.3,5.4
	c-0.3,12-0.7,23.9-0.8,35.9C494.2,1182.1,490.8,1181.8,487.7,1182.8z"/>
<path class="st3" d="M452.9,1067.1c14.6,3.6,28.9,6.3,44.1,3.9c-0.1,2.4-0.3,4.4-0.3,6.4c-0.3,12.4-0.7,24.8-0.8,37.2
	c0,3.2-1.3,4.5-4.3,4.9c-27.2,3-53-1.5-76.8-15.4c-1.3-0.8-2.7-3-2.6-4.5c0.5-10.3,1.3-20.5,2-30.8c0.5-6.5,0.9-12.9,1.4-20.1
	C427,1057.6,439.6,1062.7,452.9,1067.1z"/>
<path class="st7" d="M1011.7,342.4c-17.7-0.3-35-0.4-52.3-1c-14.9-0.5-29.7-1.6-44.6-2.4c-3-0.2-3.8-1.7-3.5-4.4
	c0.6-5.7,1.1-11.3,1.6-17c0.2-2.9,1.4-4.2,4.5-4.1c13.2,0.5,26.5,0.6,39.7,1.3c15.4,0.8,30.8,1.9,46.2,3.2
	c12.9,1.1,25.7,2.8,38.6,4.1c2.7,0.3,3.6,1.5,3.5,4c-0.3,4.7-0.7,9.4-0.8,14.2c0,3-1.3,4-4.1,3.8c-7.2-0.5-14.4-0.9-21.7-1.4
	C1016.5,342.6,1014.3,342.5,1011.7,342.4z"/>
<path class="st6" d="M492.9,1023.8c1.5,0.2,2.6,0.3,3.7,0.3c2.9-0.1,3.4,1.2,3.1,3.9c-0.9,8.7-1.6,17.5-2.1,26.2
	c-0.1,3-1.1,4.2-4,4.6c-10.5,1.4-20.8,0.2-31.1-2.1c-16-3.5-30.6-10.2-44.4-18.9c-0.7-0.4-1.5-1.5-1.5-2.2
	c1.1-13.2,2.4-26.3,3.7-39.5c0-0.5,0.4-1,0.7-1.9C443.3,1008.3,466.3,1019.9,492.9,1023.8z"/>
<path class="st3" d="M461,963.5c9.2,3.8,18.1,7.8,27.3,11c3.4,1.2,5.4,2.5,6.4,6c1.4,5.1,3,10.3,5.5,14.9c2.8,5.1,1.6,10,0.6,15
	c-0.7,3.4-4,2.2-6,1.7c-9-2.2-18.3-3.9-26.9-7.3c-13.4-5.4-26.4-12-39.4-18.2c-6.8-3.2-6.8-3.4-5.6-10.9c2.2-13.6,4.5-27.2,6.8-40.8
	c0.3-1.6,0.7-3.2,1.5-6.2C438.7,943.3,448.4,954.5,461,963.5z"/>
<path class="st3" d="M407.9,1198.3c0-5.4,0-10.3,0-15.5c27.7,14.1,56,18,86,11.6c0,14.4,0,28.2,0,42.4c-26.7-18.6-54.7-20.9-85-7.8
	C408.5,1218.8,408.2,1208.8,407.9,1198.3z"/>
<path class="st7" d="M1546.4,564c14.3,6.5,28.8,11.4,44.4,11.9c3.8,0.1,4.2,1.6,3.1,4.7c-4.5,12-8.9,24.1-13.3,36.1
	c-1,2.7-1.9,5.4-3,8.7c-4.8-5.5-9.2-10.5-13.5-15.5c-13.5-15.9-29.3-29-47.8-38.7c-1.8-0.9-3.5-1.7-2.2-4
	c3.6-5.9,7.3-11.8,11.1-17.8C1532.2,554.4,1539.2,559.1,1546.4,564z"/>
<path class="st8" d="M1660.3,459.1c5-7.3,11.5-12.2,19.9-14.1c8.1-1.9,12.7,2,14.4,10.1c2,9.8-1.4,18.1-5.1,26.6
	c-5.9,13.4-14.4,25.1-24.3,35.8c-0.8,0.9-1.8,1.7-2.8,2.5c-0.5,0.4-1.2,0.6-2.2,1.1c-0.1-1.6-0.3-2.8-0.2-4
	c1.5-13.5-3.3-25.2-9.9-36.5c-1.4-2.4-1.6-4.2,0-6.4C1653.5,469.3,1656.8,464.3,1660.3,459.1z"/>
<path class="st8" d="M1608.3,401.7c3.7,6.5,4,13.1,2.1,19.7c-2.2,7.5-5.1,14.7-7.6,22.1c-1,3.1-3.1,3.8-6.1,3.6
	c-8.5-0.4-17-0.7-25.4-0.9c-2.5-0.1-4.9,0.3-7.5,0.5c-0.2-0.6-0.4-1-0.3-1.3c4.2-14.1,8.9-27.9,18-39.7c3.9-5.1,8.7-9,15.7-9.1
	C1601.6,396.6,1605.4,397.8,1608.3,401.7z"/>
<path class="st9" d="M1050.5,1166c-28.8-3.4-49.9,9.8-68.8,29.7c0.6-5.5,1.2-11,1.8-16.5c0.5-4.4,1.2-8.8,1.3-13.3
	c0.1-3.1,2-3.7,4.2-4.2c10.9-2.7,22-5.2,32.8-8.2c10.6-3,21-6.6,31.5-9.9c3.6-1.1,7.1-2.3,10.7-3.4c1.9-0.6,4.1-0.7,3.7,2.1
	c-1.2,9.2-2.6,18.3-4,27.8C1058.8,1168.4,1054.8,1167.2,1050.5,1166z"/>
<path class="st9" d="M409.6,1348.5c-1.1,9.8-1.7,19.3-3.5,28.5c-0.8,4.2-3.8,8.3-6.6,11.8c-3.2,4-7.9,3.8-11.7,0.2
	c-6.2-5.9-9.5-13.4-9.8-21.6c-0.5-16.7,0.9-33.4,4.8-49.7c3.2,4.1,5.9,8.5,9.5,12c3.8,3.6,8,7.1,12.7,9.3
	C409.5,1341.1,411.2,1343.5,409.6,1348.5z"/>
<path class="st8" d="M1620.8,454.3c-0.5-0.3-0.8-0.4-1-0.5c-8.5-3.6-8.6-3.7-4.9-12.4c4-9.4,9.9-17.5,17.6-24.1
	c4.9-4.1,10.9-5.4,16.9-2.7c5.7,2.6,7.3,8.1,7.1,13.7c-0.3,5.2-1.2,10.6-3,15.5c-2.6,7.2-6.2,14-9.4,21c-0.5,1.1-1.3,2.1-1.7,2.8
	C1635,463.1,1628.1,458.8,1620.8,454.3z"/>
<path class="st8" d="M1498.1,459.8c-3.3-5.4-4-11.1-2.6-16.8c2.3-9.7,11.5-14.6,23.2-12.4c9.7,1.9,15.1,8.8,19,17.2
	c2.9,6.4,2.9,6.3-2.5,10.4c-6.6,5.1-12.4,10.8-15.8,18.6c-0.5,1.2-1.4,2.3-2.3,3.9C1508.8,475.3,1503,468.2,1498.1,459.8z"/>
<path class="st9" d="M505.7,1290.1c1.2,0.4,2.5,0.8,3.2,1.7c7.3,9.7,11,21,12.8,32.8c1.2,7.6-1.7,14.6-5.7,21
	c-2.8,4.4-7.4,4.8-11.9,4.1c-9.4-1.6-15.6-7.2-19-16.3c-1.7-4.4-1-7.3,2.3-10.9C495.9,1313.2,502.3,1302.6,505.7,1290.1z"/>
<path class="st9" d="M697,1152.1c13.3,3.7,26.3,7.4,39.4,10.8c3,0.8,4.3,2,4.1,5.1c-0.5,5.9-0.9,11.8-1.5,19
	c-21.3-14.8-42.9-22.9-68.5-13.1c0.7-10.6,1.3-20.1,2-30.3C681.2,1146.6,688.9,1149.3,697,1152.1z"/>
<path class="st9" d="M479.6,1389.5c-1.2,3.3-3.4,4.2-6.4,4c-6.7-0.5-11.3-4-13.7-10c-4.4-11.2-6.6-23-7.3-35.1
	c-0.1-2.6,0.8-3.9,3.3-4.9c5.4-2.2,10.6-4.8,16.7-7.6C478.4,1353.2,482.8,1370.6,479.6,1389.5z"/>
<path class="st9" d="M425.8,1345.6c4.8,0.3,9.3,0.5,13.7,1c1,0.1,2.6,1.4,2.7,2.3c1.5,14.6,2.5,29.2-0.8,43.6
	c-1.6,7.1-4,9.6-8.6,9.8c-5.2,0.2-8.7-2.6-10.7-9.4c-0.9-3.2-1.6-6.5-1.7-9.8c-0.2-11.2-0.1-22.3-0.1-33.5
	C420.4,1344.8,420.5,1344.7,425.8,1345.6z"/>
<path class="st10" d="M924.9,752.6c-14.6-1.9-28.8-3.8-43-5.7c-1.8-0.2-3.5-0.7-5.3-1.1c0-0.9,0-1.4,0-1.9c0.8-9.3,0.8-9.6,9.8-8.7
	c16.2,1.6,32.3,3.6,48.5,5.5c3.6,0.4,7.2,0.9,10.8,1.2c2.5,0.2,3.3,1.6,3.2,3.9c-0.4,6.3-1.9,7.9-8.1,7.7
	C935.6,753.4,930.5,753,924.9,752.6z"/>
<path class="st2" d="M906.4,764.4c-8.9-1.3-17.4-2.6-25.9-3.9c-1.1-0.2-2.4-0.2-3.2-0.9c-1.1-1-1.8-2.6-2.6-3.9
	c1.3-0.6,2.7-1.9,4-1.8c2.9,0.3,5.6,1.7,8.5,2.1c17.5,2.4,34.9,4.6,52.4,6.8c0.5,0.1,1.1,0.2,1.6,0.3c0,0.4,0,0.9,0,1.3
	c-5.6,0-11.2,0-16.9,0C918.5,764.5,912.7,764.5,906.4,764.4z"/>
<path class="st11" d="M387.3,600.7c-7.7,2.4-10.2,7.9-10.4,15.1c-0.4,13.4-1,26.7-1.6,40.1c-3,64.7-10.6,128.7-27.7,191.3
	c-7.1,25.9-15.5,51.4-29.7,74.4c-5.4,8.7-12,16.8-19.1,24.2c-7.2,7.4-16.3,11.8-27.2,9.6c-6.5-1.3-11.9-4.8-16.7-9.1
	c-9-8.2-15.4-18.3-20.9-29.1c-13-25.4-20.8-52.6-26.9-80.3c-8.7-39-14-78.6-16-118.5c-1.5-31.6-2.8-63.3-2.2-95
	c1.3-70.3,8.6-140,26.5-208.3c7.2-27.5,15.9-54.5,30.4-79c5.2-8.8,12.1-16.6,18.5-24.7c1.9-2.3,4.5-4.1,7.1-5.8
	c11.7-8,23.4-8.3,34.4,0.6c6.6,5.3,12.5,12,17.4,19c13.3,19.4,20.9,41.5,27.5,63.9c9.4,32.2,15.2,65.2,19.5,98.4
	c1.6,12.2,3.7,24.3,4.7,36.5c0.6,6.9,4.2,9.6,10,11c14,3.3,27.9,6.7,41.9,10c14.5,3.4,29.1,6.7,43.6,10.1c1.2,0.3,2.3,0.6,4.2,1.2
	C445.2,571.2,416.4,585.9,387.3,600.7 M298.4,392.3c3.1-0.6,6.2-1.2,10.2-2c1.1,0.9,3.1,2.7,5.3,4.1c2.9,1.9,6.9,1.1,8.6-1.5
	c2-3.1,1.3-5.8-1.4-8.1c-1.9-1.6-4-3-5.9-4.6c-0.8-0.7-2-2.2-1.8-2.9c1.4-4.4-0.9-7.2-5.2-10.2c4.7,0,8,0.2,11.3-0.1
	c3.5-0.3,5.6-2.4,5.7-6c0.1-3.9-2.2-5.9-5.8-6.5c-1.8-0.3-3.6-0.2-5.4-0.2c-7.1,0-14.2,0-21.1,0c-1.6-8.2-3.2-10.3-7.5-10.3
	c-6.6,0-6.8,5.3-7.6,10.3c-1.7,0-3.2,0-4.7,0c-6.4,0-12.8-0.1-19.2,0.1c-4.5,0.1-7.4,2.8-7.4,6.4c0,3.6,2.9,6.2,7.3,6.5
	c1.9,0.1,3.8,0,5.7,0c-0.4,6.4-3,11.9-9.4,20.3c-2.8,3.7-2.8,6.8,0.1,9.2c3.2,2.6,7,2.2,10-1.3c1.5-1.7,2.7-3.5,4-5.1
	c0.5,0,0.8,0,1,0.1c3.3,2,6.5,2.2,8.8-1.3c2.3-3.4,0.9-6.3-1.8-8.9c-0.7-0.7-1.8-2-1.6-2.7c1.5-4.6-0.6-7.6-5.1-10.4
	c4,0,6.9,0.1,9.8,0c2.3-0.1,2.8,1.1,2.8,3.1c-0.1,5,0.1,10-0.1,15.1c0,1.3-0.5,2.8-1.3,3.8c-3,3.7-5.8,7.6-9.5,10.5
	c-5.6,4.5-11.8,8.3-17.9,12.3c-4.5,3-4.7,7.8-0.1,10.8c2.8,1.8,5.8,2.3,8.6,0.4c4-2.7,8.1-5.5,11.9-8.5c2.7-2.1,5.1-4.5,8.3-7.3
	c0,5.4-0.1,9.9,0,14.3c0.2,5.2,3.4,8.2,7.8,7.8c3.7-0.4,6.1-3.2,6.2-7.7c0.1-4.8,0-9.6,0-14.4c0.5-0.3,0.9-0.5,1.4-0.8
	c0.9,1.2,1.6,2.7,2.7,3.6c5.2,4.2,10.3,8.6,15.8,12.4c4.2,2.9,9.9,0.9,12.2-3.5c1.8-3.3,0.4-5.9-4.6-8.7c-1.3-0.8-2.8-1.3-4-2.2
	c-6.2-5.1-12.4-10.2-18.3-15.6C297.5,392.5,297.7,392.2,298.4,392.3 M302.4,540.3c-0.1-2.8,0.1-5.6-0.2-8.4c-0.4-4-3.2-6.5-6.9-6.4
	c-3.7,0.1-6.3,2.8-6.5,6.8c-0.1,2.1,0.1,4.2,0.1,6.3c-0.1,3.7,1.2,8.9-0.7,10.5c-2.2,1.9-7.2,0.6-10.9,0.7c-0.6,0-1.2,0.1-1.7-0.1
	c-0.7-0.3-1.5-0.8-1.7-1.5c-1.8-5,0.2-8.8,5.4-9.9c2.7-0.6,5.9-1.5,5.4-4.6c-0.3-2.3-2.7-4.5-4.6-6.1c-1.2-1-3.5-1.3-5.2-1
	c-8.6,1.5-17.3,3.1-25.8,5c-3.2,0.7-4.3,3.5-2.9,6.5c1.4,2.9,3.6,4.5,7,4.3c2.3-0.2,4.6-0.4,6.8-0.6c1.3,7.8,1.2,7.9-5.8,7.9
	c-1.3,0-2.5,0-3.8,0.1c-3.6,0.4-5.7,2.5-5.7,6c0,3.5,2.1,5.7,5.7,6c1.1,0.1,2.2,0.1,3.3,0.1c6.9,0,6.8,0,6.7,6.8
	c0,2.6-0.8,3.9-3.5,4c-2.1,0.1-4.1,0.5-6.2,0.8c-4.7,0.8-7.3,3.7-6.6,7.4c0.8,4,4.5,6.3,8.9,5.6c2.3-0.4,4.5-0.8,7.4-1.2
	c0,2.7-0.2,4.7,0,6.8c0.5,3.9-0.9,5.5-5.1,5.4c-1.9,0-5.1,1.3-5.4,2.6c-0.5,2,0.3,5,1.6,6.8c3.3,4.6,8.1,3.4,12.6,2.4
	c4.3-1,8.1-3,8.8-7.8c0.6-4.3,0.9-8.6,0.6-12.9c-0.3-4.5,0.9-6.8,5.7-6.9c1.5,0,3-0.6,4.3-1.4c2.7-1.5,4.1-3.8,3.3-7
	c-0.8-3.2-3.1-4.5-6.3-4.1c-2.1,0.2-4.1,0.5-6.1,0.7c-1.8-7.1-1.3-7.9,5.3-7.9c2.5,0,5,0.1,7.5,0c2.6-0.1,3.7,0.9,4.1,3.5
	c0.8,5.6,2.2,11.2,2.9,16.9c0.2,1.5-0.7,3.8-1.9,4.7c-3.2,2.5-6.8,4.4-10.1,6.6c-4.7,3.1-4.6,8.2,0.5,10.4c2.2,0.9,5.5,0.6,7.8-0.3
	c3.1-1.2,5.8-3.5,8.7-5.4c1.9,2.7,3.5,5.2,5.4,7.4c3.9,4.6,9,5.9,14.8,4.3c5.9-1.6,7.5-6.6,8.8-11.7c1.1-4.2-0.3-7.7-3.6-10.4
	c-2.8-2.2-5.4-1.3-6.2,2.1c-0.4,1.8-0.5,3.6-1.1,5.3c-0.3,0.7-1.8,1.5-2.4,1.3c-3.1-0.9-4.8-7.6-2.8-10.2c3-3.7,6.2-7.2,8.7-11.2
	c1-1.5,1.3-4.5,0.4-6c-0.9-1.5-3.6-2.6-5.5-2.6c-1.8,0-3.7,1.6-5.3,2.8c-1.3,1-2.3,2.6-4.1,4.7c-0.7-4.7-1.2-8.1-1.8-12.3
	c5.5,0,10.3,0.1,15.2,0c4.6-0.1,7-2.2,7-6c0.1-3.7-2.5-6-6.9-6.1c-2.8-0.1-5.6,0-8.4,0C302.8,549.9,302.8,549.9,302.4,540.3
	 M284.8,479.4c-0.6-3.8-3.4-4.4-6.5-4.5c-2.3-0.1-4.6-0.2-6.9-0.3c0-0.6,0-1.3,0-1.9c1.9-0.2,3.8-0.4,5.7-0.5
	c5.7-0.2,8.5-2.9,8.6-8.5c0.1-6,0.1-12,0-18c-0.1-6.2-2.7-8.9-8.9-9c-7.3-0.1-14.5-0.1-21.8,0c-6.3,0.1-8.9,2.5-9.2,8.8
	c-0.2,5.7-0.2,11.4,0,17.2c0.2,7,2.7,9.3,9.7,9.6c1.4,0,2.7,0.5,4.1,0.8c-0.1,0.5-0.1,1-0.2,1.5c-2.7,0.1-5.4,0.1-8.1,0.4
	c-3,0.3-5.1,2-4.9,5.2c0.2,2.9,2.2,4.4,5.1,4.5c2,0.1,3.9-0.1,5.9,0.1c0.8,0.1,1.5,0.8,2.3,1.2c-0.1,0.4-0.2,0.9-0.3,1.3
	c-3.1,0.2-6.2,0.4-9.4,0.5c-3.4,0.2-5.6,1.7-5.7,5.3c-0.1,3.3,2.2,5.2,6.2,5.2c1.4,0,2.8-0.1,4.2-0.1c8.3,0,16.6,0,24.5,0
	c-4.9,7.1-1.7,13.3,8.1,14.5c0.1,0.2,0.3,0.5,0.4,0.7c1.7,6.9,6,7.7,12.2,4.6c3.5-1.8,9.2-1.1,13.3,0.4c3,1.1,5.8,1.9,8.1,0.5
	c1.9-1.1,4-3.9,4.1-6c0.4-9.3,0.3-18.7,0.1-28c-0.1-4.9-3-7.5-7.5-7.9c-6.2-0.6-6.2-0.6-6.2-7c0-0.8,0-1.7,0-2.5c-0.1-2.1,0.8-3,3-3
	c2.8,0.1,5.6,0.2,8.3-0.3c3.3-0.5,5.2-2.6,5.1-6.1c-0.1-3.2-2-5.2-5.2-5.6c-2.3-0.3-4.7-0.4-7.1-0.2c-3.4,0.3-4.4-1.2-4.2-4.4
	c0.2-2.5,0.1-5-0.1-7.5c-0.2-3.5-2.2-5.8-5.8-6c-3.6-0.2-5.8,1.8-6.5,5.2c-0.3,1.3-0.3,2.8-0.3,4.2c0,9.8,0,19.5,0,29.3
	c0,1.9,0,3.4-2.6,3.8c-7.2,1-8.6,2.8-8.6,10.2c0,6.6,0,13.2,0,19.8c-0.2,0-0.5,0.1-0.7,0.1c-1.5-3.1-3.1-6.1-4.6-9.2
	c0.4-0.3,0.6-0.7,1-0.9c2.8-1.3,3.8-3.9,2.6-6.2c-0.9-1.7-3.4-2.8-5.4-3.5c-1.6-0.5-3.6,0-5.4-0.1c-1.3-0.1-2.6-0.4-3.9-0.6
	c0-0.6,0.1-1.2,0.1-1.7c2.5,0,5,0,7.5,0C282.2,484.7,284.5,483.6,284.8,479.4 M323.8,816.9c-2.5-5.9-8.3-4.3-13.2-5.8
	c1.1-1.3,2.3-2.3,3.6-2.4c2.3-0.3,4.7-0.1,7.1-0.2c3-0.1,5.3-1.4,5.2-4.7c-0.1-3-2.3-4.2-5.2-4.2c-10.3,0-20.7,0-31,0
	c-3,0-5.4,1-5.4,4.4c-0.1,3.5,2.5,4.4,5.3,4.5c3,0.1,6.1,0,9.1,0c0.2,0.6,0.3,1.2,0.5,1.7c-1.4,0.6-2.8,1.7-4.2,1.8
	c-5.7,0.6-8.3,3.1-8.4,8.8c-0.1,8-0.1,15.9,0,23.9c0,6.7,2.7,9.4,9.4,9.4c5.5,0,11,0,17.2,0c-6.5,8,3.2,10.3,4.7,15.6
	c-8.9,0-17.5,0-26.6,0c3-2.5,5.8-4.4,8.1-6.8c1.1-1.1,2.3-3.6,1.7-4.4c-0.8-1.3-3-2.5-4.6-2.6c-4.6-0.4-8.3,2.3-10.6,5.7
	c-1.3,1.9-0.2,5.4-0.2,8.4c-2.1,0-4.7,0.1-7.4,0c-1.7-0.1-3.4-0.2-5-0.6c-0.9-0.2-2.2-0.8-2.5-1.6c-1.9-5.1,0.2-8.2,5.6-8.4
	c0.1,0,0.3,0,0.4,0c3.1,0,5.4-1.2,5.5-4.4c0.1-3.6-2.4-4.7-5.6-4.8c-1.9-0.1-3.8,0-5.9,0c0-2.2,0-3.8,0-6c2.8,0,5.5,0.1,8.1,0
	c3.1-0.1,5.2-1.6,5.1-4.8c-0.1-3-2.1-4.4-5-4.4c-10.2,0-20.4,0-30.6,0c-3,0-4.8,1.6-4.8,4.6c0,3.1,1.9,4.5,4.8,4.6
	c2.8,0.1,5.6-0.1,8.4,0.1c1,0.1,2.6,1.1,2.6,1.7c0.2,5,0.1,10,0.1,15c-0.5,0.1-1.1,0.1-1.6,0.2c-0.5-2.5-1.4-4.9-1.5-7.4
	c-0.1-3.5-0.9-6.3-4.8-6.6c-3.8-0.2-5.2,2.3-5.7,5.8c-0.8,5.5-2.1,10.9-2.8,16.4c-0.3,2.5,0,5.4,1.1,7.6c1.8,3.6,5.6,3.2,7.4-0.3
	c0.9-1.8,1.6-3.7,2.6-6c5.6,6.4,12.6,8.8,20.1,9c15.1,0.5,30.1,0.4,45.2,0.5c0.5,0,1.3,0,1.6-0.3c1.8-2.1,4-4.1,5-6.6
	c0.3-0.8-2.9-2.9-4-4c0.6-2.2,2.5-5.3,1.8-7.6c-0.9-2.7-3.9-4.8-5.3-6.2c1.7-2.6,4.6-4.9,4.7-7.3
	C324.4,837.9,324.1,827.7,323.8,816.9 M268.5,753.1c-0.3,8.6-0.8,17.2-0.5,25.7c0,1.6,3,3.9,5.1,4.5c1.6,0.5,4.8-0.7,5.6-2.1
	c1.3-2.4,2.9-2.6,5-2.5c2.5,0.1,5,0.2,7.5,0c3.9-0.4,5.9,0.9,7.5,4.7c1.3,2.9,3.9,6.2,6.7,7.4c8.7,3.7,19.1-2.8,19.3-12.2
	c0.4-20.5,0.3-41,0.2-61.5c0-5.1-3.1-8-8.2-8.1c-6.7-0.2-13.4-0.1-20.1,0c-5.7,0.1-8.4,2.9-8.5,8.6c-0.1,5.9-0.1,11.7,0,17.6
	c0.1,5.7,2.8,8.5,8.5,8.6c4,0.1,8.1,0.1,12.1,0c2.1,0,3,0.8,2.9,3c-0.1,9.3-0.1,18.7,0,28c0,3.6-2.1,3.6-4.6,3.7
	c-3,0.2-3.8-1.2-3.7-4c0.2-5.6,0.1-11.2,0-16.7c-0.1-5.7-2.7-8.6-8.4-8.7c-6.4-0.2-12.8-0.3-19.2,0.1
	C273.3,749.4,271.1,751.4,268.5,753.1 M288.5,648.4c1.6,3.6,4.6,5,8.4,4.9c3.8-0.1,7.5,0,11.3,0c2.1,0,3.4,0.5,3.3,3.1
	c-0.1,9.4-0.1,18.7,0,28.1c0,3.6-2.2,3.5-4.7,3.6c-2.7,0.1-3.7-0.9-3.6-3.6c0.2-5.9,0.1-11.7,0-17.6c-0.1-4.9-2.7-7.9-7.2-8
	c-7.1-0.2-14.2-0.1-21.3,0c-3.5,0.1-6.4,2-6.6,5.3c-0.5,8.2-0.5,16.4,0,24.6c0.1,1.5,3,3.7,4.9,4.1c1.7,0.4,4.8-0.7,5.6-2.1
	c1.3-2.3,2.8-2.6,5-2.6c2.4,0.1,4.8,0.3,7.1,0c4.2-0.5,6.7,0.7,8,5.1c1.2,4.1,4,7.1,8.6,7.5c11.6,1.1,17.4-4,17.6-15.7
	c0.1-10.5,0-20.9,0-31.4c0-8.8,0.1-17.6,0-26.4c-0.1-5.5-2.7-8.6-7.5-8.7c-7.4-0.2-14.8-0.2-22.2,0c-4,0.1-6.9,3-7,6.9
	C288,633,288.2,640.4,288.5,648.4 M259.9,755.7c0-2.9,0.1-5.9,0-8.8c-0.1-2.3,0.9-3.3,3.2-3.2c3.6,0.1,7.3,0.1,10.9,0
	c5.9-0.1,8.9-2.8,9-8.6c0.2-5.9,0.2-11.7,0-17.6c-0.2-5.6-3-8.4-8.6-8.6c-6.1-0.1-12.3-0.1-18.4,0c-6.1,0.1-8.9,2.9-8.9,9.1
	c0,21.8,0,43.5,0,65.3c0,5.2,2.3,8,6.4,8.1c4.1,0,6.4-2.8,6.4-8C259.9,774.4,259.9,765.5,259.9,755.7 M259.9,661.1c0-1,0.1-2,0-2.9
	c-0.5-3.7,0.8-5.4,4.8-5c3.2,0.3,6.4,0.1,9.6,0c5.6-0.1,8.5-2.9,8.7-8.5c0.2-5.9,0.2-11.7,0-17.6c-0.2-5.8-3.1-8.5-9-8.6
	c-6-0.1-12-0.1-18,0c-6.2,0.1-8.9,2.8-9,9c-0.1,7.4,0,14.8,0,22.2c0,14.5,0,29,0,43.5c0,4.9,2.4,7.6,6.4,7.7c4,0,6.4-2.7,6.4-7.6
	C259.9,682.9,259.9,672.4,259.9,661.1 M276.1,799.8c-7-0.1-13.9-0.3-20.9-0.2c-4.5,0.1-7.2,2.9-7.4,7.4c-0.2,5-0.2,10,0,15.1
	c0.1,5,2.6,7.8,7.7,8.1c6.1,0.3,12.3,0.3,18.4,0c5.2-0.3,7.5-3.2,7.6-8.6c0.1-4.3-0.1-8.7,0-13C281.6,804.7,280.3,801.8,276.1,799.8
	 M248.1,504.5c-1.1,2.2-2.2,4.4-3.4,6.6c-1.5,2.9-1.4,5.6,1.9,6.9c3.1,1.2,5.5-0.1,6.7-3.2c1.1-2.8,1.9-5.6,2.9-8.4
	c0.8,2.1,0.9,4.1,1.3,6.1c0.5,2.7,2.2,4.2,4.8,3.1c5.3-2.3,2.5-6.9,2.5-10.6c0-2.9-1.6-5.2-4.6-4.6
	C256.2,501.3,252.4,502.9,248.1,504.5 M307.5,532.6c-0.5,4.4,5.1,12.8,9.5,13.1c2,0.1,4.9-1,6-2.6c1.1-1.5,0.9-4.5,0.2-6.5
	c-0.7-1.9-2.8-3.4-4.4-4.9C314.9,528.2,311.9,528.4,307.5,532.6 M275.1,506.7c-0.4-1.5-0.4-3.4-1.3-4.3c-1.3-1.2-3.3-1.7-5.1-2.5
	c-0.7,1.6-2,3.2-2,4.8c0,2.4,0.6,5,1.7,7.2c0.7,1.4,3,2.9,4.2,2.7c1.3-0.3,2.4-2.4,3.1-4C276.1,509.8,275.5,508.5,275.1,506.7z"/>
<path class="st12" d="M922.4,836.8c1.4-4.4,2.7-8.6,4.1-12.6c1.3-3.6,4-5.3,7.7-5.2c8.4,0.2,16.7,0.6,25.1,0.5
	c9.2-0.1,18.4-0.6,27.6-1.1c5.1-0.3,10.3-1.1,15.4-1.2c19.4-0.3,38.8-0.7,58.2-0.6c20.3,0.1,40.7,0,61,1c11.1,0.6,22.1,3.1,33,5.1
	c7.7,1.4,11.5,6.9,12.6,14.3c2.4,15.7,2.9,31.5,1.5,47.2c-3.1,32.3-6.7,64.6-10.6,96.8c-2.4,19.8-5.8,39.4-8.7,59.1
	c-0.2,1.4-0.7,2.7-1.1,4c-3,11-9.8,17-21.5,18.4c-25.9,3.2-51.8,2.9-77.7,1.8c-28-1.2-56-2.6-84-4.5c-20.3-1.4-40.5-3.7-60.7-5.6
	c-2.1-0.2-4.1-0.8-6.1-1.5c-8-2.6-12-8.2-12.2-16.5c-0.4-18.4,2.7-36.4,5.3-54.5c4.7-31.9,12.5-63.2,19.5-94.6
	C914.5,870.4,918.4,853.8,922.4,836.8 M1058.6,852.2c-0.2-3.1,0-6.5-3.5-7.9c-3.7-1.4-6,1.1-7.9,3.9c-10.3,15.1-20.7,30.1-30.9,45.2
	c-2.9,4.3-5.4,8.9-8.4,13.8c-1.3-1.6-2-2.4-2.7-3.2c-7.6-10.5-15.2-21-22.9-31.4c-1.6-2.1-3.3-4.3-5.5-5.7c-1.6-1.1-4.5-1.9-6-1.2
	c-1.5,0.7-2.3,3.5-2.7,5.5c-0.3,1.8,0.6,3.8,0.6,5.8c0.2,17.8,4.2,35.1,7.6,52.5c0.7,3.8,0.3,5.8-3.5,7.4c-9,3.9-17.7,8.2-26.6,12.4
	c-2.8,1.4-5.6,3.2-5,6.9c0.6,3.6,3.4,4.8,6.7,5.3c3.4,0.5,6.9,0.8,10.4,1.3c11.1,1.7,22.2,3.8,33.4,5.1c4,0.5,4.7,1.8,4.7,5.4
	c-0.1,14.8,0,29.6,0.1,44.4c0,2.1,0.2,4.2,0.7,6.2c1.1,4.4,5.5,6,9.1,3.2c1.5-1.2,2.8-2.8,3.7-4.4c7.8-13,15.5-26.1,23.2-39.2
	c2.9-4.9,3-5,7.3-1.7c5.5,4.1,10.7,8.6,16.4,12.2c7,4.5,14.3,8.6,21.8,12.3c4.8,2.4,9.4,0.4,10.2-3.6c0.4-1.8,0.2-3.9-0.3-5.7
	c-3.7-13.3-7.7-26.5-11.3-39.9c-3.3-11.9-3.1-11.9,6.8-19.4c8.4-6.4,16.7-13,25-19.7c2.5-2,4.3-4.6,2.9-8c-1.4-3.5-4.4-3.9-7.7-3.7
	c-13.8,0.8-27.5,1.5-41.3,2.5c-7.1,0.5-7.8,0-7.1-7c0-0.1,0-0.3,0-0.4C1057,885,1057.8,869,1058.6,852.2z"/>
<path class="st13" d="M731.4,904.3c-8.9-0.5-17.3-1.2-25.8-1.5c-10.7-0.4-21.4-0.4-32.2-1c-17.6-0.9-35.3-1.7-52.9-3.4
	c-9.5-0.9-13.1-5.4-13.2-15.2c-0.1-13.3,0.9-26.5,5.9-39c2.7-6.6,8.7-8.5,14.9-9.2c8.1-1,16.4-1.5,24.5-1.8
	c17.4-0.5,34.9-1.2,52.2-0.7c16.5,0.5,33,2.4,49.5,3.7c8.2,0.6,16.4,1.2,24.5,2c4.1,0.4,8.3,0.8,12.4,1.7c9.1,2.1,14,7.1,14.9,16.3
	c1.1,10.6,1.9,21.4-0.6,32c-1.8,7.8-9.5,16.7-19.9,16.3C767.8,903.9,749.8,904.3,731.4,904.3 M682.7,843.2c-0.6,0.7-1.4,1.4-1.6,2.2
	c-3.2,10.2-6.5,20.5-9.6,30.7c-1.4,4.5-2.5,9-3.8,14.1c2.1,0.2,3.6,0.4,5,0.5c5.6,0.1,11.2-0.1,16.7,0.1c2.7,0.1,4-0.6,4.9-3.2
	c4.8-14.1,9.8-28.2,14.7-42.3c0.1-0.3-0.1-0.8-0.2-2.2C700.4,843.2,691.9,843.2,682.7,843.2 M711,872c-2,6.3-4,12.6-6.2,19.5
	c7.7,0.3,14.6,0.6,21.5,1c2.8,0.2,3.8-1,4.6-3.5c4.3-12.9,8.7-25.8,13.1-38.7c0.3-1,0.5-2.1,0.9-3.5c-8.3-0.6-16.2-1.4-24-1.7
	c-0.9,0-2.5,1.8-2.9,3.1C715.5,855.8,713.4,863.6,711,872 M660.3,876.7c3.7-11,7.3-22,11.1-33.5c-6.3,0-12.2-0.2-18,0.1
	c-1.2,0.1-2.9,1.5-3.3,2.7c-3.2,9.4-6.1,18.8-9,28.3c-1.6,5-3.1,10-4.7,15.4c4.5,0,8.4,0.1,12.3,0c7.8-0.3,7.8-0.4,10.1-8
	C659.2,880.3,659.7,878.8,660.3,876.7 M750,892.8c12.2,0,12.2,0,15.5-11.5c0.1-0.4,0.2-0.8,0.4-1.2c2.9-10.2,5.7-20.3,8.7-30.8
	c-5.6-0.5-11-0.9-16.4-1.6c-2.8-0.4-3.9,0.6-4.7,3.3c-3.5,12.2-7.1,24.3-10.7,36.5c-0.5,1.6-0.9,3.1-1.6,5.3
	C744.3,892.8,746.7,892.8,750,892.8 M794.8,886.9c0.8-8,1.7-16.1,2.3-24.1c0.7-9.7-3.2-13.3-13.4-12.3c-3.4,13.8-6.8,27.6-10.3,42
	c4.7,0,8.9-0.4,13.1,0.1C790.7,893.1,793.3,891.6,794.8,886.9 M618.1,856.2c-0.4,9.3-0.7,18.6-1.1,27.9c-0.2,3.8,2.6,4.4,5.4,5
	c3.2,0.7,3.7-1.6,4.5-3.7c3-8.6,5.9-17.1,8.9-25.7c1.8-5.3,3.7-10.7,5.6-16.2c-4.4,0-8.3-0.3-12.2,0.1
	C619.5,844.5,618.7,845.5,618.1,856.2z"/>
<path class="st14" d="M917.9,406.1c17.6,0.3,34.7,0.6,51.9,0.9c14.1,0.2,28.1,0.4,42.2,0.8c20.2,0.7,40.4,1.5,60.5,2.6
	c15.6,0.8,31.1,1.9,46.6,3.3c25.2,2.3,50.5,4.2,75.5,7.9c16.5,2.4,32.7,7.1,48.8,11.5c7.4,2.1,14.6,5.5,20.1,11.5
	c7.5,8,12.8,17.4,13.4,28.2c0.8,15.8,0.5,31.7-0.5,47.5c-1.3,19.4-3.7,38.8-6,58.1c-2.5,20.7-4.5,41.6-8.5,62
	c-3.6,18.5-14.2,32.6-33,38.9c-13.6,4.6-27.7,5-41.8,3.6c-20.8-2.1-41.5-4.9-62.2-7.1c-21-2.3-42.1-4.4-63.1-6.4
	c-11.4-1.1-22.8-1.7-34.1-2.8c-12.3-1.1-24.6-2.5-37-3.8c-14.3-1.5-28.5-3.2-42.7-4.6c-14-1.4-28-2.7-42-3.9
	c-9.2-0.8-18.3-1.4-27.5-1.9c-26.8-1.3-53.7-2-80.4-5.7c-14.5-2-29.2-2-43.7-3.8c-16.8-2.1-33.6-5.3-50.3-7.9
	c-17.1-2.6-32.7-8.8-47.6-17.4c-14.6-8.4-21.2-21.8-23.3-37.6c-2.9-21.3-0.4-42.5,2.3-63.6c2.4-18.5,4-37.2,8-55.3
	c3.6-16.4,9.8-32.2,15.2-48.2c2-5.8,6.8-9.7,12.8-11.2c6.9-1.7,13.9-3.8,20.9-3.7c21.6,0.5,43.1,1.8,64.6,3
	c14.7,0.9,29.4,2.9,44.1,3.3C840,405.2,878.7,405.5,917.9,406.1 M1013,420.9c-26.9-0.5-53.8-1-80.8-1.3
	c-34.6-0.4-69.2,0.3-103.8-1.1c-36.6-1.4-73.2-4.9-109.8-7.1c-11.5-0.7-23.1,0.1-34.7,0.2c-10.2,0.1-15.9,6.3-18.9,15
	c-3.8,10.9-8.1,21.9-9.8,33.2c-4.2,28.3-7.3,56.7-10.2,85.1c-1,10.2-0.9,20.7,0,30.9c1.2,13.6,6.5,25.1,19.6,32.1
	c12.2,6.5,24.7,11.6,38.3,14.2c28.3,5.4,56.7,9.1,85.4,11c16.5,1.1,33,3.7,49.5,4.9c28.7,2,57.4,3.2,86,5.3
	c24.5,1.7,48.9,3.9,73.4,6.4c32.5,3.2,64.9,6.9,97.3,10.3c23.6,2.5,47.1,5.1,70.7,7.3c13.7,1.3,27.5,3.1,41.2,3.1
	c26.1-0.1,39.1-11.1,44.2-36.2c1.7-8.6,2.8-17.3,3.8-26.1c2.5-22,5-44.1,7.2-66.1c2.2-22.8,4.8-45.5,1.5-68.4
	c-1.9-13.5-7.7-23.4-21.3-27.7c-3.5-1.1-6.8-2.8-10.3-3.5c-21.4-4.1-42.6-9.9-64.2-11.7C1116.4,426.4,1065.1,424.1,1013,420.9z"/>
<path class="st15" d="M1027.3,257.4c7.7,13.4,3.2,27.8-7.7,37c-3.3,2.8-7.3,2.6-9.3,0c-2-2.6-1.3-5.9,2.1-8.7c5-4.1,8.3-9,7.8-15.8
	c-0.4-6.2-2.9-9.1-9-10.2c-0.5-0.1-1.1-0.2-1.7-0.2c-8.4-0.7-8.5-0.5-8.7,7.8c-0.1,3.2-0.2,6.5-1.2,9.5c-2.9,9-13.4,11.8-20.8,6
	c-3.6-2.9-4.9-9.7-2.2-15.5c1.7-3.7,4.4-7,6.7-10.5c-3.3-2.7-13.6-2.5-18.2,0.9c-6.8,5.1-10.8,12.1-10.6,20.7
	c0.1,2.6,2.3,5.1,3.4,7.8c0.6,1.5,0.8,3.3,1.1,4.9c-1.8,0-3.9,0.7-5.3,0c-5.2-2.5-8-7-8.1-12.7c-0.1-12.2,4.9-22.5,15.1-28.7
	c9.8-6,20.8-6.4,31.5-0.6c1.6,0.9,3.9,0.9,5.9,0.9c5-0.1,10-0.8,14.9-0.4C1018.8,250,1023.6,252.6,1027.3,257.4 M988.2,266.6
	c-1.1,2.2-2.4,4.3-3.3,6.6c-0.3,0.7,0.5,2.3,1.2,2.7c0.8,0.4,2.8,0,2.9-0.4c0.8-3.1,1.2-6.3,1.8-9.4
	C990.1,266.1,989.4,266.2,988.2,266.6z"/>
<path class="st1" d="M302.4,540.7c0.4,9.2,0.4,9.2,9,9.2c2.8,0,5.6-0.1,8.4,0c4.4,0.1,7,2.4,6.9,6.1c-0.1,3.7-2.5,5.9-7,6
	c-4.8,0.1-9.7,0-15.2,0c0.6,4.2,1.1,7.6,1.8,12.3c1.9-2.2,2.8-3.7,4.1-4.7c1.6-1.2,3.5-2.8,5.3-2.8c1.9,0,4.6,1.1,5.5,2.6
	c0.9,1.4,0.6,4.4-0.4,6c-2.5,4-5.7,7.5-8.7,11.2c-2.1,2.6-0.4,9.3,2.8,10.2c0.7,0.2,2.2-0.6,2.4-1.3c0.6-1.7,0.7-3.5,1.1-5.3
	c0.8-3.5,3.4-4.4,6.2-2.1c3.4,2.7,4.7,6.2,3.6,10.4c-1.3,5.1-2.9,10.1-8.8,11.7c-5.8,1.6-10.8,0.4-14.8-4.3
	c-1.9-2.2-3.4-4.7-5.4-7.4c-2.9,1.8-5.6,4.2-8.7,5.4c-2.3,0.9-5.6,1.2-7.8,0.3c-5.1-2.2-5.2-7.3-0.5-10.4c3.4-2.2,7-4.1,10.1-6.6
	c1.2-0.9,2.1-3.2,1.9-4.7c-0.7-5.7-2.1-11.2-2.9-16.9c-0.4-2.6-1.5-3.7-4.1-3.5c-2.5,0.1-5,0-7.5,0c-6.7,0-7.2,0.7-5.3,7.9
	c2-0.2,4.1-0.5,6.1-0.7c3.2-0.4,5.5,0.9,6.3,4.1c0.8,3.1-0.6,5.5-3.3,7c-1.3,0.7-2.9,1.3-4.3,1.4c-4.8,0.1-6,2.4-5.7,6.9
	c0.3,4.3,0,8.7-0.6,12.9c-0.7,4.8-4.4,6.8-8.8,7.8c-4.5,1.1-9.4,2.3-12.6-2.4c-1.3-1.8-2.1-4.7-1.6-6.8c0.3-1.3,3.5-2.6,5.4-2.6
	c4.1,0.1,5.5-1.5,5.1-5.4c-0.2-2,0-4.1,0-6.8c-2.8,0.5-5.1,0.8-7.4,1.2c-4.4,0.7-8.1-1.6-8.9-5.6c-0.7-3.8,1.8-6.7,6.6-7.4
	c2.1-0.3,4.1-0.8,6.2-0.8c2.7-0.1,3.5-1.4,3.5-4c0-6.7,0.1-6.7-6.7-6.8c-1.1,0-2.2,0-3.3-0.1c-3.6-0.3-5.7-2.5-5.7-6
	c0-3.5,2.1-5.7,5.7-6c1.2-0.1,2.5-0.1,3.8-0.1c7,0,7.1-0.1,5.8-7.9c-2.2,0.2-4.5,0.4-6.8,0.6c-3.3,0.2-5.6-1.4-7-4.3
	c-1.4-3-0.4-5.8,2.9-6.5c8.6-1.9,17.2-3.5,25.8-5c1.7-0.3,4,0,5.2,1c2,1.6,4.3,3.8,4.6,6.1c0.5,3.1-2.7,4-5.4,4.6
	c-5.1,1.1-7.2,4.9-5.4,9.9c0.2,0.6,1.1,1.1,1.7,1.5c0.4,0.2,1.1,0.1,1.7,0.1c3.8-0.1,8.7,1.2,10.9-0.7c1.9-1.6,0.6-6.9,0.7-10.5
	c0-2.1-0.1-4.2-0.1-6.3c0.2-4,2.8-6.7,6.5-6.8c3.7-0.1,6.6,2.4,6.9,6.4C302.5,534.7,302.4,537.6,302.4,540.7z"/>
<path class="st16" d="M284.8,479.7c-0.4,3.8-2.6,5-5.8,5c-2.5,0-5,0-7.5,0c0,0.6-0.1,1.2-0.1,1.7c1.3,0.2,2.6,0.6,3.9,0.6
	c1.8,0.1,3.8-0.5,5.4,0.1c2,0.7,4.5,1.8,5.4,3.5c1.2,2.3,0.2,4.9-2.6,6.2c-0.4,0.2-0.6,0.5-1,0.9c1.5,3.1,3.1,6.2,4.6,9.2
	c0.2,0,0.5-0.1,0.7-0.1c0-6.6,0-13.2,0-19.8c0-7.3,1.5-9.2,8.6-10.2c2.7-0.4,2.6-1.9,2.6-3.8c0-9.8,0-19.5,0-29.3
	c0-1.4,0-2.8,0.3-4.2c0.8-3.4,2.9-5.4,6.5-5.2c3.6,0.2,5.5,2.4,5.8,6c0.2,2.5,0.2,5,0.1,7.5c-0.2,3.2,0.8,4.7,4.2,4.4
	c2.3-0.2,4.8-0.1,7.1,0.2c3.2,0.4,5.1,2.3,5.2,5.6c0.1,3.5-1.9,5.6-5.1,6.1c-2.7,0.4-5.6,0.3-8.3,0.3c-2.2,0-3.1,0.8-3,3
	c0,0.8,0,1.7,0,2.5c0,6.4,0,6.4,6.2,7c4.6,0.4,7.4,3,7.5,7.9c0.2,9.3,0.3,18.7-0.1,28c-0.1,2.1-2.2,4.9-4.1,6
	c-2.4,1.4-5.1,0.6-8.1-0.5c-4-1.5-9.7-2.2-13.3-0.4c-6.2,3.2-10.5,2.4-12.2-4.6c-0.1-0.3-0.3-0.5-0.4-0.7c-9.8-1.2-13-7.4-8.1-14.5
	c-8,0-16.3,0-24.5,0c-1.4,0-2.8,0.1-4.2,0.1c-4-0.1-6.3-1.9-6.2-5.2c0.1-3.6,2.3-5.1,5.7-5.3c3.1-0.2,6.3-0.4,9.4-0.5
	c0.1-0.4,0.2-0.9,0.3-1.3c-0.8-0.4-1.5-1.1-2.3-1.2c-1.9-0.2-3.9,0-5.9-0.1c-2.9-0.1-4.9-1.6-5.1-4.5c-0.2-3.1,1.9-4.8,4.9-5.2
	c2.7-0.3,5.4-0.3,8.1-0.4c0.1-0.5,0.1-1,0.2-1.5c-1.4-0.3-2.7-0.7-4.1-0.8c-7.1-0.2-9.6-2.6-9.7-9.6c-0.1-5.7-0.2-11.4,0-17.2
	c0.2-6.3,2.8-8.7,9.2-8.8c7.3-0.1,14.5-0.1,21.8,0c6.2,0.1,8.9,2.8,8.9,9c0.1,6,0.1,12,0,18c-0.1,5.6-2.9,8.3-8.6,8.5
	c-1.9,0.1-3.8,0.3-5.7,0.5c0,0.6,0,1.3,0,1.9c2.3,0.1,4.6,0.2,6.9,0.3C281.5,475.1,284.3,475.6,284.8,479.7 M313.2,495.3
	c-0.1-7.1,0.9-6.5-6.4-6.5c-1.4,0-2.8,0.1-4.2,0c-2.1-0.1-3,0.8-2.9,2.9c0.1,2.9,0.2,5.8,0,8.7c-0.3,3.6,0.8,4.8,4.6,4.8
	C313.2,504.9,313.2,505.1,313.2,495.3 M275.6,447.2c-0.5-3.2-3-1.8-4.6-1.8c-0.7,0-1.7,1.6-1.8,2.6c-0.3,2-0.1,4.2-0.1,5.3
	C271.2,451.5,273.3,449.7,275.6,447.2 M260.8,452.1c0.1,0.1,0.2,0.2,0.3,0.3c0.1,0,0.4,0,0.4,0c0-2.2,0-4.5,0-6.8
	c-1.3-0.1-2-0.4-2.6-0.2c-1.2,0.3-2.3,0.9-3.4,1.3c0.9,0.7,1.8,1.3,2.5,2C259,449.6,259.8,450.6,260.8,452.1 M261.1,463.3
	c-0.2-0.9-0.1-2.2-0.7-2.7c-1.6-1.5-3.4-2.7-4.7-3.8c0,1.8,0,4.2,0,6.9C257.5,463.7,259,463.7,261.1,463.3 M269.6,461.2
	c-0.5,3.9,3.4,3.1,4,2.4c1.4-1.5,1.8-3.9,2.9-6.5C273.6,458.7,271.9,459.7,269.6,461.2z"/>
<path class="st17" d="M297.2,392.7c6.2,5.1,12.3,10.3,18.5,15.4c1.2,1,2.7,1.5,4,2.2c5,2.8,6.3,5.4,4.6,8.7c-2.3,4.4-8,6.3-12.2,3.5
	c-5.5-3.8-10.6-8.1-15.8-12.4c-1.1-0.9-1.8-2.4-2.7-3.6c-0.5,0.3-0.9,0.5-1.4,0.8c0,4.8,0.1,9.6,0,14.4c-0.1,4.5-2.5,7.3-6.2,7.7
	c-4.4,0.5-7.6-2.6-7.8-7.8c-0.2-4.4,0-8.9,0-14.3c-3.2,2.9-5.6,5.3-8.3,7.3c-3.9,3-7.9,5.7-11.9,8.5c-2.9,1.9-5.9,1.4-8.6-0.4
	c-4.6-3-4.4-7.8,0.1-10.8c6-4,12.2-7.8,17.9-12.3c3.6-2.9,6.5-6.9,9.5-10.5c0.8-1,1.3-2.5,1.3-3.8c0.2-5,0-10,0.1-15.1
	c0-2-0.6-3.2-2.8-3.1c-2.9,0.1-5.8,0-9.8,0c4.5,2.8,6.6,5.8,5.1,10.4c-0.2,0.6,0.9,1.9,1.6,2.7c2.7,2.6,4.1,5.5,1.8,8.9
	c-2.4,3.4-5.5,3.3-8.8,1.3c-0.2-0.1-0.5-0.1-1-0.1c-1.3,1.6-2.6,3.5-4,5.1c-3,3.4-6.7,3.9-10,1.3c-2.9-2.3-2.9-5.5-0.1-9.2
	c6.4-8.4,9-13.9,9.4-20.3c-1.9,0-3.8,0.1-5.7,0c-4.5-0.3-7.4-2.9-7.3-6.5c0-3.6,2.9-6.3,7.4-6.4c6.4-0.2,12.8-0.1,19.2-0.1
	c1.5,0,3,0,4.7,0c0.8-5,1-10.3,7.6-10.3c4.3,0,5.8,2.1,7.5,10.3c7,0,14,0,21.1,0c1.8,0,3.6-0.1,5.4,0.2c3.6,0.6,5.9,2.6,5.8,6.5
	c-0.1,3.6-2.3,5.7-5.7,6c-3.3,0.3-6.7,0.1-11.3,0.1c4.4,3,6.6,5.8,5.2,10.2c-0.2,0.7,1,2.1,1.8,2.9c1.9,1.7,4,3,5.9,4.6
	c2.7,2.3,3.4,5.1,1.4,8.1c-1.7,2.6-5.7,3.3-8.6,1.5c-2.2-1.4-4.2-3.2-5.3-4.1c-4,0.8-7.1,1.4-10.7,1.8c-0.7-0.1-1,0-1.2,0
	C296.9,392.4,297,392.6,297.2,392.7 M295.5,383.6c3.4-4.8,5.9-9.9,6.9-16.3c-2.9,0-5.4-0.1-7.9,0.1c-0.7,0.1-2,1-2,1.5
	c-0.1,5.7-0.1,11.5-0.1,18.1C293.8,385.4,294.4,384.7,295.5,383.6z"/>
<path class="st1" d="M323.9,817.2c0.2,10.5,0.6,20.7,0.1,30.9c-0.1,2.4-2.9,4.7-4.7,7.3c1.3,1.5,4.4,3.5,5.3,6.2
	c0.7,2.3-1.2,5.4-1.8,7.6c1.2,1.1,4.3,3.2,4,4c-0.9,2.5-3.1,4.5-5,6.6c-0.3,0.3-1.1,0.3-1.6,0.3c-15.1-0.1-30.1,0-45.2-0.5
	c-7.5-0.2-14.5-2.7-20.1-9c-1,2.3-1.7,4.2-2.6,6c-1.8,3.6-5.6,3.9-7.4,0.3c-1.1-2.2-1.4-5.1-1.1-7.6c0.6-5.5,2-10.9,2.8-16.4
	c0.5-3.5,1.9-6.1,5.7-5.8c3.9,0.2,4.7,3.1,4.8,6.6c0,2.5,0.9,4.9,1.5,7.4c0.5-0.1,1.1-0.1,1.6-0.2c0-5,0.1-10-0.1-15
	c0-0.6-1.7-1.6-2.6-1.7c-2.8-0.2-5.6,0-8.4-0.1c-2.9-0.1-4.8-1.6-4.8-4.6c0-3,1.8-4.6,4.8-4.6c10.2,0,20.4,0,30.6,0
	c2.9,0,4.9,1.4,5,4.4c0.1,3.3-2,4.7-5.1,4.8c-2.6,0.1-5.2,0-8.1,0c0,2.1,0,3.7,0,6c2.1,0,4-0.1,5.9,0c3.1,0.1,5.7,1.2,5.6,4.8
	c-0.1,3.3-2.4,4.5-5.5,4.4c-0.1,0-0.3,0-0.4,0c-5.4,0.2-7.6,3.3-5.6,8.4c0.3,0.8,1.6,1.4,2.5,1.6c1.6,0.4,3.3,0.6,5,0.6
	c2.6,0.1,5.3,0,7.4,0c0-3-1.1-6.5,0.2-8.4c2.3-3.4,6-6,10.6-5.7c1.7,0.1,3.8,1.3,4.6,2.6c0.5,0.9-0.7,3.3-1.7,4.4
	c-2.3,2.4-5.1,4.3-8.1,6.8c9,0,17.7,0,26.6,0c-1.5-5.2-11.2-7.5-4.7-15.6c-6.2,0-11.7,0-17.2,0c-6.7-0.1-9.4-2.7-9.4-9.4
	c0-8-0.1-15.9,0-23.9c0.1-5.7,2.7-8.2,8.4-8.8c1.5-0.1,2.8-1.2,4.2-1.8c-0.2-0.6-0.3-1.2-0.5-1.7c-3,0-6.1,0.1-9.1,0
	c-2.9-0.1-5.4-1.1-5.3-4.5c0.1-3.4,2.4-4.4,5.4-4.4c10.3,0,20.7,0,31,0c2.9,0,5.1,1.2,5.2,4.2c0.2,3.3-2.2,4.6-5.2,4.7
	c-2.4,0.1-4.8-0.1-7.1,0.2c-1.3,0.2-2.5,1.2-3.6,2.4C315.5,812.5,321.2,811,323.9,817.2 M302.3,842.4c-1.2,0.6-2.4,1.1-3.6,1.7
	c1.2,0.5,2.5,1.3,3.7,1.5c2.2,0.2,4.4,0.2,6.6,0c1.1-0.1,2.1-1.1,3.2-1.6c-1-0.5-2-1.3-3-1.4C307.2,842.3,305.1,842.4,302.3,842.4
	 M299.5,834.4c3.6,0.1,7.2,0.2,10.7,0.1c0.7,0,1.3-1,1.9-1.6c-0.6-0.5-1.2-1.3-1.8-1.3c-3.3-0.1-6.6-0.2-9.9,0
	C300,831.7,299.5,833.2,299.5,834.4 M305.3,820.6c-1.5,0-3.1-0.1-4.6,0.1c-0.7,0.1-1.3,1-2,1.5c0.7,0.5,1.3,1.3,2.1,1.5
	c1.6,0.2,3.4,0.3,5,0.1c2.2-0.3,4.3-0.9,6.4-1.4C310.2,821.7,308.1,821.1,305.3,820.6z"/>
<path class="st1" d="M268.7,752.8c2.4-1.4,4.6-3.4,7-3.5c6.4-0.5,12.8-0.3,19.2-0.1c5.6,0.1,8.3,3,8.4,8.7c0.1,5.6,0.1,11.2,0,16.7
	c-0.1,2.8,0.7,4.2,3.7,4c2.5-0.2,4.7-0.2,4.6-3.7c-0.1-9.3-0.1-18.7,0-28c0-2.2-0.8-3-2.9-3c-4,0-8.1,0.1-12.1,0
	c-5.6-0.2-8.4-3-8.5-8.6c-0.1-5.9-0.1-11.7,0-17.6c0.1-5.7,2.8-8.5,8.5-8.6c6.7-0.1,13.4-0.1,20.1,0c5.1,0.1,8.2,2.9,8.2,8.1
	c0.1,20.5,0.2,41-0.2,61.5c-0.2,9.4-10.5,15.9-19.3,12.2c-2.8-1.2-5.4-4.5-6.7-7.4c-1.6-3.8-3.6-5.1-7.5-4.7c-2.5,0.3-5,0.1-7.5,0
	c-2.2-0.1-3.7,0.1-5,2.5c-0.8,1.4-4,2.6-5.6,2.1c-2-0.6-5-2.9-5.1-4.5C267.7,770.2,268.2,761.7,268.7,752.8 M279.7,766.4
	c2.9,0.5,5.8,1.2,8.7,1.4c0.8,0.1,2.5-1.1,2.5-1.8c0-2.1-0.1-5.8-0.9-6c-3-0.7-6.3-0.7-9.4-0.1C280,760.2,279.9,763.7,279.7,766.4
	 M302.5,730.6c-0.6,0.7-1.2,1.5-1.8,2.2c0.7,0.5,1.4,1.3,2.2,1.4c2.2,0.2,4.5,0.2,6.7,0c0.7-0.1,1.3-1,2-1.6
	c-0.7-0.7-1.3-1.8-2.1-1.9C307.4,730.4,305.3,730.5,302.5,730.6 M309.9,721.8c0.5-0.7,1-1.3,1.5-2c-0.6-0.4-1.2-1.2-1.8-1.3
	c-2.3-0.2-4.7-0.2-7,0c-0.7,0.1-1.3,1-1.9,1.6c0.6,0.6,1.2,1.5,1.9,1.6C304.7,722,306.9,721.9,309.9,721.8z"/>
<path class="st1" d="M288.4,648.1c-0.2-7.7-0.4-15.1-0.3-22.5c0.1-4,3-6.8,7-6.9c7.4-0.2,14.8-0.3,22.2,0c4.8,0.1,7.5,3.3,7.5,8.7
	c0.1,8.8,0,17.6,0,26.4c0,10.5,0.1,20.9,0,31.4c-0.1,11.7-5.9,16.8-17.6,15.7c-4.6-0.4-7.4-3.5-8.6-7.5c-1.3-4.4-3.8-5.6-8-5.1
	c-2.3,0.3-4.7,0.1-7.1,0c-2.2-0.1-3.7,0.2-5,2.6c-0.8,1.4-3.9,2.5-5.6,2.1c-1.9-0.4-4.8-2.6-4.9-4.1c-0.5-8.2-0.5-16.4,0-24.6
	c0.2-3.3,3.1-5.3,6.6-5.3c7.1-0.1,14.2-0.2,21.3,0c4.6,0.2,7.1,3.2,7.2,8c0.1,5.9,0.1,11.7,0,17.6c-0.1,2.8,0.9,3.8,3.6,3.6
	c2.5-0.1,4.8,0,4.7-3.6c-0.1-9.4-0.1-18.7,0-28.1c0-2.5-1.2-3.1-3.3-3.1c-3.8,0.1-7.5-0.1-11.3,0
	C293.1,653.4,290.2,652.1,288.4,648.1 M290.8,676.5c0.9-7.4,0.9-7.4-6.5-7.4c-0.8,0-1.8-0.3-2.5,0.1c-0.9,0.5-2.1,1.4-2.2,2.2
	c-1,5.2-0.2,6.1,5,6.1C286.6,677.5,288.5,677.2,290.8,676.5 M311.2,643.3c1-2.1,0.2-3.2-2-3.2c-2.1-0.1-4.2-0.2-6.2,0.1
	c-0.9,0.1-1.6,1.3-2.5,2c0.9,0.6,1.7,1.6,2.7,1.7C305.6,643.9,308.1,643.7,311.2,643.3 M308.4,631.4c1-0.6,2-1.2,3.1-1.8
	c-1.1-0.6-2.1-1.4-3.2-1.6c-1.5-0.3-3.1-0.3-4.5,0c-1.1,0.2-2,1.2-3,1.8c0.9,0.5,1.8,1.3,2.9,1.5
	C304.8,631.6,306.3,631.4,308.4,631.4z"/>
<path class="st18" d="M259.9,756.1c0,9.3,0,18.3,0,27.2c0,5.3-2.3,8-6.4,8c-4.1,0-6.4-2.8-6.4-8.1c0-21.8,0-43.5,0-65.3
	c0-6.2,2.8-9,8.9-9.1c6.1-0.1,12.3-0.1,18.4,0c5.6,0.1,8.5,2.9,8.6,8.6c0.2,5.9,0.2,11.7,0,17.6c-0.2,5.8-3.1,8.5-9,8.6
	c-3.6,0.1-7.3,0.1-10.9,0c-2.3-0.1-3.3,0.9-3.2,3.2C260,749.8,259.9,752.8,259.9,756.1 M265.2,730.4c-0.7,0-1.5-0.2-2,0.1
	c-1.1,0.5-2.1,1.2-3.2,1.8c1,0.6,2,1.7,3.1,1.8c1.9,0.3,3.9,0.2,5.8-0.1c0.7-0.1,1.7-1.1,1.7-1.7c0-0.6-1-1.5-1.7-1.8
	C267.9,730.2,266.9,730.4,265.2,730.4 M262.9,721.9c1.9,0,3.9,0.1,5.8-0.1c0.6-0.1,1.2-0.8,1.8-1.3c-0.5-0.6-1.1-1.8-1.7-1.8
	c-2.3-0.2-4.7-0.2-7,0c-0.6,0-1.2,0.9-1.8,1.4C260.8,720.7,261.5,721.3,262.9,721.9z"/>
<path class="st18" d="M259.9,661.5c0,10.9,0,21.3,0,31.8c0,4.9-2.5,7.6-6.4,7.6c-4,0-6.3-2.8-6.4-7.7c-0.1-14.5,0-29,0-43.5
	c0-7.4-0.1-14.8,0-22.2c0.1-6.2,2.8-8.9,9-9c6-0.1,12-0.1,18,0c5.9,0.1,8.8,2.8,9,8.6c0.2,5.9,0.2,11.7,0,17.6
	c-0.2,5.6-3.1,8.4-8.7,8.5c-3.2,0.1-6.4,0.3-9.6,0c-4-0.4-5.3,1.3-4.8,5C260,659.2,259.9,660.2,259.9,661.5 M268.8,640
	c-2.2,0-4.4-0.3-6.6,0.1c-0.8,0.1-1.4,1.7-2.1,2.5c1.9,0.4,3.9,1,5.8,1c1.5,0,3-0.7,4.5-1.1C270.2,641.8,269.8,641,268.8,640
	 M265.9,631.4c1.5-0.5,3.1-0.9,4.6-1.4c-1.5-0.6-3.1-1.3-4.6-1.9c-0.2-0.1-0.6-0.1-0.8,0c-1.7,0.5-3.3,1-5,1.5
	C261.8,630.2,263.5,630.8,265.9,631.4z"/>
<path class="st17" d="M276.4,799.9c3.8,1.9,5.2,4.8,5.1,8.7c-0.1,4.3,0,8.6,0,13c-0.1,5.4-2.4,8.3-7.6,8.6c-6.1,0.3-12.3,0.3-18.4,0
	c-5.1-0.3-7.5-3.1-7.7-8.1c-0.1-5-0.1-10,0-15.1c0.2-4.5,2.9-7.3,7.4-7.4C262.2,799.5,269.1,799.7,276.4,799.9 M263.5,821.6
	c2-0.2,3.9-0.3,5.9-0.5c0-0.8-0.1-1.5-0.1-2.3c-2.2,0-4.4-0.2-6.6,0.1c-1.2,0.1-2.3,0.9-3.4,1.4
	C260.5,820.7,261.7,821.2,263.5,821.6 M263.6,810.7c1.9-0.1,3.9-0.3,6.4-0.4c-3.1-3.1-8.8-3-10.8,0
	C260.5,810.4,261.7,810.6,263.6,810.7z"/>
<path class="st13" d="M248.3,504.3c4.1-1.4,7.8-3,11.8-3.8c3-0.6,4.6,1.7,4.6,4.6c0,3.7,2.8,8.3-2.5,10.6c-2.5,1.1-4.3-0.4-4.8-3.1
	c-0.3-2-0.4-4-1.3-6.1c-1,2.8-1.8,5.6-2.9,8.4c-1.2,3.1-3.6,4.4-6.7,3.2c-3.3-1.3-3.4-4-1.9-6.9C245.9,509,247,506.8,248.3,504.3z"
	/>
<path class="st17" d="M307.7,532.3c4.2-4,7.3-4.1,11.1-0.6c1.6,1.5,3.7,3,4.4,4.9c0.7,1.9,0.8,4.9-0.2,6.5c-1.1,1.5-4,2.7-6,2.6
	C312.6,545.4,307,537.1,307.7,532.3z"/>
<path class="st13" d="M275.2,507.1c0.3,1.4,0.9,2.7,0.5,3.6c-0.7,1.6-1.9,3.8-3.1,4c-1.2,0.2-3.5-1.3-4.2-2.7
	c-1.1-2.1-1.7-4.8-1.7-7.2c0-1.6,1.3-3.2,2-4.8c1.7,0.8,3.8,1.3,5.1,2.5C274.7,503.4,274.7,505.3,275.2,507.1z"/>
<path class="st19" d="M1058.6,852.6c-0.8,16.4-1.6,32.4-2.4,48.4c0,0.1,0,0.3,0,0.4c-0.7,7,0,7.5,7.1,7c13.8-1,27.5-1.7,41.3-2.5
	c3.3-0.2,6.2,0.2,7.7,3.7c1.4,3.5-0.4,6-2.9,8c-8.2,6.7-16.6,13.2-25,19.7c-9.8,7.5-10,7.5-6.8,19.4c3.6,13.3,7.6,26.6,11.3,39.9
	c0.5,1.8,0.7,3.9,0.3,5.7c-0.8,4-5.4,6-10.2,3.6c-7.5-3.7-14.8-7.8-21.8-12.3c-5.7-3.7-11-8.1-16.4-12.2c-4.4-3.3-4.4-3.2-7.3,1.7
	c-7.7,13.1-15.4,26.2-23.2,39.2c-1,1.6-2.2,3.3-3.7,4.4c-3.6,2.8-8,1.2-9.1-3.2c-0.5-2-0.7-4.1-0.7-6.2c-0.1-14.8-0.2-29.6-0.1-44.4
	c0-3.5-0.7-4.9-4.7-5.4c-11.2-1.3-22.3-3.4-33.4-5.1c-3.4-0.5-6.9-0.8-10.4-1.3c-3.2-0.4-6.1-1.6-6.7-5.3c-0.6-3.7,2.1-5.5,5-6.9
	c8.8-4.2,17.6-8.5,26.6-12.4c3.7-1.6,4.2-3.6,3.5-7.4c-3.4-17.4-7.4-34.6-7.6-52.5c0-1.9-0.9-3.9-0.6-5.8c0.4-2,1.2-4.7,2.7-5.5
	c1.5-0.7,4.3,0.1,6,1.2c2.1,1.4,3.9,3.6,5.5,5.7c7.7,10.4,15.3,20.9,22.9,31.4c0.6,0.9,1.4,1.7,2.7,3.2c3-4.9,5.5-9.5,8.4-13.8
	c10.2-15.1,20.6-30.1,30.9-45.2c1.9-2.8,4.2-5.3,7.9-3.9C1058.6,845.7,1058.5,849.2,1058.6,852.6 M1077,929
	c4.3-3.4,8.6-6.8,12.9-10.2c-1.7-0.9-3.1-1-4.4-0.9c-10.7,1-21.3,2.1-32,3.1c-6.5,0.6-10.3-3.2-9.8-9.3c1.1-12.3,2.1-24.7,3.1-37
	c0.2-2.6,0-5.3,0-9.1c-1.4,1.6-1.9,2.1-2.3,2.6c-10.7,16.1-21.5,32.2-32.1,48.4c-3.6,5.5-7,5.9-10.9,0.4c-3.2-4.4-5.8-9.2-8.9-13.7
	c-4.4-6.5-9.1-12.8-13.6-19.2c-0.5,3.4-0.2,6.5,0.4,9.4c2.7,13.4,5.5,26.8,8.3,40.1c0.7,3.3,0.5,6.2-2.9,7.9
	c-4.9,2.4-9.8,4.8-14.6,7.2c-2.2,1.1-4.3,2.1-7.3,3.6c1.6,0.4,2.1,0.6,2.6,0.7c10.7,1.6,21.5,3,32.2,4.7c6.8,1.1,7.9,2.6,8,9.3
	c0.2,12,0.6,24,0.9,35.9c0,1,0.3,2,0.7,4.2c1.3-2,2.1-3.1,2.8-4.3c6.2-10.6,12.3-21.2,18.7-31.7c3.3-5.5,6.6-6,11.8-2.2
	c6.1,4.4,11.9,9.2,18,13.7c5.4,4,10.9,7.7,16.4,11.5c0.3-0.4,0.7-0.7,1-1.1c-0.3-1.2-0.5-2.3-0.9-3.5c-4-13.8-7.9-27.6-11.9-41.4
	c-1.5-5-0.2-8.9,4.3-11.9C1070.7,934.2,1073.5,931.7,1077,929z"/>
<path class="st20" d="M683.1,843.2c8.8,0,17.3,0,25.7,0c0.1,1.5,0.3,1.9,0.2,2.2c-4.9,14.1-9.9,28.1-14.7,42.3
	c-0.9,2.6-2.2,3.3-4.9,3.2c-5.6-0.3-11.2-0.1-16.7-0.1c-1.5,0-2.9-0.3-5-0.5c1.4-5.1,2.5-9.6,3.8-14.1c3.1-10.3,6.3-20.5,9.6-30.7
	C681.4,844.6,682.2,844,683.1,843.2z"/>
<path class="st20" d="M711.1,871.6c2.3-8.1,4.5-15.8,6.9-23.5c0.4-1.3,1.9-3.1,2.9-3.1c7.9,0.3,15.8,1.1,24,1.7
	c-0.3,1.4-0.5,2.5-0.9,3.5c-4.4,12.9-8.8,25.8-13.1,38.7c-0.8,2.5-1.8,3.7-4.6,3.5c-6.9-0.5-13.8-0.7-21.5-1
	C706.9,884.5,709,878.2,711.1,871.6z"/>
<path class="st20" d="M660.2,877c-0.5,1.8-1,3.3-1.4,4.7c-2.3,7.6-2.3,7.7-10.1,8c-3.9,0.2-7.8,0-12.3,0c1.6-5.4,3.1-10.4,4.7-15.4
	c3-9.4,5.9-18.9,9-28.3c0.4-1.2,2.1-2.7,3.3-2.7c5.8-0.3,11.7-0.1,18-0.1C667.6,854.7,664,865.7,660.2,877z"/>
<path class="st20" d="M749.6,892.8c-2.9,0-5.4,0-8.4,0c0.6-2.2,1.1-3.8,1.6-5.3c3.6-12.2,7.3-24.3,10.7-36.5
	c0.8-2.7,1.9-3.6,4.7-3.3c5.4,0.7,10.8,1.1,16.4,1.6c-3,10.5-5.8,20.6-8.7,30.8c-0.1,0.4-0.2,0.8-0.4,1.2
	C762.2,892.8,762.2,892.8,749.6,892.8z"/>
<path class="st5" d="M794.7,887.2c-1.4,4.3-4,5.9-8.4,5.4c-4.1-0.5-8.3-0.1-13.1-0.1c3.5-14.4,6.9-28.3,10.3-42
	c10.2-0.9,14.2,2.6,13.4,12.3C796.4,870.9,795.5,878.9,794.7,887.2z"/>
<path class="st5" d="M618.2,855.8c0.6-10.3,1.3-11.3,11.1-12.2c3.8-0.4,7.7-0.1,12.2-0.1c-1.9,5.6-3.8,10.9-5.6,16.2
	c-3,8.6-5.9,17.1-8.9,25.7c-0.7,2.1-1.3,4.4-4.5,3.7c-2.8-0.7-5.6-1.2-5.4-5C617.4,874.8,617.8,865.5,618.2,855.8z"/>
<path class="st21" d="M1013.4,420.9c51.6,3.2,102.9,5.5,154.1,9.8c21.6,1.8,42.8,7.5,64.2,11.7c3.5,0.7,6.8,2.4,10.3,3.5
	c13.6,4.3,19.3,14.2,21.3,27.7c3.3,22.9,0.7,45.7-1.5,68.4c-2.1,22.1-4.7,44.1-7.2,66.1c-1,8.7-2.1,17.5-3.8,26.1
	c-5.1,25-18.1,36.1-44.2,36.2c-13.7,0-27.5-1.8-41.2-3.1c-23.6-2.3-47.2-4.8-70.7-7.3c-32.4-3.4-64.9-7.1-97.3-10.3
	c-24.4-2.4-48.9-4.6-73.4-6.4c-28.7-2-57.4-3.2-86-5.3c-16.5-1.2-33-3.8-49.5-4.9c-28.7-1.9-57.2-5.6-85.4-11
	c-13.5-2.6-26.1-7.7-38.3-14.2c-13.1-7-18.3-18.5-19.6-32.1c-0.9-10.2-1.1-20.7,0-30.9c2.9-28.4,6-56.9,10.2-85.1
	c1.7-11.3,6-22.3,9.8-33.2c3-8.7,8.8-14.9,18.9-15c11.6-0.1,23.2-0.9,34.7-0.2c36.6,2.2,73.2,5.7,109.8,7.1
	c34.6,1.4,69.2,0.7,103.8,1.1C959.2,419.9,986.1,420.5,1013.4,420.9 M900.5,455.1c-18.2,13.3-24.9,41.9-14.4,61.8
	c3.1,5.8,7.7,9.6,14,10.9c10.5,2.3,20-0.2,27.8-7.8c13.8-13.5,18.3-43.8,9.2-60.8c-3.7-6.8-9.4-10-16.9-10.5
	C913,448.3,906.7,450.8,900.5,455.1 M961.6,490.4c-1.1,7.1-3.2,14.3-3.1,21.4c0.3,18.9,18.9,31.9,37.5,20.7
	c17.1-10.3,28.2-37.1,23.5-56.6c-4.5-19-23.2-25.6-39-14.1C970.7,468.8,965.7,478.8,961.6,490.4 M918.2,559.4
	c3.8,10.7,19.3,14.4,28.3,6.8c2.4-2.1,3.9-4.6,1.9-7.6c-2-3.1-4.9-2.9-7.7-1.2c-5.3,3.2-9.6,1.7-14-2c-1.4-1.2-4.1-2.3-5.4-1.7
	C919.8,554.3,919.1,557,918.2,559.4 M947.7,534c0.4-2.9,1.3-5.8,1-8.5c-0.2-1.6-2-4-3.4-4.3c-1.5-0.4-4.2,0.8-5.1,2.2
	c-1.5,2-2.2,4.8-2.7,7.3c-0.6,3.1-0.6,6.4,3,7.8C943.9,539.6,945.8,537.1,947.7,534z"/>
<path class="st22" d="M988.5,266.4c0.9-0.3,1.7-0.3,2.4-0.4c-0.5,3.2-1,6.3-1.8,9.4c-0.1,0.4-2.2,0.8-2.9,0.4
	c-0.7-0.4-1.4-2-1.2-2.7C985.8,271,987.1,268.8,988.5,266.4z"/>
<path class="st11" d="M313.2,495.7c0,9.5,0,9.3-9,9.5c-3.8,0.1-4.9-1.2-4.6-4.8c0.3-2.9,0.1-5.8,0-8.7c-0.1-2.1,0.8-3.1,2.9-2.9
	c1.4,0.1,2.8,0,4.2,0C314.1,488.8,313.1,488.2,313.2,495.7z"/>
<path class="st22" d="M275.5,447.5c-2.2,2.2-4.3,4-6.4,5.8c0-1.2-0.2-3.3,0.1-5.3c0.1-1,1.2-2.6,1.8-2.6
	C272.6,445.4,275.2,443.9,275.5,447.5z"/>
<path class="st23" d="M260.7,451.9c-1-1.2-1.8-2.3-2.7-3.2c-0.8-0.8-1.7-1.4-2.5-2c1.1-0.5,2.2-1,3.4-1.3c0.6-0.2,1.3,0.1,2.6,0.2
	c0,2.3,0,4.6,0,6.8c0,0-0.3,0.1-0.4,0C261,452.3,260.9,452.2,260.7,451.9z"/>
<path class="st23" d="M260.8,463.5c-1.8,0.2-3.3,0.2-5.1,0.2c0-2.7,0-5.1,0-6.9c1.3,1,3.2,2.2,4.7,3.8
	C261,461.1,260.9,462.4,260.8,463.5z"/>
<path class="st5" d="M269.9,460.9c2-1.3,3.8-2.3,6.7-3.9c-1.1,2.6-1.5,5-2.9,6.5C273,464.3,269.2,465.1,269.9,460.9z"/>
<path class="st20" d="M295.3,383.8c-0.8,0.9-1.5,1.6-2.9,3.1c0-6.6-0.1-12.4,0.1-18.1c0-0.5,1.3-1.4,2-1.5c2.5-0.2,5-0.1,7.9-0.1
	C301.4,373.7,298.8,378.8,295.3,383.8z"/>
<path class="st11" d="M297.3,392.6c-0.3-0.1-0.5-0.2-0.6-0.4c0.2-0.1,0.5-0.1,0.9-0.1C297.7,392.2,297.5,392.5,297.3,392.6z"/>
<path class="st22" d="M302.7,842.4c2.4,0,4.5-0.2,6.6,0.1c1,0.1,2,0.9,3,1.4c-1.1,0.6-2.1,1.5-3.2,1.6c-2.2,0.3-4.4,0.3-6.6,0
	c-1.3-0.1-2.5-0.9-3.7-1.5C299.9,843.5,301.1,843,302.7,842.4z"/>
<path class="st22" d="M299.3,834.2c0.2-1,0.7-2.5,1.3-2.6c3.3-0.2,6.6-0.2,9.9,0c0.6,0,1.2,0.9,1.8,1.3c-0.6,0.6-1.3,1.6-1.9,1.6
	C306.7,834.6,303.1,834.5,299.3,834.2z"/>
<path class="st22" d="M305.7,820.6c2.4,0.5,4.5,1.1,6.5,1.6c-2.1,0.5-4.2,1.1-6.4,1.4c-1.6,0.2-3.3,0.2-5-0.1
	c-0.8-0.1-1.4-0.9-2.1-1.5c0.7-0.5,1.3-1.4,2-1.5C302.2,820.4,303.8,820.6,305.7,820.6z"/>
<path class="st23" d="M279.6,766c0.3-2.3,0.3-5.8,1-6c3-0.6,6.4-0.7,9.4,0.1c0.8,0.2,1,3.9,0.9,6c0,0.6-1.7,1.8-2.5,1.8
	C285.5,767.6,282.6,766.9,279.6,766z"/>
<path class="st23" d="M302.8,730.6c2.5,0,4.6-0.2,6.6,0.1c0.8,0.1,1.4,1.3,2.1,1.9c-0.7,0.5-1.3,1.5-2,1.6c-2.2,0.2-4.5,0.2-6.7,0
	c-0.8-0.1-1.5-0.9-2.2-1.4C301.2,732.1,301.8,731.3,302.8,730.6z"/>
<path class="st23" d="M309.5,721.9c-2.6,0-4.8,0.1-7-0.1c-0.7-0.1-1.3-1-1.9-1.6c0.6-0.6,1.3-1.5,1.9-1.6c2.3-0.2,4.7-0.2,7,0
	c0.6,0,1.2,0.8,1.8,1.3C310.9,720.5,310.4,721.2,309.5,721.9z"/>
<path class="st23" d="M290.6,676.8c-2.1,0.4-4,0.7-6,0.7c-5.2,0-6-0.9-5-6.1c0.2-0.9,1.3-1.7,2.2-2.2c0.6-0.4,1.6-0.1,2.5-0.1
	C291.8,669.1,291.8,669.1,290.6,676.8z"/>
<path class="st22" d="M310.9,643.4c-2.8,0.3-5.3,0.5-7.7,0.3c-0.9-0.1-1.8-1.1-2.7-1.7c0.8-0.7,1.6-1.9,2.5-2c2-0.3,4.1-0.1,6.2-0.1
	C311.3,640.1,312.1,641.1,310.9,643.4z"/>
<path class="st23" d="M308,631.4c-1.8,0-3.2,0.2-4.5-0.1c-1-0.2-1.9-1-2.9-1.5c1-0.6,2-1.5,3-1.8c1.5-0.3,3.1-0.3,4.5,0
	c1.1,0.2,2.2,1,3.2,1.6C310.4,630.3,309.4,630.9,308,631.4z"/>
<path class="st22" d="M265.5,730.4c1.3,0,2.4-0.2,3.2,0.1c0.7,0.3,1.7,1.1,1.7,1.8c0,0.6-1,1.6-1.7,1.7c-1.9,0.3-3.9,0.3-5.8,0.1
	c-1.1-0.2-2-1.2-3.1-1.8c1-0.6,2.1-1.3,3.2-1.8C263.7,730.2,264.5,730.4,265.5,730.4z"/>
<path class="st23" d="M262.6,721.9c-1.1-0.6-1.8-1.2-2.5-1.8c0.6-0.5,1.1-1.3,1.8-1.4c2.3-0.2,4.7-0.2,7,0c0.6,0.1,1.1,1.2,1.7,1.8
	c-0.6,0.4-1.2,1.2-1.8,1.3C266.8,722,264.9,721.9,262.6,721.9z"/>
<path class="st22" d="M269.1,640.1c0.7,0.9,1,1.7,1.3,2.5c-1.5,0.4-3,1.1-4.5,1.1c-1.9,0-3.9-0.6-5.8-1c0.7-0.9,1.3-2.4,2.1-2.5
	C264.4,639.8,266.6,640,269.1,640.1z"/>
<path class="st23" d="M265.5,631.4c-2.1-0.6-3.8-1.2-5.5-1.8c1.7-0.5,3.3-1,5-1.5c0.3-0.1,0.6-0.1,0.8,0c1.5,0.6,3.1,1.3,4.6,1.9
	C269,630.5,267.4,631,265.5,631.4z"/>
<path class="st23" d="M263.2,821.6c-1.5-0.5-2.7-0.9-3.8-1.4c1.1-0.5,2.2-1.3,3.4-1.4c2.2-0.2,4.4-0.1,6.6-0.1
	c0,0.8,0.1,1.5,0.1,2.3C267.5,821.3,265.5,821.5,263.2,821.6z"/>
<path class="st23" d="M263.2,810.7c-1.5-0.1-2.6-0.3-4.1-0.4c2.1-3,7.7-3.1,10.8,0C267.4,810.4,265.5,810.6,263.2,810.7z"/>
<path class="st9" d="M1076.7,929.1c-3.2,2.5-6,5-9.1,7.1c-4.5,3-5.8,6.9-4.3,11.9c4,13.8,8,27.6,11.9,41.4c0.3,1.2,0.6,2.3,0.9,3.5
	c-0.3,0.4-0.7,0.7-1,1.1c-5.5-3.8-11-7.6-16.4-11.5c-6.1-4.5-11.9-9.3-18-13.7c-5.2-3.8-8.5-3.3-11.8,2.2
	c-6.4,10.5-12.4,21.1-18.7,31.7c-0.7,1.1-1.5,2.2-2.8,4.3c-0.4-2.2-0.7-3.2-0.7-4.2c-0.3-12-0.6-24-0.9-35.9c-0.1-6.7-1.2-8.3-8-9.3
	c-10.7-1.7-21.5-3.1-32.2-4.7c-0.5-0.1-1-0.3-2.6-0.7c3-1.5,5.2-2.5,7.3-3.6c4.9-2.4,9.8-4.7,14.6-7.2c3.4-1.7,3.6-4.6,2.9-7.9
	c-2.8-13.4-5.6-26.7-8.3-40.1c-0.6-3-0.9-6-0.4-9.4c4.5,6.4,9.2,12.7,13.6,19.2c3.1,4.5,5.7,9.3,8.9,13.7c3.9,5.4,7.3,5.1,10.9-0.4
	c10.6-16.2,21.4-32.3,32.1-48.4c0.4-0.6,0.9-1,2.3-2.6c0,3.8,0.2,6.5,0,9.1c-1,12.3-2,24.7-3.1,37c-0.5,6.2,3.3,9.9,9.8,9.3
	c10.7-1,21.3-2.1,32-3.1c1.3-0.1,2.7,0,4.4,0.9C1085.6,922.2,1081.3,925.6,1076.7,929.1z"/>
<path class="st24" d="M900.7,455c6-4.1,12.2-6.6,19.4-6.1c7.5,0.5,13.2,3.7,16.9,10.5c9.1,17,4.7,47.2-9.2,60.8
	c-7.8,7.6-17.2,10-27.8,7.8c-6.4-1.4-11-5.2-14-10.9C875.6,497.1,882.3,468.4,900.7,455 M910.5,476.2c3.7-5.4,7.4-10.9,11.5-17
	c-9.7-1.6-15.7,2.8-20.6,8.7c-9.2,11.1-10.4,24.3-8.9,38c0.3,2.9,1.2,5.8,2.4,8.4c1.5,3.1,3.7,3.3,5.5,0.4c4.5-7.2,8.7-14.6,13-21.9
	c0.2-0.4,0.1-1,0.2-1.9c-1.2-0.3-2.2-0.6-3.3-0.8c-4.7-0.7-5.9-3-3.7-7.2C907.8,480.7,909,478.7,910.5,476.2 M911.9,514.3
	c-0.5,1-0.9,2-1.5,3.4c18.8-1.5,26.8-38.3,17.5-53.6c-3.9,6.5-7.5,12.6-11.3,19c9,2.6,9.9,5,5.6,12.5
	C918.8,501.5,915.5,507.7,911.9,514.3z"/>
<path class="st24" d="M961.7,490c4-11.3,9-21.2,18.8-28.3c15.8-11.5,34.5-4.9,39,14.1c4.7,19.5-6.4,46.3-23.5,56.6
	c-18.6,11.2-37.2-1.7-37.5-20.7C958.4,504.7,960.5,497.5,961.7,490 M984.9,493.8c-3.4-2.3-3.3-5.5-1.5-8.5
	c3.4-5.6,7.2-10.9,10.9-16.3c0.8-1.2,1.6-2.3,2.4-3.5c-0.3-0.4-0.6-0.9-0.9-1.3c-3.1,1.3-6.4,2.2-9.2,3.9
	c-13.7,8.1-21.3,34.6-18.3,46.3c1,3.8,3.4,7.2,5.1,10.8c0.5-0.1,1-0.3,1.4-0.4c5.7-9.7,11.4-19.4,17.3-29.4
	C989.2,494.9,987.3,494.5,984.9,493.8 M1002.3,490.4c-0.3,2.5,0,5.4-1.1,7.4c-3.9,7.2-8.3,14.2-12.4,21.3c-1.3,2.2-2.5,4.4-3.7,6.7
	c0.3,0.4,0.6,0.7,0.9,1.1c1.8-0.8,3.7-1.3,5.4-2.3c7.8-4.6,12.3-11.9,16.1-19.8c3.2-6.8,6-13.8,5.2-21.7c-0.5-5.1-1.7-9.9-5.5-13.6
	c-1.6-1.5-2.9-1.6-4.1,0.3c-2.8,4.3-5.5,8.7-8.3,13c-1.5,2.3-1.1,3.7,1.8,4.5C998.4,487.8,1000.1,489,1002.3,490.4z"/>
<path class="st15" d="M918.2,559.1c1-2.1,1.6-4.7,3.1-5.5c1.3-0.6,4,0.5,5.4,1.7c4.3,3.8,8.7,5.3,14,2c2.8-1.7,5.7-1.8,7.7,1.2
	c2,3.1,0.5,5.6-1.9,7.6C937.5,573.8,922,570.1,918.2,559.1z"/>
<path class="st15" d="M947.5,534.2c-1.7,2.9-3.7,5.4-7.1,4.1c-3.6-1.3-3.6-4.7-3-7.8c0.5-2.5,1.2-5.3,2.7-7.3c1-1.4,3.6-2.6,5.1-2.2
	c1.5,0.4,3.3,2.7,3.4,4.3C948.9,528.2,948.1,531.1,947.5,534.2z"/>
<path class="st25" d="M910.4,476.4c-1.3,2.3-2.6,4.3-3.7,6.4c-2.2,4.3-1,6.5,3.7,7.2c1.1,0.2,2.1,0.5,3.3,0.8
	c-0.1,0.8,0,1.5-0.2,1.9c-4.3,7.3-8.5,14.7-13,21.9c-1.8,2.9-4.1,2.8-5.5-0.4c-1.2-2.6-2.1-5.5-2.4-8.4c-1.5-13.7-0.3-26.9,8.9-38
	c4.9-5.9,10.9-10.3,20.6-8.7C917.9,465.3,914.2,470.7,910.4,476.4z"/>
<path class="st10" d="M912,514c3.5-6.3,6.8-12.5,10.2-18.5c4.2-7.5,3.4-9.9-5.6-12.5c3.8-6.3,7.4-12.4,11.3-19
	c9.3,15.3,1.3,52.1-17.5,53.6C911,516.3,911.4,515.3,912,514z"/>
<path class="st25" d="M985.2,493.9c2.2,0.6,4.1,1,6.9,1.6c-5.9,10-11.6,19.7-17.3,29.4c-0.5,0.1-1,0.3-1.4,0.4
	c-1.7-3.6-4.1-7-5.1-10.8c-3.1-11.7,4.5-38.2,18.3-46.3c2.9-1.7,6.1-2.6,9.2-3.9c0.3,0.4,0.6,0.9,0.9,1.3c-0.8,1.2-1.6,2.3-2.4,3.5
	c-3.7,5.4-7.5,10.7-10.9,16.3C981.6,488.2,981.5,491.4,985.2,493.9z"/>
<path class="st26" d="M1002.2,490.2c-2-1.1-3.8-2.3-5.7-2.8c-2.9-0.8-3.3-2.1-1.8-4.5c2.8-4.3,5.5-8.7,8.3-13
	c1.2-1.9,2.5-1.8,4.1-0.3c3.9,3.7,5,8.5,5.5,13.6c0.8,7.8-1.9,14.8-5.2,21.7c-3.8,7.9-8.3,15.2-16.1,19.8c-1.7,1-3.6,1.5-5.4,2.3
	c-0.3-0.4-0.6-0.7-0.9-1.1c1.2-2.2,2.5-4.5,3.7-6.7c4.2-7.1,8.6-14,12.4-21.3C1002.4,495.8,1002,492.9,1002.2,490.2z"/>
</svg>
