<?xml version="1.0" encoding="utf-8"?>
<!-- Generator: Adobe Illustrator 22.1.0, SVG Export Plug-In . SVG Version: 6.00 Build 0)  -->
<svg version="1.1" id="Layer_1" xmlns="http://www.w3.org/2000/svg" xmlns:xlink="http://www.w3.org/1999/xlink" x="0px" y="0px"
	 viewBox="0 0 2000 1668" style="enable-background:new 0 0 2000 1668;" xml:space="preserve">
<style type="text/css">
	.st0{fill:#50C1E8;}
	.st1{fill:#51C2E8;}
	.st2{fill:#358FCE;}
	.st3{fill:#80D8FF;}
	.st4{fill:#3086CA;}
	.st5{fill:#FBFAE9;}
	.st6{fill:#83D9FF;}
	.st7{fill:#80D7FF;}
	.st8{fill:#3187CB;}
	.st9{fill:#3087CA;}
	.st10{fill:#3188CB;}
	.st11{fill:#FDFBE9;}
	.st12{fill:#2F86CA;}
	.st13{fill:#55C3E9;}
	.st14{fill:#56C4E9;}
	.st15{fill:#5CC5E8;}
	.st16{fill:#52C2E8;}
	.st17{fill:#53C2E8;}
	.st18{fill:#4FBFE7;}
	.st19{fill:#FCFBE9;}
	.st20{fill:#FEFCE9;}
	.st21{fill:#E3F2E9;}
	.st22{fill:#F7F9E9;}
	.st23{fill:#59C3E8;}
	.st24{fill:#58C3E8;}
	.st25{fill:#F8FDFE;}
	.st26{fill:#2D87CA;}
</style>
<path class="st0" d="M831.9,1178.9c-4.7-0.5-9.5-1-14.2-1.5c-8-0.9-16-1.6-24-2.8c-11.2-1.7-22.3-3.7-33.5-5.6
	c-2.5-0.4-5.1-1-8.1-1.6c0,2.8,0.2,5.6,0,8.3c-0.4,5.6-1.1,11.2-1.6,16.8c-0.2,2.9-0.1,5.4,2.1,8c10.7,12.7,17.5,27.7,24.4,42.6
	c6.6,14.6,10.1,30,13.5,45.5c3.4,15.3,3.2,31.1,2.6,46.7c-0.4,9.4-0.8,19-2.6,28.2c-2.1,10.3-5.6,20.4-9.1,30.4
	c-1.7,5.1-4.4,9.9-7.1,14.5c-6.3,11-17,16.2-28.3,20.1c-14,4.8-28.5,8.1-43.3,9.2c-13.6,1-27.2,1.1-40.8,0.9
	c-10.1-0.2-20.4-0.8-30.3-2.6c-13.3-2.5-26.5-5.9-39.5-9.6c-7.7-2.2-15.1-5.4-22.4-8.6c-11-4.7-16.5-13.8-18.3-25.1
	c-3.2-20,0.2-39.4,6.8-58.4c4.1-11.8,7.8-23.6,12.5-35.2c3.6-8.9,7.7-17.7,12.6-26c8.8-14.8,18.1-29.2,27.5-43.6
	c9.1-13.9,19.5-26.9,31.7-38.2c3.4-3.2,6.9-6.4,10.8-8.9c4.8-3.1,4.7-7.7,5.3-12.3c1-8,2.2-15.9,3.2-23.9c0.2-1.9,0.6-4.2-0.1-5.7
	c-0.6-1.2-2.9-1.6-4.4-2.4c-13.8-7.2-27.7-14.1-41.4-21.5c-16.6-9-31.5-20.3-45.6-32.8c-8.8-7.8-17.9-15.5-25.8-24.2
	c-11.6-12.7-22.2-26.2-33.3-39.4c-0.1,0.3-0.9,1.1-0.9,2c-0.1,13.7,0,27.4-0.1,41.1c-0.2,14-0.5,28.1-0.8,42.1
	c-0.2,9-0.5,18-0.8,27.1c-0.3,10.1-0.6,20.3-0.8,30.4c-0.3,9.7-0.6,19.4-0.8,29.1c-0.3,15.6-0.5,31.1-0.9,46.7
	c-0.1,2.7-1.8,5.4-1.5,8c0.6,5.1,2.8,10.1,3.1,15.2c0.5,8.2,2.9,14.6,9.2,20.5c9.7,9.1,13.2,21.9,16.5,34.3
	c3.6,13.6,0.2,26.4-7.6,37.6c-5.6,8-14.7,8.3-23.5,7.3c-3.9-0.5-7.6-2.2-12-3.6c0.2,1.8,0.7,3.6,0.7,5.5c0.1,7,0.1,14,0,21
	c-0.1,3.1,0,6.4-0.9,9.3c-2.7,8.9-9.8,12.5-19,11c-5.5-0.9-10.5-2.4-15-5.7c-1.2-0.9-2.2-2-3.6-3.3c-2.7,11.2-8.7,18.6-21.5,18
	c-11.3-0.5-17.4-7-20.2-17.7c-2.1,1.7-3.7,3.4-5.7,4.3c-9,4.4-18.4,4.3-25.9-2.3c-4.3-3.8-7-9.8-9.5-15.3
	c-4.3-9.5-4.1-19.7-2.7-29.9c1.2-8.3,1.1-16.8,2.8-25c1.5-7.6,4.6-14.8,6.9-22.2c0.9-2.9,1.8-6,2.1-9c0.8-9.6,0.8-19.3,1.9-28.9
	c1.3-11.1,7.7-19.9,14-28.8c1-1.3,1.7-3.2,1.7-4.8c-0.1-10.6-0.7-21.1-0.7-31.7c0-15.4,0.3-30.9,0.8-46.3
	c0.5-14.7,1.6-29.5,2.4-44.2c0.5-8.5,1.1-17,1.7-25.5c0.9-12.4,1.7-24.8,2.6-37.2c0.7-9.9,1.5-19.8,2.5-29.7
	c1.3-12.7,2.5-25.3,4.2-37.9c1.9-13.5,4.1-26.9,6.7-40.2c2.3-11.9,5.4-23.7,8-35.6c0.2-1.1,0.2-2.2,0.3-3.3c0-7,0.3-14,0-20.9
	c-0.6-11,1.4-21.6,5.2-31.7c3.8-10,7.9-20.1,13.5-29.2c9.4-15.4,23.5-26.2,38.6-35.9c12.1-7.7,25.4-12.4,39.3-14
	c12.1-1.4,24.5-1.5,36.7,1.5c7.9,1.9,15.5,3.9,21,10.3c0.4,0.5,0.8,1.1,1.1,1.7c13.2-8.8,28.2-14,43-19.5
	c14.3-5.3,29.3-8.1,44.4-10.4c13.3-2,26.7-4.2,40.1-5.7c8.1-0.9,16.3-0.4,24.5-1c11.2-0.8,22.4-2.3,33.6-3.2
	c8-0.6,16.1-0.8,24.1-0.9c10.9-0.2,21.8,0,32.7-0.1c3.6,0,7.1-0.8,10.7-0.7c8.7,0.1,17.5,0.3,26.2,0.9c4.1,0.3,5.7-1.4,6.1-5.1
	c0.2-1.5,0.6-2.9,0.9-4.9c-8.3-1.2-16.7-2.3-25-3.5c-6-0.9-11.9-1.6-17.9-2.7c-8.7-1.5-17.4-3.2-26-4.9c-7.5-1.4-15-2.7-22.3-4.5
	c-18.8-4.5-37.4-9.6-56.3-13.7c-11.5-2.5-23.3-3.9-35-5.2c-16.4-1.8-31.7-6.7-46.1-14.6c-10.2-5.6-20.9-10.7-30.2-17.6
	c-8.7-6.4-16.2-14.7-23.5-22.7c-4.8-5.2-9.3-11.1-12.5-17.4c-2.8-5.6-4.1-12.1-5.1-18.3c-2.5-15.6-3.4-31.3-2.6-47.1
	c0.5-10,2-20,3-30c0.7-6.5,1.1-12.9,1.9-19.4c1.5-12.7,3-25.3,4.9-38c1.4-9.4,3.1-18.7,5.2-27.9c2.9-12.9,6.5-25.7,9.5-38.6
	c3.4-14.2,9.5-27.2,18.2-38.7c9.8-12.9,21.3-24.7,36.3-31.3c10.8-4.7,22.6-7.6,34.3-9.4c13.4-2,27.2-2.4,40.8-2.7
	c12.2-0.3,24.4,0.3,36.6,0.7c12.4,0.4,24.8,0.9,37.2,1.7c13.7,0.9,27.4,2.2,41.1,3.3c1.5,0.1,3.1,0,4.6,0.1
	c14.5,1.1,29,2.2,43.5,3.3c8.6,0.6,17.3,1.1,25.9,1.7c2.4,0.2,4.9,0.4,7.5,0.7c0.6-6.9,1.1-13.9,2-20.8c0.7-5.8,1.4-11.6,2.8-17.3
	c2.2-8.7,5-17.3,7.6-26c2.9-9.4,7.9-17.8,14.1-25.3c5.7-6.9,11.2-14,18-19.8c9.3-7.9,21.1-11.4,32.8-14.6c10.6-2.9,21.3-3,32.2-1
	c14.5,2.6,26.9,8.8,37,19.6c5.5,5.9,8,13.2,10.4,20.5c5.5,16.2,5.5,33,4.9,49.7c-0.4,10.8-2.1,21.6-3.2,32.4c-0.5,4.9-0.7,9.9-1,15
	c7.5,0.7,14.6,1.4,21.7,2c11.8,0.9,23.6,1.7,35.4,2.5c4.8,0.3,9.6,0.4,14.4,0.9c8.3,0.7,16.6,1.7,24.9,2.4c2.4,0.2,4.8-0.1,7.1,0.1
	c11.1,1,22.1,2.2,33.1,3.3c7.8,0.7,15.6,1.1,23.4,1.9c9.8,0.9,19.5,2.2,29.3,3.1c10.1,0.9,19.8,3.1,29.3,6.7
	c11.4,4.3,21.6,10.3,31,18c13.2,10.7,21.6,24.2,25.5,40.6c1.7,7.3,2.5,14.7,3.8,22.1c4.1,22,6,44.2,5,66.5c-0.5,10-2,19.9-3.1,29.8
	c-0.6,6-1.1,12.1-1.8,18.1c-1.6,12.9-3.1,25.9-5,38.7c-2,12.9-3.9,25.8-6.8,38.5c-3.5,15.4-7.8,30.7-12.2,45.8
	c-2.2,7.5-5,14.8-8.3,21.8c-4.2,9-11,16.2-17.4,23.7c-9.1,10.6-21.7,14.4-33.9,19.2c-15.1,5.9-30.9,8.6-46.5,12.3
	c-4.1,1-8.5,0.8-12.6,1.7c-7.4,1.7-14.9,1-22.4,0.9c-8.1-0.1-16.2-0.8-24.3-1.2c0,0.3-0.1,0.7-0.1,1c7.1,2.4,14.4,4.2,21.1,7.3
	c11.2,5.2,22.1,11.3,33.1,17.1c5.5,2.9,10.8,6.2,16.2,9.3c0.1,0.1,0.3,0,0.4,0.1c1.7,1.1,3.5,3.2,4.9,3c1.4-0.2,2.2-3.1,3.6-4.4
	c6.2-5.5,12.8-10.3,21-12.8c13.4-4.2,27-6.1,40.9-4.9c6.6,0.6,13.1,2.8,19.5,5c3.6,1.2,5.9,1.7,9-1.4c15.1-15.2,31-29.7,45.7-45.3
	c9-9.6,16.3-20.7,24.5-31.1c4.4-5.5,9.1-10.8,13.3-16.5c10.4-13.9,20.6-27.9,30.9-41.8c6.3-8.5,13-16.8,18.9-25.6
	c6.2-9.3,11.9-19.1,17.5-28.8c9.1-15.7,18-31.5,26.8-47.3c2.1-3.8,4-7.7,5.8-11.6c0.4-0.9,0.1-2.4-0.5-3.3c-4.5-7.7-6.3-16-5.6-24.8
	c0.6-6.9,1.8-13.7,2.7-20.7c-3.9-3.4-8.5-6.9-12.6-11c-8.9-8.8-15.7-18.8-15.3-32c0.6-17,10.7-27,27.7-29.3
	c11.1-1.5,20.1,1.7,28.1,8.8c5.3,4.8,8.5,11.1,11.3,17.7c0.3,0.6,0.6,1.2,1.5,3c1.3-5,2.2-9.1,3.5-13c2.1-6.4,3.8-13.1,6.7-19.1
	c3.5-7.2,7.5-14.3,12.5-20.5c6.9-8.5,16-12.3,27.5-10.4c8.6,1.5,14.7,5.5,18,13.4c1.5,3.5,2.2,7.4,3.4,11.4
	c10.3-8.3,21.3-12.3,33.3-5.4c12.1,7,12.6,19.2,11.6,30.9c6.5-1.1,12.7-2.7,19.1-3.1c8.3-0.5,17.3,7.2,18.6,15.4
	c0.7,4.3,1.6,8.6,1.6,12.9c0.3,14.7-6.5,27.2-13.8,39.1c-5.6,9.2-12.5,17.8-19.9,25.7c-4.6,5-11,8.2-16.5,12.3
	c-0.8,0.6-1.5,1.5-2,2.4c-4.4,7.1-7.9,14.8-15,20.1c-9.1,6.7-18.5,12.5-29.6,15.1c-1.1,0.3-2.4,1.5-2.8,2.6
	c-3.5,10-6.5,20.1-10.1,30c-4.7,12.8-9.3,25.6-15,37.9c-5.3,11.3-12.2,21.9-18.4,32.9c-6.8,12.1-13,24.4-20.2,36.2
	c-4.4,7.2-10.2,13.7-15.5,20.4c-7.4,9.3-14.9,18.5-22.5,27.6c-4.9,5.9-10.2,11.4-15,17.3c-6.5,7.9-12.6,16.1-19,24
	c-5.8,7.1-11.7,14-17.6,21.1c-4,4.7-7.7,9.6-11.8,14.3c-5,5.7-10.1,11.4-15.5,16.7c-12.3,12.2-24.8,24.1-37.2,36.1
	c-0.2,0.2-0.4,0.5-0.6,0.6c-6.2,2.6-6.7,8.3-7.7,13.9c-1.6,9.2-5.2,17.8-10.2,25.8c-3.4,5.4-6.4,11.2-10.5,16.1
	c-5.3,6.3-11.1,12.4-17.6,17.4c-6,4.6-13,8.3-20.1,11c-6.7,2.6-14.1,3.9-21.3,5c-6.1,0.9-12.4,0.6-18.6,0.9c-0.4,0-0.8,0.1-1.2,0.1
	c-3-0.2-6.5-1.5-8.8-0.3c-2,1-2.6,4.7-3.7,7.3c-6.7,16.5-16.9,30.8-28.4,44.2c-5.3,6.2-10.5,12.6-16.5,17.9
	c-12.6,11.2-25,22.9-39,32.1c-16.3,10.8-34.1,19.6-51.6,28.4c-14,7-28.6,12.8-43.1,19c-3.1,1.3-6.5,1.9-9.7,3
	c-0.8,0.3-1.9,1.4-1.9,2.2c-1,10.1-1.4,20.3-2.8,30.3c-0.9,6.2,2.6,9.5,6.6,12.6c14.9,11.4,26.8,25.4,37.2,40.9
	c9,13.4,18.3,26.6,26.3,40.5c9.5,16.6,18.4,33.5,23.4,52.2c2.9,10.9,7.5,21.3,10.1,32.3c3.8,16,5.2,32.4,0.4,48.5
	c-2.3,7.6-7.2,13.8-14.5,17.4c-16.8,8.3-34.6,13.6-53,17.1c-12.3,2.4-24.6,4-37.1,4.1c-13.5,0-27,1.1-40.4,0.6
	c-9.3-0.4-18.5-2.6-27.7-4.5c-13.9-2.9-27.7-6.2-41.5-9.5c-15.6-3.8-28.4-11.7-35.9-26.4c-1.8-3.6-2.5-8-2.7-12.1
	c-0.7-14.3,1.4-28.5,4-42.5c2.3-12.3,4-24.7,6.9-36.8c4.6-19,9.4-38.1,15.2-56.8c2.8-9.1,7.8-17.6,12-26.3c1.8-3.6,2.7-7.2,3-11.3
	c1-12.4,2.6-24.8,4.1-37.1c0.2-1.3,1-2.4,1.8-4.6c-39.4,7.6-78.8,11.6-119.2,12.6C847.4,1178.8,839.7,1178.8,831.9,1178.9
	 M1155.8,782.5c-18.1-3.9-36.1-8.3-54.4-11.6c-21.1-3.8-41.8-10-63.4-10.9c-17.8-0.7-35.6-2.2-53.4-3c-7.2-0.3-14.5,0.7-21.7,0.6
	c-3.8-0.1-6,0.9-6.7,4.9c-0.5,2.6-1.7,5-2.5,7.5c-1.2,3.7-3.5,5.8-7.5,6.2c-15.1,1.6-30.1,0.5-45-1.5c-10.3-1.4-20.5-4-30.5-6.8
	c-6.5-1.8-7.7-4.2-7-10.9c0.3-2.7-0.7-3.6-3.1-3.5c-3.9,0.2-7.8,0.6-11.7,0.7c-19.7,0.4-39.3,0.6-59,1c-1.7,0-3.3,0.1-5,0.3
	c-12.9,1.2-25.7,3.3-38.6,3.6c-20.7,0.5-41.1,2.5-61.6,5c-26.6,3.2-52.6,8.6-77,19.9c-11.6,5.4-22.6,12.1-33.5,18.8
	c-22,13.3-39.6,31.3-53.2,52.9c-10.4,16.5-15.2,35.2-18.5,54.3c-2.6,15.1-3.9,30.2-1.3,45.3c3.2,19,9.3,37.1,19.9,53.4
	c16.5,25.5,37,47.4,60.3,66.7c22.3,18.5,46.5,34,73,46c23.4,10.6,47.2,20.3,72.3,26.2c18.7,4.4,37.6,8.1,56.6,11.2
	c16.2,2.7,32.6,4.6,48.9,5.8c12.6,0.9,25.3,0.3,38,0.1c6.5-0.1,13.1-0.4,19.6-1c16.9-1.7,33.8-3.5,50.6-5.7
	c20.1-2.6,39.9-6.2,59.3-12.3c17.3-5.5,34.6-10.9,51.9-16.2c12.3-3.7,25.1-6,36.8-11c22.7-9.6,44.9-20.5,67.1-31.3
	c8.9-4.3,17.4-9.5,25.4-15.3c18.8-13.5,36.3-28.7,51-46.8c10.8-13.3,20.9-27.3,26.6-43.7c8.1-23.6,15.8-47.3,17.2-72.6
	c0.7-12,1.4-23.9-1.9-35.7c-4.2-14.8-11.4-28-23.1-38.1c-13.3-11.5-27.7-21.4-43.1-30.2C1191.4,795.6,1174.5,788,1155.8,782.5
	 M1060.8,362.4c-4-0.3-8-0.6-12.1-0.9c-23.5-1.7-46.9-3.3-70.4-5c-8.3-0.6-16.7-1.1-25-1.9c-11.9-1.2-23.8-2.8-35.7-3.9
	c-17.2-1.6-34.4-3-51.6-4.4c-21.2-1.7-42.4-3.5-63.7-4.8c-20.3-1.2-40.6-2-60.9-2.6c-19.9-0.6-39.9-0.8-59.8-0.8
	c-10.3,0-20.1,2.2-29.4,7.1c-11.6,6-20.7,14.9-29.4,24.3c-9.6,10.4-16.3,22.4-20.1,35.8c-4.2,14.7-7.9,29.6-11,44.7
	c-3,14.4-5.1,29.1-7.1,43.7c-1.7,11.7-2.8,23.5-4,35.3c-1.3,12.6-3.1,25.2-3.3,37.8c-0.1,12.3,1.1,24.8,2.6,37
	c0.8,6.8,2.1,14.2,5.6,19.8c7.4,11.9,16.6,23.2,28.5,30.8c13.8,8.8,28.5,16.3,43.2,23.6c6.4,3.1,13.7,4.6,20.8,5.9
	c15.7,2.9,31.7,4.8,47.4,7.8c10.7,2,21,5.7,31.6,7.9c29.4,6.3,58.8,12.9,88.7,16.6c24.2,3,48.2,7.1,72.3,10.6
	c22.9,3.2,45.8,6.4,68.7,9.3c25.5,3.2,51.1,6.2,76.7,9c19.9,2.2,39.9,4.4,59.8,6c23.3,1.9,46.6,3.8,70,4.7c8.3,0.3,16.8-2,25.2-3.1
	c20.8-2.7,40.5-9,59.6-17.4c10.1-4.4,16.7-13.4,23-22c8.8-11.9,12.5-26.2,16.1-40.2c4.8-18.3,8.2-37,11.9-55.6
	c2.3-11.3,4.4-22.7,5.8-34.2c2.4-19.9,4.8-39.8,6-59.8c0.9-14.7,0.3-29.5-0.6-44.2c-0.7-10.9-2.9-21.8-4.4-32.7
	c-1.7-12.1-4.4-23.9-12-33.9c-11.9-15.6-27.7-26-46.6-29.9c-19.1-4-38.8-5.5-58.3-7.8c-13.1-1.5-26.3-2.5-39.5-3.6
	c-16.4-1.4-32.7-2.7-49.1-4c-9.7-0.7-19.5-1.3-29.2-2C1088,364.5,1074.8,363.5,1060.8,362.4 M1128.3,1413.4
	c9.6-3.5,19.2-6.7,28.7-10.4c6.3-2.5,10.4-7.1,12.4-13.7c2.9-9.2,2.5-18.6,0.8-27.7c-2-10.6-4.6-21.2-8.1-31.5
	c-4.6-13.9-9.4-27.8-15.7-40.9c-13.7-28.5-31.6-54.5-50.8-79.6c-8.8-11.4-19.2-21.2-32.7-27.5c-10.7-5-22-6.7-33-3.9
	c-15.6,4-29,12.5-39.1,25.7c-14.2,18.5-23.7,39.3-29.7,61.8c-1.8,6.6-3.1,13.3-5.2,19.8c-8.9,27.5-12.3,56-15.3,84.5
	c-0.5,4.8-0.6,9.9,0.6,14.5c2.7,10.2,10.3,17,19.8,19.9c16.4,5,33.1,8.8,49.8,12.7c16.1,3.8,32.4,5.6,48.9,4.8
	c8.2-0.4,16.4-1.3,24.6-1.5C1099.2,1420.2,1113.4,1417.1,1128.3,1413.4 M682.9,1181.9c-19.4,4.8-34,16.8-45.3,32.4
	c-14,19.3-27.3,39.1-39.9,59.3c-16.8,26.9-27,56.6-33.5,87.4c-2.3,10.7-3.2,21.7,0.2,32.6c2,6.2,5.8,10.9,11.5,13.1
	c12.1,4.7,24.3,8.9,36.8,12.5c19.4,5.6,39.6,5.6,59.6,6.7c24.5,1.3,48.4-2.7,71.6-10.4c7.9-2.6,15.3-6.8,19.6-14.2
	c8.3-14.1,13.3-29.5,15.4-45.7c1-8.1,1-16.4,1.1-24.6c0.1-9.2,0.6-18.4-0.6-27.5c-2.7-21.8-8.1-43-17.2-63.1
	c-6.8-15-14.7-29.4-26.8-40.6C721,1186.6,704,1178.9,682.9,1181.9 M1282.6,860.1c7.4,18.9,8,38.4,4.8,58c-2.6,16.3-5,32.7-10.3,48.5
	c-1.1,3.2,0.3,4.6,3.3,4.7c3.6,0.1,7.3,0.1,10.9,0.1c21.8-0.2,40.7-8.3,54.9-24.6c18-20.6,27.6-44.5,23.4-72.8
	c-3.4-23.5-11.8-44.1-30.8-59.3c-4.8-3.8-9.4-8.2-14.9-10.6c-14-6.3-28.8-8.7-44.1-6.1c-11.7,2-23.5,3.9-31.9,13.8
	c-2.9,3.4-3.1,4.4,0.4,6.9C1263.3,829.3,1275.4,842.2,1282.6,860.1 M1545.7,464.6c-6,4.2-11.5,8.7-15.3,15.2
	c-5.2,9-8.2,18.6-9.3,28.8c-1.7,15.8,3.2,28.4,16.7,37.5c9.8,6.7,19.9,12.1,31.4,15.1c12.7,3.3,25.3,5.3,38.3,2.2
	c33.1-8.1,49.3-42.7,36.4-70c-9.5-20-25.2-30.2-45.8-34.4c-4.9-1-10-0.9-15-1.3C1570.2,456.6,1557.9,458.7,1545.7,464.6
	 M448.7,835.9c-3.6,9.7-9,19.1-10.3,29c-1.8,13.5-1.5,27.5-0.4,41.2c1.8,21.8,14.8,37.2,32.3,48.9c5.7,3.8,12.2,6.3,18.6,7.5
	c-5.9-73.9,18.2-132.8,83.9-172.5c-3-1.8-5.1-3.5-7.5-4.3c-14-5.1-28.5-5.6-42.9-3.8c-16.2,2.1-30.5,9.3-43.6,19.1
	C466.2,810.3,456.1,821.4,448.7,835.9 M416.6,1237.6c-13.8,7.5-22.9,18.7-25.1,34.4c-1.2,8.6-1.5,17.5-1,26.3
	c0.4,8.3,2.1,16.9,8.6,23c15.4,14.5,34.4,17.8,53.3,11.4c25.6-8.6,40.6-28.1,43.8-55.1c1.7-14.3-2.2-27.8-15.3-35.7
	C460.8,1229.5,439.2,1228.6,416.6,1237.6 M1000.6,309.6c18.8,2.5,37.6,5,56.3,7.5c2.8,0.4,5.3,0.9,5.3-3.4
	c0.1-12.5,0.4-25.1,0.5-37.6c0.1-9.5-2.6-18.4-5.8-27.2c-2.6-7.1-7.4-12.5-13.8-16.2c-17.7-10.5-36.4-12.9-55.8-5.5
	c-8.6,3.2-17.5,6.1-24.2,12.8c-17,17.1-27.7,37.6-31.7,61.4c-0.2,1,0,2.1,0,3.6c6.4,0.4,12.6,0.8,18.8,1.2
	C966.8,307.2,983.3,308.4,1000.6,309.6 M1469.2,741.3c-9.1-16.6-21.1-30.8-34.7-43.7c-2.3-2.1-3.6-1.2-5.1,0.6
	c-4.4,5.4-8.9,10.7-13.2,16.2c-7.1,9.1-13.9,18.5-21,27.6c-3.3,4.2-7,8.2-10.3,12c24,19.5,39.2,44.8,51.9,73.7
	c1.8-2.4,2.9-4,4.1-5.5c13.1-16.4,26.2-32.9,39.5-49.2c1.9-2.3,2.3-4.3,1.1-6.8C1477.5,758.1,1473.5,750,1469.2,741.3 M1448.7,671.8
	c-3,4-5.9,8.2-8.9,12.1c-1.8,2.4-1.8,4,0.8,5.8c3,2,5.8,4.3,8.5,6.8c17.9,16.4,30.5,36.5,40.9,58.1c0.5,1.1,1.1,2.1,2,3.7
	c1.5-1.3,2.8-2.1,3.7-3.2c11.9-14.6,23.8-29.1,35.5-43.8c4.3-5.4,4.2-5.5,0.8-11.2c-0.8-1.3-1.3-2.8-2.1-4.1
	c-4.2-7.1-7.8-14.6-12.8-21c-8.9-11.4-18.6-22.2-28-33.2c-3.2-3.8-6.5-7.4-10-11.4C1468.7,644.3,1458.9,657.8,1448.7,671.8
	 M1401.4,864c6.5-6.4,12.6-13.1,19.5-18.9c5.6-4.6,6-9.2,3.6-15.5c-6.2-16.4-15.1-31.1-25.6-44.9c-5.8-7.6-12.8-14.3-19.4-21.2
	c-0.7-0.8-3.6-0.7-4.5,0.1c-11.4,10.9-22.6,21.9-34,32.9c-2.3,2.3-1.9,3.7,0.5,5.7c4.9,3.9,10,7.7,14.2,12.2
	c16.2,17.3,23.9,38.2,26.1,61.5c0.1,1.5,0.7,3,1.2,5.5C1389.6,875.3,1395.3,869.8,1401.4,864 M1487.5,625.8c0.8,0.6,1.7,1.1,2.3,1.7
	c9.3,9.6,19.1,18.8,27.8,28.9c6.7,7.9,12.1,17,17.9,25.6c2.2,3.3,3.9,6.8,6.3,11c2.3-4.3,4.1-7.8,6-11.1
	c7.6-13.5,15.2-26.9,22.9-40.3c1.3-2.2,1.3-4-0.5-6c-8.9-10.1-17.1-21-26.7-30.3c-9.4-9.2-20.3-16.8-30.6-25.1
	c-4.1-3.3-4.7-3.1-7.4,1.8c-6.8,12.5-13.5,25-20.4,37.4C1483.5,622.3,1484.3,624,1487.5,625.8 M433.8,1125.9
	c-7.4-3.4-14.8-6.7-22.4-10.2c-0.1,1.9-0.4,4.2-0.5,6.5c-0.8,15.1-1.6,30.3-2.2,45.5c-0.1,1.4,1.2,3.6,2.4,4.2
	c5.8,2.7,11.6,5.8,17.7,7.3c11,2.5,22.1,4.8,33.3,5.5c9.2,0.5,18.5-1.4,27.8-2.4c2.5-0.3,4.2-1.5,4.2-4.6
	c0.1-10.3,0.5-20.6,0.8-30.9c0.1-3.6-0.1-7.3,0.4-10.8c0.5-3.5-1-3.7-3.8-3.4C472.1,1134.5,453,1132.7,433.8,1125.9 M476.9,1120.4
	c4.9-0.3,9.7-0.6,14.6-0.9c2.9-0.2,4.4-1.5,4.4-4.8c0.1-12.4,0.5-24.8,0.8-37.2c0-2,0.2-4,0.3-6.2c-30.1,2.6-56.7-5.6-81.4-22.3
	c-0.4,6.8-0.8,13.1-1.3,19.5c-0.7,10.3-1.6,20.5-2.1,30.8c-0.1,1.6,1.4,3.9,2.8,4.8C433.8,1115.7,454.5,1119.9,476.9,1120.4
	 M1049.6,349.2c2.1,0.2,4.2,0.7,6.2,0.6c1-0.1,2.6-1.3,2.7-2.2c0.8-5.2,1.2-10.5,1.8-15.8c0.3-2.4-0.7-3.6-3.2-3.9
	c-3.9-0.5-7.7-1.5-11.5-2c-14.8-1.9-29.5-3.7-44.3-5.3c-11.5-1.3-23-2.2-34.5-3.2c-11.4-1-22.7-1.9-34.1-2.5
	c-1.4-0.1-4.1,1.4-4.3,2.5c-1.2,7.2-1.8,14.5-2.7,22.3c4,0.4,7.6,0.8,11.1,1.1c17.1,1.4,34.1,2.8,51.2,4c6.2,0.5,12.5,0.5,18.8,1
	C1020.8,346.9,1034.8,348.1,1049.6,349.2 M464.1,1057c9.6,2.4,19.2,2.9,29,1.9c3.1-0.3,4.4-1.6,4.5-5c0.4-8.7,1.2-17.5,2.1-26.2
	c0.2-2.5-0.4-3.5-3-3.7c-3.5-0.2-6.9-0.6-10.3-1.3c-18.6-3.7-35.8-11.3-52.3-20.5c-4.4-2.5-8.7-5.2-13.4-8c-0.5,2.1-0.9,3.6-1.1,5.1
	c-0.9,9.7-1.6,19.4-2.6,29.1c-0.6,5.7,0.1,9.5,6.1,12.8C436,1048.1,449.2,1053.8,464.1,1057 M453.1,999.4c6.1,2.3,12.1,5,18.4,6.9
	c7.6,2.3,15.3,4.2,23,5.8c1.9,0.4,5.7-0.6,5.9-1.6c1.1-4.7,2.6-9.5-0.1-14.6c-2.4-4.5-4.1-9.5-5.4-14.5c-1.1-4.1-3.1-6.1-7.4-7.1
	c-19.7-4.3-35.6-14.8-47.4-31.3c-3.2-4.4-6-9.1-9.2-14.1c-0.3,1-0.5,1.6-0.6,2.2c-2.6,15.2-5.1,30.5-8,45.7
	c-0.8,4.3,0.2,6.8,4.1,8.8C435.3,990.1,443.9,994.7,453.1,999.4 M407.9,1185.1c0.2,14.5,0.5,29.1,0.7,44c30.4-13.2,58.5-11,85.1,7.6
	c0-14.1,0-28,0-42.4c-12.7,2.6-24.9,3.9-37.4,2.4c-16-1.9-31.7-4.6-45.8-13C410,1183.5,408.8,1184.2,407.9,1185.1 M1565.5,571.2
	c-15.6-3.2-27.7-13.1-40.4-21.6c-3.8,6-7.4,11.7-11,17.5c-1.5,2.4,0.2,3.3,2.2,4.3c18.5,9.8,34.2,22.9,47.7,38.7
	c4.3,5,8.7,9.9,13.5,15.4c1.2-3.4,2.1-6.1,3.1-8.9c4.4-12,8.8-24.1,13.3-36.1c1.2-3.2,0.4-4.2-3.2-4.7
	C1582.5,574.8,1574.3,573,1565.5,571.2 M1660,506.4c0,4.8,0,9.6,0,15.6c2.7-2.3,4.6-3.5,5.9-5.2c6.2-8,13.1-15.7,18-24.5
	c6.6-11.6,13.6-23.5,10.5-38.1c-1.3-6.1-5.3-10.3-11.5-9.5c-3.9,0.5-7.9,1.9-11.3,3.9c-10.2,6-15.8,16.1-21.8,25.9
	c-1.4,2.2-0.9,3.8,0.1,6.1C1653.6,488.8,1656.7,497.2,1660,506.4 M1610.8,419.2c0.2-2.8,0.7-5.6,0.5-8.3
	c-0.9-11.9-10.7-17.8-21-12.5c-3.5,1.8-6.6,4.7-9,7.8c-9.1,11.6-13.7,25.4-17.9,39.3c-0.1,0.3,0.2,0.8,0.3,1.3
	c2.7-0.2,5.3-0.6,7.9-0.5c8.3,0.2,16.7,0.4,25,0.9c3.3,0.2,5.3-0.9,6.3-4C1605.4,435.4,1608.1,427.6,1610.8,419.2 M1035.7,1165.7
	c9.3-0.3,18.6-0.3,27.9,5.1c1.5-10.2,2.9-19.1,4.2-28c0.4-2.7-1.2-3.5-3.6-2.7c-3.6,1.1-7.1,2.3-10.7,3.4
	c-12.8,3.9-25.5,8-38.3,11.7c-8.7,2.5-17.5,4.4-26.3,6.6c-2.3,0.6-3.8,1.5-4,4.4c-0.3,5.7-1.3,11.3-1.9,17
	c-0.4,4.2-0.8,8.4-1.2,13.4c1.2-1.1,1.6-1.6,2.1-2c7.5-6.5,13.4-14.8,22.9-19.2C1015.8,1171.2,1024.4,1165.7,1035.7,1165.7
	 M408.7,1361.2c0.5-5.4,1.1-10.8,1.3-16.2c0-1.5-1.1-3.5-2.4-4.4c-2.9-2.1-6.3-3.5-9.3-5.6c-6.4-4.6-11.8-10.1-15.1-17.6
	c-4.3,16.9-5.9,33.9-5.1,51c0.4,7.8,3.7,14.9,9.5,20.4c4,3.8,8.6,4,12-0.2c2.7-3.4,5.1-7.3,6.4-11.4
	C407.7,1372.3,407.9,1367.1,408.7,1361.2 M1641.4,413.5c-2.9,1.2-6.4,1.7-8.7,3.7c-9.4,8.1-16.1,18-20.1,29.8
	c-0.8,2.5-0.1,3.7,2.3,4.9c6.2,3.1,12.4,6.4,18.4,9.9c3,1.7,5.6,4,8.7,6.3c0.8-1.2,1.6-2.2,2.1-3.3c3.2-7,6.9-13.8,9.4-21
	c1.8-5.3,3.1-11.1,2.9-16.7C1656.1,418.3,1651.4,412.5,1641.4,413.5 M1524,469c4.6-4.2,9.3-8.4,13.8-12.8c0.9-0.9,2-2.7,1.7-3.6
	c-3.9-11.6-11.9-23.7-28.2-22.4c-9.1,0.7-16.2,7.3-16.2,16.4c0,15,9.9,24.2,20.3,32.9c0.5,0.4,2.8-0.4,3.4-1.3
	C1520.5,475.4,1522,472.4,1524,469 M492.5,1344.5c3.8,1.7,7.4,3.9,11.4,5c5.8,1.6,10.7-0.8,13.4-5.9c4.2-7.9,6-16.2,3.4-25
	c-1.3-4.3-2.2-8.7-4-12.7c-2.7-5.8-6.1-11.3-9.5-17.7c-1.1,1.7-1.6,2.1-1.7,2.6c-3.8,13.5-11.2,24.8-20.7,34.9
	c-0.8,0.8-1.2,2.8-0.7,3.7C486.5,1334.3,489.3,1339.2,492.5,1344.5 M729.2,1161.4c-18.6-5.6-37.3-11.2-56.8-17
	c-0.6,9.4-1.2,19-1.9,29.6c25.6-9.8,47.2-1.7,68.1,12.8c0.7-4.7,1.5-8.5,1.8-12.4c0.7-10.1,0.6-10.1-9.2-12.5
	C730.7,1161.7,730.3,1161.6,729.2,1161.4 M480.7,1382.7c0.5-16.2-2.6-31.7-8.6-46.8c-5.6,2.6-10.7,5.4-16,7.4
	c-3.1,1.2-4.1,2.7-3.9,5.8c0.7,11.6,2.9,23,7.1,33.8c1.1,3,3.4,5.8,5.9,7.8c7.2,5.8,13.6,3.3,15.2-5.6
	C480.6,1384.6,480.6,1384.1,480.7,1382.7 M443.6,1364.9c-0.4-4.9-1.1-9.7-1.2-14.6c-0.1-2.9-1.2-3.8-4-3.9c-4.5-0.1-9-0.1-13.3-1
	c-4.2-0.9-4.7,0.8-4.7,4.2c0.1,11.3-0.2,22.6,0.2,33.9c0.1,4.1,1.2,8.3,2.7,12.1c0.9,2.3,3.2,4.8,5.5,5.8c5.9,2.6,10.7,0.1,12-6.9
	C442.3,1385.1,442.8,1375.3,443.6,1364.9 M903.7,750.5c12.4,1.6,24.8,3.4,37.2,4.7c6.3,0.6,6.3,0.1,7.9-6.2c0.7-2.9,0.4-4.3-3-4.8
	c-10.3-1.4-20.6-3.2-30.9-4.8c-10.7-1.7-21.5-3.2-32.2-4.9c-2.9-0.5-4.5,0.5-4.9,3.5c-0.2,1.4-0.5,2.7-0.8,4.1
	c-0.6,2.5,0.3,4,2.9,4.4C887.7,747.7,895.3,749,903.7,750.5 M901.2,759c-7-1.6-14.1-3.2-21.1-4.8c-2-0.4-4.3-1.7-5.3,1.2
	c-1,3.1,1.6,3.8,3.7,4.3c4,1,8.1,1.8,12.2,2.7c16.8,3.7,33.9,3.5,51,3.2C928.4,763.6,915.1,761.4,901.2,759z"/>
<path class="st1" d="M385.3,673.2c-0.8,10.8-1.7,21.2-2.5,31.6c-0.6,7.4-0.9,14.8-1.8,22.2c-0.9,8-2.1,15.9-3.3,23.9
	c-1.4,9.6-2.5,19.2-4.2,28.7c-2.9,15.8-5.5,31.6-9.3,47.2c-4.3,17.4-9.5,34.6-15,51.7c-6,18.7-14.2,36.5-24.6,53.2
	c-7,11.3-15.4,21.6-26.9,28.8c-12.6,7.8-30.8,7.9-43.1-0.5c-17.2-11.8-27-29.1-35.1-47.5c-2.9-6.7-6-13.3-8.3-20.2
	c-4.1-12.4-8.2-24.9-11.4-37.6c-3.2-12.3-5.5-24.8-7.9-37.3c-2.2-11.3-4-22.8-5.8-34.2c-0.8-5.1-1.3-10.3-1.8-15.5
	c-1.1-11.1-2.3-22.1-3.3-33.2c-0.4-4-0.7-8-0.9-12c-0.3-7.5-0.7-15-0.8-22.4c-0.4-29.3-0.8-58.5-0.8-87.8c0-12.6,0.9-25.2,1.6-37.8
	c0.6-10.4,1.3-20.9,2.5-31.2c2-16.8,4.1-33.6,6.7-50.4c3-19.3,6-38.7,10.2-57.8c3.6-16.8,8.3-33.3,13.6-49.7
	c4.1-12.6,9.2-24.9,14.8-36.9c4.9-10.6,10.5-21,16.9-30.7c6-9.2,13.6-17.4,23.3-22.8c14.2-8,31.2-7.6,44.7,2.9
	c15.3,11.9,25.2,27.8,32.3,45.6c5.3,13.4,10.9,26.8,14.9,40.6c4.8,16.5,8.5,33.3,11.8,50.1c2.9,15,5.1,30.1,6.7,45.3
	c1.5,14.6,1.8,29.2,2.7,43.9c0,0.7,0,1.3,0,1.8c13.6,2.8,26.8,5.5,40.1,8.4c14.6,3.2,29.1,6.5,43.7,9.8c8.7,2,17.4,3.8,26.1,6
	c1.3,0.3,3,2.4,3,3.7c0,2.2-0.6,5.4-2.1,6.3c-5.6,3.6-11.6,6.5-17.6,9.5c-28.1,14.2-56.3,28.3-84.3,42.6c-1.4,0.7-2.5,3.1-2.9,4.8
	c-0.5,2.6-0.1,5.3-0.1,8c-0.3,12.9-0.5,25.8-0.8,38.7C386,666.2,385.5,669.5,385.3,673.2 M197.7,785c3.1,17.3,5.8,34.7,9.4,51.8
	c5.9,27.8,13.9,54.9,26.9,80.3c5.5,10.7,11.9,20.9,20.9,29.1c4.8,4.4,10.2,7.8,16.7,9.2c11,2.2,20.1-2.2,27.3-9.6
	c7-7.2,13.5-15.3,18.9-23.8c12.7-20.4,20.7-42.9,27.4-65.9c18.8-64.5,26.8-130.8,30.2-197.7c0.7-14.2,1.2-28.4,1.7-42.6
	c0.2-7.5,3.5-11.9,10.4-15.3c27.9-13.7,55.6-28,83.3-42c1.2-0.6,2.3-1.3,4-2.2c-1.8-0.5-2.8-0.8-3.9-1.1
	c-23-5.3-45.9-10.6-68.9-16.1c-7.7-1.8-15.3-4.2-22.8-6.6c-1.3-0.4-2.8-2.3-3-3.7c-1.6-9.2-3-18.4-4.1-27.7
	c-4.2-34.5-9.5-68.8-18.6-102.4c-6.3-23.4-13.9-46.2-26.1-67.3c-5-8.7-10.9-16.9-18.7-23.4c-12.6-10.6-25.8-10.9-39-1.1
	c-2,1.5-4.2,3-5.7,4.9c-6.2,8-13,15.7-18.1,24.4c-14.5,24.6-23.2,51.6-30.4,79c-17.9,68.3-25.1,138-26.5,208.3
	c-0.6,29.1,0.1,58.3,1.7,87.4C191.8,735.5,195.1,759.8,197.7,785z"/>
<path class="st2" d="M832.3,1179c7.4-0.1,15.2-0.2,23.2-0.1C848.1,1179,840.3,1179.1,832.3,1179z"/>
<path class="st3" d="M1156.1,782.6c18.3,5.4,35.2,13,51.6,22.4c15.3,8.8,29.7,18.7,43.1,30.2c11.7,10.1,18.9,23.3,23.1,38.1
	c3.3,11.8,2.6,23.7,1.9,35.7c-1.4,25.3-9.1,49-17.2,72.6c-5.7,16.5-15.8,30.4-26.6,43.7c-14.7,18.1-32.2,33.2-51,46.8
	c-8,5.8-16.6,10.9-25.4,15.3c-22.2,10.9-44.4,21.7-67.1,31.3c-11.7,5-24.6,7.3-36.8,11c-17.3,5.3-34.6,10.7-51.9,16.2
	c-19.4,6.1-39.2,9.7-59.3,12.3c-16.8,2.2-33.7,3.9-50.6,5.7c-6.5,0.7-13.1,0.9-19.6,1c-12.7,0.2-25.4,0.8-38-0.1
	c-16.4-1.2-32.7-3.1-48.9-5.8c-19-3.1-37.9-6.8-56.6-11.2c-25.1-5.9-48.8-15.6-72.3-26.2c-26.5-12-50.7-27.5-73-46
	c-23.3-19.3-43.8-41.3-60.3-66.7c-10.6-16.3-16.7-34.4-19.9-53.4c-2.5-15.1-1.3-30.3,1.3-45.3c3.3-19.1,8.1-37.8,18.5-54.3
	c13.6-21.6,31.2-39.7,53.2-52.9c11-6.6,21.9-13.4,33.5-18.8c24.4-11.3,50.4-16.7,77-19.9c20.5-2.5,40.9-4.5,61.6-5
	c12.9-0.3,25.8-2.4,38.6-3.6c1.7-0.2,3.3-0.3,5-0.3c19.7-0.3,39.3-0.6,59-1c3.9-0.1,7.8-0.5,11.7-0.7c2.5-0.1,3.4,0.8,3.1,3.5
	c-0.7,6.6,0.5,9.1,7,10.9c10,2.8,20.2,5.4,30.5,6.8c14.9,2,29.9,3.1,45,1.5c4-0.4,6.3-2.5,7.5-6.2c0.8-2.5,2-4.9,2.5-7.5
	c0.7-4,2.8-4.9,6.7-4.9c7.2,0.1,14.5-0.9,21.7-0.6c17.8,0.8,35.6,2.3,53.4,3c21.6,0.9,42.3,7.1,63.4,10.9
	C1119.7,774.2,1137.7,778.6,1156.1,782.6 M893.2,970.5c-0.6,3.9-1.1,7.7-1.8,11.6c-3.3,17.6-5.8,35.2-5.4,53.2
	c0.2,9.7,4.3,15.7,13.7,17.9c7.2,1.7,14.5,2.9,21.9,3.4c24.5,1.7,49,2.9,73.4,4.4c18.1,1.1,36.2,2.7,54.3,3.4
	c25.9,1.1,51.8,1.4,77.7-1.8c11.5-1.4,18.2-7.4,21.2-18.2c0.3-1.2,0.8-2.4,1-3.6c1.5-9.5,3-19,4.4-28.5c1.6-10.8,3.3-21.5,4.6-32.3
	c2.5-21.5,4.4-43,7.4-64.4c3.3-23.2,4.5-46.3,2.8-69.6c-1.4-18.1-4.2-21.7-22.2-25.2c-25.2-4.9-50.7-4.8-76.3-4.4
	c-30.2,0.5-60.5,0-90.7,2.5c-14.2,1.2-28.7,0.1-43,0c-6.3,0-8.4,1.1-10.3,7c-3.1,9.5-6.4,19.1-8.6,28.8c-3.1,13.3-5.2,26.8-8,40.2
	C903.9,919.9,898.6,944.8,893.2,970.5 M757.5,904.3c9.3,0,18.7-0.5,28,0.2c10.6,0.8,18.4-8.6,20.2-16.5c2.4-10.5,1.6-21.1,0.6-31.6
	c-0.9-9.1-5.9-14.4-14.8-16.4c-4.2-1-8.5-1.3-12.8-1.7c-8-0.7-16.1-1.3-24.1-1.9c-17.9-1.3-35.8-3.2-53.7-3.8
	c-15.4-0.5-30.9,0.3-46.4,0.7c-8.8,0.3-17.5,0.8-26.2,1.7c-6.2,0.7-12.3,2.5-15,9.1c-5.2,12.6-6.1,26-6,39.4
	c0.1,9.7,3.8,13.3,13.4,15.1c1.4,0.3,2.7,0.6,4.1,0.7c15.6,0.9,31.1,1.7,46.7,2.5c13.3,0.6,26.7,1.3,40,1.7
	C726.6,903.9,741.7,904,757.5,904.3z"/>
<path class="st3" d="M1061.2,362.4c13.6,1,26.8,2.1,39.9,3.1c9.7,0.7,19.5,1.2,29.2,2c16.4,1.3,32.7,2.6,49.1,4
	c13.2,1.1,26.4,2.1,39.5,3.6c19.5,2.3,39.2,3.8,58.3,7.8c18.8,3.9,34.7,14.4,46.6,29.9c7.6,10,10.3,21.8,12,33.9
	c1.5,10.9,3.8,21.7,4.4,32.7c0.9,14.7,1.5,29.5,0.6,44.2c-1.2,20-3.6,39.9-6,59.8c-1.4,11.5-3.5,22.8-5.8,34.2
	c-3.7,18.6-7.1,37.3-11.9,55.6c-3.6,14-7.3,28.3-16.1,40.2c-6.3,8.6-12.9,17.6-23,22c-19.1,8.4-38.8,14.6-59.6,17.4
	c-8.4,1.1-16.8,3.4-25.2,3.1c-23.3-1-46.7-2.8-70-4.7c-20-1.7-39.9-3.8-59.8-6c-25.6-2.8-51.2-5.8-76.7-9c-22.9-2.9-45.8-6-68.7-9.3
	c-24.1-3.4-48.2-7.6-72.3-10.6c-29.9-3.7-59.3-10.3-88.7-16.6c-10.6-2.3-21-5.9-31.6-7.9c-15.7-3-31.6-4.9-47.4-7.8
	c-7.1-1.3-14.4-2.8-20.8-5.9c-14.7-7.2-29.4-14.7-43.2-23.6c-11.9-7.6-21.1-18.8-28.5-30.8c-3.5-5.6-4.8-13-5.6-19.8
	c-1.5-12.3-2.7-24.7-2.6-37c0.2-12.6,2-25.2,3.3-37.8c1.2-11.8,2.3-23.6,4-35.3c2.1-14.6,4.2-29.3,7.1-43.7c3.1-15,6.7-29.9,11-44.7
	c3.8-13.4,10.5-25.4,20.1-35.8c8.8-9.5,17.9-18.3,29.4-24.3c9.2-4.8,19.1-7.1,29.4-7.1c19.9,0.1,39.9,0.3,59.8,0.8
	c20.3,0.6,40.7,1.4,60.9,2.6c21.3,1.3,42.5,3.1,63.7,4.8c17.2,1.4,34.4,2.8,51.6,4.4c11.9,1.1,23.8,2.7,35.7,3.9
	c8.3,0.8,16.7,1.3,25,1.9c23.5,1.7,46.9,3.3,70.4,5C1052.8,361.8,1056.8,362.1,1061.2,362.4 M990.8,666.1c13.5,1.8,27,3.7,40.6,5.5
	c13.7,1.8,27.4,3.3,41,5c11.6,1.5,23.2,3.3,34.7,4.9c19.9,2.8,39.8,5.1,59.5,8.4c18.3,3,36.6,5.9,55.2,3.4
	c17.4-2.3,30.3-10.9,38.6-26.6c7.3-14.1,9.2-29.5,11.6-44.7c2.8-17.4,5.1-35,7.5-52.5c1.9-13.9,3.9-27.9,5.4-41.8
	c1.5-14,3.7-28,1.3-42c-2.4-14.2-7.6-26.9-21.1-34.4c-5-2.8-10.1-5.5-15.5-7.2c-13.1-3.9-26.3-7.6-39.6-10.4
	c-14.7-3.1-29.6-5.3-44.5-7.5c-11.6-1.7-23.2-2.7-34.8-3.9c-14.5-1.5-29.1-3.1-43.6-4.4c-12.1-1.1-24.2-1.7-36.2-2.7
	c-16.1-1.3-32.2-2.9-48.3-3.9c-17.5-1.1-35-1.7-52.6-2.6c-17.4-0.8-34.8-1.8-52.2-2.5c-15.2-0.5-30.4-0.5-45.6-1
	c-8.6-0.3-17.2-1.1-25.8-1.8c-6-0.5-11.9-1.2-17.8-1.9c-9.9-1.2-19.9-2.6-29.8-3.7c-14.2-1.6-28.5-2.8-42.8-4.5
	c-15.3-1.8-30.6-2.4-45.9-0.4c-10,1.3-17.9,6-21.6,16.1c-2.9,7.9-5.7,15.7-8.7,23.5c-8.4,21.8-11.2,44.8-15,67.6
	c-2.3,14.1-3.7,28.4-5.3,42.7c-1.3,11.1-1.8,22.3,0.4,33.2c2.1,10.6,5.5,21,14.3,28.2c5.4,4.4,11.3,8.2,17.4,11.6
	c19,10.4,40.1,14.4,61.1,18c18.6,3.2,37.6,4.7,56.2,8.1c35.8,6.5,72.2,8.2,108.3,12.2c18,2,36,4,53.9,6.3
	C964.2,661.9,977.1,664,990.8,666.1z"/>
<path class="st3" d="M1128,1413.5c-14.6,3.6-28.8,6.7-43.6,6.9c-8.2,0.1-16.4,1.1-24.6,1.5c-16.5,0.8-32.9-1-48.9-4.8
	c-16.7-3.9-33.5-7.6-49.8-12.7c-9.5-2.9-17.2-9.6-19.8-19.9c-1.2-4.6-1.1-9.7-0.6-14.5c3-28.6,6.4-57,15.3-84.5
	c2.1-6.5,3.5-13.2,5.2-19.8c6-22.5,15.5-43.2,29.7-61.8c10.1-13.2,23.5-21.7,39.1-25.7c11-2.8,22.3-1.1,33,3.9
	c13.4,6.3,23.9,16.1,32.7,27.5c19.2,25,37.1,51.1,50.8,79.6c6.3,13.1,11,27.1,15.7,40.9c3.4,10.3,6.1,20.9,8.1,31.5
	c1.7,9.1,2.1,18.5-0.8,27.7c-2.1,6.7-6.2,11.3-12.4,13.7C1147.5,1406.7,1137.9,1409.9,1128,1413.5z"/>
<path class="st3" d="M683.2,1181.8c20.8-3,37.8,4.7,52.1,18.1c12,11.2,20,25.6,26.8,40.6c9.1,20.1,14.4,41.3,17.2,63.1
	c1.1,9,0.6,18.3,0.6,27.5c-0.1,8.2-0.1,16.5-1.1,24.6c-2.1,16.2-7.1,31.6-15.4,45.7c-4.3,7.4-11.7,11.5-19.6,14.2
	c-23.2,7.7-47.1,11.7-71.6,10.4c-20-1.1-40.2-1.1-59.6-6.7c-12.4-3.6-24.7-7.8-36.8-12.5c-5.7-2.2-9.5-6.9-11.5-13.1
	c-3.4-10.9-2.5-21.9-0.2-32.6c6.6-30.9,16.8-60.5,33.5-87.4c12.6-20.2,25.9-40,39.9-59.3C648.9,1198.8,663.4,1186.7,683.2,1181.8z"
	/>
<path class="st4" d="M1282.5,859.8c-7.1-17.6-19.3-30.5-34.2-41.1c-3.5-2.5-3.4-3.5-0.4-6.9c8.4-9.8,20.2-11.8,31.9-13.8
	c15.3-2.6,30.1-0.2,44.1,6.1c5.5,2.5,10.1,6.8,14.9,10.6c19,15.2,27.4,35.8,30.8,59.3c4.1,28.2-5.5,52.2-23.4,72.8
	c-14.2,16.2-33,24.3-54.9,24.6c-3.6,0-7.3,0.1-10.9-0.1c-3-0.1-4.3-1.5-3.3-4.7c5.3-15.8,7.7-32.2,10.3-48.5
	C1290.6,898.4,1290,878.9,1282.5,859.8z"/>
<path class="st4" d="M1545.9,464.4c12-5.8,24.3-7.8,37.2-6.7c5,0.4,10.1,0.3,15,1.3c20.6,4.2,36.4,14.4,45.8,34.4
	c12.9,27.3-3.3,62-36.4,70c-13.1,3.2-25.7,1.2-38.3-2.2c-11.5-3-21.7-8.5-31.4-15.1c-13.5-9.2-18.4-21.8-16.7-37.5
	c1.1-10.3,4.1-19.8,9.3-28.8C1534.2,473.3,1539.7,468.8,1545.9,464.4z"/>
<path class="st4" d="M448.8,835.7c7.2-14.2,17.4-25.4,30-34.7c13.2-9.8,27.4-16.9,43.6-19.1c14.4-1.9,29-1.3,42.9,3.8
	c2.4,0.9,4.4,2.5,7.5,4.3c-65.7,39.7-89.8,98.6-83.9,172.5c-6.4-1.1-12.9-3.7-18.6-7.5c-17.5-11.7-30.5-27-32.3-48.9
	c-1.1-13.7-1.5-27.7,0.4-41.2C439.7,855,445.1,845.6,448.8,835.7z"/>
<path class="st4" d="M416.9,1237.4c22.3-8.8,43.9-7.9,64.1,4.4c13,7.9,17,21.5,15.3,35.7c-3.3,27-18.3,46.5-43.8,55.1
	c-18.9,6.4-37.9,3.1-53.3-11.4c-6.5-6.1-8.1-14.7-8.6-23c-0.5-8.7-0.2-17.6,1-26.3C393.7,1256.2,402.8,1245.1,416.9,1237.4z"/>
<path class="st5" d="M1000.2,309.6c-16.9-1.2-33.5-2.3-50-3.4c-6.2-0.4-12.4-0.8-18.8-1.2c0-1.4-0.2-2.5,0-3.6
	c4.1-23.8,14.8-44.3,31.7-61.4c6.7-6.8,15.6-9.6,24.2-12.8c19.4-7.4,38.1-4.9,55.8,5.5c6.4,3.8,11.2,9.1,13.8,16.2
	c3.2,8.8,5.9,17.7,5.8,27.2c-0.1,12.5-0.5,25.1-0.5,37.6c0,4.3-2.4,3.8-5.3,3.4C1038.1,314.6,1019.4,312.1,1000.2,309.6
	 M1017.9,271.4c-0.1-1.5-0.4-3.1-0.1-4.6c0.2-1,1-2.4,1.8-2.6c10.5-3.4,19.4,4.3,16.9,14.8c-0.7,3-2.8,5.7-4.6,8.2
	c-1.4,1.9-4,2.9-5,4.9c-1,1.9-1.5,5.2-0.5,6.7c1,1.5,4.2,1.8,6.5,1.8c1.3,0,3-1.1,3.8-2.3c3.5-4.9,7.7-9.7,10-15.2
	c3.7-9,0.2-20.1-6.6-25c-5.6-4-12.1-5.3-18.7-4.4c-5.8,0.7-11,0.7-16.2-2.7c-2.5-1.6-6.1-1.8-9.3-2c-18.7-1.2-33.8,13.3-33.6,31.9
	c0.1,6.1,4.1,12.3,9.2,13.6c1.1,0.3,2.9,0,3.7-0.7c0.6-0.5,0.3-2.3,0-3.4c-0.2-0.9-1-1.7-1.6-2.4c-3-3.6-3.6-7.7-1.9-11.8
	c1.8-4.2,3.9-8.4,6.7-11.9c5-6.3,16.2-8,22.9-4c-2.2,2.8-4.7,5.5-6.6,8.5c-3.5,5.6-3.3,13.3,0,16.9c6.1,6.4,17.2,4.9,20.8-3.1
	C1017,279.4,1017.1,275.6,1017.9,271.4z"/>
<path class="st3" d="M1469.3,741.6c4.1,8.4,8.2,16.5,12.2,24.6c1.2,2.5,0.8,4.5-1.1,6.8c-13.3,16.3-26.4,32.8-39.5,49.2
	c-1.2,1.5-2.3,3.1-4.1,5.5c-12.7-29-27.9-54.3-51.9-73.7c3.3-3.8,7-7.8,10.3-12c7.1-9.1,13.9-18.4,21-27.6
	c4.3-5.5,8.8-10.8,13.2-16.2c1.5-1.8,2.8-2.7,5.1-0.6C1448.1,710.5,1460.1,724.7,1469.3,741.6z"/>
<path class="st3" d="M1448.9,671.5c10-13.7,19.9-27.2,30.1-41.2c3.5,3.9,6.8,7.6,10,11.4c9.4,11,19.1,21.8,28,33.2
	c5,6.4,8.6,14,12.8,21c0.8,1.3,1.3,2.8,2.1,4.1c3.4,5.7,3.6,5.8-0.8,11.2c-11.8,14.7-23.6,29.2-35.5,43.8c-0.9,1.1-2.2,1.9-3.7,3.2
	c-0.8-1.6-1.5-2.6-2-3.7c-10.4-21.6-23.1-41.7-40.9-58.1c-2.7-2.4-5.5-4.7-8.5-6.8c-2.6-1.8-2.6-3.4-0.8-5.8
	C1442.9,679.9,1445.8,675.8,1448.9,671.5z"/>
<path class="st3" d="M1401.2,864.2c-5.9,5.7-11.6,11.1-18,17.3c-0.6-2.5-1.1-4-1.2-5.5c-2.2-23.3-9.9-44.3-26.1-61.5
	c-4.3-4.5-9.3-8.3-14.2-12.2c-2.4-1.9-2.8-3.4-0.5-5.7c11.3-11,22.5-22,34-32.9c0.8-0.8,3.7-0.9,4.5-0.1
	c6.7,6.9,13.6,13.6,19.4,21.2c10.5,13.8,19.4,28.5,25.6,44.9c2.4,6.4,2,10.9-3.6,15.5C1414,850.8,1407.9,857.6,1401.2,864.2z"/>
<path class="st6" d="M1487.2,625.6c-2.9-1.6-3.8-3.3-2.1-6.3c6.9-12.4,13.6-24.9,20.4-37.4c2.6-4.8,3.2-5.1,7.4-1.8
	c10.3,8.2,21.2,15.9,30.6,25.1c9.7,9.4,17.8,20.2,26.7,30.3c1.8,2.1,1.7,3.8,0.5,6c-7.7,13.4-15.3,26.9-22.9,40.3
	c-1.9,3.4-3.7,6.8-6,11.1c-2.4-4.2-4.1-7.7-6.3-11c-5.8-8.6-11.2-17.7-17.9-25.6c-8.6-10.2-18.4-19.4-27.8-28.9
	C1489.1,626.8,1488.2,626.4,1487.2,625.6z"/>
<path class="st6" d="M434.2,1126c18.9,6.7,38,8.6,57.5,6.4c2.7-0.3,4.3-0.1,3.8,3.4c-0.5,3.6-0.3,7.2-0.4,10.8
	c-0.3,10.3-0.7,20.6-0.8,30.9c0,3.1-1.7,4.4-4.2,4.6c-9.2,1-18.6,2.9-27.8,2.4c-11.2-0.6-22.3-3-33.3-5.5
	c-6.1-1.4-11.9-4.5-17.7-7.3c-1.2-0.6-2.5-2.8-2.4-4.2c0.6-15.2,1.4-30.3,2.2-45.5c0.1-2.3,0.3-4.6,0.5-6.5
	C419.1,1119.1,426.5,1122.5,434.2,1126z"/>
<path class="st3" d="M476.5,1120.4c-22.1-0.5-42.8-4.7-61.5-16.2c-1.4-0.9-2.9-3.2-2.8-4.8c0.5-10.3,1.4-20.5,2.1-30.8
	c0.4-6.4,0.8-12.7,1.3-19.5c24.7,16.7,51.4,24.9,81.4,22.3c-0.1,2.1-0.3,4.2-0.3,6.2c-0.3,12.4-0.7,24.8-0.8,37.2
	c0,3.3-1.5,4.6-4.4,4.8C486.7,1119.8,481.8,1120.1,476.5,1120.4z"/>
<path class="st7" d="M1049.2,349.2c-14.4-1.1-28.4-2.3-42.4-3.3c-6.2-0.5-12.5-0.5-18.8-1c-17.1-1.3-34.1-2.7-51.2-4
	c-3.6-0.3-7.1-0.7-11.1-1.1c0.9-7.8,1.5-15.1,2.7-22.3c0.2-1.1,2.9-2.6,4.3-2.5c11.4,0.6,22.8,1.6,34.1,2.5c11.5,1,23,1.9,34.5,3.2
	c14.8,1.6,29.6,3.5,44.3,5.3c3.9,0.5,7.7,1.5,11.5,2c2.5,0.3,3.4,1.5,3.2,3.9c-0.6,5.3-1,10.5-1.8,15.8c-0.1,0.9-1.7,2.2-2.7,2.2
	C1053.7,350,1051.6,349.4,1049.2,349.2z"/>
<path class="st6" d="M463.8,1057c-14.6-3.1-27.8-8.9-40.6-15.8c-6-3.3-6.8-7.1-6.1-12.8c1.1-9.7,1.7-19.4,2.6-29.1
	c0.1-1.5,0.6-3,1.1-5.1c4.7,2.8,9,5.5,13.4,8c16.5,9.2,33.6,16.8,52.3,20.5c3.4,0.7,6.9,1.1,10.3,1.3c2.6,0.2,3.3,1.2,3,3.7
	c-0.8,8.7-1.7,17.4-2.1,26.2c-0.1,3.4-1.4,4.7-4.5,5C483.4,1060,473.7,1059.4,463.8,1057z"/>
<path class="st3" d="M452.9,999.3c-9-4.6-17.6-9.2-26.3-13.5c-3.9-1.9-4.9-4.5-4.1-8.8c2.9-15.2,5.3-30.4,8-45.7
	c0.1-0.6,0.3-1.3,0.6-2.2c3.2,4.9,6,9.6,9.2,14.1c11.8,16.4,27.6,26.9,47.4,31.3c4.3,0.9,6.2,3,7.4,7.1c1.3,5,3,10,5.4,14.5
	c2.7,5,1.3,9.8,0.1,14.6c-0.2,1-4,1.9-5.9,1.6c-7.7-1.6-15.5-3.5-23-5.8C465.3,1004.4,459.3,1001.8,452.9,999.3z"/>
<path class="st3" d="M407.9,1184.8c0.9-0.6,2.1-1.4,2.6-1c14.1,8.4,29.8,11.1,45.8,13c12.5,1.5,24.7,0.2,37.4-2.4
	c0,14.3,0,28.3,0,42.4c-26.6-18.6-54.7-20.8-85.1-7.6C408.4,1214.2,408.1,1199.7,407.9,1184.8z"/>
<path class="st7" d="M1565.8,571.3c8.5,1.6,16.6,3.5,24.9,4.6c3.5,0.5,4.4,1.4,3.2,4.7c-4.5,12-8.9,24.1-13.3,36.1
	c-1,2.7-1.9,5.5-3.1,8.9c-4.8-5.5-9.2-10.4-13.5-15.4c-13.5-15.9-29.3-29-47.7-38.7c-2-1-3.7-1.8-2.2-4.3c3.6-5.8,7.2-11.5,11-17.5
	C1537.9,558.1,1549.9,568.1,1565.8,571.3z"/>
<path class="st8" d="M1659.9,506c-3.3-8.8-6.4-17.2-10-25.5c-1-2.3-1.4-3.8-0.1-6.1c5.9-9.8,11.5-19.9,21.8-25.9
	c3.4-2,7.4-3.3,11.3-3.9c6.1-0.9,10.2,3.4,11.5,9.5c3.1,14.6-3.9,26.5-10.5,38.1c-5,8.8-11.9,16.4-18,24.5c-1.3,1.7-3.2,2.9-5.9,5.2
	C1660,515.9,1660,511.2,1659.9,506z"/>
<path class="st8" d="M1610.8,419.5c-2.7,8.1-5.3,15.9-7.9,23.7c-1,3.1-3,4.2-6.3,4c-8.3-0.5-16.7-0.7-25-0.9
	c-2.6-0.1-5.2,0.3-7.9,0.5c-0.1-0.6-0.4-1-0.3-1.3c4.2-13.9,8.7-27.7,17.9-39.3c2.4-3.1,5.6-6,9-7.8c10.3-5.3,20.1,0.6,21,12.5
	C1611.5,413.6,1611,416.4,1610.8,419.5z"/>
<path class="st9" d="M1035.3,1165.7c-10.9,0.1-19.5,5.5-28.6,9.7c-9.5,4.4-15.3,12.7-22.9,19.2c-0.5,0.4-1,0.9-2.1,2
	c0.4-5,0.8-9.2,1.2-13.4c0.6-5.7,1.6-11.3,1.9-17c0.2-2.9,1.7-3.8,4-4.4c8.8-2.2,17.6-4.1,26.3-6.6c12.8-3.7,25.6-7.7,38.3-11.7
	c3.6-1.1,7.1-2.3,10.7-3.4c2.4-0.8,4,0,3.6,2.7c-1.2,8.9-2.6,17.8-4.2,28C1054.3,1165.4,1045,1165.4,1035.3,1165.7z"/>
<path class="st9" d="M408.7,1361.6c-0.8,5.5-1,10.7-2.6,15.6c-1.3,4.1-3.7,8.1-6.4,11.4c-3.4,4.2-8,4.1-12,0.2
	c-5.8-5.6-9.1-12.7-9.5-20.4c-0.8-17.1,0.8-34.1,5.1-51c3.3,7.5,8.7,13,15.1,17.6c2.9,2.1,6.4,3.5,9.3,5.6c1.2,0.9,2.4,2.9,2.4,4.4
	C409.9,1350.4,409.2,1355.8,408.7,1361.6z"/>
<path class="st8" d="M1641.8,413.5c9.6-1,14.3,4.8,14.6,13.6c0.2,5.5-1.1,11.4-2.9,16.7c-2.5,7.2-6.2,14-9.4,21
	c-0.5,1.1-1.3,2-2.1,3.3c-3.1-2.3-5.7-4.6-8.7-6.3c-6-3.5-12.2-6.8-18.4-9.9c-2.4-1.2-3.1-2.4-2.3-4.9c4-11.8,10.7-21.8,20.1-29.8
	C1635,415.3,1638.5,414.7,1641.8,413.5z"/>
<path class="st8" d="M1523.8,469.2c-1.8,3.2-3.3,6.2-5.1,9c-0.6,0.8-2.9,1.7-3.4,1.3c-10.4-8.7-20.3-17.9-20.3-32.9
	c0-9.1,7.1-15.6,16.2-16.4c16.3-1.3,24.3,10.7,28.2,22.4c0.3,0.9-0.8,2.7-1.7,3.6C1533.2,460.6,1528.6,464.7,1523.8,469.2z"/>
<path class="st9" d="M492.3,1344.3c-3-5.1-5.8-10-8.4-15c-0.5-0.9,0-2.9,0.7-3.7c9.5-10.1,16.9-21.4,20.7-34.9
	c0.1-0.5,0.6-0.9,1.7-2.6c3.5,6.4,6.8,11.9,9.5,17.7c1.8,4,2.8,8.5,4,12.7c2.6,8.8,0.7,17.1-3.4,25c-2.7,5-7.6,7.4-13.4,5.9
	C499.9,1348.4,496.3,1346.2,492.3,1344.3z"/>
<path class="st9" d="M729.5,1161.4c0.7,0.2,1.2,0.3,1.6,0.3c9.8,2.4,9.9,2.4,9.2,12.5c-0.3,3.8-1.1,7.6-1.8,12.4
	c-20.9-14.5-42.5-22.6-68.1-12.8c0.7-10.6,1.3-20.1,1.9-29.6C691.9,1150.2,710.5,1155.8,729.5,1161.4z"/>
<path class="st9" d="M480.7,1383.1c-0.1,0.9-0.1,1.5-0.2,2c-1.6,8.9-8,11.4-15.2,5.6c-2.5-2-4.8-4.9-5.9-7.8
	c-4.2-10.8-6.4-22.2-7.1-33.8c-0.2-3.1,0.8-4.7,3.9-5.8c5.3-2,10.3-4.7,16-7.4C478.1,1351,481.2,1366.5,480.7,1383.1z"/>
<path class="st9" d="M443.7,1365.2c-0.9,10-1.3,19.8-3,29.4c-1.2,7-6.1,9.5-12,6.9c-2.3-1-4.6-3.4-5.5-5.8c-1.5-3.8-2.6-8-2.7-12.1
	c-0.4-11.3,0-22.6-0.2-33.9c0-3.5,0.5-5.1,4.7-4.2c4.3,0.9,8.9,0.9,13.3,1c2.8,0,3.9,0.9,4,3.9
	C442.5,1355.2,443.2,1360,443.7,1365.2z"/>
<path class="st10" d="M903.4,750.4c-8-1.4-15.7-2.7-23.4-4c-2.7-0.4-3.5-1.9-2.9-4.4c0.3-1.4,0.6-2.7,0.8-4.1c0.4-3,2-4,4.9-3.5
	c10.7,1.7,21.5,3.3,32.2,4.9c10.3,1.6,20.6,3.4,30.9,4.8c3.4,0.5,3.7,1.9,3,4.8c-1.7,6.4-1.6,6.9-7.9,6.2
	C928.5,753.9,916.2,752.1,903.4,750.4z"/>
<path class="st2" d="M901.5,759.1c13.6,2.3,26.9,4.4,40.1,6.6c-17.1,0.2-34.2,0.5-51-3.2c-4.1-0.9-8.2-1.7-12.2-2.7
	c-2.2-0.5-4.8-1.2-3.7-4.3c1-2.9,3.3-1.7,5.3-1.2C887.1,755.8,894.1,757.4,901.5,759.1z"/>
<path class="st11" d="M197.6,784.6c-2.5-24.8-5.8-49.2-7.1-73.6c-1.5-29.1-2.3-58.3-1.7-87.4c1.4-70.3,8.6-140,26.5-208.3
	c7.2-27.5,15.9-54.5,30.4-79c5.1-8.7,11.9-16.4,18.1-24.4c1.5-1.9,3.7-3.4,5.7-4.9c13.2-9.9,26.3-9.5,39,1.1
	c7.8,6.5,13.7,14.7,18.7,23.4c12.2,21.1,19.8,43.9,26.1,67.3c9,33.6,14.4,67.9,18.6,102.4c1.1,9.3,2.6,18.5,4.1,27.7
	c0.2,1.4,1.7,3.3,3,3.7c7.5,2.4,15.1,4.8,22.8,6.6c22.9,5.5,45.9,10.7,68.9,16.1c1.1,0.2,2.1,0.6,3.9,1.1c-1.7,1-2.8,1.6-4,2.2
	c-27.7,14.1-55.4,28.4-83.3,42c-7,3.4-10.2,7.9-10.4,15.3c-0.4,14.2-1,28.4-1.7,42.6c-3.4,66.9-11.4,133.1-30.2,197.7
	c-6.7,23-14.6,45.5-27.4,65.9c-5.3,8.6-11.8,16.6-18.9,23.8c-7.2,7.4-16.3,11.8-27.3,9.6c-6.5-1.3-11.8-4.8-16.7-9.2
	c-9-8.2-15.4-18.3-20.9-29.1c-13-25.4-21-52.6-26.9-80.3C203.4,819.7,200.8,802.3,197.6,784.6 M298.4,392.3c3.1-0.6,6.2-1.2,10.2-2
	c1.1,0.9,3.1,2.7,5.3,4.1c2.9,1.9,6.9,1.1,8.6-1.5c2-3.1,1.3-5.8-1.4-8.1c-1.9-1.6-4-3-5.9-4.6c-0.8-0.7-2-2.2-1.8-2.9
	c1.4-4.4-0.9-7.2-5.2-10.2c4.7,0,8,0.2,11.3-0.1c3.5-0.3,5.6-2.4,5.7-6c0.1-3.9-2.2-5.9-5.8-6.5c-1.8-0.3-3.6-0.2-5.4-0.2
	c-7.1,0-14.2,0-21.1,0c-1.6-8.2-3.2-10.3-7.5-10.3c-6.6,0-6.8,5.3-7.6,10.3c-1.7,0-3.2,0-4.7,0c-6.4,0-12.8-0.1-19.2,0.1
	c-4.5,0.1-7.4,2.8-7.4,6.4c0,3.6,2.9,6.2,7.3,6.5c1.9,0.1,3.8,0,5.7,0c-0.4,6.4-3,11.9-9.4,20.3c-2.8,3.7-2.8,6.8,0.1,9.2
	c3.2,2.6,7,2.2,10-1.3c1.5-1.7,2.7-3.5,4-5.1c0.5,0,0.8,0,1,0.1c3.3,2,6.5,2.2,8.8-1.3c2.3-3.4,0.9-6.3-1.8-8.9
	c-0.7-0.7-1.8-2-1.6-2.7c1.5-4.6-0.6-7.6-5.1-10.4c4,0,6.9,0.1,9.8,0c2.3-0.1,2.8,1.1,2.8,3.1c-0.1,5,0.1,10-0.1,15.1
	c0,1.3-0.5,2.8-1.3,3.8c-3,3.7-5.8,7.6-9.5,10.5c-5.6,4.5-11.8,8.3-17.9,12.3c-4.5,3-4.7,7.8-0.1,10.8c2.8,1.8,5.8,2.3,8.6,0.4
	c4-2.7,8.1-5.5,11.9-8.5c2.7-2.1,5.1-4.5,8.3-7.3c0,5.4-0.1,9.9,0,14.3c0.2,5.2,3.4,8.2,7.8,7.8c3.7-0.4,6.1-3.2,6.2-7.7
	c0.1-4.8,0-9.6,0-14.4c0.5-0.3,0.9-0.5,1.4-0.8c0.9,1.2,1.6,2.7,2.7,3.6c5.2,4.2,10.3,8.6,15.8,12.4c4.2,2.9,9.9,0.9,12.2-3.5
	c1.8-3.3,0.4-5.9-4.6-8.7c-1.3-0.8-2.8-1.3-4-2.2c-6.2-5.1-12.4-10.2-18.3-15.6C297.5,392.5,297.7,392.2,298.4,392.3 M250.4,562
	c1.3,0,2.5,0.1,3.8,0.1c6.5,0,6.4,0,6.4,6.7c0,2.6-0.7,3.9-3.4,4c-2.1,0.1-4.1,0.5-6.2,0.8c-4.8,0.7-7.4,3.7-6.6,7.4
	c0.8,4,4.4,6.4,8.8,5.6c2.3-0.4,4.5-0.8,7.4-1.3c0,2.7-0.2,4.7,0,6.8c0.4,3.9-0.8,5.6-5,5.5c-1.9,0-5.1,1.3-5.4,2.5
	c-0.5,2,0.3,5,1.6,6.8c3.2,4.6,8.1,3.5,12.6,2.4c4.3-1,8.1-3,8.8-7.8c0.6-4.2,0.9-8.6,0.6-12.9c-0.3-4.4,0.8-6.9,5.6-6.9
	c1.5,0,3-0.6,4.3-1.3c2.7-1.5,4.1-3.8,3.3-7c-0.8-3.2-3.1-4.5-6.3-4.1c-2.1,0.2-4.3,0.4-6.4,0.6c-1.2-7.8-1.2-7.8,6-7.8
	c2.4,0,4.7,0.1,7.1,0c2.6-0.1,3.7,0.9,4.1,3.5c0.8,5.6,2.2,11.2,2.9,16.9c0.2,1.5-0.7,3.8-1.8,4.8c-3.3,2.6-7,4.5-10.5,6.9
	c-4.1,2.8-4.1,7,0,9.9c2.8,1.9,5.7,2,8.6,0.2c2.9-1.8,5.8-3.7,8.6-5.5c1.9,2.7,3.5,5.2,5.4,7.4c3.9,4.6,9,5.9,14.8,4.3
	c5.9-1.6,7.5-6.6,8.8-11.7c1.1-4.2-0.2-7.7-3.6-10.4c-2.8-2.3-5.4-1.4-6.2,2.1c-0.4,1.8-0.5,3.6-1.1,5.3c-0.3,0.7-1.8,1.5-2.4,1.3
	c-3.1-0.9-4.8-7.6-2.8-10.2c3-3.8,6.3-7.5,9-11.5c2.7-3.9,0.1-8.6-4.6-8.4c-2.1,0.1-4.3,1.6-6.1,2.8c-1.4,0.9-2.3,2.5-4.1,4.7
	c-0.7-4.7-1.2-8.1-1.8-12.3c5.3,0,10.1,0.1,14.8,0c4.9-0.1,7.4-2.1,7.5-6c0.1-3.8-2.5-6.1-7.3-6.1c-4-0.1-8.1-0.2-12.1,0
	c-3.3,0.2-4.5-1.1-4.5-4.2c0-4.5-0.1-8.9-0.4-13.4c-0.3-4.3-3.1-6.9-7-6.7c-3.7,0.1-6.3,2.8-6.4,6.8c-0.1,2.1,0,4.2,0.1,6.3
	c0.3,12.5,0.2,12.6-12.5,11.2c-0.3,0-0.6,0.1-0.8-0.1c-0.6-0.5-1.4-0.9-1.7-1.5c-1.8-5.1,0.2-8.7,5.4-9.9c2.7-0.6,5.8-1.5,5.4-4.6
	c-0.3-2.2-2.4-4.4-4.3-5.9c-1.4-1.1-3.8-1.5-5.6-1.1c-8.7,1.5-17.3,3.1-25.8,5c-3.2,0.7-4.2,3.5-2.8,6.6c1.4,2.9,3.7,4.5,7,4.3
	c2.3-0.2,4.6-0.4,6.8-0.6c1.2,7.9,1.2,7.9-5.9,7.9c-0.8,0-1.7,0-2.5,0c-3.7-0.1-6.4,1.6-6.8,5.3C244.3,558.7,246.1,561.1,250.4,562
	 M284.2,439.9c-2.5-1-4.9-2.8-7.4-3c-7.2-0.4-14.5-0.2-21.8-0.1c-6.3,0.1-9,2.5-9.2,8.8c-0.2,5.7-0.2,11.4,0,17.2
	c0.2,7.1,2.7,9.4,9.7,9.6c1.4,0,2.8,0.5,4.2,0.8c-0.1,0.6-0.1,1.2-0.2,1.9c-2.5,0-5.1-0.1-7.6,0c-3.2,0.2-5.5,1.8-5.4,5.2
	c0.2,3.1,2.4,4.6,5.5,4.6c2,0,3.9-0.1,5.9,0.1c0.7,0.1,1.3,0.8,1.9,1.3c-0.1,0.4-0.2,0.8-0.3,1.2c-3.3,0.2-6.5,0.4-9.8,0.6
	c-3.3,0.2-5.3,1.9-5.3,5.2c0,3.6,2.2,5.3,5.7,5.2c2.8,0,5.6-0.2,8.4-0.2c7,0,14.1,0,20.7,0c-4.7,5-1.7,14.9,8.2,14.6
	c0.2,0.4,0.4,0.7,0.5,1.1c1.5,6.5,6.1,7.3,12.1,4.2c3.6-1.8,9.3-1.2,13.3,0.3c3.2,1.2,6,1.9,8.5,0.4c1.8-1,3.7-3.8,3.7-5.8
	c0.4-9.3,0.3-18.7,0.1-28c-0.1-4.9-2.9-7.5-7.5-7.9c-6.2-0.6-6.2-0.6-6.2-6.9c0-0.7,0.1-1.4,0-2.1c-0.2-2.5,0.8-3.5,3.4-3.4
	c2.6,0.1,5.3,0.2,7.9-0.2c3.2-0.5,5.3-2.6,5.2-6.1c-0.1-3.2-2-5.2-5.2-5.6c-2.6-0.3-5.3-0.4-7.9-0.3c-2.6,0.1-3.5-1-3.4-3.5
	c0.1-2.9,0.1-5.9-0.2-8.8c-0.3-3.4-2.3-5.4-5.7-5.6c-3.4-0.2-5.6,1.6-6.4,4.8c-0.4,1.5-0.4,3-0.4,4.6c0,9.8,0,19.5,0,29.3
	c0,1.9,0.1,3.4-2.6,3.8c-7.2,1.1-8.6,2.8-8.6,10.1c0,6.6,0,13.2,0,19.8c-0.2,0-0.5,0.1-0.7,0.1c-1.5-3.1-3.1-6.1-4.7-9.3
	c0.6-0.4,1.5-0.7,1.7-1.2c0.8-1.9,2.3-4.2,1.8-5.8c-0.5-1.6-3-3-4.8-3.5c-2.4-0.6-5,0-7.5-0.1c-0.8,0-1.5-0.6-2.3-0.9
	c0-0.5,0.1-1,0.1-1.6c2.9,0,6,0.6,8.7-0.2c1.8-0.5,3.9-2.6,4.4-4.4c0.8-2.6-1.3-4.4-3.9-4.9c-1.6-0.3-3.3-0.1-5-0.3
	c-1.5-0.1-2.9-0.4-4.4-0.6c0-0.5,0-1,0.1-1.4c1.6-0.2,3.3-0.5,4.9-0.5c6.7-0.2,9.3-2.8,9.3-9.5c0-5.3,0.1-10.6,0-15.9
	C285.6,444.7,284.9,442.6,284.2,439.9 M284.6,838.1c-1.7-1.1-3.4-3.1-5.2-3.2c-10-0.3-20.1-0.2-30.1-0.1c-3,0-4.9,1.4-4.9,4.5
	c-0.1,3.1,1.8,4.6,4.7,4.7c2.8,0.1,5.6-0.1,8.4,0.2c1,0.1,2.7,1.3,2.8,2c0.3,4.9,0.1,9.8,0.1,14.7c-0.5,0.1-1.1,0.1-1.6,0.2
	c-0.5-2.6-1.4-5.1-1.5-7.7c-0.1-3.4-1-5.8-4.6-6.3c-3.1-0.4-5.1,1.8-5.8,5.7c-0.9,5.6-2.2,11.2-2.9,16.8c-0.3,2.5,0.2,5.4,1.3,7.5
	c1.8,3.3,5.5,2.9,7.2-0.5c0.9-1.8,1.6-3.7,2.6-6.1c5,5.5,11,8.4,17.9,8.7c15.6,0.5,31.2,0.7,46.8,0.8c3.8,0,7.7-3.2,7.2-6.2
	c-0.4-2-2.9-3.5-4.5-5.4c4.5-4.5,4.3-5-3-13c1.8-2.9,4.5-5.5,4.7-8.2c0.6-9.2,0.3-18.4,0.1-27.6c-0.1-4.6-3.1-7.3-7.8-7.6
	c-1.9-0.1-3.7-0.2-5.6-0.3c-0.2-0.5-0.3-0.9-0.5-1.4c1.2-0.6,2.4-1.6,3.7-1.8c2.3-0.3,4.7-0.1,7.1-0.2c3-0.1,5.3-1.4,5.2-4.7
	c-0.1-3-2.3-4.2-5.2-4.2c-10.3,0-20.7,0-31,0c-3,0-5.4,1-5.4,4.4c-0.1,3.5,2.5,4.4,5.4,4.5c3,0.1,6.1,0,9.1,0
	c0.2,0.6,0.3,1.2,0.5,1.7c-1.4,0.6-2.8,1.7-4.2,1.8c-5.7,0.6-8.3,3.1-8.4,8.8c-0.1,8-0.1,15.9,0,23.9c0,6.7,2.7,9.3,9.4,9.4
	c5.5,0,11,0,15.3,0c0.3,3.3,0,6.2,1,8.4c1.3,2.6,3.8,4.5,6.2,7.2c-9.6,0-18.2,0-27.2,0c3-2.5,5.8-4.4,8.1-6.8
	c1.1-1.1,2.2-3.6,1.7-4.4c-0.8-1.3-3-2.5-4.6-2.6c-4.6-0.3-8.3,2.3-10.6,5.7c-1.3,1.9-0.2,5.4-0.2,8.4c-2.1,0-4.7,0.1-7.4,0
	c-1.7-0.1-3.4-0.2-5-0.6c-0.9-0.2-2.2-0.9-2.5-1.6c-1.9-5.1,0.2-8.2,5.6-8.4c0.3,0,0.6,0,0.8,0c2.9-0.1,4.9-1.4,5-4.4
	c0.1-3.1-2-4.5-4.8-4.7c-2.2-0.2-4.4,0-6.7,0c0-2.3,0-3.9,0-6c2.7,0,5.2,0,7.7,0C282.7,844,284.8,842.5,284.6,838.1 M269.4,781.9
	c3,2.1,6.8,3.2,8.9-0.2c1.8-3.1,3.9-3,6.5-3c2.4,0,4.8,0.2,7.1,0c3.4-0.4,5.2,0.8,6.5,4.2c2.8,7.3,6.5,9.3,13.4,8.2
	c9.4-1.4,12.3-4.1,12.9-12.4c0.4-4.9,0.2-9.8,0.2-14.6c0-15.2,0-30.4,0-45.6c0-6.7-2.8-9.4-9.4-9.5c-6.4-0.1-12.8-0.1-19.2,0
	c-5.4,0.1-8.1,3-8.2,8.4c-0.1,5.4,0,10.9,0,16.3c0,7.6,2.5,10,10,10.1c4.4,0,8.8,0,13.5,0c0,11.1,0,21.4,0,31.7c0,3.5-2.7,2.8-4.8,3
	c-2.4,0.2-3.5-0.7-3.5-3.3c0.1-5.7,0.1-11.4,0-17.2c-0.1-6-2.7-8.7-8.6-8.9c-6-0.1-12-0.1-18,0c-6.3,0.1-9.1,2.8-9.2,9.2
	c-0.1,5.9-0.2,11.7,0,17.6C267.5,777.8,268.4,779.6,269.4,781.9 M324.9,680.3c0-17.4,0-34.9,0-52.3c0-6.7-2.8-9.4-9.4-9.5
	c-6.3-0.1-12.6-0.1-18.8,0c-5.7,0.1-8.5,2.9-8.6,8.5c-0.1,5.9-0.1,11.7,0,17.6c0.1,5.9,2.8,8.6,8.8,8.7c3.8,0.1,7.5,0.1,11.3,0
	c2.5-0.1,3.5,0.8,3.4,3.4c-0.1,9.1-0.2,18.1,0,27.2c0.1,3.6-1.7,4.1-4.7,4.2c-3,0.1-3.8-1.2-3.7-4c0.2-5.9,0.1-11.7,0-17.6
	c-0.1-4.6-2.7-7.6-7.1-7.7c-7.2-0.2-14.5-0.1-21.8,0c-3.3,0.1-6.1,2.1-6.3,5.2c-0.5,8.2-0.6,16.4-0.1,24.6c0.1,1.6,3.2,3.7,5.2,4.3
	c1.5,0.4,4.6-0.7,5.3-2c1.3-2.6,3.1-2.8,5.4-2.7c2,0.1,3.9,0.2,5.9,0c4.8-0.7,7.6,0.7,9.3,5.7c2,5.8,5.9,7.5,11.9,6.8
	c8.8-1,12.3-3.5,13.4-10C324.8,687.6,324.7,684.3,324.9,680.3 M248.6,712.1c-0.5,2.4-1.5,4.8-1.5,7.2c-0.1,20.9-0.1,41.9-0.1,62.8
	c0,1.5-0.1,3.1,0.3,4.6c1,3.1,3.2,4.9,6.6,4.6c3.2-0.3,5.1-2.1,5.7-5.2c0.3-1.5,0.2-3.1,0.2-4.6c0-11.3,0.1-22.6,0-33.9
	c0-2.8,0.8-4.1,3.8-3.9c3.5,0.2,7,0.1,10.5,0c5.7-0.1,8.7-2.8,8.8-8.4c0.2-6,0.2-12,0-18c-0.2-5.4-3-8.2-8.4-8.4
	c-6.4-0.1-12.8-0.2-19.2,0.1C253.2,709.2,251.1,710.7,248.6,712.1 M247,675.3c0,6.4-0.1,12.8,0.1,19.2c0.1,3.9,2.8,6.4,6.4,6.4
	c3.5,0,6-2.4,6.3-6.4c0.1-1.4,0.1-2.8,0.1-4.2c0-11,0.1-22,0-33c0-3.1,1-4.2,4.1-4.1c3.3,0.2,6.7,0.1,10,0c5.9-0.1,8.8-2.8,9-8.6
	c0.2-5.9,0.2-11.7,0-17.6c-0.2-5.6-3-8.4-8.7-8.5c-5.9-0.1-11.7-0.1-17.6,0c-7.2,0.1-9.7,2.6-9.7,9.9C247,643.8,247,659.1,247,675.3
	 M280.9,804.3c-1.5-3-3.7-4.8-7.2-4.8c-6.1,0-12.3-0.1-18.4,0c-4.5,0.1-7.4,2.9-7.5,7.3c-0.2,5.3-0.2,10.6,0,15.9
	c0.1,4.2,2.4,7,6.6,7.2c6.8,0.4,13.6,0.3,20.5,0c4-0.2,6.3-3,6.5-7C281.5,817,281.3,811,280.9,804.3 M264.8,506
	c-0.7-5.6-3.3-7-8.1-4.6c-0.5,0.2-1,0.7-1.4,0.7c-6.5-0.7-8.5,3.8-10.4,8.7c-1.3,3.1-1.7,5.8,1.9,7.2c3.3,1.3,5.6-0.4,6.8-3.6
	c1-2.6,1.8-5.3,2.7-8c0.9,2.2,0.7,4.4,1.4,6.2c0.6,1.4,2.3,3.1,3.5,3.1c1.3,0,3.4-1.6,3.8-2.9C265.5,511.1,264.9,508.8,264.8,506
	 M307.5,536.5c1.7,2.2,3.4,4.5,5.2,6.5c2.2,2.5,4.9,3.9,8.2,2.2c2.8-1.4,4-3.8,3.3-7c-0.8-3.5-7.5-9.2-10.7-9.1
	c-3,0.1-5.5,1.2-6.2,4.6C307.1,534.5,307.3,535.2,307.5,536.5 M266.5,504.3c0.6,2.6,0.8,5.3,1.9,7.6c0.7,1.4,3,2.9,4.2,2.7
	c1.3-0.3,3-2.5,3.1-4c0.1-2.5-0.5-5.3-1.6-7.6c-0.7-1.4-2.7-3-4.2-3C268.7,500.1,267.5,502.4,266.5,504.3z"/>
<path class="st12" d="M893.3,970.1c5.3-25.3,10.7-50.3,15.9-75.2c2.8-13.4,4.9-26.9,8-40.2c2.3-9.8,5.5-19.3,8.6-28.8
	c1.9-5.9,4-7,10.3-7c14.4,0.1,28.8,1.2,43,0c30.2-2.5,60.5-2,90.7-2.5c25.5-0.4,51.1-0.5,76.3,4.4c17.9,3.5,20.8,7,22.2,25.2
	c1.7,23.3,0.5,46.5-2.8,69.6c-3,21.4-4.8,42.9-7.4,64.4c-1.3,10.8-3,21.5-4.6,32.3c-1.4,9.5-2.9,19-4.4,28.5c-0.2,1.2-0.7,2.4-1,3.6
	c-3,10.8-9.7,16.8-21.2,18.2c-25.9,3.2-51.8,3-77.7,1.8c-18.1-0.8-36.2-2.4-54.3-3.4c-24.5-1.5-49-2.7-73.4-4.4
	c-7.3-0.5-14.7-1.8-21.9-3.4c-9.4-2.2-13.5-8.2-13.7-17.9c-0.3-18,2.1-35.6,5.4-53.2C892.1,978.2,892.6,974.4,893.3,970.1
	 M996.6,987.7c0,10.7,0,21.5,0.2,32.2c0.1,3.3,0.4,7,4.6,8.1c3.8,1,6.1-1.3,7.9-4.1c2.4-3.6,4.9-7.1,7.1-10.9
	c6.1-10.4,12-20.8,17.9-31.2c1.5-2.6,2.9-3.3,5.5-1.2c4.8,3.8,9.6,7.7,14.7,11c7.7,5,15.6,9.6,23.7,14c1.9,1,4.7,1.3,6.8,0.9
	c4.1-0.9,5.5-4.2,4.1-9.4c-4.4-16-8.9-32-13.6-47.9c-0.9-3.1-0.2-4.8,2.2-6.7c7.9-6,15.8-12,23.5-18.1c3.4-2.7,6.8-5.4,9.7-8.6
	c1.2-1.4,1.8-4.4,1.2-6c-0.6-1.7-3.1-3.6-4.9-3.7c-6.1-0.3-12.3-0.1-18.4,0.3c-9.6,0.6-19.2,1.3-28.8,2.1c-3.2,0.3-4.3-1-4-4.1
	c0.8-9.9,1.6-19.7,2.1-29.6c0.4-8.4,0.5-16.7,0.2-25.1c-0.1-1.9-1.9-4.8-3.6-5.3c-1.6-0.5-5,0.6-6,2.1
	c-10.9,15.3-21.6,30.8-32.1,46.4c-3,4.4-5.6,9.2-8.6,14.2c-1.3-1.5-2-2.3-2.6-3.1c-7.6-10.5-15.2-21-22.9-31.4
	c-1.8-2.4-4-4.8-6.4-6.5c-3.7-2.7-7.8-0.5-7.8,4.1c0,2.2,0.7,4.4,0.7,6.6c0.2,18,4.2,35.4,7.7,52.9c0.8,3.8-0.1,5.5-3.5,7
	c-9.2,4.1-18.2,8.4-27.3,12.8c-2.6,1.2-4.8,3.1-4.3,6.5c0.5,3.5,3.1,4.8,6.2,5.3c3.6,0.5,7.2,0.8,10.8,1.3
	c11.7,1.7,23.4,3.6,35.1,5.3c2.3,0.3,3.1,1.3,3.1,3.5C996.6,976.5,996.6,981.7,996.6,987.7z"/>
<path class="st13" d="M757.1,904.3c-15.5-0.3-30.5-0.5-45.5-0.9c-13.4-0.4-26.7-1-40-1.7c-15.6-0.8-31.1-1.6-46.7-2.5
	c-1.4-0.1-2.7-0.4-4.1-0.7c-9.6-1.8-13.3-5.4-13.4-15.1c-0.2-13.4,0.8-26.8,6-39.4c2.7-6.6,8.8-8.4,15-9.1c8.7-1,17.5-1.5,26.2-1.7
	c15.5-0.5,30.9-1.3,46.4-0.7c17.9,0.6,35.8,2.5,53.7,3.8c8,0.6,16.1,1.2,24.1,1.9c4.3,0.4,8.6,0.8,12.8,1.7
	c8.9,2,13.9,7.3,14.8,16.4c1,10.5,1.8,21.1-0.6,31.6c-1.8,7.9-9.6,17.3-20.2,16.5C776.3,903.8,766.9,904.3,757.1,904.3 M671.5,876.1
	c-1.2,4.6-2.5,9.3-3.9,14.6c7.8,0,14.6-0.2,21.4,0.1c3,0.1,4.5-0.7,5.5-3.6c4.7-14,9.7-27.9,14.5-41.9c0.1-0.3,0-0.8-0.2-2.3
	c-8.5,0-16.9-0.1-25.4,0.1c-0.9,0-2.1,1.6-2.5,2.7C677.8,855.8,674.8,865.6,671.5,876.1 M740.4,860.5c1.5-4.4,3-8.9,4.6-13.7
	c-8.4-0.7-16.3-1.4-24.2-1.8c-0.9,0-2.5,1.6-2.8,2.7c-4.2,13.4-8.1,26.9-12.2,40.3c-0.3,1-0.4,2-0.7,3.5c7.7,0.3,14.9,0.7,22.1,0.8
	c1.1,0,2.9-1.5,3.3-2.7C733.9,880.1,737,870.6,740.4,860.5 M641,874.9c-1.5,4.9-2.9,9.7-4.4,14.6c6,0,11.5-0.1,16.9,0
	c2.6,0.1,3.4-1.1,4.2-3.5c4.2-13.1,8.6-26.2,12.9-39.3c0.3-1,0.5-2.1,0.9-3.5c-6.4,0-12.4-0.1-18.4,0.1c-1,0-2.6,1.5-3,2.6
	C647.1,855.3,644.2,864.8,641,874.9 M741.6,891.6c3.3,0.4,6.5,1.1,9.8,1.1c10.8,0.1,10.8,0,13.8-10.3c3.1-10.9,6.2-21.9,9.4-33.2
	c-5.6-0.5-10.9-0.9-16.3-1.6c-2.8-0.4-3.9,0.5-4.7,3.2C749.8,864.3,745.7,877.6,741.6,891.6 M796.8,865c1-11.9-1.7-15.1-13.2-14.7
	c-3.4,13.8-6.8,27.6-10.4,42.2c4.6,0,8.8-0.4,12.8,0.1c6.6,0.8,8.3-2.5,8.9-7.2C795.9,878.9,796.2,872.3,796.8,865 M618.6,851
	c-0.3,2.9-0.9,5.8-0.9,8.7c-0.3,8.3-0.4,16.7-0.5,25c0,3.8,3.1,3.7,5.6,4.3c2.7,0.7,3.3-1.3,4-3.2c3.8-11.1,7.6-22.1,11.5-33.2
	c1-3,2.1-6,3.5-9.8c-6.1,0.5-11.5,0.8-16.9,1.3C621.2,844.5,618.9,846.4,618.6,851z"/>
<path class="st14" d="M990.4,666c-13.3-2-26.2-4.1-39.2-5.8c-17.9-2.3-35.9-4.3-53.9-6.3c-36.1-4-72.4-5.6-108.3-12.2
	c-18.6-3.4-37.6-4.9-56.2-8.1c-21-3.6-42.1-7.6-61.1-18c-6.1-3.3-12-7.2-17.4-11.6c-8.8-7.2-12.2-17.5-14.3-28.2
	c-2.2-11-1.6-22.2-0.4-33.2c1.6-14.2,3-28.5,5.3-42.7c3.7-22.8,6.6-45.8,15-67.6c3-7.8,5.9-15.7,8.7-23.5
	c3.7-10.1,11.6-14.8,21.6-16.1c15.3-2,30.6-1.4,45.9,0.4c14.2,1.7,28.5,2.9,42.8,4.5c10,1.1,19.9,2.5,29.8,3.7
	c5.9,0.7,11.9,1.4,17.8,1.9c8.6,0.7,17.2,1.6,25.8,1.8c15.2,0.5,30.4,0.5,45.6,1c17.4,0.6,34.8,1.6,52.2,2.5
	c17.5,0.8,35.1,1.5,52.6,2.6c16.1,1,32.2,2.7,48.3,3.9c12.1,1,24.2,1.6,36.2,2.7c14.6,1.3,29.1,2.9,43.6,4.4
	c11.6,1.2,23.3,2.3,34.8,3.9c14.9,2.2,29.8,4.4,44.5,7.5c13.3,2.8,26.5,6.5,39.6,10.4c5.4,1.6,10.5,4.4,15.5,7.2
	c13.4,7.5,18.7,20.2,21.1,34.4c2.4,14.1,0.2,28.1-1.3,42c-1.5,14-3.5,27.9-5.4,41.8c-2.4,17.5-4.7,35-7.5,52.5
	c-2.5,15.2-4.3,30.6-11.6,44.7c-8.2,15.8-21.2,24.3-38.6,26.6c-18.7,2.5-36.9-0.4-55.2-3.4c-19.8-3.3-39.7-5.6-59.5-8.4
	c-11.6-1.6-23.1-3.4-34.7-4.9c-13.7-1.8-27.4-3.3-41-5C1017.8,669.8,1004.3,667.9,990.4,666 M947.7,421.7
	c-15.2-0.7-30.4-1.5-45.6-2.2c-24-1-48-1.2-71.9-3.1c-28.6-2.3-57.1-6.3-85.7-9.1c-14.8-1.5-29.8-2.1-44.6-2.9
	c-11.9-0.6-20.1,4.8-24.1,16c-3.6,10-8.1,19.8-9.9,30.1c-5.1,28.3-9.5,56.7-13.3,85.1c-1.6,11.7-1.7,23.7-0.8,35.4
	c0.9,11.7,5.9,21.8,16.8,28.4c11.8,7.2,24.1,12.9,37.6,16c24.1,5.4,48.3,10.2,72.9,12.8c18,1.9,35.9,5.2,53.9,7.1
	c31.9,3.4,63.9,6,95.8,9.4c23.9,2.5,47.7,5.4,71.5,8.7c30.3,4.1,60.5,8.7,90.7,13c26.1,3.7,52.2,7.1,78.3,11
	c15.5,2.3,30.9,5.1,46.6,4.1c9.3-0.6,18.3-2.5,25.5-9.2c6.3-5.8,10.3-13,12.2-21.1c2.6-10.8,4.5-21.9,6.2-32.9
	c2.4-15.7,4.1-31.5,6.6-47.2c4.5-28.4,9.6-56.7,6.3-85.7c-1.4-12.2-6.4-21.5-18.3-26.2c-4.7-1.8-9.3-4.1-14.1-5.3
	c-19.3-4.5-38.4-10.2-58-12.7c-39.4-5.2-79-9.3-118.6-12.6C1025.2,425.6,986.8,424,947.7,421.7z"/>
<path class="st15" d="M1017.9,271.8c-0.8,3.9-0.9,7.7-2.4,10.9c-3.7,8-14.7,9.5-20.8,3.1c-3.4-3.5-3.6-11.3,0-16.9
	c1.9-3,4.3-5.7,6.6-8.5c-6.6-4-17.8-2.3-22.9,4c-2.8,3.5-4.9,7.7-6.7,11.9c-1.8,4.1-1.1,8.2,1.9,11.8c0.6,0.7,1.4,1.5,1.6,2.4
	c0.3,1.1,0.6,2.9,0,3.4c-0.8,0.7-2.5,1-3.7,0.7c-5.1-1.3-9.2-7.5-9.2-13.6c-0.2-18.6,14.9-33.1,33.6-31.9c3.2,0.2,6.8,0.4,9.3,2
	c5.2,3.4,10.5,3.4,16.2,2.7c6.7-0.8,13.1,0.5,18.7,4.4c6.8,4.9,10.3,16,6.6,25c-2.3,5.5-6.4,10.3-10,15.2c-0.8,1.1-2.6,2.3-3.8,2.3
	c-2.3-0.1-5.5-0.4-6.5-1.8c-1-1.5-0.4-4.8,0.5-6.7c1-2,3.6-3,5-4.9c1.9-2.5,3.9-5.3,4.6-8.2c2.5-10.5-6.5-18.2-16.9-14.8
	c-0.8,0.3-1.6,1.7-1.8,2.6C1017.6,268.3,1017.9,269.9,1017.9,271.8 M1007.1,277.7c0.4-2.8,0.8-5.5,1.1-8.3c-0.5-0.2-1-0.4-1.5-0.6
	c-1.6,2.2-3.5,4.3-4.8,6.8c-0.6,1.1,0.2,2.9,0.4,4.5C1003.8,279.4,1005.3,278.8,1007.1,277.7z"/>
<path class="st1" d="M250,561.9c-3.9-0.8-5.7-3.2-5.3-6.7c0.5-3.7,3.1-5.4,6.8-5.3c0.8,0,1.7,0,2.5,0c7.1,0,7.1,0,5.9-7.9
	c-2.2,0.2-4.5,0.4-6.8,0.6c-3.3,0.2-5.6-1.3-7-4.3c-1.4-3-0.4-5.9,2.8-6.6c8.6-1.9,17.2-3.5,25.8-5c1.8-0.3,4.2,0.1,5.6,1.1
	c1.9,1.5,4,3.7,4.3,5.9c0.4,3.1-2.7,4-5.4,4.6c-5.2,1.2-7.2,4.7-5.4,9.9c0.2,0.6,1.1,1.1,1.7,1.5c0.2,0.1,0.5,0,0.8,0.1
	c12.7,1.4,12.8,1.3,12.5-11.2c-0.1-2.1-0.2-4.2-0.1-6.3c0.2-4,2.7-6.7,6.4-6.8c3.9-0.1,6.7,2.5,7,6.7c0.3,4.5,0.4,8.9,0.4,13.4
	c0,3.1,1.2,4.5,4.5,4.2c4-0.3,8.1-0.1,12.1,0c4.8,0.1,7.4,2.3,7.3,6.1c-0.1,3.9-2.6,5.9-7.5,6c-4.7,0.1-9.4,0-14.8,0
	c0.6,4.2,1.1,7.6,1.8,12.3c1.9-2.2,2.8-3.8,4.1-4.7c1.9-1.3,4-2.7,6.1-2.8c4.7-0.2,7.3,4.5,4.6,8.4c-2.8,4-6,7.7-9,11.5
	c-2.1,2.6-0.4,9.3,2.8,10.2c0.7,0.2,2.2-0.6,2.4-1.3c0.6-1.7,0.7-3.5,1.1-5.3c0.8-3.5,3.4-4.4,6.2-2.1c3.4,2.7,4.7,6.2,3.6,10.4
	c-1.3,5.1-2.9,10.1-8.8,11.7c-5.8,1.6-10.8,0.3-14.8-4.3c-1.9-2.2-3.4-4.7-5.4-7.4c-2.9,1.8-5.7,3.7-8.6,5.5
	c-2.9,1.8-5.8,1.8-8.6-0.2c-4.1-2.8-4.2-7.1,0-9.9c3.5-2.4,7.2-4.3,10.5-6.9c1.2-0.9,2-3.2,1.8-4.8c-0.7-5.7-2.1-11.2-2.9-16.9
	c-0.4-2.6-1.5-3.6-4.1-3.5c-2.4,0.1-4.7,0-7.1,0c-7.1,0-7.1,0-6,7.8c2.1-0.2,4.2-0.4,6.4-0.6c3.2-0.3,5.5,0.9,6.3,4.1
	c0.8,3.1-0.6,5.5-3.3,7c-1.3,0.7-2.9,1.3-4.3,1.3c-4.8,0.1-5.9,2.5-5.6,6.9c0.3,4.3,0,8.7-0.6,12.9c-0.7,4.8-4.5,6.8-8.8,7.8
	c-4.5,1.1-9.4,2.2-12.6-2.4c-1.3-1.8-2.1-4.7-1.6-6.8c0.3-1.3,3.5-2.6,5.4-2.5c4.2,0.1,5.5-1.6,5-5.5c-0.2-2,0-4.1,0-6.8
	c-2.9,0.5-5.1,0.9-7.4,1.3c-4.4,0.7-8.1-1.6-8.8-5.6c-0.7-3.7,1.9-6.7,6.6-7.4c2.1-0.3,4.1-0.8,6.2-0.8c2.8-0.1,3.4-1.5,3.4-4
	c0-6.7,0.1-6.7-6.4-6.7C252.9,562.1,251.7,562,250,561.9z"/>
<path class="st16" d="M284.4,440.2c0.6,2.4,1.2,4.6,1.3,6.8c0.2,5.3,0.1,10.6,0,15.9c-0.1,6.7-2.7,9.3-9.3,9.5
	c-1.7,0-3.3,0.3-4.9,0.5c0,0.5,0,1-0.1,1.4c1.5,0.2,2.9,0.5,4.4,0.6c1.7,0.2,3.4,0,5,0.3c2.7,0.5,4.7,2.3,3.9,4.9
	c-0.5,1.8-2.6,3.9-4.4,4.4c-2.7,0.7-5.8,0.2-8.7,0.2c0,0.5-0.1,1-0.1,1.6c0.8,0.3,1.5,0.8,2.3,0.9c2.5,0.1,5.1-0.4,7.5,0.1
	c1.9,0.5,4.4,1.9,4.8,3.5c0.5,1.6-1,3.9-1.8,5.8c-0.2,0.5-1.1,0.8-1.7,1.2c1.6,3.2,3.2,6.3,4.7,9.3c0.2,0,0.5-0.1,0.7-0.1
	c0-6.6,0-13.2,0-19.8c0-7.3,1.4-9.1,8.6-10.1c2.7-0.4,2.6-1.9,2.6-3.8c0-9.8,0-19.5,0-29.3c0-1.5,0.1-3.1,0.4-4.6
	c0.8-3.2,3-5,6.4-4.8c3.4,0.2,5.4,2.2,5.7,5.6c0.2,2.9,0.2,5.9,0.2,8.8c-0.1,2.5,0.8,3.6,3.4,3.5c2.6-0.1,5.3-0.1,7.9,0.3
	c3.2,0.4,5.1,2.4,5.2,5.6c0.1,3.5-1.9,5.6-5.2,6.1c-2.6,0.4-5.3,0.4-7.9,0.2c-2.6-0.1-3.6,1-3.4,3.4c0.1,0.7,0,1.4,0,2.1
	c0,6.3,0,6.3,6.2,6.9c4.6,0.4,7.4,3.1,7.5,7.9c0.2,9.3,0.3,18.7-0.1,28c-0.1,2.1-1.9,4.8-3.7,5.8c-2.5,1.4-5.3,0.8-8.5-0.4
	c-4-1.5-9.7-2.1-13.3-0.3c-6,3-10.5,2.3-12.1-4.2c-0.1-0.4-0.3-0.8-0.5-1.1c-10,0.4-12.9-9.6-8.2-14.6c-6.7,0-13.7,0-20.7,0
	c-2.8,0-5.6,0.2-8.4,0.2c-3.5,0-5.7-1.7-5.7-5.2c0-3.3,2.1-5,5.3-5.2c3.3-0.2,6.5-0.4,9.8-0.6c0.1-0.4,0.2-0.8,0.3-1.2
	c-0.6-0.4-1.3-1.2-1.9-1.3c-1.9-0.2-3.9-0.1-5.9-0.1c-3.1,0-5.3-1.5-5.5-4.6c-0.2-3.4,2.2-5,5.4-5.2c2.5-0.1,5.1,0,7.6,0
	c0.1-0.6,0.1-1.2,0.2-1.9c-1.4-0.3-2.8-0.7-4.2-0.8c-7-0.2-9.5-2.6-9.7-9.6c-0.1-5.7-0.2-11.4,0-17.2c0.2-6.3,2.9-8.7,9.2-8.8
	c7.3-0.1,14.5-0.3,21.8,0.1C279.3,437,281.7,438.8,284.4,440.2 M299.7,501c0.6,1.3,1.1,3.8,1.8,3.8c3.8,0.1,7.6-0.3,11.4-0.7
	c0.2,0,0.3-1,0.3-1.5c0-3.7,0.2-7.5-0.1-11.2c-0.1-0.9-1.4-2.4-2.3-2.5c-10.2-1.6-11.1-0.9-11.1,9.2
	C299.7,498.8,299.7,499.5,299.7,501 M270.5,452.9c1.2-1.4,2.5-2.9,3.7-4.3c0.5-0.6,0.9-1.1,1.4-1.7c-0.7-0.5-1.4-1.5-2-1.5
	c-1.5,0.2-4.1,0.7-4.1,1.3c-0.3,2.4,0.2,5,0.4,7.5C270.1,453.9,270.2,453.6,270.5,452.9 M256.3,445.5c0.1,0.9-0.1,2.3,0.4,2.8
	c1.5,1.4,3.4,2.5,5.1,3.7c-0.1-1.9-0.2-4.1-0.4-6.6C259.7,445.3,258.4,445.3,256.3,445.5 M255.4,457.6c0.1,2,0.2,4,0.3,6.2
	c1.8,0,3,0.1,4.2-0.1c0.5-0.1,1.3-0.7,1.4-1.2c0.2-0.5,0-1.5-0.4-1.9c-1.6-1.6-3.4-3.1-5.1-4.6c-0.1,0.2-0.3,0.4-0.4,0.6
	C255.4,456.7,255.4,456.9,255.4,457.6 M275.6,462.4c0-1.7,0-3.4,0-5.1c-1.6,1.2-3,2.1-4.3,3.2c-0.6,0.5-1.2,1.1-1.8,1.7
	c0.8,0.5,1.5,1.5,2.3,1.6C273,463.8,274.2,463.3,275.6,462.4z"/>
<path class="st17" d="M297.2,392.7c6.2,5.1,12.3,10.3,18.5,15.4c1.2,1,2.7,1.5,4,2.2c5,2.8,6.3,5.4,4.6,8.7c-2.3,4.4-8,6.3-12.2,3.5
	c-5.5-3.8-10.6-8.1-15.8-12.4c-1.1-0.9-1.8-2.4-2.7-3.6c-0.5,0.3-0.9,0.5-1.4,0.8c0,4.8,0.1,9.6,0,14.4c-0.1,4.5-2.5,7.3-6.2,7.7
	c-4.4,0.5-7.6-2.6-7.8-7.8c-0.2-4.4,0-8.9,0-14.3c-3.2,2.9-5.6,5.3-8.3,7.3c-3.9,3-7.9,5.7-11.9,8.5c-2.9,1.9-5.9,1.4-8.6-0.4
	c-4.6-3-4.4-7.8,0.1-10.8c6-4,12.2-7.8,17.9-12.3c3.6-2.9,6.5-6.9,9.5-10.5c0.8-1,1.3-2.5,1.3-3.8c0.2-5,0-10,0.1-15.1
	c0-2-0.6-3.2-2.8-3.1c-2.9,0.1-5.8,0-9.8,0c4.5,2.8,6.6,5.8,5.1,10.4c-0.2,0.6,0.9,1.9,1.6,2.7c2.7,2.6,4.1,5.5,1.8,8.9
	c-2.4,3.4-5.5,3.3-8.8,1.3c-0.2-0.1-0.5-0.1-1-0.1c-1.3,1.6-2.6,3.5-4,5.1c-3,3.4-6.7,3.9-10,1.3c-2.9-2.3-2.9-5.5-0.1-9.2
	c6.4-8.4,9-13.9,9.4-20.3c-1.9,0-3.8,0.1-5.7,0c-4.5-0.3-7.4-2.9-7.3-6.5c0-3.6,2.9-6.3,7.4-6.4c6.4-0.2,12.8-0.1,19.2-0.1
	c1.5,0,3,0,4.7,0c0.8-5,1-10.3,7.6-10.3c4.3,0,5.8,2.1,7.5,10.3c7,0,14,0,21.1,0c1.8,0,3.6-0.1,5.4,0.2c3.6,0.6,5.9,2.6,5.8,6.5
	c-0.1,3.6-2.3,5.7-5.7,6c-3.3,0.3-6.7,0.1-11.3,0.1c4.4,3,6.6,5.8,5.2,10.2c-0.2,0.7,1,2.1,1.8,2.9c1.9,1.7,4,3,5.9,4.6
	c2.7,2.3,3.4,5.1,1.4,8.1c-1.7,2.6-5.7,3.3-8.6,1.5c-2.2-1.4-4.2-3.2-5.3-4.1c-4,0.8-7.1,1.4-10.7,1.8c-0.7-0.1-1,0-1.2,0
	C296.9,392.4,297,392.6,297.2,392.7 M292.2,378.7c0,2.4,0,4.8,0,8.4c5.8-6.2,8.7-12.3,10.1-19.3c-9.7-1.8-10.1-1.6-10.1,7.6
	C292.2,376.3,292.2,377.1,292.2,378.7z"/>
<path class="st1" d="M284.7,838.4c0.1,4.1-2,5.6-5.5,5.6c-2.5,0-4.9,0-7.7,0c0,2.1,0,3.7,0,6c2.3,0,4.5-0.1,6.7,0
	c2.8,0.2,4.9,1.6,4.8,4.7c-0.1,3-2.1,4.4-5,4.4c-0.3,0-0.6,0-0.8,0c-5.4,0.2-7.6,3.2-5.6,8.4c0.3,0.8,1.5,1.4,2.5,1.6
	c1.6,0.4,3.3,0.6,5,0.6c2.6,0.1,5.3,0,7.4,0c0-3-1.1-6.4,0.2-8.4c2.3-3.4,6-6,10.6-5.7c1.7,0.1,3.8,1.2,4.6,2.6
	c0.5,0.9-0.6,3.3-1.7,4.4c-2.3,2.4-5.1,4.3-8.1,6.8c9.1,0,17.7,0,27.2,0c-2.4-2.7-5-4.6-6.2-7.2c-1.1-2.2-0.7-5.1-1-8.4
	c-4.3,0-9.8,0-15.3,0c-6.7-0.1-9.4-2.7-9.4-9.4c0-8-0.1-15.9,0-23.9c0.1-5.7,2.7-8.2,8.4-8.8c1.5-0.1,2.8-1.2,4.2-1.8
	c-0.2-0.6-0.3-1.2-0.5-1.7c-3,0-6.1,0.1-9.1,0c-2.9-0.1-5.4-1.1-5.4-4.5c0.1-3.4,2.4-4.4,5.4-4.4c10.3,0,20.7,0,31,0
	c2.9,0,5.1,1.2,5.2,4.2c0.2,3.3-2.2,4.6-5.2,4.7c-2.4,0.1-4.8-0.1-7.1,0.2c-1.3,0.2-2.5,1.2-3.7,1.8c0.2,0.5,0.3,0.9,0.5,1.4
	c1.9,0.1,3.7,0.2,5.6,0.3c4.7,0.3,7.7,3,7.8,7.6c0.2,9.2,0.4,18.4-0.1,27.6c-0.2,2.7-2.9,5.3-4.7,8.2c7.4,8,7.5,8.5,3,13
	c1.6,1.8,4.1,3.4,4.5,5.4c0.6,3-3.4,6.2-7.2,6.2c-15.6-0.1-31.2-0.3-46.8-0.8c-6.9-0.2-12.9-3.2-17.9-8.7c-1,2.4-1.7,4.3-2.6,6.1
	c-1.7,3.4-5.4,3.8-7.2,0.5c-1.1-2.2-1.6-5.1-1.3-7.5c0.6-5.6,2-11.2,2.9-16.8c0.6-3.9,2.7-6.2,5.8-5.7c3.6,0.5,4.5,3,4.6,6.3
	c0.1,2.6,1,5.1,1.5,7.7c0.5-0.1,1.1-0.1,1.6-0.2c0-4.9,0.1-9.8-0.1-14.7c0-0.7-1.8-1.9-2.8-2c-2.8-0.3-5.6,0-8.4-0.2
	c-2.9-0.1-4.8-1.7-4.7-4.7c0.1-3.1,2-4.5,4.9-4.5c10,0,20.1-0.2,30.1,0.1C281.2,834.9,282.9,837,284.7,838.4 M300.9,842.4
	c-0.7,0.6-1.4,1.2-2.1,1.8c0.8,0.4,1.5,1.2,2.3,1.2c2.9,0.2,5.8,0.2,8.7,0c0.9-0.1,1.7-0.9,2.5-1.4c-0.9-0.6-1.8-1.5-2.8-1.6
	C306.8,842.3,304.2,842.4,300.9,842.4 M299.5,831.7c0.3,1,0.5,2.7,0.8,2.8c3.3,0.2,6.6,0.2,9.9,0.1c0.7,0,1.3-1,2-1.6
	c-0.7-0.5-1.4-1.3-2.1-1.4C306.8,831.5,303.5,831.6,299.5,831.7 M300.2,820.6c-2.6,1.4-2.1,2.7,0.4,2.9c3.2,0.3,6.4,0.2,9.6,0
	c0.7,0,1.4-1,2-1.6c-0.7-0.5-1.4-1.3-2.2-1.4C307,820.5,303.9,820.6,300.2,820.6z"/>
<path class="st1" d="M269.2,781.7c-0.8-2.1-1.7-3.9-1.8-5.7c-0.2-5.8-0.2-11.7,0-17.6c0.1-6.4,2.9-9.2,9.2-9.2c6-0.1,12-0.1,18,0
	c5.9,0.1,8.6,2.9,8.6,8.9c0.1,5.7,0.1,11.4,0,17.2c-0.1,2.6,1,3.5,3.5,3.3c2.1-0.2,4.8,0.5,4.8-3c0-10.3,0-20.6,0-31.7
	c-4.7,0-9.1,0-13.5,0c-7.5-0.1-10-2.5-10-10.1c0-5.4-0.1-10.9,0-16.3c0.1-5.4,2.8-8.3,8.2-8.4c6.4-0.2,12.8-0.1,19.2,0
	c6.6,0.1,9.3,2.8,9.4,9.5c0.1,15.2,0,30.4,0,45.6c0,4.9,0.2,9.8-0.2,14.6c-0.6,8.3-3.5,10.9-12.9,12.4c-7,1.1-10.7-1-13.4-8.2
	c-1.3-3.4-3.1-4.6-6.5-4.2c-2.3,0.2-4.7,0-7.1,0c-2.6,0-4.7-0.1-6.5,3C276.2,785.1,272.5,784,269.2,781.7 M286.7,767.9
	c2.5,0.1,4.6,0.1,4.6-3.5c-0.1-3.2-0.3-5.1-4.4-5c-7.4,0.2-7.2,0-7.3,4.9C279.4,769.9,283.5,767.3,286.7,767.9 M306.1,730.5
	c-1,0-2-0.2-2.9,0.1c-1,0.4-1.7,1.2-2.6,1.9c0.9,0.6,1.8,1.6,2.8,1.7c2.1,0.3,4.2,0.2,6.2,0c0.7-0.1,1.3-1.1,1.9-1.7
	c-0.6-0.6-1.1-1.5-1.8-1.8C308.9,730.3,307.8,730.5,306.1,730.5 M301,719.1c0.6,0.9,1,2.5,1.7,2.6c2.2,0.3,4.4,0.3,6.6,0.1
	c0.8-0.1,1.5-1.1,2.2-1.7c-0.8-0.5-1.6-1.5-2.4-1.5C306.6,718.4,304.1,718.6,301,719.1z"/>
<path class="st1" d="M324.9,680.7c-0.2,3.6-0.1,6.9-0.6,10c-1.1,6.5-4.5,9-13.4,10c-6,0.7-9.9-1.1-11.9-6.8c-1.7-5-4.5-6.4-9.3-5.7
	c-1.9,0.3-3.9,0.1-5.9,0c-2.3-0.1-4.1,0.1-5.4,2.7c-0.7,1.3-3.8,2.4-5.3,2c-2.1-0.6-5.1-2.7-5.2-4.3c-0.5-8.2-0.4-16.4,0.1-24.6
	c0.2-3.1,2.9-5.1,6.3-5.2c7.3-0.1,14.5-0.2,21.8,0c4.4,0.1,7,3.2,7.1,7.7c0.1,5.9,0.2,11.7,0,17.6c-0.1,2.8,0.7,4.1,3.7,4
	c2.9-0.1,4.7-0.6,4.7-4.2c-0.2-9.1-0.1-18.1,0-27.2c0-2.6-1-3.5-3.4-3.4c-3.8,0.1-7.5,0.1-11.3,0c-6-0.1-8.7-2.8-8.8-8.7
	c-0.1-5.9-0.1-11.7,0-17.6c0.1-5.6,2.8-8.4,8.6-8.5c6.3-0.1,12.6-0.1,18.8,0c6.6,0.1,9.4,2.8,9.4,9.5
	C324.9,645.4,324.9,662.8,324.9,680.7 M284.4,677.5c0.6,0,1.1,0,1.7,0c2.9,0.1,5.3,0.3,5.3-4c0-4.5-2.3-4.6-5.4-4.4
	c-0.7,0.1-1.4,0.1-2.1,0c-2.8-0.3-4.4,0.3-4.3,3.7C279.6,675.7,279.6,678.2,284.4,677.5 M307.6,643.9c1.3-0.6,2.6-1.2,3.9-1.8
	c-1.2-0.7-2.4-1.7-3.8-2c-1.6-0.3-3.3-0.3-4.9,0c-0.9,0.2-1.6,1.3-2.4,2c0.8,0.6,1.5,1.5,2.3,1.7
	C304.1,644.1,305.5,643.8,307.6,643.9 M301,628.7c0.6,0.9,1,2.5,1.7,2.6c2.2,0.3,4.4,0.3,6.6,0.1c0.8-0.1,1.5-1.1,2.2-1.7
	c-0.8-0.5-1.6-1.5-2.4-1.5C306.6,628,304.1,628.2,301,628.7z"/>
<path class="st0" d="M248.8,711.9c2.3-1.2,4.4-2.7,6.5-2.8c6.4-0.3,12.8-0.2,19.2-0.1c5.4,0.1,8.2,2.9,8.4,8.4c0.2,6,0.2,12,0,18
	c-0.2,5.5-3.2,8.2-8.8,8.4c-3.5,0.1-7,0.2-10.5,0c-3-0.2-3.8,1.1-3.8,3.9c0.1,11.3,0,22.6,0,33.9c0,1.5,0,3.1-0.2,4.6
	c-0.5,3.1-2.5,4.9-5.7,5.2c-3.4,0.3-5.6-1.5-6.6-4.6c-0.4-1.4-0.3-3-0.3-4.6c0-20.9-0.1-41.9,0.1-62.8
	C247.1,716.9,248.1,714.5,248.8,711.9 M270.5,731.6c-3.2-0.3-6.3-0.6-9.5-0.8c-0.1,0-0.8,2.3-0.3,2.8
	C262,735.2,269.2,734,270.5,731.6 M268.9,718.6c-2.2,0-4.4-0.2-6.6,0.1c-0.8,0.1-1.4,1.4-2.1,2.2c2.3,0.3,4.7,0.9,7,1
	c1.1,0,2.2-0.9,3.3-1.4C270.2,719.9,269.9,719.3,268.9,718.6z"/>
<path class="st0" d="M247,674.9c0-15.8,0-31.1,0-46.4c0-7.3,2.5-9.9,9.7-9.9c5.9-0.1,11.7-0.1,17.6,0c5.6,0.1,8.5,2.9,8.7,8.5
	c0.2,5.9,0.2,11.7,0,17.6c-0.2,5.8-3.1,8.5-9,8.6c-3.3,0.1-6.7,0.2-10,0c-3.1-0.2-4.2,0.9-4.1,4.1c0.1,11,0.1,22,0,33
	c0,1.4,0,2.8-0.1,4.2c-0.3,3.9-2.8,6.4-6.3,6.4c-3.6,0-6.3-2.4-6.4-6.4C246.9,688.1,247,681.7,247,674.9 M270.1,640.5
	c-2.7-0.2-5.4-0.5-8.2-0.4c-0.7,0-1.3,1-2,1.6c0.7,0.7,1.3,1.8,2.1,1.9c2.2,0.3,4.4,0.3,6.6,0C269.4,643.4,269.9,642,270.1,640.5
	 M269.7,631.3c1.4-1.5,1.3-2.8-0.9-3.1c-2.2-0.2-4.4-0.2-6.6,0c-0.7,0.1-1.4,1-2.1,1.5c0.7,0.6,1.4,1.6,2.2,1.7
	C264.5,631.6,266.7,631.4,269.7,631.3z"/>
<path class="st17" d="M281.1,804.7c0.2,6.3,0.5,12.3,0.3,18.3c-0.1,3.9-2.4,6.8-6.5,7c-6.8,0.3-13.7,0.4-20.5,0
	c-4.3-0.2-6.5-3-6.6-7.2c-0.2-5.3-0.2-10.6,0-15.9c0.2-4.4,3-7.2,7.5-7.3c6.1-0.2,12.3,0,18.4,0
	C277.2,799.5,279.5,801.3,281.1,804.7 M264.3,818.8c-1.3,0-2.5,0-3.7,0.2c-0.4,0.1-1,0.6-1.1,1c-0.1,0.4,0.4,1.3,0.6,1.3
	c3.1,0.1,6.2,0.1,9.3,0.1c0-0.6,0-1.3,0-1.9C268,819.3,266.5,819.1,264.3,818.8 M259.3,809.3c3.3,2.7,6.6,1.2,9.9,0.1
	C266.2,807.6,262.9,807.6,259.3,809.3z"/>
<path class="st13" d="M264.8,506.4c0.1,2.4,0.7,4.7,0.1,6.5c-0.4,1.3-2.5,2.9-3.8,2.9c-1.2,0-3-1.7-3.5-3.1c-0.7-1.8-0.5-4-1.4-6.2
	c-0.9,2.7-1.7,5.3-2.7,8c-1.2,3.2-3.5,4.9-6.8,3.6c-3.6-1.4-3.2-4.1-1.9-7.2c2-4.9,3.9-9.4,10.4-8.7c0.4,0,0.9-0.5,1.4-0.7
	C261.5,499.1,264.1,500.5,264.8,506.4z"/>
<path class="st17" d="M307.4,536.2c-0.1-1-0.3-1.7-0.1-2.4c0.7-3.3,3.2-4.4,6.2-4.6c3.2-0.1,9.9,5.6,10.7,9.1c0.7,3.1-0.5,5.6-3.3,7
	c-3.3,1.7-6,0.3-8.2-2.2C310.8,541,309.2,538.7,307.4,536.2z"/>
<path class="st13" d="M266.4,504c1.1-1.6,2.2-3.9,3.4-3.9c1.4,0,3.5,1.6,4.2,3c1.1,2.3,1.7,5.1,1.6,7.6c-0.1,1.4-1.8,3.7-3.1,4
	c-1.2,0.2-3.5-1.4-4.2-2.7C267.3,509.6,267,506.9,266.4,504z"/>
<path class="st18" d="M996.6,987.3c0-5.6-0.1-10.7,0-15.9c0-2.2-0.8-3.1-3.1-3.5c-11.7-1.6-23.4-3.5-35.1-5.3
	c-3.6-0.5-7.2-0.8-10.8-1.3c-3.1-0.5-5.7-1.8-6.2-5.3c-0.5-3.3,1.8-5.2,4.3-6.5c9-4.4,18.1-8.7,27.3-12.8c3.4-1.5,4.2-3.2,3.5-7
	c-3.4-17.5-7.5-34.9-7.7-52.9c0-2.2-0.7-4.4-0.7-6.6c0.1-4.6,4.1-6.8,7.8-4.1c2.4,1.8,4.6,4.1,6.4,6.5c7.7,10.4,15.3,20.9,22.9,31.4
	c0.6,0.9,1.4,1.7,2.6,3.1c3-5,5.6-9.8,8.6-14.2c10.6-15.6,21.2-31.1,32.1-46.4c1.1-1.5,4.4-2.7,6-2.1c1.7,0.5,3.5,3.4,3.6,5.3
	c0.3,8.4,0.2,16.7-0.2,25.1c-0.5,9.9-1.3,19.7-2.1,29.6c-0.2,3.1,0.9,4.4,4,4.1c9.6-0.8,19.2-1.6,28.8-2.1
	c6.1-0.4,12.3-0.6,18.4-0.3c1.8,0.1,4.2,2,4.9,3.7c0.6,1.7,0,4.7-1.2,6c-2.8,3.2-6.3,5.9-9.7,8.6c-7.8,6.1-15.6,12.2-23.5,18.1
	c-2.4,1.8-3.1,3.5-2.2,6.7c4.7,15.9,9.2,31.9,13.6,47.9c1.4,5.2,0,8.5-4.1,9.4c-2.1,0.5-4.9,0.2-6.8-0.9c-8-4.4-16-9.1-23.7-14
	c-5.1-3.3-9.9-7.2-14.7-11c-2.6-2.1-4-1.4-5.5,1.2c-5.9,10.4-11.9,20.9-17.9,31.2c-2.2,3.7-4.7,7.3-7.1,10.9
	c-1.9,2.8-4.2,5.1-7.9,4.1c-4.1-1.1-4.5-4.7-4.6-8.1C996.6,1009.2,996.7,998.4,996.6,987.3 M1043.9,869.1
	c-10.7,16.2-21.4,32.3-32.1,48.5c-2.6,3.9-5.8,4.5-8.8,0.9c-2.9-3.5-5.3-7.5-7.9-11.3c-5.3-7.7-10.5-15.5-15.8-23.2
	c-0.3,0.2-0.7,0.4-1,0.5c0.4,3,0.7,6,1.3,9c2.7,13.4,5.5,26.8,8.3,40.1c0.7,3.3,0.6,6.2-2.8,7.9c-5,2.5-10,4.9-15,7.3
	c-2,1-4.1,2-6.9,3.4c1.5,0.4,2,0.6,2.5,0.7c11,1.6,22,3.1,33,4.8c5.8,0.9,7.1,2.7,7.2,8.7c0.3,12.1,0.6,24.2,0.9,36.4
	c0,1,0.3,2.1,0.7,4.2c1.3-2,2.1-3.1,2.8-4.2c6.2-10.6,12.3-21.2,18.7-31.7c3.4-5.5,6.6-6,11.8-2.3c6.1,4.4,11.9,9.2,18,13.7
	c5.4,4,10.9,7.7,16.4,11.5c0.3-0.3,0.7-0.7,1-1c-0.3-1.2-0.5-2.3-0.9-3.5c-4-13.8-7.9-27.6-11.9-41.4c-1.5-5-0.1-8.8,4.3-11.9
	c6.4-4.7,12.6-9.7,18.8-14.7c1.2-1,2.3-2,4.3-3.8c-2.5,0-3.8-0.1-5,0c-10.7,1-21.3,2.1-32,3.1c-6.2,0.6-10.3-2.6-10-8.3
	c0.5-9.3,1.5-18.6,2.2-27.9c0.5-6,0.8-12,1.3-18c-0.4-0.1-0.7-0.1-1.1-0.2C1045.4,867.3,1044.8,868,1043.9,869.1z"/>
<path class="st19" d="M671.6,875.8c3.2-10.2,6.2-20,9.4-29.8c0.4-1.1,1.6-2.7,2.5-2.7c8.5-0.2,16.9-0.1,25.4-0.1
	c0.1,1.5,0.3,1.9,0.2,2.3c-4.8,14-9.8,27.9-14.5,41.9c-1,2.9-2.5,3.7-5.5,3.6c-6.8-0.3-13.6-0.1-21.4-0.1
	C669.1,885.4,670.3,880.8,671.6,875.8z"/>
<path class="st19" d="M740.3,860.8c-3.3,9.8-6.4,19.3-9.8,28.8c-0.4,1.2-2.2,2.7-3.3,2.7c-7.2,0-14.4-0.5-22.1-0.8
	c0.3-1.5,0.4-2.5,0.7-3.5c4-13.5,8-26.9,12.2-40.3c0.3-1.1,1.9-2.7,2.8-2.7c7.9,0.4,15.8,1.1,24.2,1.8
	C743.4,851.6,741.9,856,740.3,860.8z"/>
<path class="st5" d="M641.1,874.6c3.1-9.8,6-19.2,9.1-28.6c0.4-1.1,1.9-2.6,3-2.6c6-0.3,12-0.1,18.4-0.1c-0.4,1.5-0.6,2.5-0.9,3.5
	c-4.3,13.1-8.8,26.2-12.9,39.3c-0.7,2.4-1.6,3.6-4.2,3.5c-5.4-0.1-10.8,0-16.9,0C638,884.6,639.5,879.7,641.1,874.6z"/>
<path class="st19" d="M741.7,891.3c4-13.7,8.1-27,11.9-40.4c0.8-2.7,1.9-3.6,4.7-3.2c5.4,0.7,10.7,1.1,16.3,1.6
	c-3.2,11.3-6.2,22.2-9.4,33.2c-3,10.4-3,10.4-13.8,10.3C748.1,892.7,744.9,892,741.7,891.3z"/>
<path class="st5" d="M796.8,865.4c-0.6,6.9-0.9,13.4-1.8,19.9c-0.6,4.8-2.3,8.1-8.9,7.2c-4.1-0.5-8.3-0.1-12.8-0.1
	c3.6-14.5,7-28.4,10.4-42.2C795.1,850,797.9,853.1,796.8,865.4z"/>
<path class="st5" d="M618.7,850.7c0.2-4.3,2.5-6.2,6.1-6.5c5.4-0.5,10.7-0.8,16.9-1.3c-1.4,3.9-2.4,6.8-3.5,9.8
	c-3.8,11.1-7.7,22.1-11.5,33.2c-0.7,1.9-1.3,3.9-4,3.2c-2.5-0.6-5.6-0.6-5.6-4.3c0.1-8.3,0.2-16.7,0.5-25
	C617.8,856.8,618.3,853.9,618.7,850.7z"/>
<path class="st20" d="M948.1,421.7c38.7,2.3,77.1,3.9,115.3,7c39.6,3.3,79.2,7.4,118.6,12.6c19.6,2.6,38.7,8.2,58,12.7
	c4.8,1.1,9.4,3.4,14.1,5.3c12,4.6,17,14,18.3,26.2c3.3,29-1.8,57.3-6.3,85.7c-2.5,15.7-4.2,31.5-6.6,47.2c-1.7,11-3.6,22-6.2,32.9
	c-1.9,8.1-5.9,15.3-12.2,21.1c-7.2,6.6-16.2,8.6-25.5,9.2c-15.7,1-31.1-1.8-46.6-4.1c-26.1-3.9-52.2-7.3-78.3-11
	c-30.2-4.3-60.4-8.9-90.7-13c-23.8-3.2-47.6-6.1-71.5-8.7c-31.9-3.4-63.9-6-95.8-9.4c-18-1.9-35.9-5.2-53.9-7.1
	c-24.6-2.6-48.8-7.4-72.9-12.8c-13.5-3-25.8-8.8-37.6-16c-10.9-6.6-15.9-16.6-16.8-28.4c-0.9-11.7-0.8-23.8,0.8-35.4
	c3.8-28.5,8.2-56.9,13.3-85.1c1.9-10.3,6.4-20.2,9.9-30.1c4-11.2,12.2-16.6,24.1-16c14.9,0.8,29.8,1.4,44.6,2.9
	c28.6,2.8,57.1,6.8,85.7,9.1c23.9,1.9,47.9,2.1,71.9,3.1C917.4,420.2,932.5,421,948.1,421.7 M892.1,482.1
	c-2.8,11.8-3.2,23.4,2.1,34.8c3.3,7,8.7,11.1,16.3,12.3c13.3,2.1,25.9-4,32.4-15.8c7.6-13.8,10-28.5,6.8-44
	c-3.4-16.6-17.4-23.7-32.9-16.6C904.1,458.4,897,468.9,892.1,482.1 M979.4,476.3c-8.2,12.1-13.2,25.4-12.5,40.1
	c0.8,15.8,13.9,28.1,31.5,22.3c5.2-1.7,10.1-5.4,14.3-9.1c8.3-7.4,12.8-17.3,15.5-27.8c2.4-9.4,3-19.1-1.5-28.3
	c-4.4-8.9-11.4-13.8-21.8-13.2C993.7,461,986.1,467.4,979.4,476.3 M925.5,562.8c5.7,9.3,17.4,12.1,26.5,6.2c3.3-2.1,4.7-5.4,3-8.1
	c-2.1-3.4-5.1-2.9-8.1-1.4c-4.9,2.7-9.1,1.5-12.9-2.2c-1.9-1.9-3.9-3.9-6.8-2.2C924.6,556.8,924.4,559.4,925.5,562.8 M956.7,530.9
	c0-1.1,0.4-2.4-0.1-3.3c-0.8-1.6-1.9-3.9-3.3-4.2c-1.6-0.3-4.6,0.7-5.2,1.9c-1.6,3.4-2.5,7.3-3,11c-0.2,1.2,1.6,3.4,3,3.9
	c1.4,0.5,4,0,4.8-1.1C954.5,537,955.4,534.1,956.7,530.9z"/>
<path class="st21" d="M1007,278c-1.6,0.9-3.1,1.5-4.6,2c-0.2-1.5-1-3.3-0.4-4.5c1.2-2.4,3.1-4.6,4.8-6.8c0.5,0.2,1,0.4,1.5,0.6
	C1007.9,272.1,1007.5,274.9,1007,278z"/>
<path class="st11" d="M299.7,500.6c0-1.1,0-1.8,0-2.5c0-10.1,0.8-10.8,11.1-9.2c0.9,0.1,2.2,1.6,2.3,2.5c0.3,3.7,0.1,7.5,0.1,11.2
	c0,0.5-0.2,1.5-0.3,1.5c-3.8,0.3-7.6,0.8-11.4,0.7C300.8,504.8,300.3,502.3,299.7,500.6z"/>
<path class="st21" d="M270.4,453.1c-0.2,0.5-0.4,0.7-0.5,0.9c-0.2-2.5-0.7-5-0.4-7.5c0.1-0.6,2.7-1.1,4.1-1.3c0.6-0.1,1.3,0.9,2,1.5
	c-0.5,0.6-0.9,1.2-1.4,1.7C273,450,271.7,451.4,270.4,453.1z"/>
<path class="st22" d="M256.6,445.4c1.7-0.1,3.1-0.1,4.8-0.1c0.1,2.5,0.3,4.7,0.4,6.6c-1.7-1.2-3.6-2.3-5.1-3.7
	C256.2,447.7,256.4,446.4,256.6,445.4z"/>
<path class="st22" d="M255.4,457.3c0-0.4,0-0.6,0.1-0.7c0.1-0.2,0.2-0.4,0.4-0.6c1.7,1.5,3.5,3,5.1,4.6c0.4,0.4,0.6,1.3,0.4,1.9
	c-0.2,0.5-0.9,1.1-1.4,1.2c-1.2,0.2-2.5,0.1-4.2,0.1C255.6,461.6,255.5,459.6,255.4,457.3z"/>
<path class="st5" d="M275.5,462.8c-1.3,0.6-2.5,1.1-3.6,1c-0.8-0.1-1.6-1-2.3-1.6c0.6-0.6,1.1-1.2,1.8-1.7c1.3-1,2.7-2,4.3-3.2
	C275.6,459,275.6,460.7,275.5,462.8z"/>
<path class="st19" d="M292.2,378.3c0-1.2,0-2.1,0-2.9c0-9.2,0.4-9.4,10.1-7.6c-1.4,7-4.3,13.1-10.1,19.3
	C292.2,383.6,292.2,381.1,292.2,378.3z"/>
<path class="st11" d="M297.3,392.6c-0.3-0.1-0.5-0.2-0.6-0.4c0.2-0.1,0.5-0.1,0.9-0.1C297.7,392.2,297.5,392.5,297.3,392.6z"/>
<path class="st21" d="M301.2,842.4c3,0,5.6-0.2,8.2,0.1c1,0.1,1.9,1,2.8,1.6c-0.8,0.5-1.7,1.4-2.5,1.4c-2.9,0.2-5.8,0.2-8.7,0
	c-0.8,0-1.5-0.8-2.3-1.2C299.4,843.7,300.2,843.1,301.2,842.4z"/>
<path class="st21" d="M299.8,831.6c3.6-0.1,6.9-0.2,10.2,0c0.7,0,1.4,0.9,2.1,1.4c-0.7,0.5-1.3,1.5-2,1.6c-3.3,0.2-6.6,0.2-9.9-0.1
	C300,834.5,299.8,832.7,299.8,831.6z"/>
<path class="st21" d="M300.5,820.6c3.4,0,6.5-0.1,9.5,0c0.7,0,1.4,0.9,2.2,1.4c-0.7,0.5-1.3,1.5-2,1.6c-3.2,0.2-6.4,0.3-9.6,0
	C298.1,823.3,297.6,822,300.5,820.6z"/>
<path class="st22" d="M286.3,767.9c-2.8-0.6-6.9,2-6.8-3.6c0.1-4.9-0.1-4.7,7.3-4.9c4.1-0.1,4.3,1.8,4.4,5
	C291.3,768.1,289.2,768.1,286.3,767.9z"/>
<path class="st22" d="M306.5,730.5c1.3,0,2.4-0.2,3.3,0.2c0.7,0.3,1.2,1.2,1.8,1.8c-0.6,0.6-1.2,1.6-1.9,1.7c-2.1,0.2-4.2,0.3-6.2,0
	c-1-0.1-1.8-1.1-2.8-1.7c0.9-0.7,1.6-1.5,2.6-1.9C304.1,730.3,305.1,730.5,306.5,730.5z"/>
<path class="st22" d="M301.3,718.9c2.8-0.3,5.3-0.5,7.8-0.3c0.8,0.1,1.6,1,2.4,1.5c-0.7,0.6-1.4,1.6-2.2,1.7
	c-2.2,0.2-4.5,0.3-6.6-0.1C302,721.6,301.5,720,301.3,718.9z"/>
<path class="st22" d="M284,677.5c-4.4,0.7-4.3-1.8-4.5-4.7c-0.1-3.4,1.5-4,4.3-3.7c0.7,0.1,1.4,0.1,2.1,0c3.2-0.2,5.5-0.1,5.4,4.4
	c0,4.4-2.4,4.2-5.3,4C285.5,677.5,284.9,677.5,284,677.5z"/>
<path class="st21" d="M307.3,643.9c-1.8,0-3.2,0.2-4.5-0.1c-0.9-0.2-1.5-1.1-2.3-1.7c0.8-0.7,1.5-1.8,2.4-2c1.6-0.3,3.3-0.4,4.9,0
	c1.3,0.3,2.5,1.3,3.8,2C310.2,642.6,308.9,643.2,307.3,643.9z"/>
<path class="st22" d="M301.3,628.4c2.8-0.3,5.3-0.5,7.8-0.3c0.8,0.1,1.6,1,2.4,1.5c-0.7,0.6-1.4,1.6-2.2,1.7
	c-2.2,0.2-4.5,0.3-6.6-0.1C302,631.2,301.5,629.6,301.3,628.4z"/>
<path class="st21" d="M270.6,731.9c-1.4,2.1-8.5,3.2-9.8,1.7c-0.4-0.5,0.2-2.8,0.3-2.8C264.2,730.9,267.3,731.3,270.6,731.9z"/>
<path class="st22" d="M269.2,718.7c0.7,0.6,1,1.2,1.3,1.8c-1.1,0.5-2.2,1.4-3.3,1.4c-2.3-0.1-4.7-0.6-7-1c0.7-0.8,1.3-2.1,2.1-2.2
	C264.4,718.4,266.6,718.6,269.2,718.7z"/>
<path class="st21" d="M270.3,640.8c-0.4,1.2-0.9,2.6-1.7,2.7c-2.2,0.3-4.4,0.3-6.6,0c-0.8-0.1-1.4-1.2-2.1-1.9
	c0.7-0.6,1.3-1.6,2-1.6C264.7,640.1,267.4,640.3,270.3,640.8z"/>
<path class="st22" d="M269.3,631.3c-2.6,0.1-4.8,0.2-7,0c-0.8-0.1-1.5-1.1-2.2-1.7c0.7-0.5,1.3-1.4,2.1-1.5c2.2-0.2,4.4-0.2,6.6,0
	C270.9,628.4,271.1,629.7,269.3,631.3z"/>
<path class="st22" d="M264.7,818.8c1.8,0.2,3.3,0.4,4.8,0.7c0,0.6,0,1.3,0,1.9c-3.1,0-6.2,0-9.3-0.1c-0.2,0-0.7-0.9-0.6-1.3
	c0.1-0.4,0.7-1,1.1-1C261.8,818.8,263,818.9,264.7,818.8z"/>
<path class="st22" d="M259.4,809c3.5-1.5,6.7-1.5,9.9,0.4C265.9,810.6,262.6,812,259.4,809z"/>
<path class="st9" d="M1044,868.9c0.8-0.9,1.4-1.6,2-2.3c0.4,0.1,0.7,0.1,1.1,0.2c-0.4,6-0.8,12-1.3,18c-0.7,9.3-1.6,18.6-2.2,27.9
	c-0.3,5.7,3.8,8.9,10,8.3c10.7-1,21.3-2.1,32-3.1c1.2-0.1,2.5,0,5,0c-2,1.7-3.1,2.8-4.3,3.8c-6.2,4.9-12.4,10-18.8,14.7
	c-4.4,3.1-5.7,6.9-4.3,11.9c4,13.8,8,27.6,11.9,41.4c0.3,1.2,0.6,2.3,0.9,3.5c-0.3,0.3-0.7,0.7-1,1c-5.5-3.8-11-7.6-16.4-11.5
	c-6.1-4.5-11.9-9.3-18-13.7c-5.2-3.8-8.5-3.2-11.8,2.3c-6.4,10.5-12.4,21.1-18.7,31.7c-0.7,1.1-1.5,2.2-2.8,4.2
	c-0.4-2.2-0.7-3.2-0.7-4.2c-0.3-12.1-0.6-24.2-0.9-36.4c-0.1-6-1.4-7.8-7.2-8.7c-11-1.7-22-3.2-33-4.8c-0.5-0.1-1-0.3-2.5-0.7
	c2.8-1.4,4.9-2.4,6.9-3.4c5-2.4,10-4.8,15-7.3c3.4-1.7,3.5-4.6,2.8-7.9c-2.8-13.4-5.6-26.7-8.3-40.1c-0.6-3-0.9-6-1.3-9
	c0.3-0.2,0.7-0.4,1-0.5c5.3,7.7,10.5,15.5,15.8,23.2c2.6,3.8,4.9,7.8,7.9,11.3c3,3.6,6.2,3,8.8-0.9
	C1022.5,901.4,1033.2,885.3,1044,868.9z"/>
<path class="st23" d="M892.2,481.7c4.8-12.9,11.9-23.3,24.6-29.1c15.5-7.1,29.5,0,32.9,16.6c3.2,15.5,0.8,30.2-6.8,44
	c-6.5,11.8-19.1,17.9-32.4,15.8c-7.6-1.2-13-5.3-16.3-12.3C888.9,505.5,889.3,493.9,892.2,481.7 M921.1,461.4
	c-3.9,3.1-8.4,5.7-11.4,9.5c-9.3,11.9-9.9,25.9-7.9,40.3c0.2,1.2,0.7,2.4,1.3,3.5c1.8,3.4,3.5,3.6,5.7,0.5c3.6-5.1,7-10.4,10.4-15.7
	c1.5-2.3,2.7-4.7,4.2-7.3c-1.3-0.4-2-0.7-2.6-0.8c-6.4-0.9-7.6-3.3-4-8.9c2.3-3.5,4.7-6.9,7.1-10.4c2.5-3.6,5.2-7.1,7.7-10.7
	c-0.2-0.5-0.4-1-0.6-1.5C928,460.4,924.8,460.8,921.1,461.4 M925.4,517c3.3-3.5,7.1-6.7,9.6-10.7c4.2-6.7,5.8-14.4,6.3-22.3
	c0.4-6.2,0.1-12.4-3.2-18.9c-4.3,6.9-8.1,13-12.1,19.5c9,2.3,9.9,4.5,5.7,11.9c-3.5,6-7.2,11.9-10.8,17.8c-0.7,1.2-1.3,2.5-2,3.8
	c0.2,0.3,0.5,0.6,0.7,0.9C921.3,518.5,923,517.9,925.4,517z"/>
<path class="st24" d="M979.5,476c6.6-8.6,14.1-15,25.3-15.7c10.3-0.7,17.3,4.3,21.8,13.2c4.5,9.1,4,18.9,1.5,28.3
	c-2.7,10.4-7.2,20.4-15.5,27.8c-4.2,3.7-9.1,7.4-14.3,9.1c-17.6,5.8-30.7-6.6-31.5-22.3C966.1,501.7,971.1,488.4,979.5,476
	 M976,512.8c-0.1,6,2.2,11,6.2,16.1c6.4-9.9,12.5-19.4,18.8-29.3c-1.2-0.4-2-0.7-2.7-0.9c-7.2-1.6-8.9-4.9-4.9-11.2
	c2.8-4.5,6.2-8.6,9.4-12.8c1.3-1.7,2.7-3.3,4.9-6c-2.7,0.3-4.1,0.3-5.3,0.7c-6.2,1.6-10.9,5.4-14.6,10.5
	C980.6,489.5,976.8,500.2,976,512.8 M1010,502.5c-5.8,9.1-11.6,18.3-17.8,27.9c1.5,0,2,0.1,2.3,0c0.9-0.3,1.8-0.7,2.7-1.1
	c15.6-8.7,22.5-22.9,24.5-39.8c0.7-5.4-1-10.5-4.2-15c-0.9-1.3-2.5-3.6-4.2-1.1c-3.8,5.2-7.3,10.7-11,16.3c3.2,1.6,6.7,2.2,8.1,4.3
	C1011.6,495.8,1010.4,499.2,1010,502.5z"/>
<path class="st15" d="M925.4,562.5c-1-3.1-0.8-5.7,1.9-7.3c2.9-1.8,4.9,0.2,6.8,2.2c3.7,3.7,7.9,4.9,12.9,2.2c2.9-1.6,6-2,8.1,1.4
	c1.7,2.6,0.3,6-3,8.1C942.9,574.9,931.2,572.1,925.4,562.5z"/>
<path class="st15" d="M956.6,531.2c-1.2,2.9-2.1,5.8-3.8,8c-0.8,1.1-3.5,1.6-4.8,1.1c-1.4-0.5-3.1-2.7-3-3.9c0.5-3.8,1.4-7.6,3-11
	c0.6-1.3,3.6-2.3,5.2-1.9c1.3,0.3,2.4,2.6,3.3,4.2C957,528.5,956.7,529.8,956.6,531.2z"/>
<path class="st25" d="M921.4,461.3c3.4-0.5,6.5-1,9.7-1.4c0.2,0.5,0.4,1,0.6,1.5c-2.6,3.6-5.2,7.1-7.7,10.7
	c-2.4,3.4-4.8,6.8-7.1,10.4c-3.6,5.6-2.5,8,4,8.9c0.7,0.1,1.3,0.4,2.6,0.8c-1.5,2.6-2.7,5.1-4.2,7.3c-3.4,5.3-6.8,10.5-10.4,15.7
	c-2.2,3.1-3.9,2.9-5.7-0.5c-0.6-1.1-1.1-2.3-1.3-3.5c-2-14.3-1.5-28.3,7.9-40.3C912.7,467.1,917.3,464.6,921.4,461.3z"/>
<path class="st10" d="M925.1,517.2c-2,0.7-3.8,1.3-5.6,1.9c-0.2-0.3-0.5-0.6-0.7-0.9c0.7-1.3,1.2-2.5,2-3.8
	c3.6-5.9,7.4-11.8,10.8-17.8c4.3-7.4,3.3-9.6-5.7-11.9c4-6.4,7.8-12.6,12.1-19.5c3.4,6.5,3.6,12.7,3.2,18.9
	c-0.5,7.9-2,15.6-6.3,22.3C932.5,510.4,928.6,513.5,925.1,517.2z"/>
<path class="st25" d="M976,512.4c0.9-12.2,4.6-23,11.6-32.6c3.7-5.1,8.4-8.9,14.6-10.5c1.3-0.3,2.6-0.3,5.3-0.7
	c-2.2,2.7-3.6,4.3-4.9,6c-3.2,4.2-6.6,8.3-9.4,12.8c-4,6.4-2.3,9.7,4.9,11.2c0.8,0.2,1.5,0.5,2.7,0.9c-6.3,9.8-12.4,19.4-18.8,29.3
	C978.1,523.8,975.9,518.8,976,512.4z"/>
<path class="st26" d="M1010.1,502.2c0.3-3,1.5-6.5,0.3-8.3c-1.3-2.1-4.9-2.7-8.1-4.3c3.7-5.5,7.2-11,11-16.3
	c1.8-2.4,3.3-0.2,4.2,1.1c3.1,4.5,4.8,9.5,4.2,15c-2.1,17-8.9,31.1-24.5,39.8c-0.8,0.5-1.8,0.8-2.7,1.1c-0.4,0.1-0.8,0-2.3,0
	C998.4,520.8,1004.2,511.7,1010.1,502.2z"/>
</svg>
