<?xml version="1.0" encoding="utf-8"?>
<!-- Generator: Adobe Illustrator 22.1.0, SVG Export Plug-In . SVG Version: 6.00 Build 0)  -->
<svg version="1.1" id="Layer_1" xmlns="http://www.w3.org/2000/svg" xmlns:xlink="http://www.w3.org/1999/xlink" x="0px" y="0px"
	 viewBox="0 0 2000 1668" style="enable-background:new 0 0 2000 1668;" xml:space="preserve">
<style type="text/css">
	.st0{fill:#50C1E9;}
	.st1{fill:#3187CA;}
	.st2{fill:#F6FCFE;}
	.st3{fill:#3791CF;}
	.st4{fill:#80D8FF;}
	.st5{fill:#FEFCE9;}
	.st6{fill:#7FD8FF;}
	.st7{fill:#3087CA;}
	.st8{fill:#3086CA;}
	.st9{fill:#FAFAE9;}
	.st10{fill:#83D9FF;}
	.st11{fill:#3187CB;}
	.st12{fill:#55C3E9;}
	.st13{fill:#7ED7FE;}
	.st14{fill:#378ACB;}
	.st15{fill:#5FC6E9;}
	.st16{fill:#3289CB;}
	.st17{fill:#FDFBE9;}
	.st18{fill:#2F86CA;}
	.st19{fill:#5AC4E8;}
	.st20{fill:#5FC6E8;}
	.st21{fill:#3488CA;}
	.st22{fill:#3287C9;}
	.st23{fill:#4FBFE7;}
	.st24{fill:#FCFBE9;}
	.st25{fill:#FBFAE9;}
	.st26{fill:#2E88CB;}
</style>
<path class="st0" d="M831.9,1178.9c-4.7-0.5-9.5-1-14.2-1.5c-8-0.9-16-1.6-24-2.8c-11.2-1.7-22.3-3.7-33.5-5.5
	c-2.5-0.4-5.1-1-8.1-1.6c0,3,0.2,5.9,0,8.7c-0.4,5.5-1.1,10.9-1.6,16.4c-0.2,2.9-0.1,5.4,2.1,8c10.7,12.7,17.5,27.6,24.4,42.6
	c6.6,14.6,10.1,30,13.5,45.5c3.4,15.3,3.2,31.1,2.6,46.7c-0.4,9.4-0.8,19-2.6,28.2c-2.1,10.3-5.6,20.4-9.1,30.4
	c-1.7,5.1-4.4,9.9-7.1,14.5c-6.3,11-17,16.2-28.3,20.1c-14,4.8-28.6,8.1-43.3,9.2c-13.6,1-27.2,1.1-40.8,0.9
	c-10.1-0.2-20.4-0.8-30.3-2.6c-13.3-2.5-26.5-5.9-39.5-9.6c-7.7-2.2-15.1-5.5-22.4-8.6c-11-4.7-16.5-13.8-18.3-25.1
	c-3.2-20,0.2-39.4,6.7-58.4c4.1-11.8,7.8-23.6,12.5-35.2c3.6-8.9,7.7-17.7,12.6-26c8.8-14.8,18.1-29.2,27.5-43.6
	c9.1-13.9,19.4-26.9,31.7-38.2c3.4-3.2,6.9-6.4,10.8-8.9c4.8-3.1,4.7-7.6,5.3-12.3c1-8,2.2-15.9,3.2-23.9c0.2-1.9,0.6-4.2-0.1-5.7
	c-0.6-1.2-2.9-1.6-4.4-2.4c-13.8-7.2-27.7-14.1-41.4-21.5c-16.6-9-31.4-20.5-45.6-32.8c-6.1-5.3-12.8-10-18.3-15.9
	c-10-10.8-19.4-22.1-28.9-33.4c-4-4.7-7.5-9.9-11.5-15.1c-0.5,1-1.2,1.8-1.2,2.7c-0.1,13.7,0,27.4-0.1,41.1
	c-0.2,14-0.5,28.1-0.8,42.1c-0.2,9.2-0.5,18.3-0.8,27.5c-0.3,9.9-0.6,19.7-0.9,29.6c-0.3,13.8-0.6,27.5-0.9,41.3
	c-0.3,11.7-0.5,23.3-0.9,35c-0.1,2.7-1.8,5.4-1.5,8c0.7,5.4,2.3,10.7,3.2,16.1c0.7,3.9-0.2,8.3,1.3,11.7c1.5,3.2,5.2,5.4,7.9,8.1
	c9.4,9.4,12.9,21.8,16.2,34.1c3.7,13.6,0.2,26.4-7.6,37.6c-5.5,8-14.7,8.3-23.5,7.3c-3.9-0.4-7.6-2.2-12-3.5
	c0.2,1.7,0.7,3.6,0.7,5.4c0.1,7.1,0.1,14.3,0,21.4c-0.1,3.1-0.2,6.3-0.9,9.4c-1.8,7.6-11.5,12.7-19,10.7c-5.3-1.4-10.5-2.6-14.9-5.8
	c-1.2-0.9-2.2-1.9-3.6-3.2c-2.7,11.1-8.7,18.5-21.5,17.9c-11.3-0.5-17.5-6.9-20.2-17.7c-2.2,1.7-3.8,3.4-5.7,4.3
	c-9,4.4-18.3,4.3-25.9-2.2c-4.3-3.7-7.1-9.5-9.4-14.9c-4.1-9.7-4.3-19.9-2.7-30.3c1.2-8.2,1.1-16.6,2.8-24.6
	c1.7-8.2,5-16.1,7.6-24.1c0.6-1.9,1.3-3.9,1.4-5.8c0.7-10.2,0.8-20.4,1.9-30.6c1.2-11.1,7.7-19.9,14-28.8c1-1.4,1.8-3.4,1.7-5.2
	c-0.1-9.2-0.7-18.3-0.7-27.5c0.1-16.7,0.3-33.4,0.8-50.1c0.5-14.7,1.6-29.5,2.4-44.2c0.5-8.5,1.1-17,1.7-25.5
	c1.1-16,2.2-31.9,3.4-47.9c0.7-9.6,1.5-19.2,2.5-28.8c1.5-14.4,2.5-28.9,5.1-43.1c3.7-20.5,8.7-40.8,13.1-61.2
	c0.2-0.9,0.1-1.9,0.1-2.9c0-6.8,0.4-13.7,0-20.5c-0.7-11.3,1.4-22.2,5.2-32.6c3.7-9.9,7.9-19.8,13.4-28.8
	c9.4-15.6,23.7-26.4,38.9-36.1c12-7.7,25.2-11.9,38.9-13.9c9.5-1.4,19.4-0.4,29,0.6c7,0.7,14,2.8,20.6,5.2c3.6,1.3,6.5,4.7,10,7.3
	c12.5-8.3,27.4-13.5,42.2-19c14.3-5.3,29.3-8.1,44.4-10.4c13.3-2.1,26.7-4.3,40.1-5.7c8.6-1,17.4-0.4,26.1-1.1
	c10.7-0.8,21.2-2.3,31.9-3.1c8-0.6,16.1-0.8,24.1-1c11-0.2,22.1,0,33.1-0.1c4.7,0,9.4-0.8,14.1-0.7c7.3,0.1,14.6,0.5,22,0.8
	c3.5,0.2,6.5,0.2,5.9-4.8c-0.2-1.5,0.7-3.2,1.1-5.2c-8.1-0.3-15.7-0.6-23.4-1c-12.7-0.5-25.4-0.9-38-1.7c-11.5-0.8-22.9-2-34.3-3.3
	c-9.3-1.1-18.6-2.8-27.9-4.1c-9.2-1.2-18.4-2.6-27.6-3.3c-12.9-0.9-25.9-1.4-38.8-1.8c-16.5-0.6-32-5.2-47-11.7
	c-10-4.3-20-8.9-29.6-14c-11.6-6.2-20.6-15.8-30.1-24.7c-9.5-8.9-13.5-20.4-16-32.5c-2.5-12.1-4-24.5-6-36.7c-0.2-1-1-2.3-1.8-2.6
	c-9.1-3.6-16.3-9.6-22.7-16.7c-7.1-7.9-11.8-16.9-14.1-27.4c-2.7-12.2-3.1-24.6-4.2-36.9c-1.1-12.9,0.2-25.5,1.8-38.2
	c1.3-10.1,1.8-20.2,3.5-30.2c2.9-17.5,6.3-34.8,14.3-51c6.1-12.4,12.4-24.8,21.2-35.5c9.8-11.9,21.3-21.9,37-25.3
	c11.8-2.6,23.6-4.7,35.5-6.8c13-2.2,26.1-4.1,39.2-5.9c9.5-1.3,19-2,28.4-3.4c21.8-3.4,43.8-3.4,65.8-3.3c13.2,0,26.4-0.7,39.6-0.7
	c16.8,0,33.5,0.4,50.3,0.7c10.4,0.2,20.8,0.8,31.4,1.3c0-5.9-0.3-11.1,0.1-16.3c0.4-5.7,1.5-11.3,2.4-16.9
	c2.3-14.9,6.1-29.4,14.9-42c4.9-7,9.8-14.1,15.2-20.8c5.7-7,14-10.8,21.9-14.5c7.2-3.3,14.8-6.4,22.5-7.7c13-2.2,26-2,38.7,3.4
	c6.8,2.9,13.2,6,18.9,10.8c7.9,6.8,11.4,16,15.2,25.2c5.6,13.3,7,27.3,7.6,41.6c0.5,11.9,0.9,23.7,1.4,36.3
	c12.1-0.7,24.5-1.4,36.9-2c1-0.1,1.9,0,2.9,0c24.5-0.3,49-0.7,73.5-0.8c12.8,0,25.5,0.6,38.3,0.7c4.3,0,8.5-0.8,12.8-0.7
	c13.7,0.4,27.4,1,41,1.5c5.5,0.2,11,0.7,16.5,0.8c19.3,0.6,38.1,3.6,55.8,12.1c10.5,5,19,12.1,26.1,21.2c2.8,3.6,6.3,6.6,8.5,10.5
	c5.9,10.2,10.7,20.9,13,32.5c1.9,9.4,3.6,18.9,5,28.4c0.9,6.2,1.1,12.6,1.8,18.9c1,9.5,2.2,19,3.3,28.5c0.1,0.7,0,1.4,0.1,2.1
	c0.3,5.1,0.5,10.2,0.5,15.8c-0.4,11.9-0.5,23.2-0.5,34.5c0,0.5,0.5,0.9,0.7,1.4c-0.8,7.3-1.1,14.7-2.5,21.9
	c-1.8,9.6-4.1,19.2-6.8,28.7c-2.9,10.3-10.1,17.7-18.7,23.7c-3.3,2.3-7.2,4-10.4,6.4c-1.4,1-2.3,3.3-2.5,5.1
	c-1.4,16.8-4.7,33.3-9.2,49.5c-3.1,11.2-8.8,21-15.3,30.6c-7.4,11-17.5,18-29.1,23.4c-13.4,6.2-26.8,12.6-41.2,16.5
	c-9.9,2.6-19.6,5.9-29.4,8.5c-2.6,0.7-5.5,0.1-8.3,0.3c-10.7,0.8-21.3,2.1-32,2.5c-11.4,0.4-22.8,0.1-34.3,0
	c-11.6,0-23.2-0.1-34.8,0c-7.1,0.1-14.1,0.7-21.2,0.8c-7.2,0-14.4-0.7-21.5-0.7c-8.2,0-16.5,0.7-24.7,0.6c-8.4,0-16.9-0.5-25.3-0.8
	c-10.1-0.3-20.2-0.6-30.3-0.9c-2.2-0.1-4.4,0-6.5,0c-0.4,2.6-0.7,4.7-1.1,7.6c1.6,0,3.1,0,4.7,0c8.7-0.3,17.5-1,26.2-0.7
	c16.2,0.5,32.4,1,48.4,2.6c13.2,1.3,26.3,4.2,39.5,6.5c15.9,2.8,32,5,47.7,8.6c16.6,3.8,32.9,8.8,49.3,13.6
	c13.9,4,26.1,11.5,38.4,18.9c3.2,2,6.5,4,9.9,5.5c1.3,0.6,4,0.4,4.9-0.6c9.5-10.8,22.4-14.3,35.5-17.4c4.9-1.1,10-1,15-1.9
	c9-1.7,17.6,0.7,26.2,2.5c0.3,0.1,0.6-0.1,0.8,0c7.4,5.4,10.8-1,14.9-5.1c2.6-2.6,5-5.5,7.5-8.3c6.9-7.7,13.8-15.3,20.6-23.2
	c7.1-8.3,14.3-16.6,21-25.3c4.6-6,8.2-12.8,12.5-19c7.9-11.4,16.2-22.4,23.9-33.9c9.3-13.9,17.6-28.4,27.3-42
	c8.9-12.4,15.7-25.9,22.5-39.5c6.2-12.5,12.2-25.1,18.3-37.6c3.9-8,8.1-16,12-24c0.4-0.8,0.3-2.1-0.1-2.8c-8.7-13-7.9-27.4-5.5-41.8
	c0.6-3.6-0.2-5-3.1-6.8c-12.5-7.7-22.6-17.8-26.1-32.4c-2.3-10-0.9-20.2,6.7-28c5.7-5.9,13.3-8.6,21.5-9.6
	c12.7-1.6,22.5,3.8,30.5,12.8c3.2,3.6,5.1,8.3,7.6,12.5c0.3,0.5,0.6,1,1.3,2.3c1.6-7.5,2.8-14.4,4.6-21c2.7-10.3,6.9-20.1,12.8-29.1
	c9-13.5,21.6-18.6,37.3-13.3c8.5,2.9,11.4,10.4,13.8,18.2c0.3,1,0.6,2.1,1,3.6c10.1-8.5,21.2-13.4,33.4-6.7
	c12.1,6.6,14.3,18.3,12.4,31c4.4-1.5,8.7-3.1,13-4.4c12.3-3.6,23.2,3.8,26.4,15.7c3.9,14.8,0.6,28.5-5.8,41.6
	c-4.6,9.3-10.1,18.1-15.8,26.8c-5.7,8.7-13.1,15.9-21.7,21.9c-2.5,1.8-4.4,5-5.6,7.9c-3.8,8.9-10.3,15.4-17.8,21
	c-6.7,5-14.1,9-22.3,11.1c-1.2,0.3-2.6,2-3,3.3c-4.6,14.9-9.4,29.7-13.2,44.8c-3.9,15.4-10,29.7-17,43.8
	c-6.2,12.4-12.9,24.5-18.4,37.1c-7.3,16.7-18.5,30.6-29.1,45.1c-13.7,18.6-27.4,37.1-41.1,55.7c-10.8,14.6-21.2,29.6-32.6,43.8
	c-10,12.4-21.2,23.9-32,35.7c-7.5,8.2-15.1,16.1-22.6,24.3c-0.9,0.9-1.5,2.4-1.6,3.7c-1.4,20.7-10.5,38.3-22.9,54.2
	c-13.7,17.6-31.6,28.5-53.9,31.3c-8.2,1-16.5,1.3-25.4,2c-4.5,16.9-14.5,32.2-25.5,46.9c-10.3,13.7-22,26.1-35.5,36.9
	c-9,7.2-17.2,15.6-27,21.5c-16.7,10.3-34.1,19.5-51.7,28.3c-14,7-28.6,12.8-43.1,19c-3.1,1.3-6.5,1.9-9.7,3
	c-0.8,0.3-1.9,1.4-1.9,2.2c-1,10.1-1.4,20.3-2.8,30.3c-0.9,6.2,2.6,9.5,6.6,12.6c14.9,11.4,26.8,25.4,37.2,40.9
	c9,13.4,18.3,26.6,26.3,40.5c9.5,16.6,18.4,33.5,23.4,52.2c2.9,10.9,7.5,21.3,10.1,32.3c3.8,16,5.2,32.3,0.4,48.5
	c-2.3,7.6-7.2,13.8-14.5,17.4c-16.8,8.3-34.5,13.6-53,17.2c-12.3,2.3-24.6,4-37.1,4.1c-13.5,0-27,1.1-40.4,0.6
	c-9.3-0.4-18.5-2.6-27.7-4.5c-13.9-2.9-27.7-6.2-41.5-9.6c-15.6-3.8-28.4-11.7-35.9-26.4c-1.8-3.6-2.5-8-2.7-12.1
	c-0.7-14.3,1.4-28.5,4-42.5c2.3-12.3,4-24.7,6.9-36.8c4.6-19,9.4-38.1,15.1-56.8c2.8-9.1,7.8-17.6,12-26.3c1.8-3.6,2.7-7.2,3-11.3
	c1-12.4,2.6-24.8,4.1-37.1c0.2-1.3,1-2.4,1.8-4.6c-39.4,7.6-78.8,11.6-119.2,12.6C847.4,1178.8,839.7,1178.8,831.9,1178.9
	 M768.2,629.6c-0.6,0-1.2,0-2.1-0.5c-2.5-2-5.7-3.7-4.2-7.9c4.8-0.5,9.7-1.2,14.5-1.5c18.8-1.2,36.7-6.6,54.3-12.9
	c1.3-0.5,2.1-2.4,3.1-3.6c-1.5,0-3.1-0.5-4.4-0.1c-18.7,6.9-38.1,11-57.9,12c-16.5,0.9-33.1,0.2-49.7-0.6c-20.9-1-41.5-4-61.7-9.9
	c-14.1-4.1-27.1-10.3-39.4-18c-1.7-1.1-2.9-2.8-4.8-0.5c-2.1,2.5,0.1,3.5,1.7,4.5c8.2,4.7,16.5,9.3,24.8,14.6
	c0.5,1.7,0.6,3.8,1.6,5.1c2.1,2.8,3.3,5.1-0.6,7.2c5.5,6.9,9.8,10,18.8,12.2c11.6,2.8,23.3,5.3,35.1,7.5c8.5,1.6,17,2.8,25.6,3.4
	c11.6,0.8,23.3,1.1,35,1.2c14.3,0.1,28.7-0.1,43-0.3c1,0,2-1,3.8-1.6c1.4,0,2.9,0,4.5,0.5c0.8-0.2,1.6-0.3,3.1-0.3
	c2.1,0.2,4.1,0.7,6.2,0.6c18.5-0.5,37-1.3,55.5-1.5c13.4-0.2,26.7,0.4,40.1,0.7c25.2,0.5,50.4,1,75.6,1.7
	c15.6,0.4,31.2,1.1,46.7,1.6c16.4,0.6,32.8,1.2,49.3,1.6c16.9,0.4,33.7,0.5,50.6,0.9c8.8,0.2,17.5,1.1,26.2,1.5
	c4.1,0.2,8.3-0.3,13-0.6c0.4,0.1,0.8,0.1,1.5,0.7c3.6,1.1,7.2,1.9,11.3-0.7c2.6,0,5.1,0,8.2,0.4c6.5-1,13.1-1.6,19.6-3
	c2.9-0.6,5.5-2.7,8.5-4.3c0,0,0.3,0,0.9,0c1.3-1.1,2.6-2.1,4.1-3.7c1.3-1.2,2.6-2.5,4.5-3.8c0.9-1.5,1.8-2.9,2.7-4.7
	c0,0,0.2-0.2,0.7-0.4c2-5,4.8-9.8,6-14.9c2.8-11.5,3.1-23.3,2.6-35.1c-0.1-1.1-0.7-2.3-1.4-4.1c-0.1-1.5-0.1-2.9,0.2-4.9
	c-0.1-5.4-0.3-10.8-0.5-16.8c0.2-0.9,0.4-1.8,0.9-2.8c0-0.5,0-1,0-2.2c0.2-0.9,0.3-1.8,1-3c0.2-0.6,0.6-1.3,0.7-1.9
	c0.9-9.5,2.3-19,2.4-28.6c0.3-21.7,1.4-43.4-2.6-64.8c-1-5.2-4.2-9.9-6.7-15.2c-0.2-0.6-0.5-1.2-0.7-2.3c-0.5-0.5-0.9-1-1.6-1.7
	c0,0-0.1-0.3-0.1-0.9c-1.2-1-2.4-1.9-3.9-2.9c0,0-0.2-0.2-0.3-0.7c-6.9-2.9-13.5-6.5-20.6-8.5c-8-2.2-16.4-3.1-24.7-3.9
	c-16.6-1.7-33.2-4.1-49.8-4.4c-33.2-0.5-66.4,0.3-99.6,0.6c-11,0.1-21.9,0.4-32.9,0.8c-22.4,1-44.8,2.2-67.1,3.3
	c-16.1,0.8-32.2,1.6-48.4,2.5c-16.7,1-33.3,2.3-50,3.2c-19.3,1-38.6,2.1-58,2.5c-15.3,0.3-30.5-0.5-45.8-0.7
	c-13-0.1-26-0.4-38.9,0.1c-11.5,0.4-23.1,1.3-34.5,2.7c-4,0.5-7.7,3.1-11.8,5.1c-0.2,0.2-0.4,0.4-1.2,0.6c-1.4,1.7-3.2,3.2-4,5.1
	c-2.3,5.5-4.6,11.1-6.3,16.8c-5.7,20.1-6.5,40.9-7.5,61.6c-0.6,12.9-0.6,25.9-0.9,38.8c0,1.6,0.5,3.2,0.8,5.6
	c-0.1,1.7-0.2,3.4-0.7,5.4c0.2,1.6,0.3,3.2,0.7,5.5c0,2-0.1,4-0.4,6.6c0,3.3-2,7.1,2.7,9.6c1.8,0.9,3.5,1.8,5.5,3.1
	c0.6,0.2,1.3,0.5,2.5,0.7c2.7,1.3,5.4,2.5,8.4,4.3c3.8,1.2,7.6,2.3,12.1,3.5c0.4,0.1,0.7,0.3,1.2,0.7c0.5,0.1,1,0.1,2.1,0.2
	c1.2,0.4,2.4,0.8,3.7,1.5c0.5,0,1,0.1,2.1,0.2c0.4,0.1,0.7,0.3,1.3,0.7c0.5,0,1,0.1,2.1,0.2c0.4,0.1,0.7,0.3,1.3,0.7
	c0.5,0,1,0.1,2.1,0.1c0.4,0.1,0.7,0.3,1.3,0.7c0.5,0,1,0,2.2,0c0.6,0.2,1.2,0.4,2.1,0.9c0.8,0,1.5,0,2.9-0.1
	c0.6,0.2,1.2,0.3,2.1,0.9c1,0,2,0,3.7,0c0.4,0.1,0.7,0.2,1.4,0.8c1.3,0,2.6,0,4.6,0c0.6,0.1,1.3,0.2,2.1,0.8c1.3,0,2.6,0.1,4.7,0
	c1.2,0.2,2.3,0.3,3.7,0.9c1,0,2.1,0,3.8-0.1c1.2,0.1,2.3,0.2,3.8,0.9c1.9,0,3.7,0.1,6.3,0c1.4,0.1,2.9,0.2,4.7,0.9
	c3.8,0,7.6,0,12.2-0.1c8.1,0,16.3,0.1,24.9,0.5c2.3-0.3,4.7-0.6,7.7-1.1c1.2,0,2.3-0.1,3.9,0.2c1-0.3,2-0.6,3.6-1.1
	c0.9,0,1.8-0.1,3.2,0.2c1.2-0.3,2.5-0.6,4.4-1.1c11-2.5,21.9-5,33.2-7.3c0.4-0.3,0.9-0.6,1.8-1.1c0.5-0.1,1-0.2,2.1-0.3
	c0.6-0.4,1.1-0.8,2.1-1.6c2.2-1.4,4.4-2.7,7-4.3c0.5-1.5,1-3,1.4-5.1c2.6-3.8,5.1-7.6,8.2-11.5c0.4-0.5,0.8-1,1.6-2
	c3.5-1.8,7.1-3.5,10.9-5.1c0.5-0.2,0.9-0.5,2-1c0.6,0,1.3-0.1,2.5,0.2c3.1-0.1,6.3-0.2,10.1-0.4c2,0.6,4,1.3,6.3,2.4
	c0.7,0.2,1.3,0.5,2.6,0.7c1.6,0.9,3.1,1.9,4.9,3.3c0.6,0.3,1.2,0.7,2.2,1.2c0.6,0.7,1.3,1.4,2,2.7c0.5,0.5,1,0.9,1.9,1.7
	c0.8,1.4,1.5,2.8,2.2,4.8c0.6,1.4,1.2,2.7,2.1,4.7c0.1,0.7,0.1,1.3-0.2,2.5c0.1,1.7,0.2,3.5,0.4,5.9c-2.2,5.1-4.4,10.2-7.2,15.5
	c-0.3,0.6-0.7,1.2-1.2,2.3c-1,0.9-2,1.8-3.6,2.7c-0.5,0.5-0.9,1-1.6,1.6c0,0-0.3,0-0.8,0.1c-0.5,0.4-1,0.9-2,1.7
	c-1.8,0.8-3.6,1.5-5.9,2c-1.8,0.5-3.6,1.1-6.2,1.8c-2.8-0.1-5.6-0.2-8.7-0.7c-1.3,0-2.6,0-4.5,0c-0.4-0.1-0.7-0.2-1.2-0.7
	c-0.5,0-1-0.1-2.2-0.1c-1.5-0.6-2.9-1.3-4.6-2.4c-0.6-0.3-1.2-0.5-2.1-0.9c0,0-0.2-0.2-0.3-0.7c-0.6-0.3-1.2-0.7-2.4-1
	c-1.1,0.1-2.1,0.2-3.4-0.4c-1-2.9-2.8-1.8-4.7-1.1c-6.2,2.2-12.2,4.9-18.6,6.2c-14,3-28.1,5.3-42.1,8.1
	C770.9,627.7,769.9,628.9,768.2,629.6 M808.5,408.4c1.3,0.3,2.6,1,3.9,0.9c5.5-0.3,11.1-0.8,16.6-1.4c1.8-0.2,3.5-1.1,6-1.8
	c2.5,0,5.1-0.1,8.1,0.3c1.2-0.4,2.5-0.7,4.5-1.1c2,0,4-0.1,6.3,0.2c0.5-0.3,0.9-0.6,2.2-0.9c3.1,0,6.2-0.1,9.6,0.1
	c0.5-0.1,0.9-0.2,2.1-0.3c3.4-0.3,6.8-0.5,10.5-0.5c0.5-0.1,0.9-0.2,2.1-0.4c3.7-0.2,7.4-0.4,11.5-0.3c1-0.1,2-0.3,3.6-0.4
	c3.9-0.3,7.9-0.5,12.3-0.4c1-0.3,2-0.7,3.7-1c3.9,0,7.8-0.1,12.2,0.2c1-0.1,2-0.3,3.7-0.4c4.8-0.3,9.6-0.5,14.8-0.4
	c1-0.1,2-0.3,3.6-0.5c3.4-0.2,6.8-0.4,10.6-0.3c0.7-0.3,1.4-0.7,2.9-1c3.1,0,6.2-0.1,9.6,0.1c0.5-0.1,0.9-0.2,2.1-0.3
	c4.8-0.3,9.6-0.5,14.9-0.4c2.9-0.4,5.8-0.7,9.3-1.1c8.4,0,16.9-0.1,25.8,0.2c1.2-0.3,2.5-0.7,4.4-1c8.4-0.1,16.9-0.1,25.8,0.2
	c3.4-0.1,6.9-0.3,10.9-0.4c0.6,0,1.3,0,2.5,0.4c3.7-0.1,7.4-0.3,11.9-0.4c2.3,0,4.5,0,7.4,0.4c2.9-0.1,5.8-0.2,9.3-0.4
	c0.9,0,1.8,0,3.3,0.4c4.5-0.1,9.1-0.3,14.4-0.4c13.7,0.1,27.4,0.1,41.2,0.6c0.8,0.1,1.6,0.2,3.1,0.2c2.8,0.3,5.7,0.5,8.8,1.1
	c0.7-0.1,1.4-0.2,2.9-0.3c18,2.7,36.2,4.7,54,8.3c21.5,4.3,34.1,18.6,37.8,39.8c3.5,20.3,3.6,41,2.2,61.7c-0.2,3.1,0,6.2,0,9.3
	c0.9,0,1.3,0.1,1.5,0c0.6-0.4,1.1-0.8,1.6-1.3c7-5.7,14.5-10.6,23.6-11.8c8.3-1.1,16.6-1.5,24.9-2.1c2.3-0.2,4.3-0.4,4.2-3.3
	c-0.6-16.3,0-32.7-2.4-48.8c-2.7-18.3-7.9-36.2-12.2-54.2c-2.8-11.9-7.8-22.8-16.6-31.3c-4.6-4.5-9.1-9.5-16.4-9.9
	c-14.3-0.7-28.6-1.9-42.9-2.3c-10-0.3-20.1,0.5-30.1,0.7c-25.9,0.3-51.9,0.5-77.8,0.9c-12,0.2-24,0.5-35.9,0.8
	c-16,0.5-32,1.1-48,1.7c-16.3,0.6-32.6,1.2-48.9,1.6c-16.3,0.4-32.6,0.8-48.9,0.9c-26.9,0.1-53.8,0.7-80.6,2.1
	c-22.6,1.2-45.3,1.5-68,3.5c-16.3,1.4-32.8,1.2-49.3,1.9c-17.8,0.7-35.6,1.8-53.4,2.4c-17.5,0.6-34.6,3-51.2,8.8
	c-15.2,5.3-30.1,11-42.6,21.5c-10.6,8.9-18.7,19.5-21.2,33.2c-2.8,15.5-4.7,31.1-6.9,46.7c-0.4,2.6,0.5,3.8,3.4,3.8
	c5,0.1,10.1,0.1,15,0.8c14.8,2.2,28.5,6.8,37.8,19.7c0.7,0.9,1.8,1.6,3.4,3c0.3-2.5,0.5-4,0.6-5.6c0.4-6,0.1-12.1,1.2-17.9
	c3.5-17.5,7.3-34.9,11.6-52.2c1-4.1,4.1-8.3,7.4-11.2c8.7-7.8,19.9-8.6,31.2-9.3c0.5-0.3,0.9-0.6,2.1-1c2.3,0,4.5-0.1,7.1,0.1
	c0.5-0.1,0.9-0.2,2.2-0.3c22.3,0,44.7,0,67.5,0.4c1-0.1,2-0.2,3.7-0.3c14,0,28,0,42.5,0.4c1.8-0.4,3.6-0.7,6-1.1
	C806.4,407.8,807.3,407.8,808.5,408.4 M695.2,1138.4c9.9,3,19.7,6.3,29.7,8.8c26.4,6.7,53.1,11.4,80.1,15c19.9,2.6,39.9,3.9,60,2.6
	c20.8-1.4,41.7-2.6,62.4-5.1c19.2-2.3,38.5-4.9,57.2-9.8c31.4-8.2,62.4-18,93.5-27.5c27.8-8.5,53.1-22.7,78.8-35.8
	c8.4-4.3,16.6-9.2,24.3-14.7c18.8-13.5,36.3-28.7,51-46.8c10.8-13.4,20.9-27.3,26.5-43.8c8.1-23.5,15.7-47.1,17.1-72.2
	c0.7-12.2,1.5-24.2-2-36.1c-4.4-15.2-11.9-28.6-24.2-38.8c-13-10.8-26.8-20.3-41.5-28.9c-18.8-11.1-38.5-19.7-59.7-24.7
	c-19.2-4.5-38.7-8-58.2-11.9c-14.1-2.8-28.1-5.7-42.3-7.8c-8.8-1.3-17.8-0.9-26.7-1.6c-20.1-1.7-40.3-3.4-60.5-1.4
	c-1.4,0.1-3.5,1.5-3.9,2.7c-1.5,5-5,6.7-9.6,7.3c-16.7,1.9-33.5,3.8-50.3,2.4c-7.9-0.7-15.8-1.8-23.6-3.2c-7-1.3-8.1-2.8-8.3-9.7
	c-0.1-2.7-1-3.9-3.7-3.7c-4.2,0.3-8.3,0.7-12.5,0.7c-19.7,0.4-39.3,0.6-59,1c-1.7,0-3.3,0.1-5,0.3c-12.9,1.2-25.7,3.3-38.6,3.6
	c-20.7,0.5-41.1,2.5-61.6,5c-26.4,3.2-52.1,8.4-76.2,19.5c-11.9,5.5-23.1,12.3-34.3,19.1c-22,13.3-39.3,31.4-53.3,52.9
	c-6.8,10.5-10.8,22.3-14.1,34.3c-5.8,21.3-9.2,42.9-5.8,64.9c4,26.3,14.9,49.9,31.7,70.5c13.8,17,28.5,33.1,45.4,47.3
	c18.7,15.7,38.3,29.9,60.1,40.8C656.6,1122.7,675.8,1130,695.2,1138.4 M1097.6,655.6c-9.1-0.3-18.1-0.6-27.2-0.8
	c-14.6-0.3-29.3-0.5-43.9-0.9c-15.6-0.4-31.2-1.1-46.8-1.6c-18.8-0.6-37.6-1.5-56.4-1.6c-25.5-0.1-51,0.7-76.6,0.6
	c-19.6-0.1-39.3-1.3-58.9-1.4c-25.9-0.1-51.8-0.8-77.6-3.4c-17.7-1.8-35.2-4-51.7-11.1c-9.1-3.9-18.9-7.6-24.3-16.3
	c-4.9-7.8-11.8-12.6-18.6-18.3c-6.2-5.2-10.4-6.3-17.6-2.8c-10,4.9-21,3.3-31.7,1.9c-4.9-0.7-5.4-0.5-4.5,4.1
	c2.2,11.9,4.4,23.8,7.1,35.6c1,4.4,2.7,9,5.4,12.5c9,11.7,20,21.6,32.8,28.7c11.4,6.3,23.8,10.8,35.9,15.8
	c11.7,4.9,23.9,6.9,36.7,6.8c12-0.1,24,0.4,35.9,1.7c22.8,2.4,45.6,5.8,68.4,8.4c14.9,1.7,29.9,3,44.9,3.9
	c14.5,0.9,28.9,1.1,43.4,1.7c25.6,1.1,51.2,2.4,76.8,3.3c17.7,0.6,35.4,1.1,53.1,0.9c64.3-0.6,128.6,2.3,192.8-2.5
	c3-0.2,6.1-0.7,9-1.5c20.5-5.6,40.4-12.3,59.8-21.2c18.1-8.3,30-21.7,36-39.6c5-14.8,7-30.6,10.2-46c1.3-6.3,0.3-7.2-6.1-6.2
	c-11.3,1.8-21.9-0.5-32.2-5c-4.8-2.1-9.4-4.7-14.7-7.5c-0.6,5.1-1.1,9.9-1.8,14.6c-2.7,17.2-9.5,32.2-25.2,41.4
	c-10.9,6.4-23.3,8.6-35.8,8.8c-13.8,0.2-27.5-1-41.3-1.4C1134.9,656.7,1116.6,656.2,1097.6,655.6 M941.3,1363.7
	c-0.2,1.4-0.4,2.8-0.4,4.1c0,5.6-0.9,11.4,0.4,16.6c2.6,10.4,10.4,17.1,20.1,20.1c16.2,5,32.9,8.7,49.4,12.5
	c16.1,3.8,32.4,5.6,48.9,4.8c7.9-0.4,15.8-1.3,23.8-1.5c25.7-0.7,50.1-7.1,73.6-17.4c6.2-2.7,10.3-7.2,12.4-13.8
	c2.9-9.1,2.5-18.3,0.9-27.3c-2-10.9-5-21.7-8.2-32.3c-4.5-15.2-9.3-30.5-17.4-44.3c-9.2-15.7-18.7-31.4-28.4-46.8
	c-10.4-16.6-21.5-32.6-36.6-45.4c-11.6-9.9-24.4-16.1-40.2-15.8c-17.4,0.4-31.2,8.5-42.7,20.1c-15.7,15.8-25.1,35.7-32.2,56.6
	c-4.1,12.1-6.6,24.8-10.3,37C947.2,1314.5,944.2,1338.7,941.3,1363.7 M596.5,1275.2c-1.7,3.4-3.3,6.8-5.2,10.1
	c-13.5,23.6-21.2,49.4-27.1,75.7c-2.4,10.7-3.3,21.7,0.1,32.6c2,6.4,5.9,11.1,11.7,13.4c12.1,4.6,24.4,8.8,36.8,12.5
	c19.4,5.7,39.7,5.5,59.7,6.6c24.1,1.3,47.5-2.6,70.4-10.1c10.4-3.4,19-9.3,23.6-19.8c2.2-5.1,4.3-10.3,6.2-15.5
	c9.2-24.7,9-50.5,6.7-76c-2.4-25.9-9.6-51-22.1-74.1c-9.1-16.9-19.8-32.4-37.7-41.9c-16.7-8.9-33-9.8-50-1.9
	c-15,7-26.1,18.7-35.4,31.8C621.1,1236.9,609.2,1255.9,596.5,1275.2 M516.8,486.3c0,19.8-0.9,39.6,3.2,59.2
	c4.1,19.5,14.9,33.2,33.5,40c6.3,2.3,13.2,3.3,20,3.9c6.1,0.5,12.7,0.7,18.6-0.8c13-3.3,21.2-12.9,25.9-24.8
	c6.5-16.6,3.9-33-3.8-48.6c-2.4-4.9-6.4-9.9-11-12.9c-12.3-8.1-26-11.3-40.7-7.9c-3.8,0.9-7,0-8.1-3.9c-1.2-4.5-2.4-9.2-2.5-13.8
	c-0.2-18.6,3-36.7,8.9-54.2c3.5-10.5,9.7-20,17.8-27.5c20.2-18.9,45.3-28.9,71.8-33.6c22.2-4,45.1-4.8,67.7-6.2
	c17.8-1.1,35.7-0.7,53.5-1.1c5.8-0.1,11.7-0.6,17.5-0.9c16-1,31.9-2.2,47.9-3.1c7-0.4,14,0,20.9-0.2c20.9-0.7,41.8-1.6,62.7-2.3
	c3.2-0.1,6.4,0.7,9.6,0.6c12.9-0.4,25.9-1,38.8-1.5c16.6-0.6,33.1-1.1,49.7-1.7c21-0.8,42-1.8,63.1-2.5c25.2-0.7,50.5-1.5,75.7-1.6
	c32.8-0.1,65.6,0.2,98.3,0.9c9.8,0.2,19.6,2.1,29.3,4c20.3,3.9,32.6,16.9,39.6,35.8c5.4,14.7,7,30.2,7.1,45.6
	c0.1,19.3-1.3,38.7-2.4,58c-0.4,7.5-1.4,15-2.4,22.4c-0.5,4-3.4,6.4-7.1,5.4c-8.5-2.4-16.9-0.7-25.3,0.1c-13.5,1.3-24,7.8-31.8,18.6
	c-7.3,10-9.6,21.5-8.6,33.7c0.8,9.4,5,16.9,12.9,21.9c12.1,7.6,25.2,10.8,39.6,8c20-3.9,37.8-15.6,42.4-40.8
	c5.7-31.5,4.4-63.1,2.6-94.7c-1-18.6-4.3-37.1-7.2-55.5c-2.9-18.7-8.9-36.1-22.7-50.1c-13.7-13.9-30.2-21.6-49.1-24.5
	c-22.9-3.5-46-4.3-69.2-4.2c-16.2,0.1-32.3-0.1-48.5,0.1c-29.8,0.4-59.7,0.9-89.5,1.6c-15.7,0.3-31.5,1.1-47.2,1.6
	c-19.5,0.6-39,1.4-58.5,1.6c-18.7,0.2-37.4-0.4-56.1-0.6c-20.8-0.3-41.6-0.6-62.3-0.9c-2.7,0-5.3,0-8-0.1c-20.5-0.5-41-1.2-61.4-1.4
	c-15.3-0.1-30.7,0-46,0.8c-14.2,0.7-28.3,2.1-42.4,3.8c-20.5,2.4-41,4.8-61.3,8c-14.8,2.3-29.6,5.5-44.2,8.9
	c-9.5,2.2-16.9,8-22.9,15.9c-20.1,26.6-31.1,56.8-35.5,89.6C518.8,464.7,517.9,475.1,516.8,486.3 M1253.3,820.6
	c7.6,5.9,14.1,12.7,19.5,20.9c9.4,14.2,15.5,29.7,16.5,46.4c0.8,12.5-1,25.3-3.2,37.7c-2.3,12.7-6.5,25-10,37.5
	c-0.8,2.9-0.4,4.3,2.9,4.1c4.3-0.3,8.6-0.4,12.9-0.8c21.1-1.8,38.3-11.6,50.8-28.1c13.8-18.2,22.6-38.5,20-62.5
	c-2.7-24.7-10.5-46.7-29.8-63.4c-10.9-9.4-22.8-16.8-37.5-18.8c-16.2-2.2-31.7,0.3-46.6,6.6c-3.8,1.6-7,4.6-10.9,7.3
	C1243.6,812.3,1248.3,816.2,1253.3,820.6 M1595.7,448.8c-9.5-5.1-19.2-9.2-30.4-9.7c-11.3-0.6-22.5-0.9-33.6,2
	c-14.9,3.9-26.1,11.8-32.2,26.5c-3.7,8.8-5.2,17.8-5.8,27.2c-0.7,12.3,3.1,22.8,12.6,30.3c12,9.5,25.9,15.6,41.2,18.3
	c12.1,2.1,24.1,3.2,35.9-0.7c18.8-6.2,31.3-18.6,36.5-38c4.4-16.2-0.9-30-10.3-42.7C1606,457.1,1600.8,453.4,1595.7,448.8
	 M456.4,943.4c8.8,10.1,20,16.1,32.5,19.2c-6-73.9,18.1-132.8,83.9-172.6c-3-1.8-5.1-3.5-7.5-4.3c-13.9-5.1-28.5-5.6-42.9-3.7
	c-15.1,2-28.5,8.6-41.2,17.3c-24.1,16.5-37.9,39.8-43.2,67.6c-2.4,12.8-1,26.6,0.1,39.9C439.3,920.7,445.4,933.1,456.4,943.4
	 M421.9,1235.3c-17.1,6.7-27.8,18.9-30.5,37.1c-1.2,8.2-1.4,16.7-1,25c0.4,8.7,2,17.5,8.7,23.8c15.2,14.4,34.2,17.7,52.9,11.5
	c25.8-8.6,41-28.1,44.2-55.3c1.8-14.9-2.7-28.6-16.7-36.6C461.5,1230.5,442.3,1229.4,421.9,1235.3 M909.2,298.7
	c14.2-0.5,28.4-1.5,42.6-1.4c20.1,0.1,40.1,0.9,60.2,1.6c4,0.1,5.3-1,4.9-4.9c-1.5-14-1.8-28.2-4.5-41.9
	c-2.9-15.1-8.2-29.6-24.2-36.4c-9.6-4.1-19.6-6.5-30.1-5.7c-18.9,1.5-35.6,8.8-47.9,22.9c-15.6,17.8-23.1,39.6-24.8,63.2
	c-0.2,3,0.8,3.9,3.8,3.7C895.6,299.3,902,299.1,909.2,298.7 M1391.5,763.7c13.8,15.3,25.2,32.2,34.1,51.6c1.4-1.6,2.5-2.6,3.4-3.8
	c13-18,26-35.9,38.8-54c0.8-1.1,0.8-3.6,0.1-4.9c-3.4-6.8-6.9-13.7-10.9-20.2c-7.7-12.6-16.7-24.4-27.1-34.9
	c-4.7-4.8-10.1-9-15.6-13.8c-14.8,21-29.2,41.4-43,61C1378,750.9,1384.6,757.1,1391.5,763.7 M1482,641.3
	c-7.9-8.2-15.7-16.3-23.9-24.8c-2.4,3.8-4.2,6.8-6.1,9.7c-10,15.1-19.9,30.3-30,45.3c-1.9,2.9-1.9,4.6,1.3,6.7
	c10.1,6.5,19.3,14.4,26.5,24c9,12,17,24.8,25.3,37.3c2.5,3.7,3.3,4,5.9,0.5c10.7-14.5,21.1-29.1,31.9-43.4c4-5.3,4.6-9.1,0.6-15.3
	C1504.5,667.1,1495,653.3,1482,641.3 M1409.2,808.1c-7.9-11.5-15.3-23.3-23.8-34.3c-5.2-6.8-12-12.3-18.2-18.3
	c-2.4-2.3-4.5-1.8-6.7,0.6c-9.4,10.1-18.9,20.1-28.3,30.2c-1.9,2-3.5,4.2-5.7,7c30.1,17.8,44.3,45.3,49.4,79.5
	c2.2-1.6,3.5-3.8,5.2-5.6c6.1-6.7,12.3-13.3,18.4-20c5.2-5.7,10.2-11.4,15.3-17.1c1.7-1.9,2.4-3.7,1.1-6.4
	C1413.5,818.7,1411.5,813.6,1409.2,808.1 M1530.6,662.3c6.3-12.6,12.5-25.2,18.9-37.7c1.7-3.3,1.6-5.9-1-8.6
	c-9.6-9.7-18.6-20.1-28.9-28.9c-10.7-9.1-22.7-16.5-34.1-24.7c-0.2-0.1-0.5,0-1,0.1c-7.2,14.8-14.4,29.7-21.5,44.6
	c-0.3,0.7,0.3,2.5,1.1,3.1c6.1,5.3,12.4,10.2,18.5,15.6c13.9,12.2,26.8,25.2,36,41.5c1.5,2.7,3.4,5.2,5.6,8.7
	C1526.5,670.8,1528.4,666.8,1530.6,662.3 M472,1133c-21.6-0.8-41.8-6.1-60.5-18.3c-0.2,2.9-0.4,5.1-0.5,7.3
	c-0.8,15.1-1.6,30.3-2.2,45.4c-0.1,1.5,1.3,3.8,2.6,4.5c5.3,2.6,10.7,5.6,16.5,6.9c11.2,2.5,22.6,5,34.1,5.7
	c9.3,0.6,18.8-1.4,28.1-2.4c2.6-0.3,4-1.7,4.1-4.8c0.1-10,0.5-20,0.8-30.1c0.1-4,0.1-8.1,0.5-12.1c0.2-2.7-0.9-3.1-3.1-3
	C485.9,1132.6,479.3,1132.8,472,1133 M432.2,1058.9c-5.5-3.1-10.9-6.3-16.7-9.6c-0.9,14.5-1.4,28.8-2.7,43.1
	c-1.1,12.7-2.7,9.7,9.3,15.7c22,11,45.5,14.4,69.9,11.4c2.8-0.3,4.2-1.7,4-4.7c-0.1-2.1,0.3-4.2,0.3-6.2c0-12.3,0-24.7,0-37.2
	C474.1,1073.7,452.9,1068.9,432.2,1058.9 M463.5,1015.8c-14.3-6.8-28.5-13.5-42.9-20.3c0.1-0.3-0.2,0.2-0.3,0.7
	c-1.3,13.1-2.5,26.3-3.6,39.4c-0.1,0.8,1,1.9,1.8,2.4c15.8,10,32.8,17.4,51.4,20c8,1.1,16.3,0.6,24.5,0.4c1.1,0,2.9-2.1,3.1-3.3
	c1-9.3,1.6-18.6,2.4-27.8c0.2-2.1-0.4-3.1-2.6-3.3C485.7,1023.4,474.6,1020.6,463.5,1015.8 M501.4,1006.7c1-4.1,0.5-7.7-1.5-11.6
	c-2.3-4.4-3.9-9.3-5.1-14.1c-1-3.9-3-5.6-6.9-6.5c-19.9-4.3-35.9-14.9-47.7-31.5c-3.2-4.4-6-9.1-9.6-14.6
	c-2.9,17.4-5.7,33.9-8.4,50.4c-0.5,3,0.5,5.1,3.4,6.4c3,1.4,5.9,3.1,8.9,4.7c18.7,10.1,37.9,18.9,59.2,22.2
	C499.7,1013,500.4,1012.7,501.4,1006.7 M416.9,1187.3c-2.7-1.5-5.5-3-8.2-4.4c0,15.6,0,30.7,0,46.3c30.4-13.1,58.4-11,85,7.6
	c0-14.1,0-28,0-42.4C467.2,1200.5,442,1197.1,416.9,1187.3 M1557.4,555.9c-15-2-29.7-5-42.6-13.5c-4.8-3.2-10-5.8-15.1-8.8
	c-3.1,5.8-6,11.4-9.2,16.7c-1.8,2.9-1.3,4.2,1.8,5.6c23,10.2,41.5,26.4,58.1,44.8c1.6,1.7,3.4,3.2,5.8,5.4
	c4.9-17.1,11.5-32.5,14.7-49.1C1566.2,556.7,1562.2,556.3,1557.4,555.9 M1620.1,453.1c0.5,2,0.6,4.3,1.7,6.1c5,8.4,10,16.8,11,26.9
	c0.4,3.8,0.4,7.6,0.6,12c1.1-0.7,1.8-0.9,2.2-1.3c10.1-11.2,18.4-23.4,24-37.5c3.8-9.5,7.2-19,4.4-29.6c-2-7.7-7-10.9-14.6-8.8
	c-6.8,1.9-12.6,5.7-16.6,11.4C1628.3,438.7,1624.5,445.7,1620.1,453.1 M1575.5,412.4c1.1-6.6,2.9-13.1,3.1-19.7
	c0.2-6-1.3-12.2-7.9-14.9c-6.9-2.7-12.8-0.4-18,4.4c-1.2,1.1-2.3,2.4-3.3,3.7c-8.9,11.8-12.5,25.7-16.3,39.6c-0.6,2.3,0.3,3,2.6,2.9
	c10.3-0.3,20.5-0.6,30.8-0.7c2.5,0,4.2-0.6,5-3.3C1572.5,420.7,1574,416.9,1575.5,412.4 M1029.8,1151.5c-1.9,0.5-3.7,1.1-5.6,1.6
	c-11.8,2.9-23.5,5.8-35.3,8.6c-2.3,0.6-3.9,1.4-4.1,4.3c-0.3,5.7-1.3,11.3-1.9,17c-0.4,4.2-0.8,8.4-1.2,12.6
	c10.9-11.1,22.5-20.4,37-26.2c14.9-5.9,29.5-5,45,0.4c1.4-9.2,2.9-18,4.1-26.8c0.5-3.7-1.6-3.8-4.4-2.8
	C1052.4,1144,1041.4,1147.7,1029.8,1151.5 M397.3,1334.2c-4.9-5.3-9.9-10.6-14.7-15.8c-3.6,15.7-5.1,32.6-4.5,49.6
	c0.3,7.9,3.6,15.2,9.5,20.8c4,3.8,8.2,3.7,12.1,0c4.3-4,6.5-9,7.2-14.7c1.2-9.9,2.3-19.9,3.1-29.8c0.1-1.2-1.3-2.9-2.4-3.7
	C404.5,1338.4,401.1,1336.5,397.3,1334.2 M1590.3,408c-2.7,5.9-5.3,11.9-8.1,17.8c-1.4,3-0.6,4.4,2.5,5.6c5.1,1.9,10.1,4,14.9,6.5
	c4.4,2.3,8.4,5.3,13.1,8.3c2.3-5.5,4.6-10.6,6.6-15.9c3.1-7.9,6-15.8,5.6-24.6c-0.6-12.3-10.3-18.5-20.8-12.1
	C1598.8,396.9,1595.1,402.8,1590.3,408 M1474.9,454.2c3.1,2.8,5.9,5.9,9.2,8.5c3.8,2.9,4.5,2.7,6.4-1.6c3-7.1,7.6-12.9,13.2-18.1
	c6.7-6.2,6.7-6.5,2-14.4c-0.4-0.7-0.9-1.4-1.4-2.1c-6.2-9-16.2-13.4-26.8-10.9c-12.8,3-15.6,13.9-11.4,25.4
	C1467.8,445.5,1471.6,449.5,1474.9,454.2 M512.7,1297.5c-1.9-2.8-3.9-5.6-5.9-8.4c-0.7,0.7-1,0.8-1.1,1.1
	c-4,13.7-11.4,25.3-21.2,35.6c-0.6,0.6-1.1,1.7-1,2.6c0.7,10.4,11.3,21,21.8,21.6c5,0.3,9.4-1,11.9-6c4-8,6.2-16.2,3.4-25
	C518.4,1311.7,515.6,1304.9,512.7,1297.5 M995.1,308.2c-23.8,0.2-47.7,0.4-71.5,0.7c-11.6,0.1-23.1,0.6-34.7,0.8
	c-2.7,0-4.6,0.3-4.6,3.8c0.1,2.9,0.3,4.7,4,4.8c10.6,0.3,21.1,1.4,31.7,1.4c23.4,0,46.9-0.4,70.3-0.8c7.5-0.1,15-0.6,22.6-0.8
	c2.5-0.1,4-0.9,4-3.6c0-2.5,0.1-4.7-3.4-4.9C1007.5,309.3,1001.7,308.7,995.1,308.2 M740.4,1173.5c0-1,0-2,0-2.9
	c0-6.8-0.1-6.4-6.4-8.2c-14.2-3.9-28.4-8.1-42.5-12.3c-6.1-1.8-12.1-4-19-6.4c-0.7,10.1-1.3,19.6-2,30.2
	c25.5-9.9,47.2-1.7,68.1,12.8C739.2,1181.9,739.8,1178.1,740.4,1173.5 M843.3,594.8c0.3,7.9,3.7,13.2,10.4,14.8
	c4.1,1,8.6,1.6,12.8,1.4c8.8-0.5,16.7-7.7,18.4-16.4c0.9-4.4,1-8.9-2-12.8c-5.3-7.1-16-10.8-24.3-8.3
	C849.1,576.5,843.7,583.8,843.3,594.8 M459.9,1384.4c2.2,4.3,5.4,7.4,10.2,8.7c6.3,1.7,9.1,0.2,10-6.2c2.1-14.4-0.8-28.3-4.8-42
	c-0.9-3-2-5.9-3.1-8.9c-5.6,2.7-10.5,5.4-15.7,7.3c-3.5,1.2-4.4,3.1-4.2,6.5C453.2,1361.4,455.5,1372.8,459.9,1384.4 M442,1390.2
	c2.1-13.7,1.8-27.4,0.1-41.1c-0.1-1-2.1-2.3-3.3-2.5c-4.7-0.6-9.5-0.4-14.1-1.2c-3.7-0.7-4.4,0.6-4.3,3.8
	c0.1,11.7-0.3,23.4,0.2,35.1c0.2,4.7,2.1,9.4,3.9,13.9c1.5,3.6,5.2,4.4,8.8,4.2c3.5-0.2,5.8-2.4,6.9-5.8
	C440.8,1394.6,441.3,1392.7,442,1390.2 M884.6,744.5c1.2,0.2,2.5,0.6,3.7,0.6c18,0.6,35.9,1.3,53.9,1.7c6.6,0.2,6.6-0.1,7.5-6.6
	c0.5-3.4-0.3-5.2-4.3-5.2c-6.8,0-13.6-0.6-20.4-0.9c-14-0.7-28.1-1.5-42.1-2.2c-1.4-0.1-3.8,0.6-4,1.4c-0.7,3-1.2,6.3-0.8,9.4
	C878.2,743.5,881.8,743.9,884.6,744.5 M910.7,760.3c8.9-0.6,17.7-1.3,26.6-1.9c0-0.4,0-0.9,0-1.3c-1.3-0.3-2.5-0.7-3.8-0.8
	c-17.3-1.4-34.6-2.9-51.9-4.1c-1.5-0.1-4.1,0.9-4.5,2c-0.8,2.7,1.5,3.5,3.7,3.7C890.5,758.6,900.2,759.4,910.7,760.3 M941.7,757.5
	c0.8-0.1,1.5-0.2,2.3-0.3c-0.1-0.4-0.2-0.7-0.3-1.1C942.9,756.5,942.1,756.8,941.7,757.5z"/>
<path class="st1" d="M382.2,382.3c7.4,16.6,12.4,33.7,15.6,51.3c0.6,3.6,1.4,7.3,1.6,10.9c0.2,3.6,3.3,4.1,5.3,5.5
	c13.4,9.2,26.9,18.2,40.4,27.2c4.5,3,8.9,6,13.4,9c4.6,3.1,5.3,7.6,1.3,11.3c-6.3,5.8-12.8,11.3-19.3,16.8
	c-6.6,5.6-13.2,11.2-19.8,16.7c-6.2,5.1-12.3,10.4-18.8,15.2c-3.9,2.8-4.8,6.7-5.7,10.8c-4.4,20.9-11.9,40.5-22.8,58.9
	c-5.8,9.8-12.6,19-20.9,26.7c-10.9,10.2-23.6,17.5-38.8,19.7c-20.2,3-37.9-2.3-53.6-15c-11.5-9.4-20.5-20.7-28.1-33.4
	c-10.6-17.9-17.4-37.4-22.3-57.4c-2.7-11-4.4-22.3-5.2-33.6c-1.2-16.6-2.1-33.3-1.6-49.9c0.7-20.9,4.2-41.5,10.1-61.7
	c4.1-14.2,9.6-27.8,16.6-40.7c9.6-17.7,21.9-33.2,39.4-43.8c9.1-5.5,19.1-8.7,30.2-9c13.7-0.4,26.4,2.1,38.1,9.3
	c7.4,4.6,14.1,10.1,20,16.6c7,7.6,12.9,15.9,17.9,24.9C377.5,373.1,379.7,377.6,382.2,382.3 M386.1,427.4
	c-5.5-21.3-13-41.8-25.1-60.4c-8.3-12.8-18.3-23.9-31.8-31.5c-12.7-7.1-26.1-9.4-40.3-5.2c-13.9,4.1-24.7,12.7-34,23.4
	c-14.2,16.5-23.2,35.7-29.6,56.3c-11.7,37.3-14.4,75.5-9.8,114.2c3.2,26.6,9.9,52.3,22.4,76.3c8.3,16,18.7,30.4,33.8,40.9
	c20.9,14.5,43.6,14.2,64.3-0.5c11.1-7.9,19.6-18.2,26.8-29.6c12.5-20,19.6-42.1,24.9-64.9c0.5-2.1,1.9-4.2,3.4-5.9
	c1.6-1.7,3.9-2.7,5.7-4.2c16.6-13.7,33.1-27.4,49.6-41.2c1-0.8,1.9-1.8,3.2-3c-3.2-2.3-6-4.4-8.8-6.4
	c-15.2-11.1-30.5-22.1-45.6-33.3c-2-1.5-3.9-3.8-4.6-6.1C388.7,440.4,387.6,434.2,386.1,427.4z"/>
<path class="st2" d="M1366.8,521.1c-0.3-0.1-0.7-0.5-0.7-1c0-11.3,0.1-22.6,0.4-34.1C1366.8,497.4,1366.8,509,1366.8,521.1z"/>
<path class="st3" d="M832.3,1179c7.4-0.1,15.2-0.2,23.2-0.1C848.1,1179,840.3,1179.1,832.3,1179z"/>
<path class="st4" d="M694.9,1138.3c-19.1-8.3-38.3-15.6-56.6-24.7c-21.8-10.8-41.4-25.1-60.1-40.8c-16.8-14.2-31.5-30.3-45.4-47.3
	c-16.9-20.7-27.7-44.2-31.7-70.5c-3.4-22,0-43.6,5.8-64.9c3.3-12,7.3-23.8,14.1-34.3c13.9-21.5,31.2-39.6,53.3-52.9
	c11.2-6.7,22.4-13.6,34.3-19.1c24.1-11.1,49.9-16.4,76.2-19.5c20.5-2.5,40.9-4.5,61.6-5c12.9-0.3,25.8-2.4,38.6-3.6
	c1.7-0.2,3.3-0.3,5-0.3c19.7-0.3,39.3-0.6,59-1c4.2-0.1,8.3-0.4,12.5-0.7c2.7-0.2,3.6,1,3.7,3.7c0.2,6.9,1.3,8.5,8.3,9.7
	c7.8,1.4,15.7,2.5,23.6,3.2c16.9,1.4,33.6-0.5,50.3-2.4c4.7-0.5,8.2-2.3,9.6-7.3c0.4-1.2,2.5-2.6,3.9-2.7
	c20.2-1.9,40.3-0.3,60.5,1.4c8.9,0.8,17.9,0.3,26.7,1.6c14.2,2.1,28.2,5,42.3,7.8c19.4,3.8,38.9,7.3,58.2,11.9
	c21.1,5,40.8,13.6,59.7,24.7c14.6,8.6,28.5,18.1,41.5,28.9c12.2,10.2,19.8,23.6,24.2,38.8c3.4,11.9,2.7,23.9,2,36.1
	c-1.4,25.1-9.1,48.7-17.1,72.2c-5.6,16.5-15.7,30.4-26.5,43.8c-14.7,18.1-32.1,33.3-51,46.8c-7.7,5.5-15.9,10.4-24.3,14.7
	c-25.7,13.1-51,27.2-78.8,35.8c-31.1,9.5-62.1,19.4-93.5,27.5c-18.7,4.8-38,7.4-57.2,9.8c-20.7,2.5-41.6,3.8-62.4,5.1
	c-20.1,1.3-40.1,0-60-2.6c-27-3.5-53.7-8.2-80.1-15C714.9,1144.7,705.1,1141.4,694.9,1138.3 M1107.8,1064.4
	c6.4-0.6,12.7-1.4,19.1-1.9c11.6-0.8,18.2-7.4,21.2-18.2c0.3-1.2,0.8-2.4,1-3.6c1.5-9.5,3-19,4.4-28.5c1.6-10.8,3.3-21.5,4.6-32.3
	c2.5-21.5,4.4-43,7.4-64.4c3.3-23.2,4.5-46.3,2.8-69.6c-1.4-18-4.2-21.5-21.8-25c-25.3-5-51-4.9-76.7-4.5c-30.2,0.5-60.5,0-90.7,2.5
	c-14.1,1.2-28.4,0.1-42.6,0c-6.9,0-8.7,1.2-11,7.8c-0.5,1.3-0.8,2.7-1.3,4c-6.5,18.4-9.8,37.4-13.6,56.4
	c-6.3,31.6-14.7,62.7-19.3,94.6c-2.6,18-5.7,35.8-5.3,54c0.2,8.8,4.2,14.5,12.6,17.1c2,0.6,4,1.2,6.1,1.4
	c17.6,1.7,35.2,3.6,52.8,4.9c10,0.8,20.1,0.5,30.1,1.1c17.5,1.1,35,3,52.6,3.7c20.2,0.8,40.4,0.7,60.7,0.9
	C1102.9,1065,1105,1064.6,1107.8,1064.4 M777.8,838.2c-7.8-0.6-15.5-1.3-23.3-1.9c-17.1-1.3-34.1-3.2-51.2-3.8
	c-16.7-0.5-33.4,0.3-50.2,0.7c-8.3,0.2-16.7,0.8-25,1.7c-6,0.7-12.1,2.5-14.7,8.8c-5.4,12.8-6.4,26.5-6,40.2
	c0.3,9.5,3.8,12.9,13.5,14.6c4.6,0.8,9.4,1.3,14.1,1.5c19.7,0.9,39.5,1.8,59.2,2.5c17,0.7,34,1.3,50.9,1.7
	c13.5,0.3,27.1-0.5,40.6,0.2c10.4,0.5,18.3-8.7,20.1-16.7c2.3-10.5,1.5-21.1,0.5-31.6c-0.9-9.1-5.9-14.2-14.9-16.3
	C787.2,839,782.8,838.7,777.8,838.2z"/>
<path class="st5" d="M694.3,601.5c-0.4-0.1-0.7-0.2-1.7-0.4c-1.5-0.2-2.4-0.2-3.4-0.2c-0.6-0.2-1.2-0.3-2.4-0.6
	c-1.2-0.1-1.9-0.2-2.6-0.2c-0.6-0.2-1.2-0.4-2.4-0.7c-0.9-0.1-1.4-0.1-1.8-0.1c-0.4-0.1-0.7-0.3-1.6-0.6c-0.9-0.2-1.3-0.2-1.8-0.2
	c-0.4-0.1-0.7-0.3-1.6-0.6c-0.9-0.2-1.3-0.3-1.8-0.3c-0.4-0.1-0.7-0.3-1.6-0.6c-0.9-0.2-1.3-0.3-1.8-0.3c-1.2-0.4-2.4-0.8-4.1-1.3
	c-0.9-0.2-1.4-0.3-1.8-0.3c-0.4-0.1-0.7-0.3-1.6-0.6c-4.3-1.4-8-2.6-11.8-3.8c-2.7-1.3-5.4-2.5-8.6-4c-1.1-0.5-1.7-0.7-2.3-1
	c-1.8-0.9-3.5-1.8-5.6-3.1c-0.9-3.5-1.5-6.6-2-9.8c0-2,0.1-4,0.1-6.7c0-2.2-0.1-3.6-0.2-5.1c0.1-1.7,0.2-3.4,0.3-5.8
	c0.9-20.9,1.2-41.1,2.6-61.3c1.5-22.8,3.3-45.7,15.7-66.1c0.3-0.1,0.5-0.2,1.1-0.7c12.6-5.1,25.5-5.7,38.3-5.9
	c23.4-0.3,46.9,0.1,70.3,0.5c31,0.5,61.9-1.5,92.8-3.5c40.2-2.6,80.5-5.2,120.7-7.3c24.7-1.3,49.4-2.3,74.1-2.3
	c41,0,82.1-2.2,123,2.3c21.3,2.3,43,3.2,62.6,13.4c0,0,0.2,0.2,0.4,0.5c1.4,1.3,2.5,2.3,3.6,3.3c0,0,0.1,0.3,0.2,0.6
	c0.6,0.9,1,1.4,1.5,1.9c0.2,0.6,0.5,1.2,0.9,2.3c1.4,4.3,2.8,8.1,3.8,12c5.6,22.8,4.1,46,3.5,69.2c-0.2,9.7-1.1,19.5-1.7,29.2
	c-0.2,0.9-0.3,1.8-0.6,3.2c-0.1,1-0.2,1.4-0.2,1.8c-0.2,0.9-0.4,1.8-0.7,3.3c0,6,0.1,11.4,0.2,16.8c0.1,1.5,0.1,2.9,0.3,5.1
	c-0.3,18.7-0.1,36.7-7.8,53.6c0,0-0.2,0.2-0.4,0.5c-1.2,1.7-2.1,3.1-3,4.5c-1.3,1.2-2.6,2.5-4.3,4c-1.7,1.3-3,2.4-4.4,3.4
	c0,0-0.3,0-0.7,0.1c-5.9,1.8-11.3,3.6-16.8,5c-3.7,0.9-7.6,1.2-11.5,1.8c-2.6,0-5.1,0-8.4-0.1c-4.1,0.1-7.5,0.1-10.9,0.2
	c-0.4-0.1-0.8-0.1-1.7-0.3c-11.4-0.8-22.3-1.8-33.1-2.2c-26.2-1-52.4-1.6-78.6-2.5c-24-0.8-47.9-1.9-71.9-2.4
	c-32.8-0.8-65.5-1.5-98.3-1.6c-23.3-0.1-46.6,1.1-69.8,1.2c-15,0-30.1-1.5-45.1-1.4c-22.9,0.1-45.7-1.1-68.5-3.4
	c-13.5-1.4-27-2.6-39.7-7.6c-1.5-0.6-2.8-2-3.9-2.9c2.9,0.8,5.5,1.3,8.3,2.1c0.6,0.2,1,0.2,1.8,0.4c2.1,0.5,3.8,0.8,5.7,1.3
	c0.6,0.2,1.1,0.3,1.8,0.4c0.7,0.1,1.1,0.1,1.7,0.3c0.9,0.3,1.6,0.3,2.6,0.5c0.9,0.1,1.6,0.2,2.4,0.4c0.9,0.2,1.6,0.3,2.6,0.5
	c1.2,0.1,2.1,0.2,3.3,0.4c1.2,0.2,2.1,0.3,3.4,0.5c1.5,0.1,2.7,0.2,4.2,0.3c3.4,0.3,6.6,0.4,10.1,0.5c2.1,0.1,3.8,0.1,5.8,0.3
	c5.5,0.3,10.6,0.7,15.7,0.7c6.1-0.1,12.2-0.5,18.6-0.8c1.8-0.1,3.2-0.2,5-0.2c7.1-0.5,13.8-1,20.9-1.5c1.5-0.1,2.7-0.2,4.2-0.2
	c1.5-0.2,2.7-0.4,4.2-0.6c1-0.1,1.6-0.2,2.5-0.3c0.9-0.2,1.5-0.4,2.5-0.6c0.7-0.1,1.1-0.2,1.7-0.2c0.9-0.2,1.6-0.4,2.6-0.6
	c1.2-0.2,2.1-0.4,3.3-0.5c0.6-0.1,1-0.3,1.7-0.4c1.8-0.4,3.3-0.8,5-1.2c0.8-0.3,1.4-0.6,2.3-0.9c2.2-0.5,4-1,6.1-1.5
	c0.8-0.3,1.4-0.6,2.3-0.9c1.9-0.5,3.4-1,5.2-1.4c0.6-0.2,1-0.4,1.8-0.6c2.9-0.9,5.5-1.8,8.3-2.8c0.8-0.4,1.4-0.8,2.2-1.1
	c0.8-0.2,1.3-0.5,1.8-0.8c1.1-0.1,2.1-0.2,3.7,0c1,0.6,1.6,0.9,2.1,1.3c0,0,0.2,0.2,0.4,0.4c0.9,0.5,1.5,0.8,2.1,1.1
	c1.5,0.6,2.9,1.3,4.9,2c0.9,0.2,1.4,0.3,1.8,0.3c0.4,0.1,0.7,0.2,1.6,0.5c1.8,0.2,3,0.3,4.2,0.3c2.8,0.1,5.6,0.2,9.1,0.2
	c2.4-0.5,4.2-1,5.9-1.5c1.8-0.8,3.6-1.5,5.9-2.5c1-0.7,1.5-1.1,2-1.5c0,0,0.3,0,0.6-0.2c0.8-0.6,1.3-1.1,1.8-1.5c1-0.9,2-1.8,3.4-3
	c0.7-0.9,1-1.5,1.4-2.1c2.2-5.1,4.4-10.2,6.8-15.9c0-2.3-0.1-4.1-0.2-5.8c-0.1-0.7-0.1-1.3-0.2-2.5c-0.7-2-1.3-3.3-2-4.7
	c-0.8-1.4-1.5-2.8-2.5-4.6c-0.8-0.9-1.2-1.4-1.7-1.8c-0.6-0.7-1.3-1.4-2.3-2.5c-0.9-0.7-1.5-1-2.1-1.4c-1.6-0.9-3.1-1.9-5.1-3.1
	c-1.1-0.5-1.7-0.7-2.4-1c-2-0.6-4-1.3-6.7-2c-3.8,0-6.9,0.1-10,0.2c-0.6,0-1.3,0.1-2.4,0.2c-0.9,0.3-1.3,0.5-1.7,0.6
	c-3.5,1.8-7.1,3.5-11,5.6c-0.8,0.8-1.3,1.3-1.7,1.8c-2.6,3.8-5.1,7.6-8,11.9c-0.7,1.9-1.2,3.4-1.7,4.9c-2.2,1.4-4.4,2.7-7,4.3
	c-1.1,0.6-1.6,1-2.2,1.3c-0.5,0.1-1,0.2-2,0.4c-0.8,0.3-1.2,0.6-1.6,0.8c-11,2.5-21.9,5-33.5,7.5c-1.8,0.3-3,0.5-4.2,0.7
	c-0.9,0-1.8,0.1-3.3,0.1c-1.5,0.3-2.5,0.5-3.4,0.7c-1.2,0-2.3,0.1-4.2,0.1c-3,0.3-5.2,0.5-7.5,0.7c-8.1,0-16.3-0.1-25.1-0.2
	c-4.4-0.2-8.1-0.3-11.8-0.4c-1.4-0.1-2.9-0.2-5-0.5c-2.4-0.2-4.2-0.3-5.9-0.4c-1.2-0.1-2.3-0.2-4.1-0.5c-1.6-0.2-2.5-0.2-3.5-0.3
	c-1.2-0.2-2.3-0.3-4.1-0.6c-1.8-0.2-3.1-0.3-4.3-0.4c-0.6-0.1-1.3-0.2-2.5-0.4C696.7,601.7,695.5,601.6,694.3,601.5 M923.6,523
	c-0.5,3.3-1.2,6.7,2.8,9.3c1.2-0.1,2.4-0.3,4.1-0.6c0.8-1.2,1.7-2.4,2.8-3.7c0.1-0.4,0.3-0.9,0.5-2c0-2.5,0.6-5.2,0-7.6
	c-0.4-1.5-2.2-3.2-3.7-3.5c-1.3-0.3-3.2,1-4.5,2.1c-0.8,0.7-0.9,2.2-1.6,3.6C923.9,521.2,923.8,521.8,923.6,523 M871.9,463.4
	c-8,13.4-9.3,27.6-4.8,42.3c3,9.8,8.4,17.8,19.8,19.1c13.7,1.6,26.3-5.6,31.9-18.2c6.7-14.9,7.5-30.2,2.4-45.7
	c-5.1-15.7-19.5-21.2-34-12.9C880.8,451.6,875.8,456.6,871.9,463.4 M946.8,475.5c-3,9.4-4.8,18.9-3.8,28.8
	c2,20.8,22.3,30.2,39.3,18.1c7.3-5.1,12.2-12.1,15.6-20.3c5.2-12.6,7.6-25.4,3.1-38.7c-5.9-17.7-24.5-22.6-39-10.8
	C954.7,458.7,950.4,466.4,946.8,475.5 M909.4,559.8c9.1,6.4,18.1,6.4,25.3,0.1c2.5-2.2,3.4-4.9,1.6-7.8c-1.9-2.9-4.9-2.8-7.4-1.1
	c-5.4,3.7-10,2.9-14.8-1.1c-1.3-1.1-4.6-1.4-5.9-0.5c-1.3,0.9-1.8,3.8-1.7,5.8C906.5,556.6,908.1,558,909.4,559.8z"/>
<path class="st4" d="M1098,655.6c18.7,0.6,36.9,1.1,55.1,1.7c13.8,0.5,27.6,1.7,41.3,1.4c12.4-0.2,24.8-2.4,35.8-8.8
	c15.7-9.2,22.4-24.2,25.2-41.4c0.8-4.7,1.2-9.5,1.8-14.6c5.3,2.7,9.9,5.3,14.7,7.5c10.2,4.6,20.9,6.9,32.2,5c6.4-1,7.4-0.1,6.1,6.2
	c-3.2,15.4-5.2,31.2-10.2,46c-6,17.9-17.9,31.3-36,39.6c-19.4,8.9-39.4,15.6-59.8,21.2c-2.9,0.8-6,1.3-9,1.5
	c-64.2,4.8-128.6,1.9-192.8,2.5c-17.7,0.2-35.4-0.3-53.1-0.9c-25.6-0.9-51.2-2.2-76.8-3.3c-14.5-0.6-29-0.8-43.4-1.7
	c-15-1-30-2.2-44.9-3.9c-22.8-2.6-45.5-5.9-68.4-8.4c-11.9-1.3-23.9-1.8-35.9-1.7c-12.8,0.1-25-1.8-36.7-6.8
	c-12.1-5.1-24.5-9.6-35.9-15.8c-12.8-7.1-23.9-17-32.8-28.7c-2.7-3.5-4.4-8.2-5.4-12.5c-2.7-11.8-4.9-23.7-7.1-35.6
	c-0.9-4.6-0.3-4.8,4.5-4.1c10.7,1.4,21.7,3,31.7-1.9c7.2-3.5,11.4-2.4,17.6,2.8c6.8,5.7,13.7,10.4,18.6,18.3
	c5.4,8.7,15.2,12.4,24.3,16.3c16.5,7.1,34,9.3,51.7,11.1c25.8,2.6,51.7,3.3,77.6,3.4c19.6,0.1,39.3,1.3,58.9,1.4
	c25.5,0.1,51-0.7,76.6-0.6c18.8,0.1,37.6,1,56.4,1.6c15.6,0.5,31.2,1.2,46.8,1.6c14.6,0.4,29.3,0.6,43.9,0.9
	C1079.5,655,1088.5,655.3,1098,655.6z"/>
<path class="st4" d="M941.3,1363.3c2.9-24.6,5.9-48.8,13-72.2c3.7-12.3,6.2-24.9,10.3-37c7-20.9,16.4-40.8,32.2-56.6
	c11.5-11.6,25.4-19.7,42.7-20.1c15.8-0.4,28.6,5.9,40.2,15.8c15.1,12.8,26.2,28.9,36.6,45.4c9.7,15.5,19.2,31.1,28.4,46.8
	c8.1,13.8,12.9,29.1,17.4,44.3c3.2,10.7,6.2,21.4,8.2,32.3c1.6,9,2,18.2-0.9,27.3c-2.1,6.6-6.2,11.1-12.4,13.8
	c-23.5,10.3-47.8,16.7-73.6,17.4c-7.9,0.2-15.8,1.1-23.8,1.5c-16.5,0.8-32.9-1-48.9-4.8c-16.5-3.9-33.2-7.6-49.4-12.5
	c-9.7-3-17.6-9.7-20.1-20.1c-1.3-5.3-0.4-11.1-0.4-16.6C940.9,1366.4,941.2,1365.1,941.3,1363.3z"/>
<path class="st6" d="M1020.1,396.8c-8.4,0-16.9,0.1-26,0.1c-3.5,0.2-6.3,0.5-9.2,0.7c-4.8,0.3-9.6,0.5-14.9,0.7
	c-1,0-1.4,0.1-1.9,0.2c-3.1,0-6.2,0.1-9.9,0.1c-1.3,0.2-2,0.5-2.6,0.7c-3.4,0.2-6.8,0.4-10.8,0.6c-1.5,0-2.5,0.2-3.5,0.3
	c-4.8,0.3-9.6,0.5-14.9,0.6c-1.6,0-2.5,0.1-3.5,0.2c-3.9,0-7.8,0.1-12.5,0.1c-1.6,0.2-2.5,0.5-3.5,0.7c-3.9,0.3-7.9,0.5-12.4,0.6
	c-1.5,0-2.5,0.1-3.5,0.2c-3.7,0.2-7.4,0.4-11.5,0.6c-0.9,0-1.4,0.1-1.9,0.2c-3.4,0.3-6.8,0.5-10.7,0.7c-1,0-1.4,0.1-1.9,0.2
	c-3.1,0-6.2,0.1-9.9,0.2c-1,0.2-1.4,0.5-1.9,0.7c-2,0-4,0.1-6.6,0.1c-1.9,0.2-3.1,0.5-4.3,0.8c-2.5,0-5.1,0.1-8.4,0.1
	c-9.2,0.6-17.6,1.2-26,1.7c-0.9,0-1.8,0-3.3-0.1c-2.4,0.2-4.1,0.5-5.9,0.8c-14,0-28,0-42.5-0.2c-1.6-0.1-2.6,0-3.5,0.1
	c-22.3,0-44.7,0-67.6-0.1c-1,0-1.5,0.1-1.9,0.2c-2.3,0-4.5,0.1-7.4,0.2c-1,0.2-1.4,0.5-1.8,0.7c-11,1-22.2,1.8-30.9,9.6
	c-3.2,2.9-6.3,7.1-7.4,11.2c-4.4,17.3-8.1,34.7-11.6,52.2c-1.2,5.8-0.8,11.9-1.2,17.9c-0.1,1.6-0.3,3.2-0.6,5.6
	c-1.6-1.4-2.7-2.1-3.4-3c-9.3-13-23-17.5-37.8-19.7c-4.9-0.7-10-0.8-15-0.8c-2.8,0-3.8-1.2-3.4-3.8c2.3-15.6,4.1-31.2,6.9-46.7
	c2.5-13.7,10.6-24.3,21.2-33.2c12.5-10.5,27.4-16.2,42.6-21.5c16.7-5.8,33.7-8.2,51.2-8.8c17.8-0.6,35.6-1.7,53.4-2.4
	c16.4-0.7,32.9-0.4,49.3-1.9c22.6-2,45.3-2.3,68-3.5c26.9-1.5,53.7-2,80.6-2.1c16.3-0.1,32.6-0.5,48.9-0.9
	c16.3-0.4,32.6-1.1,48.9-1.6c16-0.6,32-1.2,48-1.7c12-0.4,24-0.7,35.9-0.8c25.9-0.3,51.9-0.5,77.8-0.9c10-0.1,20.1-0.9,30.1-0.7
	c14.3,0.4,28.6,1.6,42.9,2.3c7.3,0.4,11.8,5.4,16.4,9.9c8.9,8.6,13.9,19.4,16.6,31.3c4.2,18,9.5,36,12.2,54.2
	c2.3,16,1.7,32.5,2.4,48.8c0.1,2.9-1.9,3.1-4.2,3.3c-8.3,0.6-16.7,1.1-24.9,2.1c-9.1,1.2-16.6,6.1-23.6,11.8
	c-0.5,0.4-1.1,0.9-1.6,1.3c-0.2,0.1-0.5,0-1.5,0c0-3.1-0.2-6.2,0-9.3c1.4-20.6,1.3-41.3-2.2-61.7c-3.7-21.1-16.3-35.5-37.8-39.8
	c-17.9-3.6-36-5.6-54.6-8.4c-1.3-0.1-2,0-2.7,0.1c-2.8-0.3-5.7-0.5-9.1-1c-1.3-0.3-2-0.4-2.7-0.5c-13.7-0.1-27.4-0.1-41.8-0.4
	c-5.2-0.1-9.8,0.1-14.3,0.2c-0.9,0-1.8,0-3.3-0.2c-3.5-0.1-6.4,0.1-9.3,0.2c-2.3,0-4.5,0-7.5-0.2c-4.4-0.1-8.1,0.1-11.8,0.2
	c-0.6,0-1.3,0-2.5-0.2c-4-0.1-7.5,0.1-10.9,0.2c-8.4,0.1-16.9,0.1-25.9,0.1C1022.5,396.3,1021.3,396.6,1020.1,396.8z"/>
<path class="st4" d="M596.6,1274.9c12.5-19,24.5-38,37.5-56.3c9.3-13.1,20.4-24.8,35.4-31.8c17-8,33.3-7,50,1.9
	c17.9,9.5,28.5,25,37.7,41.9c12.5,23.1,19.7,48.1,22.1,74.1c2.4,25.5,2.5,51.3-6.7,76c-1.9,5.2-4,10.4-6.2,15.5
	c-4.6,10.4-13.2,16.4-23.6,19.8c-22.8,7.4-46.3,11.4-70.4,10.1c-20-1.1-40.2-1-59.7-6.6c-12.4-3.6-24.7-7.8-36.8-12.5
	c-5.8-2.2-9.7-7-11.7-13.4c-3.4-10.9-2.5-21.9-0.1-32.6c5.9-26.3,13.6-52.1,27.1-75.7C593.2,1281.9,594.8,1278.5,596.6,1274.9z"/>
<path class="st1" d="M516.8,485.9c1.1-10.8,2-21.2,3.3-31.5c4.3-32.8,15.3-63,35.5-89.6c6-7.9,13.4-13.6,22.9-15.9
	c14.6-3.4,29.4-6.6,44.2-8.9c20.4-3.2,40.8-5.6,61.3-8c14.1-1.6,28.3-3,42.4-3.8c15.3-0.8,30.7-1,46-0.8c20.5,0.2,41,0.9,61.4,1.4
	c2.7,0.1,5.3,0,8,0.1c20.8,0.3,41.6,0.6,62.3,0.9c18.7,0.3,37.4,0.8,56.1,0.6c19.5-0.2,39-1,58.5-1.6c15.7-0.5,31.5-1.3,47.2-1.6
	c29.8-0.7,59.7-1.2,89.5-1.6c16.2-0.2,32.3,0,48.5-0.1c23.1-0.1,46.3,0.7,69.2,4.2c18.9,2.9,35.5,10.6,49.1,24.5
	c13.8,14,19.8,31.4,22.7,50.1c2.9,18.4,6.1,36.9,7.2,55.5c1.8,31.6,3.1,63.1-2.6,94.7c-4.6,25.1-22.4,36.9-42.4,40.8
	c-14.4,2.8-27.5-0.4-39.6-8c-7.9-4.9-12.1-12.5-12.9-21.9c-1-12.2,1.2-23.7,8.6-33.7c7.9-10.8,18.3-17.3,31.8-18.6
	c8.4-0.8,16.8-2.5,25.3-0.1c3.6,1,6.5-1.4,7.1-5.4c1-7.4,2-14.9,2.4-22.4c1-19.3,2.5-38.7,2.4-58c-0.1-15.4-1.7-30.9-7.1-45.6
	c-7-18.9-19.3-31.9-39.6-35.8c-9.7-1.9-19.5-3.8-29.3-4c-32.8-0.7-65.6-1-98.3-0.9c-25.2,0.1-50.5,0.9-75.7,1.6
	c-21,0.6-42,1.7-63.1,2.5c-16.6,0.6-33.1,1.1-49.7,1.7c-12.9,0.5-25.9,1.1-38.8,1.5c-3.2,0.1-6.4-0.7-9.6-0.6
	c-20.9,0.7-41.8,1.6-62.7,2.3c-7,0.2-14-0.2-20.9,0.2c-16,0.9-32,2-47.9,3.1c-5.8,0.4-11.7,0.8-17.5,0.9
	c-17.8,0.4-35.7,0.1-53.5,1.1c-22.6,1.4-45.5,2.2-67.7,6.2c-26.6,4.7-51.6,14.7-71.8,33.6c-8.1,7.6-14.3,17-17.8,27.5
	c-5.9,17.5-9.1,35.7-8.9,54.2c0.1,4.6,1.2,9.3,2.5,13.8c1.1,3.9,4.3,4.7,8.1,3.9c14.7-3.4,28.4-0.2,40.7,7.9c4.6,3,8.5,7.9,11,12.9
	c7.6,15.5,10.3,32,3.8,48.6c-4.7,12-12.9,21.5-25.9,24.8c-5.9,1.5-12.4,1.3-18.6,0.8c-6.7-0.6-13.7-1.6-20-3.9
	c-18.7-6.8-29.4-20.5-33.5-40C515.9,525.8,516.8,506,516.8,485.9z"/>
<path class="st7" d="M1253.1,820.4c-4.9-4.2-9.5-8.1-15.1-12.9c4-2.7,7.2-5.7,10.9-7.3c14.9-6.3,30.4-8.8,46.6-6.6
	c14.7,2,26.6,9.4,37.5,18.8c19.3,16.7,27.1,38.7,29.8,63.4c2.6,24-6.3,44.3-20,62.5c-12.5,16.5-29.7,26.3-50.8,28.1
	c-4.3,0.4-8.6,0.5-12.9,0.8c-3.2,0.2-3.7-1.2-2.9-4.1c3.5-12.4,7.7-24.8,10-37.5c2.2-12.4,4-25.3,3.2-37.7
	c-1-16.7-7.1-32.2-16.5-46.4C1267.5,833.3,1261,826.5,1253.1,820.4z"/>
<path class="st8" d="M1596,449c4.8,4.4,10,8.2,13.7,13.1c9.4,12.6,14.7,26.5,10.3,42.7c-5.2,19.4-17.7,31.8-36.5,38
	c-11.9,3.9-23.9,2.8-35.9,0.7c-15.3-2.7-29.1-8.8-41.2-18.3c-9.5-7.5-13.4-18-12.6-30.3c0.6-9.4,2.1-18.4,5.8-27.2
	c6.1-14.7,17.3-22.6,32.2-26.5c11.1-2.9,22.3-2.6,33.6-2C1576.5,439.7,1586.2,443.8,1596,449z"/>
<path class="st8" d="M456.2,943.1c-10.8-10-16.9-22.4-18.1-36.5c-1.1-13.2-2.5-27-0.1-39.9c5.3-27.8,19-51.1,43.2-67.6
	c12.7-8.7,26.1-15.3,41.2-17.3c14.4-1.9,29-1.3,42.9,3.7c2.4,0.9,4.4,2.5,7.5,4.3c-65.8,39.8-89.9,98.7-83.9,172.6
	C476.3,959.4,465.2,953.4,456.2,943.1z"/>
<path class="st8" d="M422.3,1235.2c20.1-5.9,39.3-4.7,57.3,5.6c14,8,18.5,21.7,16.7,36.6c-3.2,27.2-18.4,46.7-44.2,55.3
	c-18.8,6.2-37.7,2.9-52.9-11.5c-6.7-6.3-8.3-15.2-8.7-23.8c-0.4-8.3-0.3-16.8,1-25C394.2,1254.3,404.8,1242,422.3,1235.2z"/>
<path class="st9" d="M908.8,298.7c-6.8,0.3-13.2,0.5-19.6,1c-3,0.2-4-0.6-3.8-3.7c1.8-23.7,9.3-45.4,24.8-63.2
	c12.3-14.1,29-21.4,47.9-22.9c10.5-0.8,20.5,1.6,30.1,5.7c16,6.8,21.3,21.3,24.2,36.4c2.6,13.8,3,28,4.5,41.9
	c0.4,3.9-0.9,5.1-4.9,4.9c-20.1-0.7-40.1-1.5-60.2-1.6C937.6,297.2,923.4,298.2,908.8,298.7 M946.6,254.3c-1,2.4-2.3,4.8-2.9,7.3
	c-1.8,8.2,1.5,13.5,9.1,15.1c7.5,1.6,14-2.7,15.3-10.5c0.5-3.3,0.4-6.7,0.2-10c-0.4-6.3-0.2-6.7,6.2-6.9c1.4,0,2.8-0.1,4.2,0.1
	c5.3,0.6,7.9,3.2,9,8.4c1.6,7.3-1.8,12.6-6.6,17.5c-3.1,3.2-3.6,6.5-1.4,8.8c2.3,2.5,6,2.3,9.3-0.8c5.6-5.4,9.4-12,9.9-19.8
	c0.5-7.5-1-14.9-7.4-20c-6.3-5-13.7-5.6-21.1-4.1c-5.8,1.2-11.3,2.2-16.8-1.2c-1.2-0.8-3-0.8-4.5-0.8c-20.2-0.5-29.8,7-34.9,27.5
	c-2.2,9,1.7,17.2,8.6,19.7c1.6,0.6,3.6-0.1,5.4-0.2c-0.5-1.7-0.5-3.9-1.6-5c-3.3-3.3-4.5-7.1-3.8-11.4c1.1-6.8,3.9-12.8,9.2-17.4
	c4.4-3.7,14.5-4.8,18.4-2C949.3,250.4,948.1,252.1,946.6,254.3z"/>
<path class="st4" d="M1391.3,763.5c-6.7-6.4-13.3-12.5-20-18.8c13.8-19.5,28.1-40,43-61c5.5,4.8,10.8,9,15.6,13.8
	c10.4,10.5,19.4,22.3,27.1,34.9c4,6.5,7.5,13.4,10.9,20.2c0.7,1.3,0.7,3.8-0.1,4.9c-12.8,18.1-25.8,36-38.8,54
	c-0.8,1.2-1.9,2.2-3.4,3.8C1416.7,795.8,1405.3,779,1391.3,763.5z"/>
<path class="st4" d="M1482.2,641.6c12.8,11.7,22.3,25.5,31.5,39.8c4,6.2,3.3,10-0.6,15.3c-10.8,14.3-21.3,29-31.9,43.4
	c-2.5,3.5-3.4,3.2-5.9-0.5c-8.3-12.5-16.4-25.2-25.3-37.3c-7.2-9.6-16.4-17.5-26.5-24c-3.2-2.1-3.3-3.7-1.3-6.7
	c10.1-15.1,20-30.2,30-45.3c1.9-2.9,3.7-5.8,6.1-9.7C1466.3,625,1474.2,633.2,1482.2,641.6z"/>
<path class="st4" d="M1409.3,808.3c2.2,5.3,4.2,10.4,6.5,15.3c1.3,2.6,0.5,4.5-1.1,6.4c-5.1,5.7-10.2,11.5-15.3,17.1
	c-6.1,6.7-12.3,13.3-18.4,20c-1.7,1.8-2.9,4-5.2,5.6c-5.1-34.2-19.3-61.7-49.4-79.5c2.2-2.7,3.8-5,5.7-7
	c9.4-10.1,18.9-20.1,28.3-30.2c2.2-2.4,4.3-3,6.7-0.6c6.2,6,13,11.6,18.2,18.3C1393.8,784.8,1401.3,796.6,1409.3,808.3z"/>
<path class="st10" d="M1530.4,662.6c-2,4.2-3.9,8.2-6.4,13.3c-2.3-3.5-4.1-6-5.6-8.7c-9.2-16.2-22.2-29.3-36-41.5
	c-6-5.3-12.4-10.3-18.5-15.6c-0.7-0.6-1.4-2.4-1.1-3.1c7.1-14.9,14.4-29.8,21.5-44.6c0.5-0.1,0.8-0.2,1-0.1
	c11.4,8.2,23.4,15.6,34.1,24.7c10.4,8.8,19.3,19.2,28.9,28.9c2.7,2.7,2.7,5.4,1,8.6C1543.1,637.1,1536.9,649.7,1530.4,662.6z"/>
<path class="st10" d="M472.4,1133c6.9-0.3,13.5-0.5,20-0.8c2.2-0.1,3.4,0.3,3.1,3c-0.4,4-0.4,8.1-0.5,12.1c-0.3,10-0.7,20-0.8,30.1
	c0,3-1.4,4.5-4.1,4.8c-9.4,1-18.8,3-28.1,2.4c-11.4-0.7-22.9-3.1-34.1-5.7c-5.7-1.3-11.1-4.3-16.5-6.9c-1.3-0.7-2.7-3-2.6-4.5
	c0.6-15.1,1.4-30.3,2.2-45.4c0.1-2.2,0.3-4.4,0.5-7.3C430.1,1126.9,450.4,1132.3,472.4,1133z"/>
<path class="st4" d="M432.4,1059c20.5,9.8,41.7,14.7,63.8,12.3c0,12.5,0,24.9,0,37.2c0,2.1-0.5,4.2-0.3,6.2c0.2,3-1.2,4.3-4,4.7
	c-24.4,2.9-47.9-0.4-69.9-11.4c-12-6-10.4-3-9.3-15.7c1.3-14.3,1.8-28.6,2.7-43.1C421.2,1052.6,426.7,1055.7,432.4,1059z"/>
<path class="st10" d="M463.8,1016c10.9,4.7,21.9,7.4,33.4,8.1c2.2,0.1,2.8,1.2,2.6,3.3c-0.8,9.3-1.4,18.6-2.4,27.8
	c-0.1,1.2-2,3.3-3.1,3.3c-8.2,0.2-16.5,0.7-24.5-0.4c-18.6-2.6-35.6-9.9-51.4-20c-0.8-0.5-1.9-1.7-1.8-2.4
	c1.1-13.2,2.4-26.3,3.6-39.4c0-0.5,0.4-1,0.3-0.7C434.9,1002.3,449.2,1009.1,463.8,1016z"/>
<path class="st4" d="M501.4,1007c-1,5.7-1.7,6-7.7,5c-21.3-3.3-40.5-12.1-59.2-22.2c-2.9-1.6-5.9-3.3-8.9-4.7
	c-2.9-1.3-3.9-3.5-3.4-6.4c2.7-16.5,5.5-32.9,8.4-50.4c3.6,5.5,6.4,10.2,9.6,14.6c11.9,16.6,27.8,27.1,47.7,31.5
	c3.9,0.9,5.9,2.6,6.9,6.5c1.3,4.8,2.9,9.7,5.1,14.1C501.9,999,502.4,1002.6,501.4,1007z"/>
<path class="st4" d="M417.2,1187.4c24.9,9.6,50,13.1,76.6,6.9c0,14.3,0,28.3,0,42.4c-26.6-18.6-54.7-20.7-85-7.6
	c0-15.5,0-30.7,0-46.3C411.4,1184.3,414.1,1185.8,417.2,1187.4z"/>
<path class="st6" d="M1557.8,556c4.4,0.4,8.4,0.7,13.1,1.1c-3.3,16.7-9.8,32-14.7,49.1c-2.4-2.2-4.2-3.7-5.8-5.4
	c-16.7-18.5-35.1-34.7-58.1-44.8c-3.1-1.4-3.6-2.7-1.8-5.6c3.2-5.3,6.1-10.9,9.2-16.7c5.1,3,10.3,5.6,15.1,8.8
	C1527.7,551,1542.4,553.9,1557.8,556z"/>
<path class="st11" d="M1620.3,452.8c4.3-7.1,8.1-14.1,12.6-20.5c4-5.7,9.7-9.5,16.6-11.4c7.6-2.1,12.6,1.1,14.6,8.8
	c2.7,10.6-0.7,20.1-4.4,29.6c-5.6,14-13.9,26.3-24,37.5c-0.4,0.5-1.1,0.7-2.2,1.3c-0.2-4.4-0.2-8.2-0.6-12c-1-10-6-18.4-11-26.9
	C1620.8,457.4,1620.7,455.1,1620.3,452.8z"/>
<path class="st11" d="M1575.4,412.7c-1.4,4.1-2.9,7.9-4,11.8c-0.8,2.7-2.4,3.2-5,3.3c-10.3,0.1-20.5,0.4-30.8,0.7
	c-2.2,0.1-3.2-0.7-2.6-2.9c3.8-13.9,7.4-27.8,16.3-39.6c1-1.3,2.1-2.6,3.3-3.7c5.2-4.8,11.1-7.2,18-4.4c6.7,2.6,8.1,8.9,7.9,14.9
	C1578.4,399.3,1576.6,405.9,1575.4,412.7z"/>
<path class="st1" d="M1030.1,1151.4c11.3-3.8,22.3-7.4,33.2-11.1c2.8-1,5-0.8,4.4,2.8c-1.2,8.8-2.7,17.5-4.1,26.8
	c-15.5-5.4-30.1-6.3-45-0.4c-14.4,5.7-26.1,15.1-37,26.2c0.4-4.2,0.7-8.4,1.2-12.6c0.6-5.7,1.5-11.3,1.9-17c0.2-3,1.8-3.8,4.1-4.3
	c11.8-2.9,23.5-5.7,35.3-8.6C1026.1,1152.6,1027.9,1152,1030.1,1151.4z"/>
<path class="st1" d="M397.5,1334.3c3.6,2.2,7,4,10.2,6.2c1.1,0.8,2.5,2.5,2.4,3.7c-0.9,10-1.9,19.9-3.1,29.8
	c-0.7,5.7-3,10.7-7.2,14.7c-4,3.7-8.2,3.9-12.1,0c-5.9-5.7-9.2-13-9.5-20.8c-0.6-17,0.8-33.8,4.5-49.6
	C387.4,1323.6,392.3,1328.9,397.5,1334.3z"/>
<path class="st12" d="M674.2,625.3c-2.6-0.6-5.2-1.2-8.3-2.1c-5.6-2.2-10.7-4.1-15.9-6c-0.2,0.4-0.4,0.9-0.5,1.3
	c4.7,2.3,9.3,4.8,14.1,6.8c13.1,5.5,26.8,8.3,40.9,9.4c15.1,1.1,30.1,3.2,45.2,4c18.1,0.9,36.2,0.7,54.3,1c-1,0.5-2,1.6-3,1.6
	c-14.3,0.2-28.7,0.4-43,0.3c-11.7-0.1-23.3-0.4-35-1.2c-8.6-0.6-17.1-1.9-25.6-3.4c-11.8-2.2-23.5-4.7-35.1-7.5
	c-9-2.2-13.3-5.3-18.8-12.2c3.8-2.1,2.7-4.4,0.6-7.2c-1-1.3-1.1-3.4-1.4-5.4c4.1,1,8,2.1,11.7,3.7c13.7,6.1,28.3,8.9,43.1,11
	c5.6,0.8,11.3,1.1,16.9,2c-0.6,2.1-1.2,4.3,1.5,4.5c5.1,0.3,10.3,0.1,15.7,0.1c-0.5-2-0.9-3.3-0.9-4.7c3.5,0,6.6,0,9.8,0.2
	c2.3,0.3,4.4,0.4,6.9,0.4c2.1,0,3.8,0,5.8,0c1,0,1.6,0,2.6,0c2.1-0.3,3.8-0.5,5.5-0.8c-0.8,4.1,2.3,5.8,4.6,8
	c-2.5,0.7-4.8,1.2-7.1,1.7c-1.4,0.1-2.9,0.2-5,0.1c-11.3-0.4-21.9-0.5-32.5-0.6c-0.6,0-1.3,0.5-1.9,0.7c-1.7,0-3.4,0-5.7-0.4
	c-3.8-0.4-7-0.4-10.2-0.4c-1.2,0-2.3,0-4-0.4c-1.5-0.4-2.5-0.4-3.6-0.4c-0.9,0-1.8-0.1-3.1-0.4c-1.2-0.4-2-0.4-2.7-0.4
	c-0.6,0-1.3-0.1-2.3-0.4c-1.2-0.4-1.9-0.4-2.7-0.5c-0.4,0-0.8,0-1.5-0.3c-0.9-0.3-1.4-0.4-1.9-0.4c-1.8-0.3-3.5-0.7-5.7-1.3
	C675.2,625.4,674.7,625.4,674.2,625.3z"/>
<path class="st11" d="M1590.5,407.7c4.6-5,8.3-10.8,13.6-14.1c10.4-6.5,20.2-0.2,20.8,12.1c0.4,8.8-2.5,16.7-5.6,24.6
	c-2,5.3-4.3,10.4-6.6,15.9c-4.7-3-8.7-6-13.1-8.3c-4.8-2.5-9.8-4.7-14.9-6.5c-3.1-1.2-3.9-2.6-2.5-5.6
	C1585,419.9,1587.6,413.9,1590.5,407.7z"/>
<path class="st11" d="M1474.7,454c-3.1-4.5-6.9-8.4-8.6-13.1c-4.2-11.5-1.3-22.4,11.4-25.4c10.6-2.5,20.7,1.9,26.8,10.9
	c0.5,0.7,0.9,1.4,1.4,2.1c4.6,7.9,4.7,8.3-2,14.4c-5.6,5.2-10.2,11-13.2,18.1c-1.9,4.3-2.6,4.6-6.4,1.6
	C1480.8,460.1,1477.9,457,1474.7,454z"/>
<path class="st1" d="M512.9,1297.7c2.7,7.2,5.5,14,7.8,21c2.8,8.8,0.6,17-3.4,25c-2.5,5-6.9,6.3-11.9,6
	c-10.5-0.6-21.1-11.2-21.8-21.6c-0.1-0.8,0.4-1.9,1-2.6c9.8-10.2,17.2-21.9,21.2-35.6c0.1-0.2,0.4-0.4,1.1-1.1
	C508.8,1291.9,510.8,1294.7,512.9,1297.7z"/>
<path class="st13" d="M995.5,308.2c6.2,0.5,12,1.1,17.9,1.3c3.6,0.2,3.4,2.4,3.4,4.9c0,2.8-1.5,3.6-4,3.6c-7.5,0.2-15,0.7-22.6,0.8
	c-23.4,0.4-46.9,0.8-70.3,0.8c-10.6,0-21.1-1.1-31.7-1.4c-3.6-0.1-3.9-2-4-4.8c-0.1-3.5,1.9-3.7,4.6-3.8c11.6-0.2,23.1-0.7,34.7-0.8
	C947.4,308.5,971.2,308.4,995.5,308.2z"/>
<path class="st7" d="M740.4,1173.8c-0.6,4.2-1.1,8.1-1.8,12.8c-20.9-14.5-42.6-22.7-68.1-12.8c0.7-10.6,1.3-20.1,2-30.2
	c6.9,2.3,12.9,4.6,19,6.4c14.1,4.2,28.3,8.4,42.5,12.3c6.4,1.8,6.5,1.4,6.4,8.2C740.4,1171.5,740.4,1172.5,740.4,1173.8z"/>
<path class="st14" d="M843.3,594.5c0.4-10.7,5.8-18,15.4-20.9c8.3-2.5,19,1.1,24.3,8.3c2.9,3.9,2.9,8.4,2,12.8
	c-1.8,8.7-9.6,15.9-18.4,16.4c-4.2,0.3-8.7-0.3-12.8-1.4C847,608,843.6,602.7,843.3,594.5z"/>
<path class="st13" d="M752.9,622.1c-1.7,0-3.4,0-5.8-0.2c-2.7-0.3-4.7-0.4-6.8-0.5c-3.1,0-6.2,0-10.1,0c-5.8-0.1-10.9-0.1-15.9-0.1
	c-5.6-0.5-11.3-0.9-16.9-1.7c-14.7-2.2-29.3-4.9-43.1-11c-3.7-1.6-7.6-2.7-11.7-4.1c-8.6-4.7-16.8-9.3-25-14
	c-1.6-0.9-3.8-1.9-1.7-4.5c1.9-2.3,3.1-0.6,4.8,0.5c12.3,7.8,25.3,14,39.4,18c20.2,5.9,40.8,8.9,61.7,9.9
	c16.5,0.8,33.2,1.5,49.7,0.6c19.8-1,39.2-5.2,57.9-12c1.3-0.5,2.9,0,4.4,0.1c-1,1.2-1.8,3.1-3.1,3.6c-17.6,6.3-35.5,11.7-54.3,12.9
	c-4.8,0.3-9.7,1-14.8,1.6c-2.1,0.3-3.8,0.6-6,0.7C754.4,621.9,753.6,622,752.9,622.1z"/>
<path class="st1" d="M459.8,1384.1c-4.3-11.3-6.6-22.8-7.4-34.5c-0.2-3.4,0.7-5.2,4.2-6.5c5.2-1.9,10.1-4.6,15.7-7.3
	c1.1,3,2.2,5.9,3.1,8.9c4,13.7,6.9,27.6,4.8,42c-0.9,6.4-3.7,7.9-10,6.2C465.3,1391.8,462.1,1388.7,459.8,1384.1z"/>
<path class="st1" d="M441.9,1390.5c-0.6,2.2-1.1,4.1-1.7,6c-1.1,3.4-3.4,5.6-6.9,5.8c-3.6,0.2-7.4-0.5-8.8-4.2
	c-1.8-4.4-3.7-9.2-3.9-13.9c-0.6-11.7-0.1-23.4-0.2-35.1c0-3.2,0.7-4.4,4.3-3.8c4.6,0.8,9.4,0.6,14.1,1.2c1.2,0.2,3.2,1.5,3.3,2.5
	C443.8,1362.8,444.1,1376.5,441.9,1390.5z"/>
<path class="st15" d="M1233.6,424.1c-19.6-9.9-41.3-10.8-62.5-13.2c-40.9-4.5-82-2.3-123-2.3c-24.7,0-49.4,1-74.1,2.3
	c-40.3,2.1-80.5,4.7-120.7,7.3c-30.9,2-61.8,4-92.8,3.5c-23.4-0.4-46.9-0.8-70.3-0.5c-12.8,0.1-25.7,0.7-38.2,5.7
	c3.5-1.6,7.3-4.2,11.3-4.7c11.4-1.4,23-2.3,34.5-2.7c13-0.4,26-0.2,38.9-0.1c15.3,0.2,30.6,1,45.8,0.7c19.3-0.4,38.7-1.5,58-2.5
	c16.7-0.9,33.3-2.2,50-3.2c16.1-1,32.2-1.7,48.4-2.5c22.4-1.1,44.7-2.3,67.1-3.3c11-0.5,21.9-0.7,32.9-0.8
	c33.2-0.3,66.4-1.1,99.6-0.6c16.6,0.2,33.3,2.6,49.8,4.4c8.3,0.9,16.7,1.8,24.7,3.9C1220,417.3,1226.7,421,1233.6,424.1z"/>
<path class="st16" d="M884.2,744.5c-2.4-0.6-6-0.9-6.1-1.8c-0.4-3,0-6.3,0.8-9.4c0.2-0.8,2.6-1.4,4-1.4c14,0.6,28.1,1.4,42.1,2.2
	c6.8,0.4,13.6,0.9,20.4,0.9c4,0,4.7,1.8,4.3,5.2c-0.9,6.5-0.9,6.8-7.5,6.6c-18-0.5-35.9-1.1-53.9-1.7
	C887.1,745.1,885.8,744.7,884.2,744.5z"/>
<path class="st15" d="M804.4,639.7c-18.4-0.3-36.6-0.1-54.6-1c-15.1-0.7-30.1-2.8-45.2-4c-14.1-1.1-27.8-3.9-40.9-9.4
	c-4.8-2-9.4-4.5-14.1-6.8c0.2-0.4,0.4-0.9,0.5-1.3c5.1,1.9,10.3,3.7,15.6,5.8c1.5,1.3,2.8,2.7,4.3,3.3c12.8,5,26.2,6.2,39.7,7.6
	c22.8,2.3,45.6,3.6,68.5,3.4c15-0.1,30.1,1.5,45.1,1.4c23.3-0.1,46.6-1.3,69.8-1.2c32.8,0.1,65.5,0.8,98.3,1.6
	c24,0.6,47.9,1.6,71.9,2.4c26.2,0.8,52.4,1.5,78.6,2.5c10.9,0.4,21.7,1.4,32.8,2.3c-3.9,0.4-8,0.9-12.1,0.7
	c-8.8-0.3-17.5-1.2-26.2-1.5c-16.9-0.5-33.7-0.5-50.6-0.9c-16.4-0.4-32.8-1.1-49.3-1.6c-15.6-0.5-31.2-1.2-46.7-1.6
	c-25.2-0.7-50.4-1.2-75.6-1.7c-13.4-0.3-26.7-0.9-40.1-0.7c-18.5,0.2-37,1-55.5,1.5c-2.1,0.1-4.1-0.4-6.9-0.7
	c-1.3-0.1-1.9-0.1-2.6-0.1C807.6,639.7,806.2,639.7,804.4,639.7z"/>
<path class="st3" d="M910.3,760.3c-10.1-0.8-19.8-1.6-29.5-2.5c-2.3-0.2-4.6-1.1-3.7-3.7c0.3-1.1,3-2.1,4.5-2
	c17.3,1.2,34.6,2.7,51.9,4.1c1.3,0.1,2.5,0.6,3.8,0.8c0,0.4,0,0.9,0,1.3C928.4,759,919.6,759.6,910.3,760.3z"/>
<path class="st12" d="M800.7,626.5c-0.9,0.2-1.8,0.4-3.2,0.4c-1.2,0.1-1.9,0.4-2.6,0.7c-0.4,0.1-0.8,0.2-1.6,0.1
	c-1.2,0.1-1.9,0.4-2.6,0.7c-0.6,0.1-1.3,0.2-2.5,0.2c-1.8,0.1-3,0.4-4.2,0.7c-1.2,0.1-2.4,0.2-4.1,0.1c-4.1-0.1-7.5,0-10.9,0.2
	c1.1-0.7,2.1-1.9,3.3-2.2c14-2.7,28.1-5,42.1-8.1c6.3-1.4,12.4-4,18.6-6.2c1.9-0.7,3.7-1.8,4.8,1.4c-0.5,0.6-1,0.8-2,1.1
	c-1.1,0.4-1.6,0.8-2.2,1.2c-2.6,0.9-5.2,1.8-8.2,2.6c-0.9,0.1-1.4,0.4-1.8,0.7c-1.6,0.5-3.1,1-5.2,1.4c-1.1,0.3-1.7,0.6-2.3,0.9
	c-1.8,0.5-3.7,1.1-6.1,1.6c-1.1,0.2-1.7,0.6-2.3,0.9c-1.5,0.4-3,0.9-4.9,1.1C801.6,626.1,801.1,626.3,800.7,626.5z"/>
<path class="st15" d="M650.4,427.8c-12.1,20.3-13.9,43.2-15.4,66c-1.3,20.2-1.7,40.4-2.6,60.9c-0.4-1.3-0.9-2.9-0.9-4.6
	c0.2-12.9,0.3-25.9,0.9-38.8c1-20.7,1.8-41.4,7.5-61.6c1.6-5.7,3.9-11.3,6.3-16.8C647,431.1,648.8,429.6,650.4,427.8z"/>
<path class="st15" d="M1246.1,543.2c0.4-9.6,1.2-19.3,1.5-29c0.5-23.1,2-46.3-3.5-69.2c-1-3.9-2.4-7.7-3.6-11.9
	c2.2,4.6,5.4,9.4,6.4,14.6c4.1,21.4,2.9,43.2,2.6,64.8c-0.1,9.5-1.5,19.1-2.4,28.6C1247,541.8,1246.6,542.4,1246.1,543.2z"/>
<path class="st15" d="M1237.4,627c7.4-16.8,7.2-34.8,7.6-53.1c0.5,0.7,1.1,1.9,1.2,3c0.5,11.8,0.2,23.6-2.6,35.1
	C1242.4,617.2,1239.7,622,1237.4,627z"/>
<path class="st15" d="M1196.3,646.7c3.5-0.8,7.4-1.1,11.2-2c5.5-1.4,10.9-3.2,16.7-4.9c-2.4,1.4-5.1,3.4-8,4.1
	C1209.7,645.2,1203.1,645.9,1196.3,646.7z"/>
<path class="st15" d="M808.3,408.1c8.3-0.9,16.7-1.4,25.5-2c-1.4,0.6-3.1,1.6-4.8,1.8c-5.5,0.6-11.1,1.1-16.6,1.4
	C811.1,409.4,809.8,408.7,808.3,408.1z"/>
<path class="st15" d="M768.5,629.6c3.7-0.1,7.2-0.3,10.9-0.2c-6.4,0.7-13.2,1.3-20.2,1.7c1.9-0.5,4.2-1,6.8-1.5
	C767,629.6,767.6,629.6,768.5,629.6z"/>
<path class="st15" d="M1244.8,568.2c-0.3-5.1-0.4-10.5-0.4-16.1C1244.7,557.1,1244.9,562.5,1244.8,568.2z"/>
<path class="st15" d="M1095.8,396.2c4.3-0.3,8.8-0.4,13.6-0.4C1105.2,396.1,1100.6,396.2,1095.8,396.2z"/>
<path class="st15" d="M1063.9,396.2c3.4-0.3,7.1-0.4,11.1-0.4C1071.7,396.1,1067.9,396.2,1063.9,396.2z"/>
<path class="st15" d="M728,605.1c3.5-0.2,7.2-0.1,11.2,0.2C735.7,605.4,731.9,605.4,728,605.1z"/>
<path class="st15" d="M1176.9,646.9c3.2-0.3,6.6-0.4,10.4-0.4C1184.2,649.1,1180.6,648.3,1176.9,646.9z"/>
<path class="st15" d="M1050.5,396.2c3.1-0.3,6.6-0.4,10.3-0.4C1057.7,396.1,1054.3,396.2,1050.5,396.2z"/>
<path class="st15" d="M860.4,563.7c2.9-0.3,6-0.4,9.4-0.3C867,563.7,863.9,563.8,860.4,563.7z"/>
<path class="st15" d="M632,573c0.7,2.8,1.3,5.9,1.9,9.4C629.8,580.4,631.8,576.6,632,573z"/>
<path class="st15" d="M650.9,590.8c3.6,1,7.4,2.2,11.4,3.6C658.6,593.4,654.8,592.2,650.9,590.8z"/>
<path class="st15" d="M985.2,397.8c2.5-0.4,5.4-0.7,8.6-0.9C991.3,397.3,988.4,397.7,985.2,397.8z"/>
<path class="st15" d="M1083.2,396.2c2.6-0.3,5.5-0.4,8.6-0.4C1089.2,396.1,1086.4,396.2,1083.2,396.2z"/>
<path class="st15" d="M765,605.6c2-0.4,4.3-0.6,6.9-0.8C769.9,605.2,767.6,605.5,765,605.6z"/>
<path class="st15" d="M799.3,408.7c1.5-0.4,3.2-0.7,5.3-0.9C803.1,408.2,801.3,408.6,799.3,408.7z"/>
<path class="st15" d="M717,604.2c1.6-0.1,3.4,0,5.4,0.2C720.9,604.6,719,604.5,717,604.2z"/>
<path class="st15" d="M895,587.2c0.3,1.5,0.4,3.2,0.3,5.2C895.1,591,895,589.2,895,587.2z"/>
<path class="st15" d="M873.3,619.5c-1.5,0.6-3.3,1.1-5.3,1.5C869.5,620.4,871.3,619.8,873.3,619.5z"/>
<path class="st15" d="M631.9,561.1c0.3,1.3,0.4,2.8,0.4,4.6C632,564.4,631.8,562.8,631.9,561.1z"/>
<path class="st15" d="M1225.3,639.6c1-1,2.3-2.1,3.9-3.1C1228.2,637.4,1226.9,638.5,1225.3,639.6z"/>
<path class="st15" d="M1234,632.1c0.6-1.4,1.5-2.8,2.7-4.3C1236,629.1,1235.1,630.6,1234,632.1z"/>
<path class="st15" d="M783.3,603.9c1-0.4,2.2-0.6,3.7-0.8C786,603.5,784.8,603.8,783.3,603.9z"/>
<path class="st15" d="M842.8,406.2c1-0.4,2.1-0.7,3.6-0.9C845.5,405.7,844.3,406,842.8,406.2z"/>
<path class="st15" d="M701.1,602.5c1.1-0.1,2.3-0.1,3.8,0.2C703.9,602.8,702.6,602.8,701.1,602.5z"/>
<path class="st15" d="M694.4,601.7c1.1-0.2,2.3-0.1,3.8,0.2C697.2,602,695.9,602,694.4,601.7z"/>
<path class="st15" d="M1020.3,397c1-0.4,2.1-0.7,3.7-0.9C1023.1,396.5,1021.8,396.8,1020.3,397z"/>
<path class="st15" d="M858.3,620.7c-1.1,0.2-2.3,0.1-3.8-0.1C855.6,620.4,856.9,620.4,858.3,620.7z"/>
<path class="st3" d="M941.5,757.3c0.6-0.5,1.3-0.9,2.1-1.2c0.1,0.4,0.2,0.7,0.3,1.1C943.2,757.3,942.4,757.4,941.5,757.3z"/>
<path class="st15" d="M1237.7,427.8c-1.1-0.7-2.2-1.7-3.5-3C1235.3,425.6,1236.5,426.6,1237.7,427.8z"/>
<path class="st15" d="M833.9,588.5c0.2-1.3,0.7-2.8,1.4-4.5C835.1,585.3,834.6,586.9,833.9,588.5z"/>
<path class="st15" d="M893,580.1c0.6,1.1,1.3,2.4,1.8,4.1C894.1,583.1,893.6,581.7,893,580.1z"/>
<path class="st15" d="M753.1,408.7c0.8-0.3,1.8-0.4,2.9-0.3C755.3,408.6,754.3,408.7,753.1,408.7z"/>
<path class="st15" d="M891.3,402.9c0.8-0.3,1.7-0.4,2.9-0.4C893.5,402.8,892.5,402.9,891.3,402.9z"/>
<path class="st15" d="M907.3,402c0.7-0.4,1.6-0.7,2.9-0.9C909.4,401.5,908.4,401.9,907.3,402z"/>
<path class="st15" d="M923.2,401.2c0.8-0.3,1.7-0.4,2.9-0.4C925.3,401.1,924.4,401.2,923.2,401.2z"/>
<path class="st15" d="M941.6,400.3c0.8-0.3,1.7-0.4,2.9-0.4C943.8,400.2,942.8,400.4,941.6,400.3z"/>
<path class="st15" d="M776.6,604.7c0.7-0.4,1.6-0.6,2.9-0.7C778.8,604.3,777.8,604.6,776.6,604.7z"/>
<path class="st15" d="M709.5,603.5c0.8-0.2,1.8-0.1,3,0.1C711.7,603.7,710.6,603.7,709.5,603.5z"/>
<path class="st15" d="M689.4,601c0.8-0.2,1.8-0.1,3,0.1C691.6,601.2,690.6,601.2,689.4,601z"/>
<path class="st12" d="M809.1,640c0.6-0.2,1.2-0.2,2.1-0.2C810.8,639.9,810,640,809.1,640z"/>
<path class="st15" d="M955.8,399.5c0.5-0.4,1.1-0.6,2.1-0.9C957.4,399,956.7,399.3,955.8,399.5z"/>
<path class="st15" d="M1163.5,397.8c0.5-0.3,1.3-0.3,2.2-0.3C1165.1,397.8,1164.4,397.9,1163.5,397.8z"/>
<path class="st15" d="M1151.7,396.4c0.6-0.1,1.3,0,2.2,0.3C1153.3,396.7,1152.5,396.7,1151.7,396.4z"/>
<path class="st15" d="M684.3,600.2c0.6-0.2,1.3-0.1,2.2,0C686,600.4,685.2,600.4,684.3,600.2z"/>
<path class="st15" d="M853.6,405.3c0.3-0.3,0.7-0.6,1.3-0.8C854.7,404.8,854.2,405.1,853.6,405.3z"/>
<path class="st15" d="M865.3,404.5c0.3-0.2,0.8-0.3,1.4-0.3C866.4,404.4,865.9,404.5,865.3,404.5z"/>
<path class="st15" d="M877.9,403.7c0.3-0.2,0.8-0.3,1.4-0.3C878.9,403.6,878.5,403.7,877.9,403.7z"/>
<path class="st15" d="M883.6,613.9c-0.2,0.4-0.7,0.9-1.4,1.4C882.4,614.8,882.8,614.4,883.6,613.9z"/>
<path class="st15" d="M884.5,569.7c0.5,0.1,1.1,0.4,1.7,1C885.8,570.6,885.2,570.3,884.5,569.7z"/>
<path class="st15" d="M888.3,608.8c-0.1,0.5-0.4,1.1-1,1.8C887.4,610.1,887.7,609.5,888.3,608.8z"/>
<path class="st15" d="M843.5,571.8c0.2-0.5,0.6-1,1.3-1.5C844.6,570.7,844.2,571.2,843.5,571.8z"/>
<path class="st15" d="M888.7,573.6c0.5,0.2,0.9,0.7,1.5,1.4C889.8,574.7,889.3,574.3,888.7,573.6z"/>
<path class="st15" d="M968.3,398.6c0.3-0.2,0.8-0.3,1.4-0.3C969.4,398.6,968.9,398.7,968.3,398.6z"/>
<path class="st15" d="M680.1,599.4c0.4-0.1,0.8-0.1,1.4,0C681.2,599.5,680.7,599.5,680.1,599.4z"/>
<path class="st15" d="M676.8,598.6c0.4-0.1,0.8-0.1,1.4,0.1C677.8,598.8,677.4,598.8,676.8,598.6z"/>
<path class="st15" d="M673.4,597.7c0.4-0.1,0.8-0.1,1.4,0.1C674.5,597.9,674,597.9,673.4,597.7z"/>
<path class="st15" d="M670.1,596.8c0.4-0.1,0.8-0.1,1.4,0.1C671.2,597,670.6,597,670.1,596.8z"/>
<path class="st15" d="M821,595.6c0.2-0.3,0.6-0.6,1.3-0.8C822,595.1,821.6,595.4,821,595.6z"/>
<path class="st15" d="M664.2,595.1c0.4-0.1,0.8,0,1.4,0.2C665.3,595.4,664.8,595.4,664.2,595.1z"/>
<path class="st15" d="M824.7,594.3c0.3-0.4,0.9-0.8,1.7-1.2C826.1,593.5,825.5,593.9,824.7,594.3z"/>
<path class="st15" d="M640,585.8c0.5,0,1.1,0.3,1.9,0.7C641.4,586.5,640.7,586.3,640,585.8z"/>
<path class="st15" d="M852.5,619.9c-0.4,0.1-0.8,0.1-1.4-0.2C851.4,619.6,852,619.7,852.5,619.9z"/>
<path class="st15" d="M1239.4,430.4c-0.4-0.2-0.9-0.8-1.4-1.5C1238.4,429.1,1238.9,429.6,1239.4,430.4z"/>
<path class="st15" d="M856.1,564.5c0.3-0.3,0.7-0.5,1.3-0.6C857.2,564.2,856.7,564.4,856.1,564.5z"/>
<path class="st15" d="M674.4,409.5c0.3-0.3,0.7-0.6,1.3-0.8C675.5,409,675,409.3,674.4,409.5z"/>
<path class="st15" d="M683.6,408.7c0.3-0.2,0.8-0.3,1.4-0.3C684.6,408.6,684.2,408.7,683.6,408.7z"/>
<path class="st15" d="M1245.2,548.3c-0.1-0.4-0.1-0.8,0-1.4C1245.4,547.2,1245.4,547.8,1245.2,548.3z"/>
<path class="st15" d="M877,565.6c0.5,0,1.2,0.2,2,0.7C878.5,566.3,877.8,566.1,877,565.6z"/>
<path class="st15" d="M845.8,617.5c-0.5,0-1.1-0.3-1.8-0.8C844.4,616.7,845.1,616.9,845.8,617.5z"/>
<path class="st15" d="M881.2,615.6c-0.2,0.4-0.8,0.9-1.5,1.3C879.9,616.5,880.4,616,881.2,615.6z"/>
<path class="st15" d="M843.3,615.9c-0.5-0.1-1-0.4-1.7-1C842,615,842.6,615.3,843.3,615.9z"/>
<path class="st17" d="M386.2,427.7c1.4,6.5,2.5,12.7,4.3,18.6c0.7,2.3,2.6,4.6,4.6,6.1c15.1,11.2,30.4,22.2,45.6,33.3
	c2.8,2,5.6,4.1,8.8,6.4c-1.2,1.2-2.2,2.1-3.2,3c-16.5,13.7-33.1,27.5-49.6,41.2c-1.8,1.5-4.1,2.5-5.7,4.2c-1.5,1.6-2.9,3.7-3.4,5.9
	c-5.3,22.8-12.4,44.9-24.9,64.9c-7.2,11.4-15.7,21.7-26.8,29.6c-20.7,14.8-43.4,15-64.3,0.5c-15.1-10.5-25.5-24.9-33.8-40.9
	c-12.4-23.9-19.2-49.6-22.4-76.3c-4.6-38.7-1.9-76.9,9.8-114.2c6.4-20.5,15.4-39.8,29.6-56.3c9.3-10.7,20.1-19.3,34-23.4
	c14.2-4.2,27.6-1.9,40.3,5.2c13.5,7.5,23.5,18.7,31.8,31.5C373.1,385.6,380.7,406,386.2,427.7 M320.7,532.4c0.1-2.8,0.3-5.6,0.4-9
	c2.5,2.9,4.3,5.4,6.4,7.6c3.1,3.4,6.6,3.5,9.3,0.6c2.5-2.7,2-6-1.4-9c-1.9-1.7-3.8-3.5-6-5.4c2-1.6,3.6-2.8,5.1-4.1
	c2.5-2,4-4.4,1.9-7.5c-1.8-2.7-5.6-3.1-8.6-1c-1.3,0.9-2.5,2-4.1,3.3c-1-3-1.8-5.3-2.7-8.2c2.5,0,4.2,0,5.9,0
	c6.9-0.1,9.6-2.8,9.7-9.7c0-5,0.1-10,0-15.1c-0.1-6-2.7-8.7-8.7-9c-2.3-0.1-4.6,0-7.3,0c1-4.2-0.1-6.9-3.9-7.5
	c-3.5-0.6-6.6,0.9-8.1,3.9c-1.5,3.1-3.5,3.6-6.6,3.7c-5.8,0.1-8.4,2.7-8.6,8.5c-0.2,5.4-0.1,10.9,0,16.3c0.1,6,2.8,8.6,8.8,8.8
	c2.5,0.1,4.9,0,7.5,0c0,2.4,0,4.2,0,6c-3-0.4-5.8-1.3-8.5-1c-6.1,0.7-8.9-1.9-10.2-7.8c-1.1-5.4-3.7-10.2-11.5-8.7
	c1.6-2.3,2.8-4,3.9-5.7c1.2-1.7,2.8-3.3,3.4-5.2c0.6-1.6,0.7-4-0.1-5.3c-0.7-1.2-3.3-2.3-4.6-1.9c-1.9,0.6-3.7,2.3-5,3.9
	c-1.6,2-2.7,4.4-4,6.6c-0.4-0.1-0.8-0.3-1.1-0.4c0.2-1.1,0.2-2.4,0.8-3.4c1.7-3.2,3.5-6.3,5.2-9.5c1.6-3,1.5-5.8-1.9-7.5
	c-3.2-1.5-5.8-0.3-7.4,2.7c-1,1.8-1.5,3.9-2.5,5.7c-0.6,1.2-1.6,2.6-2.7,3.2c-4.1,2.1-5.8,7-3.4,10.8c1.1,1.8,2.5,3.3,3.8,5
	c3.1,4.1,2.6,6.2-2.3,8c-2.9,1.1-4.4,3-3.7,6.1c0.6,3,2.9,4.3,5.9,4.3c1.9,0,3.7,0,5.9,0c-0.1,2-0.2,3.4-0.3,5
	c-4.5-0.4-8.3,0-9.7,4.4c-1.1,3.4-1.9,7-2.2,10.6c-0.3,3,1.3,5.5,4.6,5.9c3.2,0.4,4.4-1.8,4.9-4.5c0.7-3.1,1.4-6.2,2.1-9.3
	c0.5,2.6,0.1,5.3,0.5,7.8c0.9,5-3.5,12.4,5.2,14.1c4.2,0.9,5.5-2.7,5.5-14c0-3,0-6.1,0-9.1c2.1,4.6,4.1,8.5,10.1,7.7
	c-0.3,0.7-0.5,1.3-0.7,1.7c-1.5,2.8-0.9,5.2,1.7,6.9c2.7,1.8,5.3,1.6,7.5-0.8c1.4-1.5,2.9-3.1,4-4.8c2.3-3.7,4.3-7.6,6.6-11.7
	c0,4.7,0,8.9,0,13.2c-0.4-0.3-0.8-0.5-1.2-0.8c-1.5,1.9-4.5,3.9-4.3,5.6c0.3,2.2,2.7,5,4.8,5.8C313.3,541.1,318.7,537.6,320.7,532.4
	 M316.2,371.7c-6-0.7-8.2,1.3-8.4,7.8c-0.2,8.2-0.2,8.2-8.5,8.2c-4,0-8.1-0.7-9.5,3.4c-2.6-1.5-5.1-2.9-8.2-4.7c0-0.5,0-2,0-3.5
	c0-1.5,0-3.1,0-4.6c-0.2-4.2-2.3-6.7-5.8-6.8c-3.7-0.1-6.1,2.4-6.3,6.8c-0.1,3.6,0,7.2,0,11c-4,0.6-7.8,1.3-8.8,5.6
	c-1.1,4.5-1.9,9-2.5,13.6c-0.3,2.7,1,5,4,5.4c2.9,0.4,4.4-1.2,5-3.9c0.7-2.9,1.3-5.9,2.2-9.9c0,15.4,0,29.8,0,44.1
	c0,1.5,0,3.1,0.2,4.6c0.6,3.2,2.8,4.9,5.9,4.9c3.1,0,5.3-1.7,5.9-4.9c0.3-1.5,0.2-3.1,0.2-4.6c0-15.3,0-30.6,0-45.8
	c1.2,1.3,1.5,3,2.4,4.3c0.8,1.1,2.2,2.7,3.2,2.6c1.5-0.1,3.1-1.4,4.4-2.4c1.1-0.8,2-2,3-3c0.4,1.5,1.2,2.9,1.2,4.4
	c0.2,10.9,0,21.8,0.5,32.6c0.4,9.3,4.8,13.3,14.1,13.7c7,0.3,13.9,0.2,20.9,0.1c4.1,0,6.5-2.3,6.5-6c0-3.6-2.4-5.7-6.7-5.8
	c-5.3-0.1-10.6,0-15.9,0c-5.7,0-6.4-0.6-6.5-6.1c-0.1-9.8,0.1-19.5-0.1-29.3c-0.1-3.1,1.2-3.8,3.9-3.7c6.7,0.1,13.4,0.1,20.1,0
	c4.5-0.1,7.2-2.3,7.2-5.8c0.1-3.7-2.7-6.1-7.4-6.1c-3.9-0.1-7.7,0-12.1,0c0-3.3,0.5-6.1-0.1-8.7C319.8,376.4,318,374.2,316.2,371.7
	 M309.6,600.4c3.2,0,6.4-0.1,9.6,0.1c1.1,0.1,2.6,0.6,3,1.4c2,3.7,5.2,2.9,8.1,2.2c3.2-0.7,4.9-3.1,4.9-6.4c0-10.3,0.1-20.6-0.1-31
	c-0.1-4.6-3.1-7.2-8-7.3c-4.7-0.2-9.5,0-14.2,0c-2.4,0-4.9,0-7.7,0c0-3.2,0.2-5.7,0-8.2c-0.4-4.2-3-6.6-6.8-6.4
	c-3.8,0.1-6.1,2.6-6.4,6.8c-0.1,2.5,0,4.9,0,7.8c-7.3,0-14-0.1-20.6,0c-4.9,0.1-8.4,2.3-8.5,6.3c-0.3,11.3-0.3,22.6,0.1,33.9
	c0.1,1.8,2.7,4.3,4.7,4.8c2,0.6,5.5-0.1,6.5-1.6c1.5-2.2,2.9-2.5,5.1-2.4c2.5,0.1,5,0.2,7.5,0c3.9-0.4,5.5,0.8,5.2,5
	c-0.3,4.7-0.3,9.5,0,14.2c0.1,1.9,0.8,4.5,2.2,5.5c1.7,1.2,4.8,2,6.4,1.2c2-1,4-3.7,4.3-5.8c0.6-5.5,0.4-11.1,0.3-16.7
	C305.3,601.1,306.3,600.1,309.6,600.4z"/>
<path class="st18" d="M1107.4,1064.4c-2.5,0.2-4.5,0.6-6.6,0.5c-20.2-0.2-40.5-0.1-60.7-0.9c-17.5-0.7-35-2.6-52.6-3.7
	c-10-0.6-20.1-0.4-30.1-1.1c-17.6-1.4-35.2-3.2-52.8-4.9c-2.1-0.2-4.1-0.8-6.1-1.4c-8.4-2.6-12.4-8.2-12.6-17.1
	c-0.4-18.2,2.7-36.1,5.3-54c4.7-31.9,13-63.1,19.3-94.6c3.8-19,7.1-38.1,13.6-56.4c0.5-1.3,0.8-2.7,1.3-4c2.3-6.6,4.1-7.8,11-7.8
	c14.2,0.1,28.5,1.1,42.6,0c30.2-2.6,60.5-2,90.7-2.5c25.7-0.4,51.3-0.5,76.7,4.5c17.6,3.5,20.4,7,21.8,25
	c1.8,23.3,0.5,46.5-2.8,69.6c-3,21.4-4.8,42.9-7.4,64.4c-1.3,10.8-3,21.5-4.6,32.3c-1.4,9.5-2.9,19-4.4,28.5c-0.2,1.2-0.7,2.4-1,3.6
	c-3,10.8-9.5,17.4-21.2,18.2C1120.6,1062.9,1114.2,1063.7,1107.4,1064.4 M998.4,1026c4.2,3.3,7.5,3,10.5-1.5
	c4.4-6.6,8.7-13.3,12.7-20.2c4.5-7.5,8.7-15.2,13-22.9c1.3-2.4,2.7-2.7,5-1c4.6,3.6,9.2,7.4,14.1,10.5c8.3,5.3,16.8,10.3,25.4,15.1
	c2.8,1.6,6.5,1.9,8.4-0.9c1.4-2.1,1.3-5.3,1.6-8.1c0.1-1.2-0.5-2.4-0.9-3.6c-4.2-14.9-8.4-29.8-12.8-44.6c-0.7-2.5-0.4-4.1,1.7-5.7
	c8.1-6.1,16.2-12.4,24.2-18.7c3.3-2.6,6.7-5.2,9.4-8.3c1.3-1.5,2-4.5,1.4-6.4c-0.5-1.6-3.1-3.5-4.9-3.6c-6.1-0.3-12.3-0.1-18.4,0.3
	c-9.6,0.6-19.2,1.3-28.7,2.1c-3.2,0.3-4.3-1.1-4-4.1c0.8-9.9,1.6-19.7,2.1-29.6c0.4-8.3,0.5-16.7,0.2-25.1c-0.1-1.9-1.9-4.8-3.6-5.3
	c-1.6-0.6-5,0.6-6,2.1c-10.9,15.3-21.6,30.8-32.1,46.4c-3,4.4-5.6,9.2-8.6,14.2c-1.2-1.5-2-2.2-2.6-3.1c-7.6-10.5-15.2-21-22.9-31.4
	c-1.7-2.3-3.7-4.6-6.1-6.3c-1.4-1-4-1.6-5.3-0.8c-1.5,0.8-2.5,3.2-2.8,5c-0.3,2,0.6,4.1,0.6,6.2c0.1,17.7,4.1,34.8,7.5,52
	c0.9,4.4,0.2,6.5-4,8.3c-8.8,3.8-17.5,8-26.2,12.2c-2.9,1.4-5.5,3.3-4.7,7c0.7,3.4,3.4,4.6,6.5,5c3.4,0.5,6.9,0.7,10.4,1.3
	c11.1,1.7,22.2,3.8,33.4,5.1c4.1,0.5,5,1.8,4.9,5.6c-0.1,14.6-0.1,29.3,0.1,43.9C996.8,1020,997.6,1022.7,998.4,1026z"/>
<path class="st12" d="M778.2,838.2c4.7,0.6,9,0.8,13.2,1.7c9.1,2,14,7.1,14.9,16.3c1.1,10.5,1.9,21.1-0.5,31.6
	c-1.8,8-9.7,17.2-20.1,16.7c-13.5-0.7-27.1,0-40.6-0.2c-17-0.3-34-1-50.9-1.7c-19.7-0.8-39.5-1.6-59.2-2.5
	c-4.7-0.2-9.4-0.7-14.1-1.5c-9.6-1.7-13.2-5-13.5-14.6c-0.4-13.7,0.7-27.3,6-40.2c2.6-6.3,8.7-8.1,14.7-8.8c8.3-1,16.6-1.5,25-1.7
	c16.7-0.5,33.5-1.3,50.2-0.7c17.1,0.5,34.1,2.4,51.2,3.8C762.3,836.9,770,837.5,778.2,838.2 M678.8,890.8c3.6,0,7.3-0.2,10.9,0.1
	c2.5,0.2,3.8-0.6,4.6-3c3-9,6.1-17.9,9.2-26.9c1.9-5.5,3.9-11,6.3-17.8c-9.4,0-17.9-0.1-26.5,0.1c-0.8,0-1.9,1.4-2.2,2.4
	c-4.1,13.3-8.2,26.6-12.2,40c-0.4,1.4-0.6,2.9-1,5.1C671.7,890.8,674.8,890.8,678.8,890.8 M707,891.5c6.3,0.3,12.5,0.5,18.8,0.9
	c2.8,0.2,4.2-0.6,5.1-3.5c4.3-13.1,8.8-26.2,13.2-39.2c0.3-0.9,0.3-1.8,0.5-3c-8.1-0.6-15.8-1.3-23.6-1.7c-1,0-2.6,1.4-3,2.4
	c-4.2,13.6-8.3,27.2-12.3,40.9C705.5,889.2,706.1,890.4,707,891.5 M670.8,846.1c0.1-0.9,0.3-1.7,0.5-2.9c-6.1,0-11.8-0.2-17.5,0.1
	c-1.3,0.1-3.2,1.6-3.6,2.8c-4.3,13-8.3,26-12.4,39.1c-0.4,1.4-0.8,2.8-1.2,4.2c6,0,11.4-0.1,16.9,0c2.6,0.1,3.4-1.2,4.2-3.5
	C661.8,872.9,666.2,859.8,670.8,846.1 M750.4,862c-3,10.1-5.9,20.2-9,30.8c4.2,0,8,0,11.7,0c9.2-0.1,9.2-0.1,11.6-8.7
	c0.2-0.5,0.3-1.1,0.5-1.6c3.1-10.9,6.2-21.9,9.4-33.2c-6.1-0.6-12-1.2-18-1.5c-0.9,0-2.3,1.4-2.7,2.4
	C752.6,853.8,751.6,857.6,750.4,862 M795.6,853.9c-3.2-3.8-7.7-3-11.9-4c-3.5,14.3-6.9,28.2-10.4,42.4c2.7,0,4.9,0,7.2,0
	c13.5,0,14,0.1,15.5-13.4C796.8,870.9,796,862.6,795.6,853.9 M621.5,845.2c-0.9,1.5-2.2,2.9-2.5,4.5c-0.7,3.3-1.1,6.6-1.3,9.9
	c-0.3,8.1-0.4,16.1-0.7,24.2c-0.1,4,2.6,4.7,5.6,5.3c3.3,0.7,3.6-1.9,4.3-3.9c4-11.6,8-23.2,12-34.8c0.8-2.2,1.6-4.4,2.8-7.9
	C634.6,843.5,628.4,844.2,621.5,845.2z"/>
<path class="st19" d="M872,463.1c3.8-6.6,8.8-11.5,15.1-15.1c14.5-8.2,28.9-2.8,34,12.9c5.1,15.5,4.2,30.8-2.4,45.7
	c-5.6,12.6-18.2,19.8-31.9,18.2c-11.4-1.3-16.8-9.3-19.8-19.1C862.5,491,863.9,476.8,872,463.1 M895,455.2
	c-6,2.5-10.5,6.7-13.7,12.3c-7.5,13.3-6.9,27.2-2.9,41.3c0.3,1,0.9,2.1,1.6,2.9c2.2,2.9,3.8,2.9,5.5-0.3c3.8-7.3,7.5-14.6,11.2-22
	c0.3-0.7,0.2-1.6,0.3-2.5c-0.9-0.2-1.5-0.5-2.2-0.5c-6.3-0.5-7.7-2.7-4.8-8.2c3-5.8,6.3-11.5,9.5-17.2c1-1.9,2.1-3.8,3.6-6.6
	C899.9,454.6,897.8,454.8,895,455.2 M906.6,481.4c0.1,2.3,0.9,5,0.1,7c-2.9,7.2-6.4,14.2-9.7,21.3c-0.5,1.2-1,2.4-1.9,4.5
	c9.4-2.3,13.5-8.4,16.1-15.8c4.5-12.9,4.8-25.8-0.8-38.3c-0.6-0.1-1.1-0.2-1.7-0.4c-3.1,6.3-6.3,12.6-9.5,19.1
	C902.1,479.6,904.1,480.3,906.6,481.4z"/>
<path class="st19" d="M946.9,475.2c3.5-8.8,7.8-16.5,15.1-22.5c14.4-11.8,33.1-6.9,39,10.8c4.4,13.3,2.1,26.1-3.1,38.7
	c-3.4,8.1-8.3,15.1-15.6,20.3c-17,12-37.3,2.6-39.3-18.1C942,494.3,943.8,484.9,946.9,475.2 M967.1,502.6c2.7-5.4,5.4-10.7,8.3-16.4
	c-1.5-0.4-2-0.6-2.5-0.6c-7.8-0.8-9.6-3.7-6.2-10.8c2.5-5.2,5.9-10.1,8.9-15.1c0.7-1.2,1.3-2.4,2.2-4.2c-5.1-0.2-8.4,1.8-11.2,4.6
	c-12.7,12.9-16.5,28.7-13.7,46.1c0.6,3.8,3.9,7.2,5.9,10.8c0.5-0.2,1-0.3,1.5-0.5C962.5,512.1,964.6,507.6,967.1,502.6 M995,476.8
	c0.2-7.9-1.8-14.7-9-19.9c-3.6,6.6-6.9,12.8-10.4,19.1c1.3,0.6,2,1.1,2.8,1.2c8.7,0.5,8.8,5.6,5.6,12.5c-2.5,5.3-5.4,10.4-8,15.6
	c-2,4-4,8-6.3,12.6C982.4,515.4,995,494.7,995,476.8z"/>
<path class="st20" d="M909.2,559.6c-1.1-1.6-2.6-3-2.7-4.4c-0.1-2,0.4-4.9,1.7-5.8c1.3-0.9,4.6-0.6,5.9,0.5c4.9,4,9.4,4.8,14.8,1.1
	c2.4-1.7,5.5-1.8,7.4,1.1c1.9,2.9,0.9,5.6-1.6,7.8C927.5,566.2,918.5,566.2,909.2,559.6z"/>
<path class="st19" d="M933,528.1c-0.8,1.2-1.7,2.4-3.2,3.6c-1.7,0.1-2.7,0.1-3.7,0.1c-3.7-2.2-3-5.5-2.2-9.4c0.3-1,0.4-1.6,0.4-2.1
	c0.4-1.2,0.5-2.7,1.3-3.4c1.2-1.1,3.1-2.4,4.5-2.1c1.5,0.3,3.4,2.1,3.7,3.5c0.6,2.4,0.1,5-0.2,8.1
	C933.2,527.4,933.1,527.8,933,528.1z"/>
<path class="st15" d="M719.8,631.4c0.3-0.4,1-0.9,1.6-0.9c10.6,0.1,21.2,0.2,32.1,0.5c-5.8,0.5-11.9,0.9-18,1
	C730.4,632.2,725.2,631.8,719.8,631.4z"/>
<path class="st15" d="M703.8,630.6c2.9-0.1,6.2-0.1,9.6,0.2C710.4,630.9,707.3,630.8,703.8,630.6z"/>
<path class="st15" d="M784.2,629.4c0.9-0.4,2.2-0.7,3.6-0.8C786.9,629,785.7,629.2,784.2,629.4z"/>
<path class="st10" d="M926.2,532.1c0.9-0.2,1.9-0.3,3.3-0.2C928.7,532,927.6,532.2,926.2,532.1z"/>
<path class="st15" d="M696.2,629.8c0.8-0.1,1.8-0.1,3,0.2C698.4,630.1,697.4,630,696.2,629.8z"/>
<path class="st15" d="M790.9,628.5c0.4-0.3,1.1-0.6,2-0.8C792.4,628.1,791.8,628.3,790.9,628.5z"/>
<path class="st15" d="M685.4,628c0.6-0.1,1.3,0,2.2,0.2C686.9,628.3,686.2,628.2,685.4,628z"/>
<path class="st15" d="M795.1,627.6c0.4-0.3,1.2-0.6,2-0.7C796.6,627.3,796,627.5,795.1,627.6z"/>
<path class="st15" d="M690.4,628.9c0.6-0.1,1.3-0.1,2.2,0.2C691.9,629.2,691.3,629.1,690.4,628.9z"/>
<path class="st10" d="M924.1,520.6c0.1,0.4,0,0.9-0.2,1.6C923.8,521.8,923.9,521.2,924.1,520.6z"/>
<path class="st15" d="M681.9,627.2c0.3-0.1,0.8-0.1,1.4,0.1C683,627.5,682.5,627.4,681.9,627.2z"/>
<path class="st15" d="M800.9,626.6c0.2-0.3,0.7-0.5,1.3-0.6C801.9,626.3,801.5,626.5,800.9,626.6z"/>
<path class="st15" d="M674.4,625.5c0.3-0.1,0.8-0.1,1.4,0.1C675.4,625.7,675,625.7,674.4,625.5z"/>
<path class="st15" d="M807.6,625c0.3-0.4,0.9-0.7,1.7-1C809,624.3,808.4,624.7,807.6,625z"/>
<path class="st15" d="M816,622.5c0.3-0.4,0.9-0.7,1.7-1C817.4,621.9,816.8,622.2,816,622.5z"/>
<path class="st10" d="M933.1,528.1c0-0.3,0.1-0.7,0.4-1.2C933.6,527.1,933.4,527.6,933.1,528.1z"/>
<path class="st15" d="M823.5,620.1c0.2-0.3,0.7-0.6,1.3-0.7C824.5,619.7,824.1,619.9,823.5,620.1z"/>
<path class="st15" d="M833.6,616.8c0.3-0.4,0.9-0.8,1.7-1.2C835,616,834.4,616.4,833.6,616.8z"/>
<path class="st20" d="M946.7,254c1.3-2,2.5-3.6,3.7-5.3c-3.9-2.8-14.1-1.7-18.4,2c-5.3,4.5-8.1,10.6-9.2,17.4
	c-0.7,4.4,0.5,8.2,3.8,11.4c1.1,1.1,1.1,3.3,1.6,5c-1.8,0.1-3.8,0.8-5.4,0.2c-6.9-2.5-10.8-10.8-8.6-19.7
	c5.1-20.5,14.7-27.9,34.9-27.5c1.5,0,3.3,0.1,4.5,0.8c5.4,3.4,10.9,2.4,16.8,1.2c7.4-1.6,14.8-0.9,21.1,4.1c6.4,5.1,7.9,12.4,7.4,20
	c-0.5,7.8-4.2,14.4-9.9,19.8c-3.3,3.1-7,3.3-9.3,0.8c-2.2-2.4-1.7-5.7,1.4-8.8c4.8-4.9,8.2-10.2,6.6-17.5c-1.1-5.2-3.7-7.7-9-8.4
	c-1.4-0.2-2.8-0.2-4.2-0.1c-6.3,0.2-6.5,0.6-6.2,6.9c0.2,3.3,0.3,6.7-0.2,10c-1.3,7.8-7.8,12.1-15.3,10.5
	c-7.6-1.6-10.9-6.9-9.1-15.1C944.2,259.1,945.6,256.7,946.7,254 M956.4,267.4c2.7-3.3,3.1-7.1,0.4-11.6c-1.5,3.1-3.2,5.6-4.1,8.3
	C952.1,266.3,953,268,956.4,267.4z"/>
<path class="st0" d="M714.3,621.6c5.1-0.3,10.1-0.2,15.6-0.1c0.7,1.4,1.1,2.7,1.6,4.7c-5.4,0-10.6,0.2-15.7-0.1
	C713.1,625.9,713.8,623.7,714.3,621.6z"/>
<path class="st15" d="M740.5,621.7c1.9-0.2,4,0,6.3,0.3C744.9,622.1,742.8,622,740.5,621.7z"/>
<path class="st15" d="M753.2,622.1c0.4-0.1,1.1-0.2,2.1-0.2C754.8,622.1,754.2,622.1,753.2,622.1z"/>
<path class="st21" d="M320.6,532.7c-1.9,4.9-7.4,8.3-11.7,6.7c-2.1-0.8-4.5-3.6-4.8-5.8c-0.2-1.7,2.7-3.7,4.3-5.6
	c0.4,0.3,0.8,0.5,1.2,0.8c0-4.3,0-8.5,0-13.2c-2.3,4.1-4.4,8-6.6,11.7c-1.1,1.8-2.6,3.3-4,4.8c-2.2,2.5-4.9,2.6-7.5,0.8
	c-2.6-1.7-3.2-4.1-1.7-6.9c0.3-0.5,0.4-1,0.7-1.7c-6.1,0.8-8-3.1-10.1-7.7c0,3,0,6.1,0,9.1c0,11.3-1.3,14.8-5.5,14
	c-8.7-1.8-4.3-9.1-5.2-14.1c-0.4-2.5-0.1-5.2-0.5-7.8c-0.7,3.1-1.4,6.2-2.1,9.3c-0.6,2.7-1.7,4.9-4.9,4.5c-3.4-0.4-4.9-2.9-4.6-5.9
	c0.3-3.6,1.1-7.2,2.2-10.6c1.4-4.5,5.2-4.9,9.7-4.4c0.1-1.6,0.2-3,0.3-5c-2.1,0-4,0-5.9,0c-2.9-0.1-5.2-1.3-5.9-4.3
	c-0.6-3.1,0.8-4.9,3.7-6.1c4.8-1.9,5.3-3.9,2.3-8c-1.2-1.7-2.7-3.2-3.8-5c-2.4-3.9-0.7-8.8,3.4-10.8c1.2-0.6,2.1-2,2.7-3.2
	c1-1.8,1.5-3.9,2.5-5.7c1.6-3,4.2-4.2,7.4-2.7c3.3,1.6,3.4,4.5,1.9,7.5c-1.7,3.2-3.6,6.3-5.2,9.5c-0.5,1-0.5,2.2-0.8,3.4
	c0.4,0.1,0.8,0.3,1.1,0.4c1.3-2.2,2.4-4.6,4-6.6c1.3-1.6,3.1-3.3,5-3.9c1.3-0.4,3.8,0.7,4.6,1.9c0.8,1.3,0.7,3.7,0.1,5.3
	c-0.7,1.9-2.2,3.5-3.4,5.2c-1.2,1.7-2.3,3.4-3.9,5.7c7.8-1.5,10.3,3.2,11.5,8.7c1.2,5.9,4,8.4,10.2,7.8c2.7-0.3,5.5,0.6,8.5,1
	c0-1.8,0-3.6,0-6c-2.6,0-5,0.1-7.5,0c-5.9-0.2-8.6-2.9-8.8-8.8c-0.1-5.4-0.1-10.9,0-16.3c0.2-5.8,2.8-8.4,8.6-8.5
	c3.1,0,5.1-0.6,6.6-3.7c1.5-3,4.6-4.5,8.1-3.9c3.8,0.7,4.9,3.3,3.9,7.5c2.7,0,5-0.1,7.3,0c5.9,0.3,8.5,3,8.7,9c0.1,5,0.1,10,0,15.1
	c-0.1,6.9-2.7,9.6-9.7,9.7c-1.7,0-3.3,0-5.9,0c1,2.9,1.7,5.3,2.7,8.2c1.6-1.3,2.8-2.4,4.1-3.3c3-2.1,6.8-1.7,8.6,1
	c2.1,3.1,0.6,5.5-1.9,7.5c-1.5,1.2-3,2.4-5.1,4.1c2.2,2,4.1,3.7,6,5.4c3.4,3.1,3.9,6.3,1.4,9c-2.7,3-6.2,2.8-9.3-0.6
	c-2.1-2.2-3.9-4.6-6.4-7.6C321,526.8,320.8,529.6,320.6,532.7 M288.4,512.5c1.6,3.1,3.1,6.3,4.9,9.8c1.4-2.2,3-4.5,4.9-7.5
	c-6.2-0.5-6.3-4.9-6.7-7.8c-2.9-0.5-5.3-0.8-7.6-1.3c-0.9-0.2-1.8-0.9-2.6-1.3c-0.3,1-0.7,2-0.8,3c-0.1,1.2,0.1,2.4,0.2,2.9
	C283.4,511,285.6,511.5,288.4,512.5 M324.2,489.3c-0.7-0.7-1.3-2-2-2c-5-0.2-10-0.2-15.1-0.1c-0.8,0-1.5,0.7-2.3,1.1
	c0.8,0.5,1.6,1.5,2.4,1.5C312.7,489.9,318.1,489.8,324.2,489.3 M315.3,475.5c-2.9,0-5.9-0.1-8.8,0.1c-0.6,0-1.1,0.8-1.7,1.3
	c0.6,0.4,1.2,1.3,1.7,1.3c5.4,0.1,10.9,0.1,16.3,0c0.5,0,1-0.7,1.5-1.1c-0.5-0.5-1-1.4-1.5-1.4C320.6,475.4,318.4,475.5,315.3,475.5
	z"/>
<path class="st22" d="M316.5,371.8c1.5,2.4,3.3,4.6,3.9,7.1c0.6,2.6,0.1,5.5,0.1,8.7c4.4,0,8.2,0,12.1,0c4.7,0.1,7.5,2.4,7.4,6.1
	c-0.1,3.5-2.7,5.7-7.2,5.8c-6.7,0.1-13.4,0.1-20.1,0c-2.8-0.1-4,0.6-3.9,3.7c0.2,9.8,0,19.5,0.1,29.3c0.1,5.5,0.8,6.1,6.5,6.1
	c5.3,0,10.6-0.1,15.9,0c4.3,0,6.7,2.2,6.7,5.8c0,3.7-2.4,6-6.5,6c-7,0.1-14,0.2-20.9-0.1c-9.2-0.3-13.6-4.4-14.1-13.7
	c-0.5-10.9-0.3-21.7-0.5-32.6c0-1.5-0.8-2.9-1.2-4.4c-1,1-1.9,2.2-3,3c-1.4,1-2.9,2.3-4.4,2.4c-1,0.1-2.5-1.5-3.2-2.6
	c-0.9-1.3-1.2-2.9-2.4-4.3c0,15.3,0,30.6,0,45.8c0,1.5,0.1,3.1-0.2,4.6c-0.6,3.2-2.8,4.9-5.9,4.9c-3.1,0-5.3-1.7-5.9-4.9
	c-0.3-1.5-0.2-3.1-0.2-4.6c0-14.4,0-28.7,0-44.1c-0.9,4-1.6,6.9-2.2,9.9c-0.6,2.7-2.1,4.3-5,3.9c-3-0.4-4.4-2.7-4-5.4
	c0.6-4.6,1.4-9.1,2.5-13.6c1-4.3,4.8-5,8.8-5.6c0-3.7-0.1-7.3,0-11c0.1-4.4,2.6-6.9,6.3-6.8c3.5,0.1,5.7,2.6,5.8,6.8
	c0.1,1.5,0,3.1,0,4.6c0,1.5,0,3,0,3.5c3.2,1.8,5.6,3.2,8.2,4.7c1.3-4,5.5-3.4,9.5-3.4c8.3,0,8.3,0,8.5-8.2
	C308,373,310.2,371,316.5,371.8z"/>
<path class="st22" d="M309.2,600.4c-2.9-0.3-3.9,0.7-3.8,3.3c0.1,5.6,0.4,11.2-0.3,16.7c-0.2,2.2-2.3,4.9-4.3,5.8
	c-1.6,0.8-4.7,0-6.4-1.2c-1.4-1-2.1-3.6-2.2-5.5c-0.3-4.7-0.4-9.5,0-14.2c0.3-4.2-1.3-5.4-5.2-5c-2.5,0.3-5,0.1-7.5,0
	c-2.2-0.1-3.6,0.2-5.1,2.4c-1,1.4-4.6,2.2-6.5,1.6c-1.9-0.6-4.6-3.1-4.7-4.8c-0.4-11.3-0.4-22.6-0.1-33.9c0.1-4,3.5-6.2,8.5-6.3
	c6.7-0.1,13.3,0,20.6,0c0-2.9-0.1-5.3,0-7.8c0.2-4.3,2.6-6.7,6.4-6.8c3.8-0.1,6.4,2.2,6.8,6.4c0.2,2.5,0,5,0,8.2c2.8,0,5.3,0,7.7,0
	c4.7,0,9.5-0.1,14.2,0c4.9,0.2,7.9,2.7,8,7.3c0.2,10.3,0.1,20.6,0.1,31c0,3.3-1.8,5.7-4.9,6.4c-2.9,0.7-6.1,1.5-8.1-2.2
	c-0.4-0.8-2-1.4-3-1.4C316,600.3,312.8,600.4,309.2,600.4 M275.4,579c0,2.9,0,5.7,0,9c5.2,0,9.8,0.1,14.3-0.1c0.8,0,2.2-1.1,2.2-1.7
	c0.2-4.7,0.1-9.4,0.1-14.1c-5.9,0-11.1,0-16.6,0C275.4,574.3,275.4,576.3,275.4,579 M305.4,580.6c0,2.3,0,4.6,0,7.3
	c5.2,0,9.8,0.1,14.4-0.1c0.8,0,2.2-1,2.3-1.7c0.2-4.7,0.1-9.4,0.1-14.1c-5.8,0-11.1,0-16.7,0C305.4,574.9,305.4,577.3,305.4,580.6z"
	/>
<path class="st23" d="M998.2,1025.8c-0.6-3-1.4-5.7-1.4-8.5c-0.2-14.6-0.3-29.3-0.1-43.9c0-3.8-0.8-5.1-4.9-5.6
	c-11.2-1.3-22.3-3.4-33.4-5.1c-3.4-0.5-6.9-0.8-10.4-1.3c-3.1-0.4-5.8-1.6-6.5-5c-0.7-3.7,1.9-5.7,4.7-7c8.7-4.2,17.3-8.4,26.2-12.2
	c4.2-1.8,4.8-3.9,4-8.3c-3.4-17.2-7.4-34.3-7.5-52c0-2.1-0.9-4.2-0.6-6.2c0.3-1.8,1.3-4.2,2.8-5c1.3-0.7,4-0.1,5.3,0.8
	c2.3,1.7,4.3,3.9,6.1,6.3c7.7,10.4,15.3,20.9,22.9,31.4c0.6,0.9,1.4,1.6,2.6,3.1c3-5,5.6-9.8,8.6-14.2c10.6-15.5,21.2-31,32.1-46.4
	c1.1-1.5,4.4-2.7,6-2.1c1.7,0.6,3.5,3.4,3.6,5.3c0.3,8.3,0.2,16.7-0.2,25.1c-0.5,9.9-1.3,19.7-2.1,29.6c-0.2,3.1,0.9,4.4,4,4.1
	c9.6-0.8,19.2-1.6,28.7-2.1c6.1-0.4,12.3-0.6,18.4-0.3c1.8,0.1,4.4,2,4.9,3.6c0.6,1.8-0.1,4.9-1.4,6.4c-2.7,3.1-6.1,5.7-9.4,8.3
	c-8,6.3-16,12.5-24.2,18.7c-2.1,1.6-2.4,3.2-1.7,5.7c4.4,14.8,8.5,29.8,12.8,44.6c0.3,1.2,1,2.5,0.9,3.6c-0.3,2.7-0.2,6-1.6,8.1
	c-1.9,2.8-5.7,2.5-8.4,0.9c-8.6-4.8-17.1-9.8-25.4-15.1c-4.9-3.1-9.5-6.9-14.1-10.5c-2.2-1.7-3.6-1.4-5,1c-4.3,7.7-8.5,15.4-13,22.9
	c-4.1,6.8-8.3,13.6-12.7,20.2C1005.8,1029,1002.6,1029.3,998.2,1025.8 M982,942.9c-6,3-12.1,6-18.9,9.5c1.6,0.4,2.2,0.6,2.9,0.7
	c10.9,1.6,21.8,3.1,32.6,4.8c5.9,0.9,7.2,2.7,7.3,8.7c0.3,12.1,0.6,24.2,0.9,36.4c0,1,0.3,2.1,0.7,4.3c1.4-2,2.1-3.1,2.8-4.2
	c6.3-10.7,12.4-21.5,18.9-32.1c3.1-5.1,6.4-5.7,11.2-2.3c6.1,4.4,12,9.1,18,13.6c5.5,4.1,11.1,8,16.7,11.9c0.3-0.3,0.7-0.7,1-1
	c-0.3-1.2-0.5-2.3-0.8-3.5c-4-13.8-7.9-27.6-11.9-41.4c-1.3-4.6-0.6-8.4,3.5-11.5c6-4.5,11.9-9.2,17.8-13.9c1.8-1.4,3.4-2.9,6-5.1
	c-2.4,0-3.7-0.1-4.9,0c-10.7,1-21.3,2.1-32,3.1c-6.2,0.6-10.4-2.6-10.1-8.2c0.5-9.2,1.4-18.3,2.1-27.5c0.5-6.1,0.9-12.3,1.4-18.4
	c-0.5-0.1-0.9-0.3-1.4-0.4c-2.9,4.2-5.9,8.3-8.7,12.5c-8.5,12.9-16.9,25.9-25.4,38.8c-1.5,2.3-3.4,4.1-6.2,2.6
	c-1.8-0.9-3.4-2.5-4.5-4.2c-3.9-5.8-7.4-11.8-11.3-17.6c-3.4-4.9-7.1-9.6-11.3-15.1c0,1.8-0.1,2.5,0,3.2c3,15.3,6,30.6,9.2,45.9
	C988.8,938.6,988.3,940,982,942.9z"/>
<path class="st24" d="M678.4,890.8c-3.6,0-6.7,0-10.5,0c0.4-2.2,0.6-3.7,1-5.1c4-13.3,8-26.7,12.2-40c0.3-1,1.5-2.4,2.2-2.4
	c8.6-0.2,17.1-0.1,26.5-0.1c-2.4,6.8-4.4,12.3-6.3,17.8c-3.1,8.9-6.2,17.9-9.2,26.9c-0.8,2.4-2.1,3.2-4.6,3
	C686.1,890.6,682.4,890.8,678.4,890.8z"/>
<path class="st24" d="M706.6,891.5c-0.5-1.1-1.1-2.3-0.8-3.2c4-13.6,8.1-27.3,12.3-40.9c0.3-1.1,2-2.5,3-2.4
	c7.8,0.4,15.5,1.1,23.6,1.7c-0.2,1.2-0.2,2.2-0.5,3c-4.4,13.1-9,26.1-13.2,39.2c-0.9,2.8-2.3,3.6-5.1,3.5
	C719.5,892,713.3,891.8,706.6,891.5z"/>
<path class="st25" d="M670.7,846.4c-4.5,13.4-8.9,26.5-13.1,39.6c-0.7,2.3-1.6,3.6-4.2,3.5c-5.4-0.1-10.8,0-16.9,0
	c0.4-1.5,0.7-2.9,1.2-4.2c4.1-13,8.1-26.1,12.4-39.1c0.4-1.3,2.3-2.8,3.6-2.8c5.7-0.3,11.4-0.1,17.5-0.1
	C671.1,844.4,670.9,845.3,670.7,846.4z"/>
<path class="st24" d="M750.5,861.7c1.2-4.1,2.1-7.9,3.5-11.5c0.4-1,1.8-2.4,2.7-2.4c5.9,0.3,11.9,1,18,1.5
	c-3.2,11.3-6.3,22.2-9.4,33.2c-0.2,0.5-0.3,1.1-0.5,1.6c-2.5,8.7-2.5,8.7-11.6,8.7c-3.7,0-7.5,0-11.7,0
	C744.5,882.2,747.4,872.1,750.5,861.7z"/>
<path class="st25" d="M795.8,854.1c0.2,8.5,1,16.7,0.2,24.8c-1.5,13.5-1.9,13.4-15.5,13.4c-2.2,0-4.4,0-7.2,0
	c3.5-14.3,6.9-28.1,10.4-42.4C787.9,850.9,792.5,850,795.8,854.1z"/>
<path class="st25" d="M621.8,845.1c6.6-0.9,12.8-1.6,20-2.4c-1.2,3.5-2.1,5.7-2.8,7.9c-4,11.6-8,23.2-12,34.8c-0.7,2-1,4.5-4.3,3.9
	c-3-0.6-5.8-1.4-5.6-5.3c0.2-8.1,0.3-16.1,0.7-24.2c0.1-3.3,0.5-6.7,1.3-9.9C619.3,848.1,620.6,846.7,621.8,845.1z"/>
<path class="st2" d="M895.3,455.1c2.5-0.3,4.6-0.4,7.7-0.7c-1.6,2.8-2.6,4.7-3.6,6.6c-3.2,5.7-6.5,11.4-9.5,17.2
	c-2.9,5.6-1.5,7.7,4.8,8.2c0.7,0.1,1.3,0.3,2.2,0.5c-0.1,0.9,0,1.8-0.3,2.5c-3.7,7.4-7.3,14.7-11.2,22c-1.7,3.2-3.3,3.2-5.5,0.3
	c-0.7-0.9-1.3-1.9-1.6-2.9c-4-14.1-4.5-28,2.9-41.3C884.4,461.8,889,457.7,895.3,455.1z"/>
<path class="st16" d="M906.4,481.2c-2.3-0.9-4.3-1.6-7.2-2.5c3.2-6.5,6.4-12.8,9.5-19.1c0.6,0.1,1.1,0.2,1.7,0.4
	c5.6,12.5,5.3,25.4,0.8,38.3c-2.6,7.4-6.7,13.5-16.1,15.8c0.9-2.1,1.4-3.3,1.9-4.5c3.3-7.1,6.7-14.1,9.7-21.3
	C907.5,486.4,906.7,483.8,906.4,481.2z"/>
<path class="st2" d="M967,502.8c-2.3,4.8-4.5,9.2-6.7,13.7c-0.5,0.2-1,0.3-1.5,0.5c-2-3.6-5.3-7-5.9-10.8
	c-2.8-17.4,1-33.2,13.7-46.1c2.7-2.8,6.1-4.8,11.2-4.6c-0.9,1.7-1.5,3-2.2,4.2c-3,5-6.4,9.8-8.9,15.1c-3.5,7.1-1.6,10,6.2,10.8
	c0.5,0.1,1.1,0.3,2.5,0.6C972.5,491.8,969.8,497.2,967,502.8z"/>
<path class="st26" d="M995,477.2c-0.1,17.4-12.7,38.2-25.4,40.7c2.3-4.6,4.3-8.6,6.3-12.6c2.7-5.2,5.6-10.3,8-15.6
	c3.2-6.8,3.1-12-5.6-12.5c-0.7,0-1.5-0.6-2.8-1.2c3.5-6.4,6.8-12.5,10.4-19.1C993.3,462.1,995.3,469,995,477.2z"/>
<path class="st9" d="M956.1,267.5c-3.1,0.5-4-1.3-3.3-3.4c0.9-2.7,2.5-5.2,4.1-8.3C959.5,260.3,959.1,264.1,956.1,267.5z"/>
<path class="st9" d="M288.1,512.3c-2.5-0.7-4.7-1.3-7.5-2c0-0.5-0.3-1.7-0.2-2.9c0.1-1,0.5-2,0.8-3c0.9,0.5,1.7,1.1,2.6,1.3
	c2.3,0.5,4.7,0.8,7.6,1.3c0.4,2.9,0.5,7.3,6.7,7.8c-2,3-3.5,5.3-4.9,7.5C291.5,518.8,289.9,515.6,288.1,512.3z"/>
<path class="st24" d="M323.9,489.6c-5.8,0.3-11.2,0.4-16.7,0.3c-0.8,0-1.6-1-2.4-1.5c0.8-0.4,1.5-1.1,2.3-1.1c5-0.1,10-0.1,15.1,0.1
	C322.9,487.3,323.5,488.6,323.9,489.6z"/>
<path class="st24" d="M315.7,475.5c2.6,0,4.9-0.1,7.1,0.1c0.5,0,1,0.9,1.5,1.4c-0.5,0.4-1,1.1-1.5,1.1c-5.4,0.1-10.9,0.1-16.3,0
	c-0.6,0-1.2-0.8-1.7-1.3c0.6-0.5,1.1-1.3,1.7-1.3C309.5,475.4,312.4,475.5,315.7,475.5z"/>
<path class="st24" d="M275.4,578.6c0-2.3,0-4.3,0-6.5c5.6,0,10.8,0,16.6,0c0,4.7,0.1,9.4-0.1,14.1c0,0.6-1.4,1.7-2.2,1.7
	c-4.6,0.2-9.1,0.1-14.3,0.1C275.4,584.7,275.4,581.9,275.4,578.6z"/>
<path class="st25" d="M305.4,580.2c0-2.9,0-5.4,0-8.1c5.7,0,10.9,0,16.7,0c0,4.7,0.1,9.4-0.1,14.1c0,0.6-1.5,1.6-2.3,1.7
	c-4.6,0.2-9.1,0.1-14.4,0.1C305.4,585.3,305.4,583,305.4,580.2z"/>
<path class="st7" d="M982.3,942.8c6-2.8,6.5-4.1,5.3-10.2c-3.2-15.3-6.1-30.6-9.2-45.9c-0.1-0.7,0-1.4,0-3.2
	c4.2,5.5,7.9,10.2,11.3,15.1c3.9,5.7,7.4,11.8,11.3,17.6c1.1,1.7,2.7,3.3,4.5,4.2c2.8,1.4,4.7-0.4,6.2-2.6
	c8.5-12.9,16.9-25.9,25.4-38.8c2.8-4.2,5.8-8.3,8.7-12.5c0.5,0.1,0.9,0.3,1.4,0.4c-0.5,6.1-0.9,12.3-1.4,18.4
	c-0.7,9.2-1.6,18.3-2.1,27.5c-0.3,5.6,3.9,8.8,10.1,8.2c10.7-1,21.3-2.1,32-3.1c1.2-0.1,2.4,0,4.9,0c-2.6,2.2-4.2,3.7-6,5.1
	c-5.9,4.7-11.8,9.4-17.8,13.9c-4.1,3.1-4.8,6.9-3.5,11.5c4,13.8,8,27.6,11.9,41.4c0.3,1.1,0.6,2.3,0.8,3.5c-0.3,0.3-0.7,0.7-1,1
	c-5.6-4-11.2-7.9-16.7-11.9c-6.1-4.5-11.9-9.2-18-13.6c-4.8-3.4-8.1-2.8-11.2,2.3c-6.5,10.6-12.6,21.4-18.9,32.1
	c-0.7,1.1-1.4,2.2-2.8,4.2c-0.3-2.2-0.6-3.3-0.7-4.3c-0.3-12.1-0.6-24.2-0.9-36.4c-0.1-6-1.4-7.8-7.3-8.7
	c-10.9-1.7-21.7-3.2-32.6-4.8c-0.6-0.1-1.3-0.3-2.9-0.7C970,948.9,976,945.9,982.3,942.8z"/>
</svg>
